<svg width="38" height="38" viewBox="0 0 38 38" fill="none" xmlns="http://www.w3.org/2000/svg">
<rect x="0.5" y="0.5" width="37" height="37" rx="9.5" fill="#F5F5F5"/>
<rect x="0.5" y="0.5" width="37" height="37" rx="9.5" stroke="#E0E0E0"/>
<g clip-path="url(#clip0_4901_19385)">
<mask id="path-2-outside-1_4901_19385" maskUnits="userSpaceOnUse" x="11.9684" y="9.54375" width="14.6609" height="19.1601" fill="black">
<rect fill="white" x="11.9684" y="9.54375" width="14.6609" height="19.1601"/>
<path d="M17.7042 12.8333L18.4626 14.2272C18.6097 14.4976 18.6734 14.8088 18.6446 15.1172C18.6159 15.4257 18.4962 15.7161 18.3023 15.9476L17.414 17.0041C16.8459 17.6908 17.1567 18.7398 18.1483 20.1981C19.0806 21.5703 19.8731 22.2161 20.6393 22.0169L20.7531 21.9801L22.6503 21.1628C22.741 21.1235 22.8413 21.1152 22.9373 21.1391C23.0332 21.1629 23.12 21.2178 23.1854 21.2958L24.6351 23.0312C24.7868 23.2125 24.8714 23.445 24.8731 23.6855C24.8748 23.926 24.7934 24.158 24.6442 24.3385L24.1839 24.8952C23.8891 25.2516 23.5025 25.5104 23.0701 25.6408C22.6376 25.7712 22.1774 25.7678 21.7442 25.631C20.0873 25.1081 18.4282 23.6451 16.7809 21.2218C15.1294 18.7929 14.3509 16.667 14.4234 14.8504C14.442 14.3784 14.5884 13.9231 14.8453 13.5383C15.1022 13.1534 15.459 12.855 15.8736 12.678L16.5253 12.4001C16.7366 12.3102 16.9726 12.3045 17.1891 12.3843C17.4057 12.464 17.5881 12.6237 17.7024 12.8335"/>
</mask>
<path d="M18.4626 14.2272L17.3206 14.8485L17.3207 14.8487L18.4626 14.2272ZM18.3023 15.9476L19.2973 16.7843L19.299 16.7822L18.3023 15.9476ZM17.414 17.0041L16.4189 16.1674L16.4123 16.1755L17.414 17.0041ZM18.1483 20.1981L19.2236 19.4676L19.2233 19.4671L18.1483 20.1981ZM20.6393 22.0169L20.9664 23.2751L21.0034 23.2655L21.0398 23.2537L20.6393 22.0169ZM20.7531 21.9801L21.1536 23.2168L21.2115 23.1981L21.2674 23.174L20.7531 21.9801ZM22.6503 21.1628L23.1646 22.3567L23.167 22.3557L22.6503 21.1628ZM22.9373 21.1391L23.251 19.8775L22.9373 21.1391ZM23.1854 21.2958L24.1831 20.4624L24.1821 20.4613L23.1854 21.2958ZM24.6351 23.0312L23.6374 23.8646L23.6382 23.8656L24.6351 23.0312ZM24.6442 24.3385L25.646 25.1669L25.6461 25.1669L24.6442 24.3385ZM24.1839 24.8952L25.1856 25.7237L25.1857 25.7236L24.1839 24.8952ZM21.7442 25.631L22.1357 24.3914L22.1355 24.3913L21.7442 25.631ZM16.7809 21.2218L17.8561 20.491L17.856 20.4908L16.7809 21.2218ZM14.4234 14.8504L15.7224 14.9022L15.7224 14.9016L14.4234 14.8504ZM15.8736 12.678L15.3636 11.4822L15.3633 11.4824L15.8736 12.678ZM16.5253 12.4001L16.0162 11.2039L16.0153 11.2043L16.5253 12.4001ZM17.7042 12.8333L16.5623 13.4546L17.3206 14.8485L18.4626 14.2272L19.6045 13.606L18.8462 12.212L17.7042 12.8333ZM18.4626 14.2272L17.3207 14.8487C17.3436 14.8908 17.3552 14.9434 17.3502 14.9966L18.6446 15.1172L19.939 15.2378C19.9916 14.6741 19.8758 14.1044 19.6044 13.6057L18.4626 14.2272ZM18.6446 15.1172L17.3502 14.9966C17.3453 15.0496 17.3255 15.0892 17.3056 15.113L18.3023 15.9476L19.299 16.7822C19.6669 16.3429 19.8865 15.8018 19.939 15.2378L18.6446 15.1172ZM18.3023 15.9476L17.3073 15.111L16.419 16.1675L17.414 17.0041L18.409 17.8407L19.2973 16.7843L18.3023 15.9476ZM17.414 17.0041L16.4123 16.1755C15.7915 16.9259 15.7366 17.8214 15.934 18.6227C16.12 19.3779 16.5483 20.1569 17.0733 20.9291L18.1483 20.1981L19.2233 19.4671C18.7568 18.781 18.5338 18.3064 18.4586 18.0008C18.4238 17.8599 18.4322 17.7998 18.4329 17.7956C18.4331 17.7945 18.4318 17.8021 18.4265 17.8138C18.4241 17.8192 18.4215 17.8239 18.4192 17.8276C18.4169 17.8313 18.4155 17.833 18.4157 17.8327L17.414 17.0041ZM18.1483 20.1981L17.073 20.9286C17.5669 21.6556 18.0939 22.2998 18.6756 22.7365C19.2817 23.1914 20.0743 23.507 20.9664 23.2751L20.6393 22.0169L20.3122 20.7587C20.438 20.726 20.4513 20.8183 20.2365 20.6571C19.9974 20.4776 19.662 20.1129 19.2236 19.4676L18.1483 20.1981ZM20.6393 22.0169L21.0398 23.2537L21.1536 23.2168L20.7531 21.9801L20.3526 20.7433L20.2388 20.7802L20.6393 22.0169ZM20.7531 21.9801L21.2674 23.174L23.1646 22.3567L22.6503 21.1628L22.1359 19.9688L20.2387 20.7862L20.7531 21.9801ZM22.6503 21.1628L23.167 22.3557C22.9957 22.4299 22.8042 22.4456 22.6235 22.4006L22.9373 21.1391L23.251 19.8775C22.8785 19.7848 22.4863 19.8171 22.1336 19.9699L22.6503 21.1628ZM22.9373 21.1391L22.6235 22.4006C22.4439 22.356 22.2943 22.2566 22.1886 22.1304L23.1854 21.2958L24.1821 20.4613C23.9457 20.1789 23.6226 19.9699 23.251 19.8775L22.9373 21.1391ZM23.1854 21.2958L22.1877 22.1293L23.6374 23.8646L24.6351 23.0312L25.6327 22.1978L24.1831 20.4624L23.1854 21.2958ZM24.6351 23.0312L23.6382 23.8656C23.5925 23.8111 23.5735 23.7504 23.5731 23.6946L24.8731 23.6855L26.1731 23.6764C26.1693 23.1396 25.9811 22.6139 25.6319 22.1968L24.6351 23.0312ZM24.8731 23.6855L23.5731 23.6946C23.5727 23.6385 23.5912 23.5719 23.6423 23.5101L24.6442 24.3385L25.6461 25.1669C25.9956 24.7442 26.1768 24.2134 26.1731 23.6764L24.8731 23.6855ZM24.6442 24.3385L23.6423 23.5101L23.182 24.0668L24.1839 24.8952L25.1857 25.7236L25.646 25.1669L24.6442 24.3385ZM24.1839 24.8952L23.1821 24.0667C23.0465 24.2307 22.8758 24.3415 22.6947 24.3962L23.0701 25.6408L23.4455 26.8854C24.1293 26.6792 24.7318 26.2725 25.1856 25.7237L24.1839 24.8952ZM23.0701 25.6408L22.6947 24.3962C22.5141 24.4506 22.3212 24.4499 22.1357 24.3914L21.7442 25.631L21.3527 26.8706C22.0337 27.0857 22.7611 27.0918 23.4455 26.8854L23.0701 25.6408ZM21.7442 25.631L22.1355 24.3913C20.8885 23.9977 19.4382 22.8185 17.8561 20.491L16.7809 21.2218L15.7058 21.9526C17.4182 24.4717 19.2862 26.2184 21.3529 26.8707L21.7442 25.631ZM16.7809 21.2218L17.856 20.4908C16.2754 18.1663 15.6658 16.3197 15.7224 14.9022L14.4234 14.8504L13.1245 14.7985C13.036 17.0144 13.9833 19.4195 15.7059 21.9528L16.7809 21.2218ZM14.4234 14.8504L15.7224 14.9016C15.7318 14.6636 15.8055 14.4414 15.9265 14.2601L14.8453 13.5383L13.7641 12.8165C13.3713 13.4049 13.1523 14.0931 13.1244 14.7991L14.4234 14.8504ZM14.8453 13.5383L15.9265 14.2601C16.0472 14.0794 16.208 13.9487 16.3838 13.8737L15.8736 12.678L15.3633 11.4824C14.7099 11.7612 14.1573 12.2275 13.7641 12.8165L14.8453 13.5383ZM15.8736 12.678L16.3835 13.8738L17.0353 13.5959L16.5253 12.4001L16.0153 11.2043L15.3636 11.4822L15.8736 12.678ZM16.5253 12.4001L17.0344 13.5963C16.9393 13.6367 16.8325 13.6383 16.74 13.6042L17.1891 12.3843L17.6383 11.1643C17.1126 10.9708 16.5339 10.9836 16.0162 11.2039L16.5253 12.4001ZM17.1891 12.3843L16.74 13.6042C16.6496 13.5709 16.5913 13.5115 16.5606 13.4551L17.7024 12.8335L18.8441 12.2118C18.5849 11.7359 18.1618 11.3571 17.6383 11.1643L17.1891 12.3843Z" fill="black" mask="url(#path-2-outside-1_4901_19385)"/>
</g>
<defs>
<clipPath id="clip0_4901_19385">
<rect width="17" height="17" fill="white" transform="translate(11 10.5)"/>
</clipPath>
</defs>
</svg>
