<svg width="337" height="217" viewBox="0 0 337 217" fill="none" xmlns="http://www.w3.org/2000/svg">
<path d="M82.3772 102.632C89.6668 134.485 104.761 172.667 111.201 178.863C119.347 186.701 173.259 201.074 175.948 201.366C182.608 202.04 195.946 153.944 188.857 152.916C178.062 151.351 138.816 149.209 136.464 146.785C134.024 144.251 117.461 123.292 100.427 99.6102C88.6711 83.2461 77.854 82.8676 82.3772 102.632Z" fill="#AD6359"/>
<path d="M170.602 198.772C171.396 199.176 182.66 204.861 189.625 206.886C194.821 208.398 209.896 212.346 212.122 206.771C213.646 202.97 205.053 199.601 199.03 197.083C195.858 195.756 191.947 192.424 192.882 190.377C194.517 186.799 202.685 190.392 208.057 193.524C218.444 199.581 232.281 210.482 238.627 205.194C241.023 203.195 238.238 199.555 234.163 195.987C240.775 200.146 247.827 203.558 250.576 201.444C252.154 200.239 252.227 198.586 251.348 196.698C253.389 197.363 255.193 197.234 256.451 195.899C258.6 193.642 257.553 190.312 255.201 186.897C255.955 186.818 256.633 186.433 257.153 185.61C261.704 178.648 238.928 158.659 231.05 156.788C207.873 151.26 183.453 152.289 183.453 152.289C174.352 159.588 170.584 198.757 170.602 198.772Z" fill="#AD6359"/>
<path d="M204.682 177.364C210.139 178.222 215.512 180.27 220.14 183.334C226.015 187.225 229.912 191.78 234.842 196.366C234.971 196.487 234.789 196.692 234.658 196.571C232.309 194.391 222.576 186.195 220.062 184.332C215.453 180.919 210.306 178.522 204.661 177.458C204.601 177.446 204.621 177.354 204.682 177.364Z" fill="#141414"/>
<path d="M209 167.496C215.091 169.167 221.332 170.857 226.985 173.748C233.172 176.911 238.014 182.069 242.774 187.032C245.633 190.013 248.43 193.053 251.15 196.162C251.263 196.293 251.09 196.498 250.967 196.367C246.136 191.24 241.154 186.252 236.02 181.431C231.19 176.895 225.804 173.423 219.617 171.058C216.132 169.726 212.551 168.664 208.976 167.605C208.91 167.585 208.932 167.477 209 167.496Z" fill="#141414"/>
<path d="M215.507 158.868C221.425 160.087 226.588 161.129 231.828 164.312C238.765 168.525 245.463 175.623 247.812 178.139C250.408 180.919 252.908 183.782 255.366 186.686C255.466 186.804 255.264 186.982 255.16 186.864C249.544 180.517 243.493 174.49 237.106 168.924C234.054 166.264 230.737 163.948 227.012 162.337C223.33 160.745 219.384 159.844 215.499 158.908C215.473 158.902 215.481 158.863 215.507 158.868Z" fill="#141414"/>
<path d="M179.723 150.32L163.143 203.021C163.143 203.021 118.255 190.164 110.053 181.285C101.851 172.407 86.7119 126.573 82.2575 104.357C77.804 82.1421 89 82.6911 99.2889 96.6986C109.578 110.706 135.193 144.653 136.625 145.39C138.057 146.129 179.723 150.32 179.723 150.32Z" fill="#99D6FF"/>
<path opacity="0.1" d="M179.723 150.32L163.143 203.021C163.143 203.021 118.255 190.164 110.053 181.285C101.851 172.407 86.7119 126.573 82.2575 104.357C77.804 82.1421 89 82.6911 99.2889 96.6986C109.578 110.706 135.193 144.653 136.625 145.39C138.057 146.129 179.723 150.32 179.723 150.32Z" fill="black"/>
<path d="M158.836 179.609C160.844 173.396 162.902 167.196 164.681 160.907C165.692 157.334 166.722 153.764 167.699 150.181C167.736 150.046 167.511 149.964 167.461 150.097C165.199 156.254 162.945 162.434 160.965 168.693C158.994 174.922 156.972 181.133 155.082 187.388C154.007 190.944 153.042 194.519 152.184 198.138C152.167 198.21 152.281 198.252 152.31 198.183C154.778 192.097 156.814 185.866 158.836 179.609Z" fill="#141414"/>
<path d="M140.505 195.778C139.841 195.545 139.178 195.312 138.515 195.079C134.776 193.74 130.963 192.301 127.373 190.828C126.909 190.645 126.453 190.454 126.005 190.263C125.284 189.963 124.563 189.655 123.866 189.348C123.51 189.198 123.17 189.04 122.822 188.89C122.697 188.832 122.573 188.782 122.449 188.724C122.084 188.557 121.727 188.391 121.371 188.225C119.945 187.567 118.594 186.91 117.334 186.245C117.043 186.095 116.745 185.937 116.463 185.779C114.167 184.531 112.26 183.3 110.925 182.127C110.768 181.986 110.61 181.844 110.469 181.703C110.312 181.562 110.179 181.42 110.055 181.287C101.847 172.411 86.7095 126.576 82.2577 104.357C82.2079 104.1 82.1582 103.842 82.1085 103.592C82.1002 103.534 82.0919 103.484 82.0836 103.426C81.7851 101.737 81.5199 99.6492 81.3043 97.3866V97.3616C80.6825 86.3063 85.8971 84.5012 92.3386 89.3592C108.463 123.964 133.06 181.104 140.505 195.778Z" fill="#141414"/>
<path d="M117.222 204.625L19.373 205.146C19.4518 203.035 33.3827 141.225 44.4559 118.415C58.6537 89.1683 65.9765 86.82 70.3504 85.2428C75.9446 83.2255 85.9045 84.2279 88.2713 85.3476C90.9532 86.602 99.4913 101.564 102.55 112.533C108.693 134.563 118.597 203.282 117.222 204.625Z" fill="#EBEBEB"/>
<path d="M65.3577 87.5547C65.3577 87.5547 77.7698 133.761 78.4122 136.831C79.3457 141.294 85.5485 204.909 85.5485 204.909L17.3623 205.147C17.3623 205.147 32.2739 146.251 43.3223 120.418C55.4069 92.1623 65.3577 87.5547 65.3577 87.5547Z" fill="#99D6FF"/>
<g opacity="0.1">
<path d="M65.3577 87.5547C65.3577 87.5547 77.7698 133.761 78.4122 136.831C79.3457 141.294 85.5485 204.909 85.5485 204.909L17.3623 205.147C17.3623 205.147 32.2739 146.251 43.3223 120.418C55.4069 92.1623 65.3577 87.5547 65.3577 87.5547Z" fill="black"/>
</g>
<path d="M89.1865 86.0645C89.5538 87.5393 101.023 125.081 101.818 134.432C102.701 144.816 110.545 205.115 110.545 205.115H120.47C120.47 205.115 106.071 118.438 102.113 109.283C94.0479 90.6272 89.1865 86.0645 89.1865 86.0645Z" fill="#99D6FF"/>
<path opacity="0.1" d="M89.1865 86.0645C89.5538 87.5393 101.023 125.081 101.818 134.432C102.701 144.816 110.545 205.115 110.545 205.115H120.47C120.47 205.115 106.071 118.438 102.113 109.283C94.0479 90.6272 89.1865 86.0645 89.1865 86.0645Z" fill="black"/>
<path d="M52.4825 98.356C36.0953 115.967 -3.73258 182.781 8.90585 194.967C21.6338 207.239 91.6836 190.75 111.385 181.331C117.246 178.53 94.9757 141.867 88.0873 141.011C82.353 140.298 53.0338 153.756 52.1857 152.063C51.2274 150.15 55.8848 136.031 62.9381 110.473C71.07 81.0028 59.7207 90.5774 52.4825 98.356Z" fill="#AD6359"/>
<path d="M117.202 129.177C131.446 127.187 135.407 128.87 146.54 120.784C153.845 115.478 160.356 117.882 156.189 126.312C149.371 140.102 131.533 146.543 124.706 146.989L117.202 129.177Z" fill="#AD6359"/>
<path d="M79.3682 142.936C79.3682 142.936 95.3724 134.018 110.343 130.39C120.695 127.881 143.824 124.942 165.954 147.84C171.202 153.271 174.843 164.746 163.06 159C154.69 154.918 150.611 149.792 145.311 148.307C145.311 148.307 148.215 163.454 142.588 168.518C140.072 170.781 133.064 176.796 126.942 180.699C126.942 180.699 125.736 179.59 124.408 177.966C124.408 177.966 118.706 182.198 107.971 181.173L79.3682 142.936Z" fill="#AD6359"/>
<path d="M120.603 129.58C125.553 132.17 135.951 137.835 142.851 145.438C150.515 153.883 163.01 172.222 156.739 177.835C152.14 181.95 146.757 175.369 146.757 175.369C146.757 175.369 150.329 184.042 145.365 186.848C140.842 189.405 136.98 184.063 136.98 184.063C136.98 184.063 138.245 189.698 133.416 191.318C127.606 193.268 125.908 181.139 118.323 178.012C116.62 177.309 120.603 129.58 120.603 129.58Z" fill="#AD6359"/>
<path d="M132.607 152.073C136.864 155.274 144.672 165.034 146.832 175.143C146.881 175.372 146.735 175.532 146.645 175.333C141.912 164.709 135.482 155.774 132.526 152.147C132.488 152.097 132.56 152.038 132.607 152.073Z" fill="#141414"/>
<path d="M124.337 160.084C127.727 163.225 135.327 173.645 137.166 183.964C137.208 184.194 137.049 184.345 136.97 184.142C132.479 172.838 126.988 163.951 124.254 160.152C124.217 160.101 124.293 160.043 124.337 160.084Z" fill="#141414"/>
<path d="M145.313 148.212C149.955 149.583 152.974 151.869 156.891 154.599C158.829 155.949 160.793 157.271 162.871 158.398C164.763 159.425 167.551 160.976 169.564 159.368C170.685 158.474 170.669 156.846 170.42 155.563C170.14 154.122 168.721 151.46 167.868 150.264C167.825 150.203 167.93 150.126 167.974 150.186C168.76 151.25 170.307 153.658 170.764 154.905C171.178 156.033 171.5 157.345 171.184 158.54C170.501 161.109 167.483 161.446 165.346 160.739C164.067 160.317 162.856 159.635 161.692 158.965C160.566 158.317 159.473 157.616 158.398 156.887C156.191 155.391 154.073 153.769 151.883 152.248C149.478 150.577 147.817 149.759 145.243 148.367C145.156 148.321 145.221 148.186 145.313 148.212Z" fill="#141414"/>
<path d="M155.034 164.599C153.833 161.943 147.328 150.882 145.218 148.322C145.164 148.257 145.252 148.172 145.313 148.231C148.931 151.672 154.746 160.813 156.101 163.742C157.44 166.636 158.983 170.335 158.983 173.561C158.984 178.427 155.766 179.35 154.578 179.587C153.158 179.871 151.725 179.572 150.45 178.91C149.031 178.172 147.659 176.642 146.709 175.382C146.659 175.315 146.747 175.224 146.804 175.29C148.484 177.207 151.276 179.099 153.912 178.751C155.055 178.601 156.213 178.078 156.911 177.128C157.732 176.01 157.798 174.54 157.686 173.208C157.436 170.193 156.267 167.328 155.034 164.599Z" fill="#141414"/>
<path d="M79.3688 142.937L101.818 190.326C101.818 190.326 14.0047 210.116 6.4274 194.779C-1.14985 179.441 32.9544 119.41 48.322 101.928C66.1319 81.6686 68.4067 88.5588 64.4821 106.517C60.3735 125.317 52.4414 152.507 52.4414 152.507L79.3688 142.937Z" fill="#99D6FF"/>
<path opacity="0.1" d="M79.3688 142.937L101.818 190.326C101.818 190.326 14.0047 210.116 6.4274 194.779C-1.14985 179.441 32.9544 119.41 48.322 101.928C66.1319 81.6686 68.4067 88.5588 64.4821 106.517C60.3735 125.317 52.4414 152.507 52.4414 152.507L79.3688 142.937Z" fill="black"/>
<path d="M25.7503 165.124C29.8042 162.271 34.1367 159.81 38.5554 157.576C42.9334 155.363 47.527 153.635 52.1754 152.092C54.8307 151.212 57.5192 150.463 60.2077 149.694C60.2898 149.671 60.3221 149.797 60.2409 149.822C55.5511 151.296 50.9691 153.19 46.4833 155.195C42.0149 157.193 37.5904 159.267 33.1982 161.428C30.7137 162.651 28.2879 163.99 25.8465 165.296C25.7337 165.359 25.6475 165.197 25.7503 165.124Z" fill="#141414"/>
<path d="M79.1331 142.8C78.6912 142.915 54.6778 150.871 53.8894 151.24C53.9897 150.876 58.2973 138.063 58.9423 136.187C59.0069 136 59.0616 135.812 59.1246 135.625C59.5624 134.788 60.0051 133.955 60.4096 133.1C60.9286 132.006 61.4393 130.907 61.9508 129.809C61.9665 129.775 61.9176 129.747 61.9002 129.78C61.339 130.852 60.7769 131.921 60.2214 132.996C59.9644 133.494 59.7249 133.998 59.4869 134.504C59.9097 133.178 60.3159 131.849 60.7213 130.515C61.368 128.386 61.9458 126.245 62.517 124.095C62.5352 124.026 62.4324 124.002 62.4101 124.069C61.1358 127.806 59.7447 131.501 58.4598 135.233C57.1773 138.96 52.2338 152.719 52.2719 152.708C52.3159 152.744 78.7219 143.343 79.2317 143.129C79.4315 143.044 79.3511 142.742 79.1331 142.8Z" fill="#141414"/>
<path d="M80.7533 173.712C78.282 168.423 75.8521 163.112 73.1843 157.914C71.6689 154.961 70.1692 151.998 68.6255 149.06C68.5675 148.948 68.3702 149.033 68.4191 149.151C70.6898 154.558 72.9804 159.975 75.4973 165.278C78.0018 170.553 80.4623 175.85 83.0356 181.094C84.4988 184.075 86.0457 187.001 87.688 189.891C87.7204 189.949 87.8207 189.906 87.7966 189.844C85.705 184.355 83.2412 179.037 80.7533 173.712Z" fill="#141414"/>
<path d="M102.95 191.068C102.071 189.609 100.961 187.506 100.021 186.085C99.7736 185.71 99.4851 185.789 99.6841 186.182C100.353 187.506 100.908 188.996 101.569 190.355C100.336 190.601 99.0988 190.82 97.8677 191.079C96.4442 191.379 95.0216 191.685 93.5974 191.979C90.8077 192.556 88.0131 193.105 85.2118 193.624C79.5397 194.675 73.846 195.606 68.1348 196.416C56.6869 198.039 45.1502 199.246 33.5928 199.67C30.3605 199.789 27.1223 199.844 23.8883 199.799C20.6029 199.754 17.053 199.685 14.3363 199.339C14.2501 199.329 14.2319 199.476 14.3189 199.494C17.1368 200.076 19.759 200.434 22.6274 200.575C25.5546 200.72 28.4885 200.783 31.42 200.75C37.2571 200.684 43.0893 200.305 48.9015 199.769C60.4258 198.707 71.9102 197.142 83.3059 195.123C86.4993 194.557 89.6861 193.953 92.8654 193.313C94.4695 192.989 96.0745 192.665 97.672 192.311C99.2696 191.958 103.1 191.316 102.95 191.068Z" fill="#141414"/>
<path d="M89.2054 103.309C83.3973 104.916 73.0105 96.3051 68.7709 89.1711C68.4832 88.6803 69.0528 83.3914 69.4407 76.9312C69.6613 73.0099 69.8146 68.6385 69.6679 64.6398C69.6339 63.8188 94.8884 69.8081 94.8884 69.8081C94.8884 69.8081 92.7395 78.2822 93.038 85.2523C93.0695 85.8345 93.1466 86.3744 93.2701 86.8868C93.2817 86.9617 93.3066 87.0524 93.3166 87.1572C93.9375 90.2558 94.8179 101.753 89.2054 103.309Z" fill="#AD6359"/>
<path d="M71.2083 64.6875C72.6159 71.4055 77.4077 87.585 90.7574 87.3945C91.6867 87.3829 92.5373 87.3047 93.31 87.1608C93.3124 87.0485 93.2818 86.967 93.2677 86.8871C93.1508 86.3697 93.0662 85.8381 93.0306 85.2583C92.7338 78.275 94.8884 69.8026 94.8884 69.8026C94.8884 69.8026 76.6698 65.4811 71.2083 64.6875Z" fill="#141414"/>
<path d="M97.8991 52.6255C97.6223 58.7654 101.749 63.9403 107.118 64.184C112.486 64.4278 117.063 59.648 117.34 53.5089C117.617 47.369 113.49 42.1941 108.121 41.9503C102.752 41.7066 98.176 46.4864 97.8991 52.6255Z" fill="#212121"/>
<path d="M94.7317 52.8706C94.4233 59.701 99.0153 65.4582 104.988 65.7294C110.96 66.0006 116.051 60.6834 116.359 53.853C116.668 47.0227 112.076 41.2655 106.104 40.9943C100.131 40.7231 95.0401 46.0403 94.7317 52.8706Z" fill="#C7C7C7"/>
<path d="M72.9557 32.7729C68.6125 40.9933 68.3389 67.1267 73.4457 73.9579C80.8497 83.861 95.3982 87.497 104.396 78.0106C113.118 68.8153 112.874 34.7511 106.943 28.2926C98.2086 18.7795 79.3724 20.6287 72.9557 32.7729Z" fill="#AD6359"/>
<path d="M94.6068 52.9773C94.5911 52.9108 94.4717 53.0638 94.475 53.1362C94.5695 54.8947 94.383 56.9253 92.8095 57.545C92.7614 57.5641 92.768 57.6523 92.8269 57.6432C94.7577 57.3262 94.9782 54.6285 94.6068 52.9773Z" fill="#141414"/>
<path d="M92.9998 51.1748C90.1745 51.0235 90.08 56.705 92.698 56.8456C95.2746 56.9836 95.3683 51.3021 92.9998 51.1748Z" fill="#141414"/>
<path d="M104.425 53.1945C104.44 53.1271 104.561 53.2802 104.557 53.3517C104.473 55.1111 104.671 57.1399 106.248 57.7505C106.297 57.7697 106.29 57.8578 106.232 57.8487C104.3 57.5426 104.064 54.8465 104.425 53.1945Z" fill="#141414"/>
<path d="M106.021 51.3825C108.846 51.2153 108.973 56.896 106.356 57.0516C103.78 57.2046 103.654 51.5231 106.021 51.3825Z" fill="#141414"/>
<path d="M90.4641 46.6379C91.2583 46.5954 91.9837 46.4232 92.7655 46.3001C93.6467 46.1604 94.363 46.1412 95.047 45.5065C95.4134 45.1663 95.4324 44.4301 95.1365 44.0416C94.4476 43.1374 93.3259 43.0384 92.2573 43.1624C91.0983 43.2971 90.2403 43.6989 89.4278 44.5366C88.6403 45.3485 89.4171 46.6936 90.4641 46.6379Z" fill="#141414"/>
<path d="M108.689 47.2785C107.906 47.1371 107.207 46.8758 106.448 46.6554C105.59 46.4067 104.883 46.2977 104.283 45.5823C103.962 45.1988 104.035 44.4668 104.377 44.1174C105.173 43.3064 106.298 43.3496 107.343 43.6067C108.476 43.8854 109.277 44.3911 109.979 45.3245C110.659 46.2278 109.721 47.4648 108.689 47.2785Z" fill="#141414"/>
<path d="M91.4084 69.2838C91.8221 69.703 92.2316 70.277 92.8667 70.3419C93.476 70.4034 94.1964 70.1397 94.7602 69.9309C94.8157 69.9101 94.8704 69.97 94.8339 70.0224C94.3672 70.6904 93.4022 71.0972 92.5914 70.9408C91.7997 70.7886 91.4184 70.0931 91.2377 69.3611C91.2128 69.258 91.3471 69.223 91.4084 69.2838Z" fill="#141414"/>
<path d="M93.3389 64.0442C94.2956 65.5882 95.7248 66.4474 97.2809 66.7777C97.9756 66.9299 98.7084 66.9665 99.428 66.9125C99.569 66.9116 99.7107 66.8983 99.8392 66.8717C99.9677 66.8584 100.083 66.8451 100.225 66.8185C100.43 66.7918 100.546 66.6246 100.584 66.4308L100.583 66.4183C100.583 66.3543 100.583 66.3019 100.57 66.2378C100.57 66.2378 100.57 66.2378 100.57 66.2245L100.569 66.0698C100.628 64.7155 100.531 62.6517 100.531 62.6517C101.02 62.9079 103.518 64.0858 103.489 63.3763C103.237 57.51 102.958 50.985 101.472 45.2012C101.433 45.0073 101.138 45.0473 101.152 45.2411C101.171 50.8885 102.18 56.4952 102.291 62.1692C101.492 61.8498 100.192 61.2609 99.4861 61.2633C99.2937 61.3158 99.7439 65.2471 99.6693 65.8535C99.6693 65.8535 99.6693 65.8793 99.6568 65.9184C97.3828 66.1713 95.6842 65.4551 93.5063 63.8895C93.3762 63.7864 93.2352 63.9028 93.3389 64.0442Z" fill="#141414"/>
<path d="M98.6435 66.2127C98.6435 66.2127 97.419 67.814 95.7693 68.3722C95.1624 68.5802 94.51 68.655 93.831 68.4612C92.4366 68.0686 92.4225 66.7776 92.6986 65.6787C92.9224 64.7745 93.3543 64 93.3543 64C93.3543 64 95.3672 65.9549 98.6435 66.2127Z" fill="#141414"/>
<path d="M95.7693 68.3713C95.1624 68.5792 94.51 68.6541 93.831 68.4603C92.4366 68.0676 92.4225 66.7766 92.6986 65.6777C94.1966 65.8566 95.6665 66.9047 95.7693 68.3713Z" fill="#FF98B9"/>
<path opacity="0.2" d="M69.6956 51.2313C71.4091 50.9568 75.4937 45.1571 77.2305 42.8512C79.0569 40.4613 79.968 28.1932 80.1271 25.3965C77.146 27.1326 74.6241 29.5923 72.9511 32.77C71.0046 36.4485 69.8904 43.7047 69.6956 51.2313Z" fill="#141414"/>
<path d="M101.311 35.5851C99.248 37.8278 96.1748 38.9142 93.1688 38.3269C90.2407 37.7546 87.3839 35.62 86.4181 32.7244C86.3891 32.6378 86.2556 32.6828 86.2846 32.7693C87.3176 35.8663 89.7101 38.4666 93.0237 39.0314C96.1334 39.5613 99.5357 38.2262 101.475 35.7323C101.559 35.6217 101.408 35.4803 101.311 35.5851Z" fill="#141414"/>
<path d="M92.8816 13.4695C87.7715 13.4187 82.9938 16.1056 81.0166 19.537C79.8153 21.6216 79.5774 23.7694 79.8502 25.9705C79.8618 26.0595 80.0442 26.047 80.0392 25.9572C79.856 22.4784 81.6889 18.5812 85.4693 16.2778C89.102 14.0651 93.8482 13.4944 97.8897 15.1806C99.9995 16.0598 101.687 17.4756 102.521 19.1601C102.615 19.349 103.001 19.24 102.925 19.0478C101.642 15.8053 97.5067 13.5152 92.8816 13.4695Z" fill="#141414"/>
<path d="M122.189 25.5211C121.463 22.9723 119.775 20.753 117.583 19.2931C114.511 17.2475 110.959 17.4214 107.434 17.6676C107.338 17.6743 107.348 17.8232 107.443 17.8165C110.445 17.6169 113.501 17.5903 116.209 19.0909C118.416 20.3137 120.233 22.2952 121.158 24.6593C123.078 29.5673 120.93 35.5092 116.263 37.9631C113.621 39.3531 110.398 39.5802 107.591 38.5712C107.481 38.5313 107.394 38.6935 107.506 38.7376C112.631 40.7348 118.807 38.5587 121.322 33.5859C122.563 31.132 122.947 28.1814 122.189 25.5211Z" fill="#141414"/>
<path d="M71.1035 37.8063C71.1035 37.8063 66.5845 28.468 70.8283 23.3097C73.2333 20.3865 80.8396 21.0587 80.8396 21.0587C80.8396 21.0587 83.4543 16.7513 89.8195 15.5318C96.2519 14.2999 103.7 18.3135 103.7 18.3135C103.7 18.3135 109.883 15.0552 115.44 18.5157C123.187 23.3413 121.759 35.3973 113.655 38.9942C107.963 41.5197 100.551 36.2765 100.551 36.2765C99.8175 36.3489 92.1764 40.5988 86.7679 33.6986C86.7679 33.6986 82.0251 37.6275 78.0051 34.6054C78.0051 34.6054 75.7659 38.6856 71.1035 37.8063Z" fill="#141414"/>
<path d="M74.362 54.387C74.362 54.387 70.0644 45.2042 66.008 46.6042C61.9507 48.0042 64.1974 60.6242 68.267 63.0033C72.3359 65.3824 74.6049 61.6458 74.6049 61.6458L74.362 54.387Z" fill="#AD6359"/>
<path d="M66.7416 50.2054C66.6728 50.1871 66.6421 50.2828 66.6985 50.3186C69.5346 52.0871 70.6513 55.2032 71.2681 58.3401C70.5559 57.0507 69.4285 56.2156 67.7298 57.0366C67.6411 57.0798 67.6958 57.2179 67.7845 57.2146C69.0803 57.163 69.9433 57.5365 70.6148 58.687C71.0898 59.5014 71.3435 60.4713 71.6295 61.3656C71.7257 61.6642 72.243 61.6034 72.1933 61.2699C72.1891 61.2457 72.1841 61.2191 72.18 61.195C72.9303 57.3061 70.8486 51.3226 66.7416 50.2054Z" fill="#141414"/>
<path d="M83.7457 72.8139L75.5749 69.2802L69.009 61.0731L70.2708 60.0566L76.5855 67.9492L84.3857 71.3224L83.7457 72.8139Z" fill="#C7C7C7"/>
<path d="M82.8723 71.5057C83.6706 69.1208 90.3401 70.0001 89.1306 73.6153C87.9177 77.2388 82.0706 73.9006 82.8723 71.5057Z" fill="black"/>
<path d="M65.8874 46.3549C65.8874 46.3549 64.9953 32.9363 68.9133 25.5362C73.2748 17.2975 91.3458 9.45482 103.7 18.3149C103.7 18.3149 83.5729 14.7038 74.2 26.1284C70.2513 30.9415 70.3517 46.7134 70.3517 46.7134L65.8874 46.3549Z" fill="#C7C7C7"/>
<path d="M67.7097 65.6377C73.6879 65.5783 78.4795 59.9873 78.4121 53.1497C78.3446 46.3122 73.4436 40.8175 67.4654 40.8768C61.4872 40.9362 56.6956 46.5273 56.763 53.3648C56.8305 60.2023 61.7315 65.6971 67.7097 65.6377Z" fill="#C7C7C7"/>
<path d="M75.2544 52.7816C75.315 58.9273 71.0082 63.9533 65.6345 64.0066C60.2608 64.0598 55.8553 59.1211 55.7948 52.9754C55.7343 46.8297 60.0402 41.8045 65.414 41.7504C70.7877 41.6972 75.1931 46.6359 75.2544 52.7816Z" fill="#212121"/>
<path d="M93.2199 86.7538L87.3695 101.557L68.9876 82.9414L63.8286 88.964C63.8286 88.964 81.8598 118.59 81.9668 117.248L87.9805 104.484L96.7814 113.306L95.9723 91.0619L93.2199 86.7538Z" fill="#EBEBEB"/>
<path d="M97.0002 102.287C96.744 98.6187 96.5882 94.9178 96.1629 91.2651C96.1479 91.1354 95.9448 91.0788 95.9142 91.2319C95.1971 94.778 96.2516 108.801 96.2507 112.164C96.2383 112.151 96.2234 112.138 96.2126 112.125C95.8453 111.744 88.0575 104.364 87.9813 104.482C86.6739 106.51 82.261 115.806 81.9601 116.651C79.1091 111.945 67.0112 93.3963 63.6412 88.9492C63.5442 88.822 63.3469 88.9285 63.4223 89.0774C65.945 94.0493 81.5762 118.527 81.7959 118.462C81.9468 118.577 87.4316 107.129 88.0832 104.967C89.403 106.577 97.2671 114.909 97.292 114.363C97.4553 110.681 97.2564 105.96 97.0002 102.287Z" fill="#141414"/>
<path d="M188.876 206.141H183.188V209.867H188.876V206.141Z" fill="#212121"/>
<path d="M196.254 205.893H190.566V209.619H196.254V205.893Z" fill="#212121"/>
<path d="M203.63 205.646H197.942V209.373H203.63V205.646Z" fill="#212121"/>
<path d="M211.008 205.4H205.32V209.127H211.008V205.4Z" fill="#212121"/>
<path d="M218.385 205.154H212.697V208.881H218.385V205.154Z" fill="#212121"/>
<path d="M225.762 204.908H220.073V208.635H225.762V204.908Z" fill="#212121"/>
<path d="M233.139 204.662H227.45V208.389H233.139V204.662Z" fill="#212121"/>
<path d="M240.517 204.416H234.828V208.143H240.517V204.416Z" fill="#212121"/>
<path d="M247.894 204.17H242.205V207.897H247.894V204.17Z" fill="#212121"/>
<path d="M249.287 212.011H181.795V207.476L249.287 205.588V212.011Z" fill="black"/>
<path d="M315.16 194.128H203.741L221.461 110.896H332.88L315.16 194.128Z" fill="#212121"/>
<path d="M319.282 194.128H207.862L225.582 110.896H337.001L319.282 194.128Z" fill="black"/>
<path d="M282.061 147.69C281.458 151.507 277.886 154.603 274.081 154.603C270.276 154.603 267.681 151.508 268.283 147.69C268.886 143.873 272.458 140.777 276.263 140.777C280.069 140.777 282.663 143.873 282.061 147.69Z" fill="#141414"/>
<path d="M287.77 215.866H232.971V211.596L287.77 209.818V215.866Z" fill="#212121"/>
<path d="M302.669 215.859H273.247L255.528 169.221H284.95L302.669 215.859Z" fill="#212121"/>
<path d="M307.512 215.859H278.09L260.37 169.221H289.792L307.512 215.859Z" fill="#141414"/>
<path d="M179.711 217.001C179.711 217.001 128.038 217.001 123.214 217.001C118.391 217.001 125.369 203.225 142.965 197.94C160.562 192.655 185.262 211.833 179.711 217.001Z" fill="black"/>
<path d="M157.541 217.001C157.574 215.439 157.857 213.881 158.311 212.378C158.761 210.871 159.41 209.421 160.214 208.059C161.014 206.694 162.042 205.461 163.212 204.404C164.353 203.302 165.771 202.546 167.184 201.926C166.575 202.424 165.887 202.773 165.334 203.317L164.461 204.057L163.661 204.871C162.628 205.98 161.678 207.171 160.922 208.489C160.137 209.787 159.481 211.166 158.919 212.589C158.376 214.018 157.891 215.483 157.541 217.001Z" fill="#141414"/>
<path d="M164.235 203.893C165.916 204.41 167.531 205.111 169.11 205.89C170.689 206.668 172.21 207.571 173.655 208.595C175.089 209.63 176.462 210.786 177.592 212.177C178.15 212.876 178.658 213.621 179.051 214.427C179.418 215.242 179.696 216.114 179.711 217C179.508 216.142 179.163 215.341 178.693 214.622C178.246 213.89 177.705 213.22 177.114 212.6C175.922 211.366 174.586 210.268 173.175 209.272C171.777 208.256 170.295 207.351 168.808 206.45C168.063 206 167.304 205.572 166.538 205.154C165.782 204.714 165.007 204.313 164.235 203.893Z" fill="#141414"/>
<path d="M183.757 28.0344C182.316 41.8672 169.964 51.9135 156.178 50.4669C150.606 49.8821 145.654 47.5097 141.819 43.9651L129.261 45.8144L135.544 34.9213C134.019 31.1996 133.377 27.0578 133.822 22.7937C135.264 8.96087 147.615 -1.08539 161.401 0.361201C175.187 1.80779 185.199 14.2015 183.757 28.0344Z" fill="white"/>
<path d="M183.757 28.0347C183.233 32.6331 181.557 37.1401 178.691 40.8027C178.033 41.7619 177.185 42.5638 176.416 43.4306C175.544 44.1934 174.73 45.0294 173.768 45.6807C171.931 47.0998 169.869 48.212 167.712 49.0639C165.567 49.9706 163.257 50.4031 160.954 50.681C159.793 50.7434 158.631 50.8498 157.467 50.7475C156.301 50.7209 155.14 50.5961 153.993 50.3848C149.399 49.5505 145.049 47.3927 141.575 44.2325L141.872 44.324L129.326 46.2564L128.416 46.3969L128.877 45.5917L135.123 34.677L135.094 35.1079C132.051 27.9182 132.737 19.3576 136.64 12.6587C138.586 9.30472 141.299 6.41404 144.502 4.25871C147.702 2.09673 151.414 0.741646 155.214 0.225067C159.018 -0.28153 162.932 0.0661832 166.565 1.27736C170.193 2.50351 173.52 4.56483 176.246 7.23341C181.787 12.5207 184.572 20.4507 183.757 28.0347ZM183.757 28.0347C184.52 20.444 181.68 12.5622 176.136 7.34737C173.384 4.73952 170.052 2.76305 166.456 1.61676C162.855 0.48544 159.003 0.215912 155.292 0.776579C151.585 1.34723 147.995 2.73309 144.925 4.88592C141.864 7.04374 139.28 9.86538 137.415 13.1054C135.513 16.3388 134.528 20.0439 134.229 23.7631C133.995 27.4948 134.601 31.2706 135.996 34.7352L136.086 34.9607L135.967 35.167L129.646 46.0384L129.197 45.3738L141.767 43.6077L141.94 43.5836L142.063 43.7001C145.386 46.8295 149.591 49.0148 154.083 49.9123C155.206 50.1394 156.343 50.2825 157.489 50.3274C158.632 50.4489 159.777 50.3632 160.924 50.3224C163.197 50.0879 165.488 49.7019 167.628 48.8409C169.776 48.034 171.853 46.9751 173.682 45.5668C174.645 44.9254 175.459 44.0985 176.333 43.3457C177.104 42.4881 177.954 41.6953 178.617 40.7445C181.497 37.1152 183.201 32.6298 183.757 28.0347Z" fill="#141414"/>
<path d="M172.784 26.1796C172.784 27.8633 171.423 29.2283 169.745 29.2283C168.067 29.2283 166.707 27.8633 166.707 26.1796C166.707 24.4959 168.067 23.1309 169.745 23.1309C171.423 23.1309 172.784 24.4959 172.784 26.1796Z" fill="#141414"/>
<path d="M161.894 26.1796C161.894 27.8633 160.534 29.2283 158.856 29.2283C157.178 29.2283 155.817 27.8633 155.817 26.1796C155.817 24.4959 157.178 23.1309 158.856 23.1309C160.534 23.1309 161.894 24.4959 161.894 26.1796Z" fill="#141414"/>
<path d="M151.004 26.1796C151.004 27.8633 149.644 29.2283 147.966 29.2283C146.288 29.2283 144.928 27.8633 144.928 26.1796C144.928 24.4959 146.288 23.1309 147.966 23.1309C149.644 23.1309 151.004 24.4959 151.004 26.1796Z" fill="#141414"/>
</svg>
