<svg width="802" height="311" viewBox="0 0 802 311" fill="none" xmlns="http://www.w3.org/2000/svg">
<path d="M401.001 310.416C179.534 310.416 0 296.939 0 280.311C0 265.997 133.137 254.014 311.521 250.96L448.151 250.416C647.403 252.168 802 264.883 802 280.311C802 296.939 622.468 310.416 401.001 310.416Z" fill="#B3B3B3"/>
<path d="M677.414 101.839L653.745 113.74L629.973 79.5201L658.728 70.3855L677.414 101.839Z" fill="#2F2F2F"/>
<path d="M675.919 100.813L653.78 111.943L631.553 79.9401L658.439 71.3954L675.919 100.813Z" fill="white"/>
<path d="M684.027 94.8285C684.027 94.8285 679.907 93.0273 678.098 92.0826C676.289 91.141 671.638 89.8485 671.265 89.5412C670.887 89.2343 657.475 88.4769 656.66 87.8359C655.845 87.1944 655.054 89.3398 658.528 90.0358C662.007 90.7319 666.847 92.4372 667.11 93.6792C667.374 94.924 663.542 95.2172 663.15 96.2406C662.762 97.264 663.264 97.0357 663.811 97.254C664.357 97.4758 668.373 95.4427 670.137 96.0192C671.901 96.5957 674.594 95.7973 675.951 96.2201C677.303 96.6434 683.877 98.666 683.877 98.666L684.027 94.8285Z" fill="#EEA886"/>
<path d="M652.59 109.451C652.59 109.451 649.134 106.6 647.454 105.409C645.778 104.215 642.639 100.709 642.173 100.504C641.712 100.299 635.707 89.0327 634.732 88.5791C633.753 88.1289 635.659 86.6107 637.728 89.3362C639.797 92.0617 643.44 95.5716 644.823 95.316C646.206 95.0599 645.015 91.6388 645.918 90.9054C646.82 90.172 646.777 90.6902 647.219 91.0758C647.66 91.4644 647.127 95.7147 648.409 97.0112C649.691 98.3072 649.916 100.944 650.881 101.947C651.841 102.947 656.488 107.828 656.488 107.828L652.59 109.451Z" fill="#EEA886"/>
<path d="M727.132 261.764C727.132 261.764 727.884 266.516 727.974 267.232C728.069 267.944 736.307 266.809 736.307 266.809L736.969 261.15C736.969 261.15 728.165 261.092 727.132 261.764Z" fill="#424773"/>
<path d="M727.889 266.625C727.889 266.625 725.278 269.491 722.757 270.739C720.23 271.988 716.266 272.482 714.774 273.775C713.697 274.71 710.852 278.725 721.329 278.643C731.811 278.564 736.864 279.213 737.989 277.67C739.109 276.132 736.365 266.305 736.365 266.305C736.365 266.305 733.881 267.124 727.889 266.625Z" fill="#2F2F2F"/>
<path d="M668.132 261.764C668.132 261.764 668.882 266.515 668.975 267.232C669.069 267.945 677.301 266.808 677.301 266.808L677.967 261.15C677.967 261.15 669.158 261.092 668.132 261.764Z" fill="#424773"/>
<path d="M668.885 266.625C668.885 266.625 666.274 269.491 663.752 270.739C661.23 271.988 651.942 273.015 650.449 274.307C649.371 275.239 647.58 278.994 662.328 278.643C672.807 278.394 677.861 279.212 678.984 277.671C680.106 276.132 677.357 266.305 677.357 266.305C677.357 266.305 675.023 267.178 668.885 266.625Z" fill="#2F2F2F"/>
<path d="M720.306 139.611C720.306 139.611 728.043 150.858 727.471 161.023C726.893 171.191 730.276 182.291 731.437 192.91C732.731 204.75 738.04 232.775 738.225 239.109C738.422 245.444 737.403 265.665 737.403 265.665L726.786 265.887C726.786 265.887 717.872 216.886 715.565 211.889C713.258 206.888 701.808 171.243 701.421 167.244C701.034 163.243 720.306 139.611 720.306 139.611Z" fill="#2F2F2F"/>
<path d="M679.578 141.136C679.578 141.136 673.747 168.998 672.98 175.22C672.208 181.441 671.697 205.333 671.311 209.222C670.925 213.11 668.745 260.108 666.689 265.887H680.267C680.267 265.887 690.683 231.721 690.683 215.552C690.683 199.388 698.726 180.412 703.926 169.745C709.122 159.078 721.009 158.826 724.206 139.035C724.206 139.035 683.902 134.86 679.578 141.136Z" fill="#2F2F2F"/>
<path d="M707.397 45.0518C707.397 45.0518 697.013 41.5046 692.225 48.7358C687.438 55.9708 687.896 70.4474 693.132 72.2281C698.368 74.0088 706.232 73.0777 708.912 68.5545C711.592 64.0276 714.014 57.4856 713.901 53.1123C713.782 48.7391 710.128 46.3139 707.397 45.0518Z" fill="#EEA886"/>
<path d="M694.261 72.5621C694.261 72.5621 694.688 75.1236 693.978 76.3893C693.262 77.6512 707.432 77.6855 707.432 77.6855C707.432 77.6855 708.58 70.812 710.762 65.0067C712.944 59.1973 694.261 72.5621 694.261 72.5621Z" fill="#EEA886"/>
<path d="M710.764 65.0084C710.764 65.0084 709.788 66.4817 705.794 65.9086C701.8 65.3355 696.934 60.4783 695.268 59.9463C693.601 59.4105 693.585 58.5169 693.585 58.5169L692.543 59.9086L690.768 60.0143C690.768 60.0143 692.383 55.6651 689.947 53.8948C687.512 52.1212 692.476 39.8241 705.284 43.9174C705.284 43.9174 715.114 46.3973 714.758 51.5141C714.396 56.6304 712.967 62.4601 710.764 65.0084Z" fill="#3A3F47"/>
<path d="M693.136 76.2383C693.136 76.2383 693.177 73.8265 694.376 73.5945C695.575 73.3625 707.583 72.3052 709.048 72.8339V75.6482C709.048 75.6482 706.22 77.2379 693.136 76.2383Z" fill="white"/>
<path d="M693.85 56.6561C694.077 55.7998 696.459 53.3474 697.374 55.9705C698.284 58.5973 695.994 62.1309 694.714 61.8274C693.435 61.5239 693.283 58.8323 693.85 56.6561Z" fill="#EEA886"/>
<path d="M645.482 104.765H645.501C645.42 104.801 645.405 104.804 645.482 104.765Z" fill="#0088E3"/>
<path d="M729.042 166.401C729.042 166.401 722.672 168.114 711.809 169.212C700.952 170.307 673.813 168.816 673.639 167.64C673.471 166.466 679.478 123.93 679.136 121.739C678.8 119.55 678.61 111.742 678.61 111.742C678.479 113.88 676.096 122.616 673.224 127.382C672.182 129.101 668.694 134.494 667.016 133.265C658.889 127.327 646.301 104.95 645.501 104.762C646.174 104.496 651.466 102.265 652.213 102.037C652.86 101.839 658.726 107.522 662.282 111.042C663.865 112.611 664.991 113.754 664.991 113.754C666.017 111.639 669.757 98.3325 670.914 93.7274C673.534 83.344 673.134 82.9109 673.134 82.9109C681.078 80.7106 693.14 76.2355 693.14 76.2355L709.053 75.6421C709.053 75.6421 723.661 78.5854 729.411 80.9599C729.958 81.188 729.958 92.8814 731.457 95.9479L726.686 105.151C726.686 105.151 723.935 123.383 723.361 131.495C723.098 135.217 729.042 166.401 729.042 166.401Z" fill="#0088E3"/>
<path d="M732.118 111.13C731.705 112.359 729.818 113.395 728.591 113.849C727.803 114.139 726.925 114.231 726.042 114.081L725.418 113.979V113.975L714.509 112.126C714.509 112.126 712.124 86.9834 729.41 80.9591C729.87 81.0989 735.936 99.8737 732.118 111.13Z" fill="#0088E3"/>
<path d="M728.588 113.85C727.802 114.139 726.926 114.231 726.04 114.081L725.416 113.979V113.976L726.491 101.129L728.588 113.85Z" fill="#252840"/>
<path d="M664.991 113.755L663.661 118.916C663.661 118.916 662.215 113.735 662.278 111.043C663.865 112.612 664.991 113.755 664.991 113.755Z" fill="#252840"/>
<path d="M710.36 45.91C710.36 45.91 723.975 44.4702 710.595 65.2715L710.36 45.91Z" fill="#3A3F47"/>
<path d="M640.922 77.6855L639.538 75.5128L650.437 72.0706L651.821 74.2333L640.922 77.6855Z" fill="#2F2F2F"/>
<path d="M325.716 279.463H429.317C436.725 279.463 442.732 273.968 442.732 267.186V14.7613C442.732 7.98346 436.725 2.48819 429.317 2.48819H325.716C318.308 2.48819 312.301 7.98346 312.301 14.7613V267.186C312.301 273.968 318.308 279.463 325.716 279.463Z" fill="#587AA3"/>
<mask id="mask0_10691_2163" style="mask-type:luminance" maskUnits="userSpaceOnUse" x="307" y="0" width="155" height="282">
<path d="M446.472 281.584H321.776C313.651 281.584 307.07 275.56 307.07 268.131V257.839V215.695V67.3531V13.4577C307.07 10.1148 308.397 7.06186 310.601 4.70822C313.297 1.82922 317.305 0.00088501 321.776 0.00088501H330.348H405.625H434.414H446.472C454.593 0.00088501 461.178 6.0249 461.178 13.4577V85.1932V215.695V257.423V268.131C461.178 275.56 454.593 281.584 446.472 281.584ZM331.313 2.47736C323.901 2.47736 317.89 7.97607 317.89 14.7573V267.175C317.89 273.957 323.901 279.455 331.313 279.455H445.499C452.912 279.455 458.922 273.957 458.922 267.175V14.7573C458.922 7.97607 452.912 2.47736 445.499 2.47736H331.313Z" fill="white"/>
</mask>
<g mask="url(#mask0_10691_2163)">
<path d="M446.472 281.584H321.776C313.651 281.584 307.07 275.56 307.07 268.131V257.839V215.695V67.3531V13.4577C307.07 10.1148 308.397 7.06186 310.601 4.70822C313.297 1.82922 317.305 0.00088501 321.776 0.00088501H330.348H405.625H434.414H446.472C454.593 0.00088501 461.178 6.0249 461.178 13.4577V85.1932V215.695V257.423V268.131C461.178 275.56 454.593 281.584 446.472 281.584ZM331.313 2.47736C323.901 2.47736 317.89 7.97607 317.89 14.7573V267.175C317.89 273.957 323.901 279.455 331.313 279.455H445.499C452.912 279.455 458.922 273.957 458.922 267.175V14.7573C458.922 7.97607 452.912 2.47736 445.499 2.47736H331.313Z" fill="url(#paint0_linear_10691_2163)"/>
</g>
<path d="M393.738 96.8835L399.38 105.019L404.589 112.523C404.574 112.483 404.227 111.347 403.642 108.055C403.53 107.431 403.407 106.728 403.28 105.94C403.243 105.708 403.187 105.476 403.116 105.248C400.886 100.547 393.996 97.0029 393.746 96.8869L393.738 96.8835Z" fill="white"/>
<path d="M403.093 105.191C403.093 105.191 403.392 105.76 403.641 108.053L401.602 105.235C401.602 105.235 397.955 100.456 396.71 99.2146C395.461 97.9729 393.746 96.8848 393.746 96.8848C393.746 96.8848 400.912 100.037 403.093 105.191Z" fill="#FFCA55"/>
<path d="M365.345 254.449C365.345 254.449 367.503 259.91 371.12 262.223C374.737 264.535 378.473 267.844 377.489 270.157C376.504 272.47 364.42 271.245 359.368 264.529C356.176 260.285 352.932 259.337 352.939 257.328C352.951 255.319 356.653 251.3 356.847 250.731C357.086 250.028 365.345 254.449 365.345 254.449Z" fill="#353A3D"/>
<path d="M366.239 252.467C366.239 252.467 365.441 254.436 365.344 254.449C365.251 254.459 356.015 252.194 356.847 250.731C357.507 249.571 358.775 248.323 358.775 248.323L366.239 252.467Z" fill="#81807E"/>
<path d="M342.801 160.706C342.801 160.706 345.471 154.907 347.54 154.546C349.61 154.181 347.909 155.692 347.909 155.692C347.909 155.692 345.281 159.676 344.397 161.348C344.352 161.426 342.801 160.706 342.801 160.706Z" fill="#434343"/>
<path d="M355.892 149.949C355.892 149.949 355.344 152.756 355.229 155.601C355.117 158.443 355.613 159.521 354.692 160.875C353.998 161.895 352.305 162.28 352.097 161.813C351.892 161.346 353.39 156.99 351.433 156.379C350.467 156.075 350.094 157.419 349.841 158.767C349.583 160.142 349.453 161.516 348.942 161.131C347.935 160.363 344.337 156.679 345.456 154.602C346.578 152.525 348.972 151.535 350.113 148.261C351.146 145.286 352.622 144.386 352.622 144.386L355.892 149.949Z" fill="#EEA886"/>
<path d="M351.694 156.259C351.694 156.259 354.054 157.709 350.792 165.688L348.029 164.286C348.029 164.286 349.8 159.865 349.86 157.163C349.86 157.163 350.616 155.642 351.694 156.259Z" fill="#545554"/>
<path d="M358.42 170.202L337.842 156.847L327.924 182.645L345.855 202.512L358.42 170.202Z" fill="#545554"/>
<path d="M458.922 208.899V259.547C453.254 243.815 440.875 209.799 437.893 204.232C435.297 199.361 411.747 171.257 410.017 173.263C408.287 175.265 398.637 198.829 397.355 204.628C396.087 210.427 367.213 253.475 367.213 253.475C367.213 253.475 366.705 253.38 365.93 253.189C363.916 252.643 360.068 251.374 358.115 249.013C357.891 248.741 357.682 248.468 357.518 248.167C357.518 248.167 378.727 206.047 380.725 198.079C381.426 195.295 382.217 181.692 385.006 167.502C386.258 161.133 387.929 154.652 390.151 148.973C391.031 146.752 393.596 145.821 397.027 145.729C397.608 145.701 398.22 145.715 398.846 145.742C399.89 145.797 400.994 145.906 402.142 146.056C404.737 146.411 407.556 147.021 410.345 147.748C412.702 148.376 415.058 149.072 417.251 149.778C419.801 150.61 422.158 151.459 424.111 152.182C424.753 152.414 425.349 152.643 425.901 152.848C426.513 153.08 427.05 153.301 427.512 153.479C428.735 153.97 429.451 154.27 429.451 154.27C429.451 154.27 433.165 160.315 437.773 167.993C444.112 178.554 452.151 192.171 454.612 197.41C456.103 200.576 457.61 204.683 458.922 208.899Z" fill="#353A3D"/>
<path d="M450.212 120.065L458.922 128.974V143.724C452.688 138.304 445.35 131.389 442.62 129.189C442.143 128.811 441.8 128.562 441.636 128.51C441.248 128.374 440.547 127.484 439.697 126.147C439.459 125.778 439.19 125.355 438.922 124.922C438.519 124.253 438.101 123.53 437.669 122.766C437.385 122.261 437.087 121.739 436.789 121.211C436.491 120.679 436.207 120.133 435.909 119.601C435.327 118.523 434.746 117.445 434.224 116.435C433.821 115.668 433.448 114.948 433.105 114.293C432.881 113.843 432.658 113.433 432.464 113.051C432.27 112.669 432.091 112.328 431.942 112.014C431.569 111.278 431.33 110.797 431.27 110.687C431.3 111.029 431.554 113.638 431.196 117.008C431.047 118.482 430.763 120.105 430.301 121.756C429.749 123.731 429.481 126.355 429.376 129.107V129.189C429.376 129.257 429.361 129.312 429.361 129.384V129.466C429.212 134.487 429.585 139.904 429.749 142.779C429.988 147.309 428.332 149.318 428.332 149.318C428.332 149.318 428.109 149.287 427.706 149.233L426.632 149.096L425.409 148.946L423.754 148.728L417.325 147.913L414.984 147.613L414.447 147.541L410.375 147.009L402.157 145.962L398.876 145.535L397.101 145.303L392.776 144.747L390.837 144.485H390.807C390.807 144.485 389.137 133.695 389.018 127.866C388.898 122.422 385.662 111.278 385.229 109.818C385.214 109.773 385.199 109.736 385.199 109.708V109.695L385.185 109.681V109.654C385.185 109.654 375.803 118.673 373.984 122.602C373.536 123.571 372.343 125.877 370.747 128.824C370.717 128.892 370.688 128.961 370.658 129.015C366.333 137.021 359.233 149.536 356.489 152.47C356.161 152.849 355.877 153.067 355.684 153.098C355.594 153.111 355.519 153.125 355.415 153.125C353.7 153.135 350.821 150.952 349.405 149.779C348.883 149.356 348.569 149.073 348.569 149.073C348.569 149.073 348.689 148.813 348.927 148.346C350.926 144.161 361.053 123.094 363.603 118.141C363.842 117.673 364.021 117.349 364.11 117.196C364.155 117.145 364.2 117.049 364.259 116.94C366.168 113.566 379.144 87.7682 381.128 86.472C381.352 86.3219 381.709 86.1446 382.172 85.9126C382.321 85.858 382.5 85.7761 382.679 85.6806L382.753 85.6534C383.082 85.5169 383.425 85.3668 383.812 85.2031C383.932 85.1485 384.066 85.0939 384.2 85.0394C384.469 84.9302 384.737 84.821 385.02 84.6982C386.586 84.0706 388.436 83.3611 390.226 82.6925C390.733 82.5015 391.225 82.3241 391.687 82.1604C392.388 81.9011 393.074 81.6692 393.701 81.4509C393.79 81.4236 393.865 81.3963 393.939 81.369C396.042 80.6322 397.638 80.124 397.966 80.1137H398.235C398.369 80.1137 398.548 80.124 398.757 80.141C401.352 80.2775 409.093 80.9324 411.583 81.1473C412.09 81.1916 412.374 81.2155 412.374 81.2155C412.374 81.2155 413.567 81.7238 415.357 82.4571L415.372 82.4742L415.521 82.5288C416.565 82.9654 417.788 83.4805 419.085 84.0297C421.8 85.1758 424.872 86.4856 427.303 87.5363C429.63 88.5596 433.15 90.2925 433.418 90.4835L450.212 120.065Z" fill="#DECBC4"/>
<path d="M428.336 149.318C428.336 149.318 429.201 150.263 429.451 154.268C429.451 154.268 393.913 150.474 390.155 148.98C390.155 148.98 390.009 144.566 390.807 144.491C391.68 144.406 428.336 149.318 428.336 149.318Z" fill="#495055"/>
<path d="M398.03 79.0012C398.142 84.1042 408.94 86.8945 408.94 86.8945C408.94 86.8945 413.459 81.7165 412.378 81.2185C411.956 81.024 411.781 80.2497 411.729 79.3833C411.68 78.5578 411.74 77.647 411.792 77.0706C411.822 76.709 411.856 76.477 411.856 76.477C411.856 76.477 410.312 74.9864 408.347 73.2126C404.917 70.1085 400.204 66.1346 400.196 67.7173C400.196 67.7992 400.207 67.9015 400.233 68.0175C401.065 71.5753 398.03 79.0012 398.03 79.0012Z" fill="#EEA886"/>
<path d="M398.928 145.274C398.928 145.274 398.149 149.749 398.082 150.916L396.441 150.616C396.441 150.616 396.893 145.881 397.157 145.086L398.928 145.274Z" fill="#5D676C"/>
<path d="M425.372 148.799C425.372 148.799 425.995 152.865 426.009 154.4L424.272 154.196C424.272 154.196 423.914 149.117 423.716 148.584L425.372 148.799Z" fill="#353A3D"/>
<path d="M402.191 71.529C402.213 71.5597 402.672 72.1839 403.451 73.0845C405.11 74.9913 408.228 78.1261 411.729 79.3848C411.68 78.5593 411.74 77.6485 411.792 77.072C412.15 77.0618 412.508 77.0243 412.862 76.9527C411.904 75.4177 410.517 73.8076 410.517 73.8076L408.347 73.2141L402.191 71.529Z" fill="#A77860"/>
<path d="M400.118 67.7871C401.05 69.6461 401.937 70.9935 402.191 71.5291C402.355 71.877 402.799 72.4432 403.451 73.0845C405.23 74.8378 408.541 77.154 411.792 77.0721C412.15 77.0619 412.508 77.0244 412.862 76.9527C414.178 76.6901 415.726 76.1341 416.58 74.6059C423.317 62.5374 418.44 52.6691 418.44 52.6691C418.44 52.6691 400.017 47.9038 397.135 52.9761C395.114 56.5338 397.922 63.4175 400.118 67.7871Z" fill="#EEA886"/>
<path d="M418.44 52.6687C418.44 52.6687 420.152 52.5835 420.573 49.6158C420.991 46.6822 420.148 45.8704 420.148 45.8704C420.148 45.8704 412.542 42.9573 409.812 42.5787C407.079 42.2001 400.364 41.8351 398.79 43.4826C398.79 43.4826 394.965 42.6708 393.924 48.4799C392.269 57.6933 399.555 66.6406 399.555 66.6406C399.555 66.6406 399.495 60.62 400.945 59.8253C402.396 59.0271 403.649 60.9236 403.649 60.9236L406.617 61.408C406.617 61.408 402.109 52.5016 407.519 52.1741C410.077 52.0172 411.967 52.2355 413.578 52.4538C415.368 52.696 416.811 52.9416 418.44 52.6687Z" fill="white"/>
<path d="M403.567 58.5217C403.283 55.8712 398.041 54.8581 398.395 57.6382C398.746 60.4182 401.326 63.0891 402.519 62.9936C403.712 62.9015 403.783 60.5444 403.567 58.5217Z" fill="#EEA886"/>
<path d="M373.991 122.6C371.933 126.434 359.077 152.062 356.825 152.441C354.569 152.819 348.566 148.074 348.566 148.074C348.566 148.074 362.91 119.148 364.114 117.204C365.319 115.26 379.081 87.8105 381.124 86.4699C382.306 85.6956 387.4 83.7104 391.691 82.1617C392.478 81.8786 393.235 81.6091 393.94 81.3635C394.849 82.2913 409.481 97.423 408.109 110.835C407.695 114.864 407.139 121.434 405.924 128.355C404.66 135.545 402.624 143.671 401.307 149.807C398.929 160.9 393.675 171.475 393.675 171.475L379.972 165.202C377.813 164.212 376.803 161.91 377.612 159.833C380.696 151.932 386.852 135.982 386.855 129.051C386.855 129.051 386.371 113.407 385.192 109.676C385.192 109.676 376.352 118.207 373.991 122.6Z" fill="#3C4145"/>
<path d="M458.922 128.676V144.227C452.822 138.783 445.365 131.487 442.621 129.191C442.144 128.813 441.801 128.564 441.636 128.513C441.249 128.376 440.548 127.486 439.698 126.149C439.444 125.78 439.191 125.357 438.922 124.924C438.519 124.255 438.102 123.532 437.669 122.768C437.386 122.263 437.088 121.741 436.789 121.213C436.491 120.681 436.208 120.135 435.909 119.603C435.328 118.525 434.746 117.447 434.224 116.437C433.821 115.67 433.433 114.95 433.105 114.295C432.882 113.845 432.658 113.435 432.464 113.053C432.27 112.671 432.091 112.33 431.942 112.016C431.569 111.28 431.331 110.799 431.271 110.69C431.808 112.736 431.614 114.837 431.196 117.01C430.465 120.817 429.019 124.825 429.377 129.109V129.191C430.51 142.194 436.491 160.601 438.266 165.813C438.519 166.58 438.34 167.385 437.774 167.996C437.714 168.092 437.624 168.177 437.535 168.255L433.269 171.857C433.269 171.857 429.571 161.433 427.662 154.079C427.617 153.874 427.557 153.669 427.512 153.482C427.08 151.759 426.767 150.245 426.632 149.099V149.088C426.289 146.165 425.603 142.754 424.858 139.128C424.127 135.498 423.366 131.637 422.904 127.83C421.711 118.17 420.488 108.592 419.608 102.97C419.324 101.142 419.041 99.4499 418.772 97.8911C416.878 86.9926 415.432 82.5991 415.432 82.5991L415.521 82.5309C416.565 82.9675 417.788 83.4826 419.086 84.0318C421.8 85.1779 424.873 86.4877 427.304 87.5384C429.63 88.5617 433.15 90.2945 433.419 90.4856L450.212 120.067L458.922 128.676Z" fill="#3C4145"/>
<path d="M396.937 94.0276L402.191 96.736L399.946 98.8304L405.923 128.354C407.139 121.432 407.694 114.863 408.108 110.834C409.48 97.4216 394.849 82.29 393.939 81.3622C393.235 81.6078 392.478 81.8773 391.691 82.1604L396.937 94.0276Z" fill="#51565C"/>
<path d="M415.357 82.4673C415.357 82.4673 417.318 88.331 419.608 102.971C420.484 108.593 421.714 118.164 422.896 127.828L424.119 100.178L421.617 97.6979L423.843 95.1532L419.082 84.033C417.781 83.4838 416.558 82.9687 415.521 82.5355L415.357 82.4673Z" fill="#51565C"/>
<path d="M391.691 82.1589C387.4 83.7076 381.012 85.7201 379.834 86.4944C377.791 87.8316 365.319 115.257 364.114 117.201L391.691 82.1589Z" fill="#3C4145"/>
<path d="M345.855 202.512L342.801 202.068L325.538 182.287L335.896 156.349L337.842 156.847L345.855 202.512Z" fill="#545554"/>
<path d="M393.675 81.4268L398.03 79.0049C398.03 79.0049 398.153 81.1914 408.94 86.8982L405.879 94.7949L393.675 81.4268Z" fill="#F5E2D9"/>
<path d="M411.811 80.1052C411.811 80.1052 411.639 82.4657 408.939 86.8967L414.92 94.0293L415.356 82.4657L411.811 80.1052Z" fill="#F5E2D9"/>
<path d="M408.925 86.8964C408.925 86.8964 407.765 91.1399 408.183 92.3269C408.183 92.3269 410.73 93.1729 412.56 92.112C412.56 92.112 411.263 89.1444 408.925 86.8964Z" fill="#464157"/>
<path d="M414.913 148.049C415.562 145.057 414.947 136.093 414.921 135.711L414.365 135.745C414.369 135.837 415.003 145.023 414.369 147.95L414.913 148.049Z" fill="#AD9F99"/>
<path d="M410.379 146.674C410.379 146.674 415.607 147.244 417.337 147.64L417.109 153.002L410.26 152.333L410.379 146.674Z" fill="#69737A"/>
<path d="M411.52 91.7314C411.52 91.7314 416.669 104.98 417.318 120.074C417.966 135.172 416.225 139.071 416.225 139.071L409.782 144.375L407.627 137.481C407.627 137.481 413.44 120.712 410.326 101.313C409.763 97.7964 408.925 91.1379 408.925 91.1379L411.52 91.7314Z" fill="#464157"/>
<mask id="mask1_10691_2163" style="mask-type:luminance" maskUnits="userSpaceOnUse" x="317" y="2" width="142" height="278">
<path d="M445.499 279.459H331.313C323.901 279.459 317.89 273.96 317.89 267.179V14.7609C317.89 7.97958 323.901 2.4809 331.313 2.4809H445.499C452.911 2.4809 458.922 7.97958 458.922 14.7609V267.179C458.922 273.96 452.911 279.459 445.499 279.459ZM331.313 2.48773C323.904 2.48773 317.894 7.97958 317.894 14.7643V267.189C317.894 273.967 323.904 279.459 331.313 279.459H434.91C442.322 279.459 448.329 273.967 448.329 267.189V230.574C452.233 241.06 456.297 252.266 458.922 259.552V208.904C457.61 204.688 456.103 200.581 454.612 197.415C453.471 194.99 451.137 190.77 448.329 185.889V134.419C451.554 137.451 455.458 141.139 458.922 144.229V128.678L450.212 120.068L448.329 116.749V14.7643C448.329 7.97958 442.322 2.48773 434.91 2.48773H331.313Z" fill="white"/>
</mask>
<g mask="url(#mask1_10691_2163)">
<path d="M445.499 279.459H331.313C323.901 279.459 317.89 273.96 317.89 267.179V14.7609C317.89 7.97958 323.901 2.4809 331.313 2.4809H445.499C452.911 2.4809 458.922 7.97958 458.922 14.7609V267.179C458.922 273.96 452.911 279.459 445.499 279.459ZM331.313 2.48773C323.904 2.48773 317.894 7.97958 317.894 14.7643V267.189C317.894 273.967 323.904 279.459 331.313 279.459H434.91C442.322 279.459 448.329 273.967 448.329 267.189V230.574C452.233 241.06 456.297 252.266 458.922 259.552V208.904C457.61 204.688 456.103 200.581 454.612 197.415C453.471 194.99 451.137 190.77 448.329 185.889V134.419C451.554 137.451 455.458 141.139 458.922 144.229V128.678L450.212 120.068L448.329 116.749V14.7643C448.329 7.97958 442.322 2.48773 434.91 2.48773H331.313Z" fill="#FFFBFE"/>
</g>
<mask id="mask2_10691_2163" style="mask-type:luminance" maskUnits="userSpaceOnUse" x="317" y="2" width="132" height="278">
<path d="M434.91 279.459H331.313C323.905 279.459 317.894 273.967 317.894 267.189V14.7643C317.894 7.97961 323.905 2.48776 331.313 2.48776H434.91C442.322 2.48776 448.329 7.97961 448.329 14.7643V116.749L433.418 90.4874C433.15 90.2963 429.63 88.5635 427.303 87.5401C424.872 86.4895 421.8 85.1797 419.085 84.0335C417.788 83.4844 416.565 82.9693 415.521 82.5327L415.457 82.5088L415.364 82.4678L415.357 82.461C415.349 82.461 415.346 82.4576 415.342 82.4576L411.811 80.1074C411.811 80.1074 411.811 80.1074 411.811 80.1108C411.77 79.8856 411.744 79.64 411.729 79.3876C411.718 79.1693 411.71 78.9442 411.71 78.7191C411.71 78.1016 411.751 77.4979 411.792 77.0749C412.15 77.0647 412.508 77.0271 412.862 76.9555C414.179 76.6929 415.726 76.1368 416.58 74.6087C423.317 62.5402 418.44 52.6719 418.44 52.6719C418.44 52.6719 420.152 52.5866 420.573 49.6189C420.991 46.6854 420.148 45.8735 420.148 45.8735C420.148 45.8735 412.542 42.9604 409.812 42.5818C408.642 42.4215 406.74 42.2612 404.827 42.2612C402.269 42.2612 399.689 42.5443 398.79 43.4858C398.79 43.4858 398.608 43.4483 398.31 43.4483C397.251 43.4483 394.737 43.9429 393.925 48.483C392.277 57.6589 399.499 66.5721 399.555 66.6438C399.745 67.0428 399.935 67.4249 400.118 67.7899C400.155 67.8683 400.196 67.9468 400.237 68.0253C401.061 71.583 398.03 79.0056 398.03 79.0056L393.675 81.4275L393.697 81.4513C393.5 81.5195 393.295 81.5912 393.089 81.6662C392.638 81.8197 392.165 81.9869 391.687 82.1643C391.378 82.27 391.057 82.386 390.729 82.5088C386.505 83.996 380.927 85.78 379.834 86.4998C377.892 87.7721 366.523 112.622 364.371 116.739C364.33 116.814 364.293 116.882 364.26 116.944C364.2 117.053 364.155 117.149 364.11 117.2C364.047 117.309 363.935 117.507 363.79 117.78C361.34 122.316 348.566 148.077 348.566 148.077C348.566 148.077 348.696 148.179 348.927 148.353C348.689 148.817 348.57 149.076 348.57 149.076C348.57 149.076 348.883 149.36 349.405 149.783C349.405 149.786 349.408 149.789 349.412 149.789C348.174 151.918 346.385 152.89 345.456 154.606C345.188 155.107 345.191 155.708 345.37 156.335C344.349 157.669 343.446 159.392 343.036 160.221L337.842 156.85L335.896 156.352L325.538 182.29L342.801 202.071L345.855 202.515L358.421 170.205L350.93 165.344C351.474 163.98 351.851 162.813 352.097 161.817C352.156 161.95 352.335 162.015 352.578 162.015C353.186 162.015 354.192 161.609 354.692 160.879C355.613 159.525 355.117 158.447 355.229 155.605C355.262 154.749 355.337 153.9 355.423 153.129C355.523 153.125 355.594 153.112 355.684 153.102C355.878 153.071 356.161 152.853 356.489 152.474C356.489 152.47 356.493 152.467 356.493 152.464C356.512 152.467 356.53 152.467 356.549 152.467C356.646 152.467 356.739 152.46 356.825 152.443C358.547 152.153 366.482 137.076 371.035 128.296C372.44 125.69 373.492 123.65 373.939 122.695C373.958 122.664 373.973 122.634 373.991 122.603C376.314 118.274 384.927 109.931 385.185 109.685L385.196 109.695C385.196 109.699 385.196 109.702 385.2 109.705V109.712C385.2 109.74 385.215 109.777 385.229 109.821C385.244 109.879 385.267 109.954 385.293 110.043C386.397 114.324 386.855 129.053 386.855 129.053C386.851 135.985 380.695 151.935 377.612 159.835C376.803 161.912 377.813 164.215 379.972 165.204L385.006 167.507C382.217 181.697 381.426 195.3 380.725 198.084C378.727 206.052 357.518 248.172 357.518 248.172C357.682 248.473 357.891 248.745 358.115 249.018C358.115 249.022 358.115 249.022 358.119 249.022C357.712 249.482 357.209 250.103 356.862 250.703C356.855 250.714 356.851 250.72 356.847 250.731C356.836 250.755 356.825 250.778 356.814 250.802C356.403 251.573 352.947 255.387 352.939 257.328C352.932 259.337 356.176 260.285 359.368 264.529C362.895 269.219 369.853 271.231 374.062 271.231C375.886 271.231 377.191 270.856 377.489 270.157C378.473 267.844 374.737 264.535 371.12 262.223C367.504 259.91 365.345 254.449 365.345 254.449C365.401 254.442 365.699 253.76 365.938 253.197C366.709 253.388 367.213 253.48 367.213 253.48C367.213 253.48 396.087 210.432 397.355 204.633C398.638 198.834 408.287 175.27 410.017 173.268C410.077 173.196 410.159 173.166 410.271 173.166C413.34 173.166 435.387 199.537 437.893 204.237C439.492 207.229 443.803 218.417 448.329 230.574V267.189C448.329 273.967 442.322 279.459 434.91 279.459ZM448.329 185.889C445.07 180.223 441.178 173.67 437.773 167.998C438.34 167.387 438.519 166.582 438.266 165.815C436.491 160.603 430.51 142.196 429.377 129.193V129.111C429.481 126.358 429.749 123.735 430.301 121.76C430.764 120.109 431.047 118.486 431.196 117.012C431.614 114.839 431.808 112.738 431.271 110.691C431.33 110.8 431.569 111.281 431.942 112.018C432.091 112.332 432.27 112.673 432.464 113.055C432.658 113.437 432.881 113.847 433.105 114.297C433.433 114.952 433.821 115.672 434.224 116.439C434.746 117.449 435.327 118.527 435.909 119.605C436.207 120.137 436.491 120.682 436.789 121.215C437.087 121.743 437.386 122.265 437.669 122.77C438.102 123.534 438.519 124.257 438.922 124.926C439.19 125.359 439.444 125.782 439.697 126.15C440.548 127.488 441.248 128.378 441.636 128.514C441.8 128.565 442.143 128.814 442.621 129.193C443.806 130.186 445.872 132.113 448.329 134.419V185.889ZM348.282 163.625L344.494 161.165C344.919 160.394 345.628 159.245 346.291 158.198C347.19 159.542 348.417 160.736 348.942 161.135C348.995 161.172 349.043 161.193 349.088 161.199C348.797 162.178 348.491 163.055 348.282 163.625Z" fill="white"/>
</mask>
<g mask="url(#mask2_10691_2163)">
<path d="M434.91 279.459H331.313C323.905 279.459 317.894 273.967 317.894 267.189V14.7643C317.894 7.97961 323.905 2.48776 331.313 2.48776H434.91C442.322 2.48776 448.329 7.97961 448.329 14.7643V116.749L433.418 90.4874C433.15 90.2963 429.63 88.5635 427.303 87.5401C424.872 86.4895 421.8 85.1797 419.085 84.0335C417.788 83.4844 416.565 82.9693 415.521 82.5327L415.457 82.5088L415.364 82.4678L415.357 82.461C415.349 82.461 415.346 82.4576 415.342 82.4576L411.811 80.1074C411.811 80.1074 411.811 80.1074 411.811 80.1108C411.77 79.8856 411.744 79.64 411.729 79.3876C411.718 79.1693 411.71 78.9442 411.71 78.7191C411.71 78.1016 411.751 77.4979 411.792 77.0749C412.15 77.0647 412.508 77.0271 412.862 76.9555C414.179 76.6929 415.726 76.1368 416.58 74.6087C423.317 62.5402 418.44 52.6719 418.44 52.6719C418.44 52.6719 420.152 52.5866 420.573 49.6189C420.991 46.6854 420.148 45.8735 420.148 45.8735C420.148 45.8735 412.542 42.9604 409.812 42.5818C408.642 42.4215 406.74 42.2612 404.827 42.2612C402.269 42.2612 399.689 42.5443 398.79 43.4858C398.79 43.4858 398.608 43.4483 398.31 43.4483C397.251 43.4483 394.737 43.9429 393.925 48.483C392.277 57.6589 399.499 66.5721 399.555 66.6438C399.745 67.0428 399.935 67.4249 400.118 67.7899C400.155 67.8683 400.196 67.9468 400.237 68.0253C401.061 71.583 398.03 79.0056 398.03 79.0056L393.675 81.4275L393.697 81.4513C393.5 81.5195 393.295 81.5912 393.089 81.6662C392.638 81.8197 392.165 81.9869 391.687 82.1643C391.378 82.27 391.057 82.386 390.729 82.5088C386.505 83.996 380.927 85.78 379.834 86.4998C377.892 87.7721 366.523 112.622 364.371 116.739C364.33 116.814 364.293 116.882 364.26 116.944C364.2 117.053 364.155 117.149 364.11 117.2C364.047 117.309 363.935 117.507 363.79 117.78C361.34 122.316 348.566 148.077 348.566 148.077C348.566 148.077 348.696 148.179 348.927 148.353C348.689 148.817 348.57 149.076 348.57 149.076C348.57 149.076 348.883 149.36 349.405 149.783C349.405 149.786 349.408 149.789 349.412 149.789C348.174 151.918 346.385 152.89 345.456 154.606C345.188 155.107 345.191 155.708 345.37 156.335C344.349 157.669 343.446 159.392 343.036 160.221L337.842 156.85L335.896 156.352L325.538 182.29L342.801 202.071L345.855 202.515L358.421 170.205L350.93 165.344C351.474 163.98 351.851 162.813 352.097 161.817C352.156 161.95 352.335 162.015 352.578 162.015C353.186 162.015 354.192 161.609 354.692 160.879C355.613 159.525 355.117 158.447 355.229 155.605C355.262 154.749 355.337 153.9 355.423 153.129C355.523 153.125 355.594 153.112 355.684 153.102C355.878 153.071 356.161 152.853 356.489 152.474C356.489 152.47 356.493 152.467 356.493 152.464C356.512 152.467 356.53 152.467 356.549 152.467C356.646 152.467 356.739 152.46 356.825 152.443C358.547 152.153 366.482 137.076 371.035 128.296C372.44 125.69 373.492 123.65 373.939 122.695C373.958 122.664 373.973 122.634 373.991 122.603C376.314 118.274 384.927 109.931 385.185 109.685L385.196 109.695C385.196 109.699 385.196 109.702 385.2 109.705V109.712C385.2 109.74 385.215 109.777 385.229 109.821C385.244 109.879 385.267 109.954 385.293 110.043C386.397 114.324 386.855 129.053 386.855 129.053C386.851 135.985 380.695 151.935 377.612 159.835C376.803 161.912 377.813 164.215 379.972 165.204L385.006 167.507C382.217 181.697 381.426 195.3 380.725 198.084C378.727 206.052 357.518 248.172 357.518 248.172C357.682 248.473 357.891 248.745 358.115 249.018C358.115 249.022 358.115 249.022 358.119 249.022C357.712 249.482 357.209 250.103 356.862 250.703C356.855 250.714 356.851 250.72 356.847 250.731C356.836 250.755 356.825 250.778 356.814 250.802C356.403 251.573 352.947 255.387 352.939 257.328C352.932 259.337 356.176 260.285 359.368 264.529C362.895 269.219 369.853 271.231 374.062 271.231C375.886 271.231 377.191 270.856 377.489 270.157C378.473 267.844 374.737 264.535 371.12 262.223C367.504 259.91 365.345 254.449 365.345 254.449C365.401 254.442 365.699 253.76 365.938 253.197C366.709 253.388 367.213 253.48 367.213 253.48C367.213 253.48 396.087 210.432 397.355 204.633C398.638 198.834 408.287 175.27 410.017 173.268C410.077 173.196 410.159 173.166 410.271 173.166C413.34 173.166 435.387 199.537 437.893 204.237C439.492 207.229 443.803 218.417 448.329 230.574V267.189C448.329 273.967 442.322 279.459 434.91 279.459ZM448.329 185.889C445.07 180.223 441.178 173.67 437.773 167.998C438.34 167.387 438.519 166.582 438.266 165.815C436.491 160.603 430.51 142.196 429.377 129.193V129.111C429.481 126.358 429.749 123.735 430.301 121.76C430.764 120.109 431.047 118.486 431.196 117.012C431.614 114.839 431.808 112.738 431.271 110.691C431.33 110.8 431.569 111.281 431.942 112.018C432.091 112.332 432.27 112.673 432.464 113.055C432.658 113.437 432.881 113.847 433.105 114.297C433.433 114.952 433.821 115.672 434.224 116.439C434.746 117.449 435.327 118.527 435.909 119.605C436.207 120.137 436.491 120.682 436.789 121.215C437.087 121.743 437.386 122.265 437.669 122.77C438.102 123.534 438.519 124.257 438.922 124.926C439.19 125.359 439.444 125.782 439.697 126.15C440.548 127.488 441.248 128.378 441.636 128.514C441.8 128.565 442.143 128.814 442.621 129.193C443.806 130.186 445.872 132.113 448.329 134.419V185.889ZM348.282 163.625L344.494 161.165C344.919 160.394 345.628 159.245 346.291 158.198C347.19 159.542 348.417 160.736 348.942 161.135C348.995 161.172 349.043 161.193 349.088 161.199C348.797 162.178 348.491 163.055 348.282 163.625Z" fill="white"/>
</g>
<path d="M374.062 271.23C369.853 271.23 362.895 269.218 359.368 264.528C356.176 260.284 352.932 259.336 352.939 257.327C352.947 255.386 356.403 251.572 356.813 250.801C356.31 252.261 365.207 254.448 365.345 254.448C365.345 254.448 367.503 259.909 371.12 262.222C374.737 264.534 378.473 267.843 377.489 270.156C377.19 270.855 375.885 271.23 374.062 271.23ZM356.847 250.73C356.851 250.72 356.855 250.713 356.862 250.702C356.858 250.713 356.855 250.723 356.847 250.73Z" fill="#D7D7D7"/>
<path d="M365.345 254.449C365.207 254.449 356.31 252.263 356.814 250.803C356.825 250.779 356.836 250.755 356.847 250.731C356.855 250.724 356.858 250.714 356.862 250.704C357.209 250.103 357.712 249.483 358.119 249.022C360.072 251.383 363.917 252.648 365.93 253.194C365.93 253.197 365.934 253.197 365.938 253.197C365.699 253.76 365.401 254.442 365.345 254.449Z" fill="#E6E6E6"/>
<path d="M344.494 161.16L343.036 160.215C343.446 159.386 344.349 157.664 345.37 156.33C345.546 156.941 345.885 157.582 346.291 158.192C345.628 159.24 344.919 160.389 344.494 161.16Z" fill="#DADADA"/>
<path d="M352.578 162.01C352.336 162.01 352.157 161.945 352.097 161.812C353.245 157.21 351.694 156.259 351.694 156.259C351.515 156.156 351.34 156.112 351.18 156.112C350.382 156.112 349.86 157.163 349.86 157.163C349.834 158.35 349.476 159.864 349.088 161.195C349.043 161.188 348.995 161.167 348.942 161.13C348.417 160.731 347.19 159.537 346.291 158.193C345.885 157.582 345.546 156.941 345.37 156.33C345.191 155.703 345.188 155.102 345.456 154.601C346.385 152.885 348.174 151.913 349.412 149.784C350.829 150.958 353.685 153.124 355.397 153.124C355.404 153.124 355.408 153.124 355.415 153.124C355.419 153.124 355.419 153.124 355.423 153.124C355.337 153.895 355.263 154.744 355.229 155.6C355.117 158.442 355.613 159.52 354.692 160.874C354.192 161.604 353.186 162.01 352.578 162.01Z" fill="#F9EDFD"/>
<path d="M350.93 165.344L348.282 163.625C348.491 163.055 348.797 162.178 349.088 161.199C349.475 159.869 349.833 158.354 349.859 157.167C349.859 157.167 350.381 156.117 351.179 156.117C351.34 156.117 351.515 156.161 351.694 156.263C351.694 156.263 353.245 157.215 352.097 161.817C351.851 162.813 351.474 163.979 350.93 165.344Z" fill="#DEDEDE"/>
<path d="M345.855 202.512L337.842 156.847L343.036 160.217L344.494 161.162L348.282 163.622L350.93 165.341L358.421 170.202L345.855 202.512Z" fill="#DEDEDE"/>
<path d="M458.922 259.547C456.297 252.261 452.233 241.055 448.329 230.57C443.802 218.412 439.492 207.224 437.893 204.232C435.387 199.532 413.339 173.161 410.271 173.161C410.159 173.161 410.077 173.191 410.017 173.263C408.287 175.265 398.637 198.829 397.355 204.628C396.087 210.427 367.213 253.475 367.213 253.475C367.213 253.475 366.709 253.383 365.937 253.192C365.934 253.192 365.93 253.192 365.93 253.189C363.916 252.643 360.072 251.377 358.118 249.017C358.115 249.017 358.115 249.017 358.115 249.013C357.891 248.741 357.682 248.468 357.518 248.167C357.518 248.167 378.727 206.047 380.725 198.079C381.426 195.295 382.217 181.692 385.006 167.502L393.675 171.472C393.675 171.472 398.589 161.577 401.065 150.886C403.94 151.279 407.113 151.684 410.267 152.07L410.26 152.329L417.109 152.998L417.113 152.885C419.779 153.196 422.229 153.472 424.235 153.694C424.257 154.004 424.272 154.192 424.272 154.192L426.009 154.396C426.009 154.25 426.002 154.079 425.991 153.891C426.625 153.96 427.184 154.021 427.657 154.072C427.657 154.076 427.661 154.076 427.661 154.076C429.57 161.43 433.269 171.854 433.269 171.854L437.535 168.252C437.624 168.174 437.714 168.088 437.773 167.993C441.177 173.666 445.07 180.218 448.329 185.884C451.137 190.765 453.471 194.985 454.612 197.41C456.103 200.576 457.61 204.683 458.922 208.899V259.547Z" fill="#D7D7D7"/>
<path d="M355.396 153.125C353.685 153.125 350.829 150.959 349.412 149.786C349.408 149.786 349.405 149.782 349.405 149.779C348.883 149.356 348.569 149.073 348.569 149.073C348.569 149.073 348.689 148.813 348.927 148.349C350.18 149.305 354.416 152.409 356.493 152.46C356.493 152.463 356.489 152.467 356.489 152.47C356.161 152.849 355.877 153.067 355.684 153.098C355.594 153.108 355.523 153.122 355.423 153.125C355.419 153.125 355.419 153.125 355.415 153.125C355.408 153.125 355.404 153.125 355.396 153.125ZM426.632 149.09C426.267 149.042 425.853 148.984 425.39 148.923C425.379 148.841 425.372 148.796 425.372 148.796L423.716 148.581C423.727 148.612 423.739 148.653 423.75 148.704C421.953 148.465 419.745 148.172 417.325 147.851L417.337 147.637C416.811 147.517 415.968 147.381 415.043 147.248C415.267 145.402 415.23 142.431 415.14 139.965L416.225 139.071C416.225 139.071 417.967 135.172 417.318 120.075C416.759 107.044 412.847 95.3887 411.785 92.4449C412.053 92.363 412.314 92.2573 412.56 92.1106C412.56 92.1106 411.979 90.7769 410.886 89.218L414.92 94.0277L415.357 82.464L415.342 82.4538C415.345 82.4538 415.349 82.4572 415.357 82.4572L415.364 82.464H415.357C415.357 82.464 417.318 88.3277 419.607 102.968C420.003 105.506 420.469 108.845 420.972 112.639C421.244 114.682 421.524 116.851 421.811 119.099C422.169 121.927 422.534 124.871 422.896 127.825V127.791C422.9 127.804 422.9 127.815 422.903 127.828C423.366 131.635 424.126 135.496 424.857 139.126C425.603 142.752 426.289 146.163 426.632 149.086V149.09ZM414.492 147.173C412.504 146.903 410.379 146.671 410.379 146.671L410.371 146.934C407.582 146.569 404.771 146.2 402.18 145.866C403.414 140.425 404.916 134.091 405.923 128.354C407.139 121.432 407.694 114.863 408.108 110.834C408.168 110.23 408.198 109.623 408.198 109.016C408.198 100.87 402.881 92.363 398.731 86.9633L405.878 94.7917L408.887 87.0315C408.697 87.7615 407.81 91.2613 408.183 92.3255C408.183 92.3255 408.548 92.4449 409.104 92.5404C409.38 94.686 409.924 98.8032 410.327 101.314C413.44 120.713 407.627 137.482 407.627 137.482L409.782 144.376L414.596 140.412C414.671 142.769 414.693 145.477 414.492 147.173ZM429.376 129.107C429.018 124.823 430.465 120.815 431.196 117.008C431.047 118.482 430.763 120.106 430.301 121.757C429.749 123.732 429.481 126.355 429.376 129.107ZM371.034 128.292C372.384 125.69 373.436 123.636 373.939 122.691C373.492 123.646 372.44 125.686 371.034 128.292ZM450.212 120.065L433.418 90.4835C433.15 90.2925 429.63 88.5597 427.303 87.5363C424.872 86.4857 421.8 85.1758 419.085 84.0297C417.788 83.4805 416.565 82.9655 415.521 82.5288H415.517L415.457 82.5049L415.521 82.5288C416.565 82.9655 417.788 83.4805 419.085 84.0297C421.8 85.1758 424.872 86.4857 427.303 87.5363C429.63 88.5597 433.15 90.2925 433.418 90.4835L448.329 116.746L450.212 120.065ZM363.79 117.776C363.935 117.503 364.047 117.305 364.11 117.196C364.155 117.145 364.2 117.049 364.259 116.94C364.293 116.879 364.33 116.81 364.371 116.735C364.259 116.947 364.174 117.104 364.114 117.203C364.047 117.312 363.939 117.506 363.79 117.776ZM385.293 110.039C385.267 109.951 385.244 109.876 385.229 109.818C385.214 109.773 385.199 109.736 385.199 109.708V109.702C385.229 109.804 385.263 109.917 385.293 110.039ZM385.196 109.691L385.185 109.681C385.188 109.678 385.192 109.674 385.192 109.674C385.192 109.681 385.192 109.685 385.196 109.691ZM409.011 86.9803C408.984 86.9564 408.962 86.9326 408.936 86.9087L408.94 86.895L409.011 86.9803ZM390.729 82.5049C391.057 82.3821 391.378 82.2662 391.687 82.1604C392.165 81.9831 392.638 81.8159 393.089 81.6624C392.638 81.8193 392.168 81.9899 391.691 82.1604C391.382 82.273 391.061 82.3856 390.729 82.5049Z" fill="#F3F4FE"/>
<path d="M427.658 154.074C427.184 154.023 426.625 153.962 425.991 153.893C425.894 152.324 425.488 149.551 425.391 148.923C425.853 148.985 426.267 149.043 426.632 149.091V149.097C426.766 150.244 427.08 151.758 427.512 153.481C427.557 153.668 427.613 153.873 427.658 154.074ZM424.235 153.696C422.229 153.474 419.779 153.198 417.113 152.887L417.326 147.852C419.745 148.173 421.953 148.466 423.75 148.705C423.91 149.452 424.145 152.491 424.235 153.696ZM410.267 152.072C407.113 151.686 403.94 151.281 401.065 150.888C401.151 150.527 401.229 150.169 401.307 149.807C401.572 148.565 401.87 147.245 402.18 145.867C404.771 146.201 407.583 146.57 410.372 146.935L410.267 152.072Z" fill="#BBDAFC"/>
<path d="M408.94 86.8945C398.179 81.2014 398.03 79.0115 398.03 79.0012C398.03 79.0012 401.061 71.5787 400.237 68.0209C401.125 69.7572 401.949 71.0159 402.191 71.5275C402.355 71.8754 402.799 72.4417 403.451 73.083C405.11 74.9898 408.228 78.1246 411.729 79.3833C411.744 79.6357 411.77 79.8813 411.811 80.1064C411.803 80.1917 411.591 82.542 408.94 86.8945Z" fill="#F1E4DD"/>
<path d="M426.009 154.4L424.272 154.196C424.272 154.196 424.257 154.008 424.235 153.698C424.145 152.494 423.91 149.454 423.75 148.707C423.739 148.656 423.727 148.615 423.716 148.584L425.372 148.799C425.372 148.799 425.379 148.844 425.39 148.926C425.487 149.553 425.894 152.326 425.991 153.896C426.002 154.083 426.009 154.254 426.009 154.4Z" fill="#B3D5FB"/>
<path d="M411.729 79.3848C408.228 78.1261 405.11 74.9913 403.451 73.0845C405.2 74.8071 408.425 77.072 411.624 77.072C411.68 77.072 411.736 77.072 411.792 77.072C411.751 77.495 411.71 78.0988 411.71 78.7162C411.71 78.9413 411.718 79.1665 411.729 79.3848Z" fill="#DEE3FC"/>
<path d="M411.625 77.0703C408.425 77.0703 405.2 74.8053 403.451 73.0827C402.799 72.4414 402.355 71.8752 402.191 71.5273C401.949 71.0156 401.125 69.7569 400.237 68.0207C400.196 67.9422 400.155 67.8637 400.118 67.7853C399.935 67.4203 399.745 67.0383 399.555 66.6392C399.555 66.6392 399.522 63.3679 400.088 61.3281C400.909 62.3344 401.844 62.9961 402.456 62.9961C402.478 62.9961 402.501 62.9961 402.519 62.9927C403.243 62.9381 403.552 62.0478 403.638 60.9051C403.645 60.9153 403.649 60.9221 403.649 60.9221L406.617 61.4065C406.617 61.4065 402.109 52.5001 407.519 52.1727C408.123 52.1351 408.69 52.1181 409.227 52.1181C410.957 52.1181 412.348 52.2852 413.578 52.4524C414.809 52.6195 415.875 52.7867 416.949 52.7867C417.438 52.7867 417.93 52.7526 418.441 52.6673C418.441 52.6673 423.318 62.5356 416.58 74.6041C415.726 76.1323 414.179 76.6883 412.863 76.9509C412.508 77.0226 412.15 77.0601 411.792 77.0703C411.737 77.0703 411.681 77.0703 411.625 77.0703Z" fill="#F1E4DD"/>
<path d="M399.555 66.6406C399.499 66.569 392.277 57.6558 393.925 48.4799C394.737 43.9397 397.251 43.4451 398.31 43.4451C398.608 43.4451 398.791 43.4826 398.791 43.4826C399.689 42.5412 402.269 42.2581 404.827 42.2581C406.74 42.2581 408.642 42.4184 409.812 42.5787C412.542 42.9573 420.148 45.8704 420.148 45.8704C420.148 45.8704 420.991 46.6822 420.573 49.6158C420.152 52.5835 418.44 52.6687 418.44 52.6687C417.93 52.754 417.437 52.7881 416.949 52.7881C415.875 52.7881 414.809 52.621 413.578 52.4538C412.348 52.2867 410.957 52.1196 409.227 52.1196C408.69 52.1196 408.123 52.1366 407.519 52.1741C402.109 52.5016 406.617 61.408 406.617 61.408L403.649 60.9236C403.649 60.9236 403.645 60.9168 403.638 60.9065C403.694 60.1663 403.653 59.317 403.567 58.5222C403.403 56.9736 401.542 55.9843 400.096 55.9843C399.066 55.9843 398.246 56.4824 398.395 57.6387C398.567 58.9997 399.272 60.3335 400.088 61.3295C399.521 63.3694 399.555 66.6406 399.555 66.6406Z" fill="#D7D7D7"/>
<path d="M402.456 62.9961C401.844 62.9961 400.908 62.3343 400.088 61.3281C399.271 60.332 398.567 58.9983 398.395 57.6372C398.246 56.4809 399.066 55.9828 400.095 55.9828C401.542 55.9828 403.403 56.9721 403.567 58.5207C403.652 59.3155 403.693 60.1649 403.637 60.9051C403.552 62.0478 403.242 62.9381 402.519 62.9927C402.5 62.9961 402.478 62.9961 402.456 62.9961Z" fill="#F1E4DD"/>
<path d="M393.675 171.475L385.006 167.504L379.972 165.202C377.813 164.212 376.803 161.91 377.612 159.833C380.696 151.932 386.852 135.982 386.855 129.051C386.855 129.051 386.397 114.322 385.293 110.041C385.263 109.918 385.23 109.805 385.2 109.703C385.196 109.7 385.196 109.696 385.196 109.693C385.192 109.686 385.192 109.682 385.192 109.676C385.192 109.676 385.189 109.679 385.185 109.682C384.928 109.928 376.314 118.272 373.991 122.6C373.973 122.631 373.958 122.662 373.939 122.692C373.436 123.637 372.384 125.691 371.035 128.293C366.482 137.074 358.547 152.151 356.825 152.441C356.739 152.458 356.646 152.465 356.549 152.465C356.53 152.465 356.512 152.465 356.493 152.461C354.416 152.41 350.18 149.306 348.928 148.351C348.696 148.177 348.566 148.074 348.566 148.074C348.566 148.074 361.34 122.314 363.79 117.777C363.939 117.508 364.047 117.313 364.114 117.204L391.691 82.1617C392.169 81.9912 392.638 81.8206 393.09 81.6637C393.295 81.5887 393.5 81.517 393.697 81.4488C393.063 81.6705 392.389 81.9093 391.691 82.1617L396.938 94.029L402.191 96.7374L399.947 98.8318L405.924 128.355C404.917 134.092 403.414 140.427 402.18 145.867C401.871 147.246 401.572 148.566 401.307 149.807C401.229 150.169 401.151 150.527 401.065 150.889C398.589 161.579 393.675 171.475 393.675 171.475Z" fill="#F5F5FE"/>
<path d="M433.269 171.857C433.269 171.857 429.57 161.433 427.661 154.079C427.661 154.079 427.658 154.079 427.658 154.075C427.613 153.874 427.557 153.669 427.512 153.482C427.08 151.759 426.766 150.245 426.632 149.099V149.092V149.088C426.289 146.165 425.603 142.754 424.857 139.128C424.127 135.498 423.366 131.637 422.904 127.83C422.9 127.817 422.9 127.806 422.896 127.793L424.119 100.176L421.617 97.6966L423.843 95.1519L419.082 84.0318C417.78 83.4826 416.557 82.9675 415.521 82.5343L415.517 82.5309H415.521C416.565 82.9675 417.788 83.4826 419.085 84.0318C421.8 85.1779 424.872 86.4877 427.303 87.5384C429.63 88.5617 433.15 90.2945 433.418 90.4856L450.212 120.067L458.922 128.676V144.227C455.458 141.137 451.554 137.45 448.329 134.417C445.872 132.111 443.806 130.184 442.621 129.191C442.143 128.813 441.8 128.564 441.636 128.513C441.248 128.376 440.547 127.486 439.697 126.149C439.444 125.78 439.19 125.357 438.922 124.924C438.519 124.255 438.101 123.532 437.669 122.768C437.386 122.263 437.087 121.741 436.789 121.213C436.491 120.681 436.207 120.135 435.909 119.603C435.327 118.525 434.746 117.447 434.224 116.437C433.821 115.67 433.433 114.95 433.105 114.295C432.881 113.845 432.658 113.435 432.464 113.053C432.27 112.671 432.091 112.33 431.942 112.016C431.569 111.28 431.33 110.799 431.271 110.69C431.807 112.736 431.614 114.837 431.196 117.01C430.465 120.817 429.018 124.825 429.376 129.109V129.191C430.51 142.194 436.491 160.601 438.265 165.813C438.519 166.58 438.34 167.385 437.773 167.996C437.714 168.092 437.624 168.177 437.535 168.255L433.269 171.857Z" fill="#B7D7FB"/>
<path d="M405.923 128.354L399.946 98.8304L402.191 96.736L396.937 94.0276L391.691 82.1604C392.388 81.908 393.063 81.6692 393.697 81.4474L398.731 86.9632C402.881 92.363 408.198 100.87 408.198 109.016C408.198 109.623 408.168 110.23 408.108 110.834C407.694 114.863 407.139 121.432 405.923 128.354Z" fill="#EEEEF0"/>
<path d="M422.896 127.828C422.535 124.874 422.169 121.93 421.811 119.103C421.524 116.855 421.244 114.685 420.972 112.642C420.469 108.849 420.003 105.509 419.608 102.971C417.318 88.331 415.357 82.4673 415.357 82.4673H415.364L415.458 82.5082L415.517 82.5321L415.521 82.5355C416.558 82.9687 417.781 83.4838 419.082 84.033L423.843 95.1532L421.617 97.6979L424.119 100.178L422.896 127.794V127.828Z" fill="#BEDBFC"/>
<path d="M364.114 117.201C364.174 117.102 364.26 116.945 364.372 116.734C366.523 112.617 377.892 87.7668 379.834 86.4944C380.927 85.7747 386.505 83.9907 390.729 82.5034C391.061 82.3841 391.382 82.2715 391.691 82.1589L364.114 117.201Z" fill="#F5F5FE"/>
<path d="M345.855 202.512L342.801 202.068L325.538 182.287L335.896 156.349L337.842 156.847L345.855 202.512Z" fill="#DEDEDE"/>
<path d="M405.879 94.7949L398.731 86.9664L393.697 81.4507L393.675 81.4268L398.03 79.0049C398.03 79.0152 398.179 81.2051 408.94 86.8982L408.936 86.9119C408.932 86.9085 408.929 86.905 408.925 86.8982C408.925 86.8982 408.91 86.946 408.888 87.0347L405.879 94.7949Z" fill="#E6E6E6"/>
<path d="M414.92 94.0293L410.886 89.2196C410.371 88.4863 409.745 87.6983 409.01 86.982L408.939 86.8967C411.591 82.5441 411.803 80.1939 411.811 80.1086C411.811 80.1052 411.811 80.1052 411.811 80.1052L415.342 82.4554L415.356 82.4657L414.92 94.0293Z" fill="#FBF9FE"/>
<path d="M409.104 92.543C408.548 92.4475 408.183 92.3281 408.183 92.3281C407.81 91.2638 408.697 87.764 408.888 87.034C408.91 86.9453 408.925 86.8976 408.925 86.8976C408.929 86.9044 408.932 86.9078 408.936 86.9112C408.962 86.9351 408.984 86.959 409.011 86.9829C409.745 87.6992 410.372 88.4872 410.886 89.2206C411.979 90.7794 412.56 92.1132 412.56 92.1132C412.314 92.2598 412.053 92.3656 411.785 92.4475C411.617 91.9801 411.52 91.7345 411.52 91.7345L408.925 91.141C408.925 91.141 408.992 91.6834 409.104 92.543Z" fill="#BAD7FC"/>
<path d="M415.044 147.244C414.861 147.22 414.678 147.193 414.492 147.169C414.693 145.474 414.671 142.765 414.596 140.408L415.14 139.961C415.23 142.428 415.267 145.399 415.044 147.244Z" fill="#E0EAFD"/>
<path d="M417.109 153.002L410.26 152.333L410.267 152.074L410.372 146.937L410.379 146.674C410.379 146.674 412.504 146.906 414.492 147.176C414.678 147.2 414.861 147.227 415.044 147.251C415.968 147.384 416.811 147.52 417.337 147.64L417.326 147.855L417.113 152.889L417.109 153.002Z" fill="#C7E2FC"/>
<path d="M409.782 144.375L407.627 137.481C407.627 137.481 413.44 120.712 410.326 101.313C409.924 98.8027 409.379 94.6855 409.104 92.5399C408.992 91.6803 408.925 91.1379 408.925 91.1379L411.52 91.7314C411.52 91.7314 411.617 91.9771 411.784 92.4444C412.847 95.3882 416.758 107.044 417.318 120.074C417.966 135.172 416.225 139.071 416.225 139.071L415.14 139.964L414.596 140.411L409.782 144.375Z" fill="#BAD7FC"/>
<path d="M470.706 142.538C470.706 142.538 472.802 145.329 473.897 145.424C474.999 145.516 476.542 146.413 477.497 146.669C478.46 146.925 481.38 146.775 482.23 147.362C482.576 147.6 484.059 149.845 484.826 150.261C485.594 150.677 487.268 151.346 486.839 151.943C486.41 152.54 484.721 152.315 484.721 152.315C484.721 152.315 485.394 152.734 485.191 153.362C484.804 154.579 483.942 154.736 483.942 154.736C483.942 154.736 484.315 155.572 484.014 156.046C483.344 157.087 482.505 157.216 482.505 157.216C482.505 157.216 482.509 157.899 481.892 158.502C481.105 159.277 479.999 159.021 479.999 159.021C479.999 159.021 479.258 160.191 478.442 160.078C477.625 159.969 477.102 159.491 476.504 159.246C475.902 159.004 471.492 155.388 469.611 151.735C467.73 148.081 464.705 145.946 464.705 145.946L470.706 142.538Z" fill="#EEA886"/>
<path d="M484.448 151.869C484.448 151.869 480.615 148.836 478.902 149.109C477.192 149.382 478.503 150.545 478.503 150.545C478.503 150.545 477.226 149.375 476.076 150.214C474.926 151.054 476.545 152.343 476.545 152.343C476.545 152.343 475.313 151.695 474.524 152.892C473.734 154.09 475.35 154.874 475.35 154.874C475.35 154.874 473.035 154.847 473.708 156.46C474.843 159.182 478.342 160.144 478.342 160.144C478.342 160.144 479.375 160.274 480.048 159.076C480.048 159.076 482.22 159.575 482.566 157.289C482.566 157.289 485.046 156.47 484.058 154.779C484.058 154.779 486.557 153.697 484.448 151.869Z" fill="#DB9C7C"/>
<path d="M472.687 268.479C472.687 268.479 477.909 272.316 482.554 272.586C487.199 272.855 492.547 273.96 493.048 276.539C493.546 279.118 478.936 282.392 473.344 280.557C465.002 277.825 464.435 279.111 463.238 277.296C462.041 275.481 462.972 270.003 462.805 269.393C462.599 268.639 472.687 268.479 472.687 268.479Z" fill="#353A3D"/>
<path d="M471.805 266.397C471.805 266.397 472.767 268.419 472.688 268.477C472.61 268.532 462.808 271.131 462.804 269.391C462.8 267.983 462.882 266.437 462.882 266.437L471.805 266.397Z" fill="#81807E"/>
<path d="M473.852 266.317C473.971 266.849 473.315 267.19 472.271 267.394C469.765 267.913 464.977 267.708 462.845 267.585C462.188 267.545 461.786 267.517 461.786 267.517C461.786 267.517 441.8 211.521 437.893 204.234C435.298 199.363 411.747 171.259 410.017 173.265C410.017 173.265 405.856 164.546 403.947 151.267C403.709 149.657 403.515 147.982 403.351 146.246C405.603 146.6 407.974 147.136 410.345 147.75C412.702 148.378 415.058 149.074 417.251 149.78C419.801 150.612 422.158 151.461 424.112 152.184C424.753 152.416 425.35 152.645 425.901 152.85C426.513 153.082 427.05 153.303 427.512 153.481C428.735 153.972 429.451 154.272 429.451 154.272C429.451 154.272 433.165 160.317 437.773 167.995C444.112 178.556 452.151 192.173 454.612 197.412C458.564 205.804 462.621 220.881 463.158 226.775C463.844 234.198 473.374 264.147 473.852 266.317Z" fill="#2F2F2F"/>
<path d="M474.523 144.937C474.523 144.937 474.344 145.125 474.046 145.456C473.017 146.558 470.526 149.181 468.945 150.559C468.885 150.596 468.84 150.637 468.796 150.678C468.617 150.832 468.259 150.763 467.737 150.518C463.218 148.376 447.006 132.712 442.621 129.188C442.322 128.96 442.069 128.765 441.89 128.646C441.86 128.619 441.83 128.605 441.786 128.591C441.726 128.55 441.681 128.52 441.636 128.506C441.249 128.373 440.548 127.483 439.697 126.149C439.459 125.777 439.19 125.354 438.922 124.921C438.728 124.58 438.519 124.239 438.31 123.884C438.102 123.516 437.893 123.147 437.669 122.765C437.386 122.26 437.087 121.742 436.789 121.21C435.76 119.354 434.716 117.403 433.821 115.684C433.612 115.261 433.389 114.851 433.195 114.456C432.852 113.801 432.553 113.214 432.285 112.695C432.166 112.464 432.061 112.245 431.957 112.041C431.882 111.877 431.808 111.74 431.733 111.604C431.673 111.464 431.614 111.345 431.554 111.249C431.42 110.976 431.33 110.782 431.286 110.703L431.271 110.686C431.301 111.027 431.554 113.637 431.196 117.007V117.021C431.047 118.494 430.764 120.104 430.301 121.755C429.749 123.73 429.481 126.354 429.377 129.106V129.188C429.377 129.26 429.362 129.314 429.362 129.383V129.464C429.213 134.486 429.585 139.902 429.749 142.778C429.988 147.311 428.333 149.314 428.333 149.314C428.333 149.314 428.109 149.286 427.706 149.232C427.438 149.194 427.065 149.153 426.632 149.095L425.409 148.945L423.754 148.73L417.326 147.908L414.984 147.608L414.447 147.54L410.375 147.011L403.336 146.111V146.015C403.217 144.705 403.127 143.354 403.067 141.976V141.963C402.978 139.943 402.963 137.856 403.023 135.714C403.187 130.225 403.753 125.398 404.395 120.814C405.349 114.237 406.468 108.179 406.856 101.439C407.02 98.519 407.05 95.4899 406.871 92.2289V92.2152C406.751 90.2505 406.572 88.1901 406.289 86.0343C406.259 85.816 406.229 85.5977 406.185 85.3794C405.976 83.8512 405.722 82.2685 405.409 80.6312C407.915 80.8358 410.375 81.0405 411.584 81.1496H411.598C412.091 81.1906 412.374 81.2179 412.374 81.2179C412.374 81.2179 413.567 81.7227 415.357 82.4561L415.372 82.4731L415.521 82.5277C416.565 82.9643 417.788 83.4794 419.086 84.0286C421.8 85.1747 424.872 86.4846 427.303 87.5352C429.63 88.5585 433.15 90.2914 433.418 90.4824L450.212 120.063L473.941 144.337L474.523 144.937Z" fill="white"/>
<path d="M429.451 154.275C429.451 154.275 428.795 154.207 427.662 154.081C427.184 154.026 426.618 153.962 425.976 153.893C425.454 153.839 424.858 153.767 424.231 153.699C422.233 153.47 419.787 153.194 417.117 152.88C414.925 152.635 412.598 152.362 410.256 152.062C408.123 151.806 405.991 151.547 403.947 151.27C403.709 149.66 403.515 147.985 403.351 146.249C403.351 146.212 403.351 146.154 403.336 146.116V146.021C405.603 146.321 408.004 146.621 410.376 146.931C411.763 147.126 413.135 147.303 414.462 147.48C414.641 147.508 414.82 147.518 414.999 147.545C415.79 147.658 416.58 147.753 417.326 147.859C419.742 148.176 421.964 148.477 423.754 148.708C424.351 148.79 424.902 148.859 425.409 148.923C425.872 148.992 426.274 149.05 426.632 149.091V149.101C427.065 149.159 427.438 149.2 427.706 149.237C428.109 149.292 428.333 149.319 428.333 149.319C428.333 149.319 429.198 150.261 429.451 154.275Z" fill="#495055"/>
<path d="M408.943 86.8945H408.928L408.914 86.8843C408.72 86.8434 407.676 86.5534 406.289 86.0383C406.259 85.82 406.229 85.6017 406.184 85.3834C405.975 83.8552 405.722 82.2725 405.409 80.6352C405.17 79.3662 404.902 78.07 404.588 76.7329C404.35 75.6822 404.126 74.6589 403.962 73.6629V73.6492C403.768 73.4582 403.604 73.2672 403.455 73.0898C403.604 73.2399 403.768 73.39 403.932 73.5401C403.828 72.9943 403.738 72.4622 403.664 71.9437V71.93C403.5 70.8931 403.38 69.897 403.276 68.9283C404.827 70.1017 406.736 71.7527 408.347 73.2126C410.316 74.9864 411.852 76.4873 411.852 76.4873C411.852 76.4873 411.822 76.7192 411.792 77.074C411.747 77.647 411.688 78.5612 411.732 79.3901C411.747 79.6391 411.762 79.8847 411.807 80.103C411.896 80.6488 412.075 81.0854 412.374 81.2219C413.463 81.7267 408.943 86.8945 408.943 86.8945Z" fill="#EEA886"/>
<path d="M425.372 148.799C425.372 148.799 425.995 152.865 426.009 154.4L424.272 154.196C424.272 154.196 423.914 149.117 423.716 148.584L425.372 148.799Z" fill="#353A3D"/>
<path d="M411.792 77.0725C411.748 77.6456 411.688 78.5598 411.733 79.3887C408.556 78.246 405.707 75.5716 403.962 73.6614V73.6478C403.768 73.4567 403.604 73.2657 403.455 73.0884C403.604 73.2384 403.768 73.3885 403.932 73.5386C403.828 72.9929 403.738 72.4607 403.664 71.9422L408.347 73.2111L410.525 73.8115C410.525 73.8115 411.912 75.4216 412.866 76.9497C412.508 77.0316 412.15 77.0589 411.792 77.0725Z" fill="#A77860"/>
<path d="M416.58 74.6028C415.73 76.131 414.179 76.6904 412.866 76.9497C412.508 77.0315 412.15 77.0588 411.792 77.0725C408.809 77.1407 405.782 75.2032 403.932 73.5386C403.828 72.9928 403.738 72.4606 403.664 71.9422V71.9285C403.5 70.8916 403.38 69.8955 403.276 68.9268C403.052 66.6891 402.978 64.6424 403.052 62.7458C403.067 61.9272 403.112 61.1358 403.187 60.3853C403.246 59.5803 403.336 58.8026 403.47 58.0658C403.917 55.105 404.693 52.6626 405.588 50.6705C411.583 50.9025 418.444 52.6763 418.444 52.6763C418.444 52.6763 423.321 62.5412 416.58 74.6028Z" fill="#EEA886"/>
<path d="M420.577 49.6194C420.159 52.5803 418.444 52.6758 418.444 52.6758C415.342 53.1806 412.926 51.8435 407.512 52.1709C402.113 52.4984 406.617 61.4082 406.617 61.4082L403.649 60.9306L403.634 60.917C403.604 60.8624 403.44 60.6305 403.187 60.3849C403.246 59.5799 403.336 58.8021 403.47 58.0653C403.917 55.1045 404.693 52.6621 405.588 50.6701C407.989 45.2942 411.27 43.1383 411.539 42.961H411.554C414.894 43.8615 420.144 45.8672 420.144 45.8672C420.144 45.8672 420.994 46.6859 420.577 49.6194Z" fill="#2F2F2F"/>
<path d="M403.634 60.9217C403.574 61.7267 403.395 62.4089 403.052 62.75C403.067 61.9313 403.112 61.14 403.186 60.3895C403.246 59.5845 403.336 58.8068 403.47 58.07C403.529 58.22 403.559 58.3702 403.574 58.5339C403.664 59.3389 403.694 60.1849 403.634 60.9217Z" fill="#EEA886"/>
<path d="M408.108 110.828C407.691 114.864 407.139 121.43 405.931 128.361C405.155 132.769 404.082 137.517 403.067 141.965C402.978 139.945 402.963 137.858 403.023 135.716C403.187 130.227 403.753 125.401 404.395 120.816C405.349 114.239 406.468 108.181 406.856 101.441C407.885 104.525 408.422 107.731 408.108 110.828Z" fill="#0088E3"/>
<path d="M429.585 129.287C429.015 122.547 432.728 116.287 431.267 110.662L431.274 110.676C431.587 111.3 439.865 127.916 441.632 128.506C443.43 129.113 465.861 152.114 467.744 150.507C469.75 148.792 474.34 143.903 474.34 143.903L450.205 120.063L433.415 90.4856C433.142 90.2878 429.626 88.5549 427.296 87.5418C424.872 86.4844 421.804 85.1813 419.082 84.0318C417.78 83.4826 416.557 82.9675 415.521 82.5343L415.435 82.5957C415.435 82.5957 417.318 88.3298 419.607 102.97C420.484 108.592 421.714 118.163 422.896 127.827V127.83C423.832 135.444 425.961 143.259 426.636 149.092C427.337 155.129 433.273 171.857 433.273 171.857L437.542 168.252C438.273 167.634 438.553 166.686 438.258 165.813C436.487 160.591 430.685 142.28 429.585 129.287Z" fill="#0088E3"/>
<path d="M408.108 110.828C407.691 114.864 407.139 121.43 405.931 128.361L404.395 120.816C405.349 114.239 406.468 108.181 406.855 101.441C407.885 104.525 408.421 107.731 408.108 110.828Z" fill="#004C80"/>
<path d="M415.357 82.4673C415.357 82.4673 417.318 88.331 419.608 102.971C420.484 108.593 421.714 118.164 422.896 127.828L424.119 100.178L421.617 97.6979L423.843 95.1532L419.082 84.033C417.781 83.4838 416.558 82.9687 415.521 82.5355L415.357 82.4673Z" fill="#004C80"/>
<path d="M408.944 86.8979V86.9116L408.899 86.9968V87.0378L406.871 92.2227C406.751 90.2579 406.572 88.1975 406.289 86.0417C406.259 85.8234 406.229 85.6051 406.185 85.3868C407.005 85.8644 407.915 86.3556 408.914 86.8877L408.929 86.8979H408.944Z" fill="#E6E6E6"/>
<path d="M411.811 80.1052C411.811 80.1052 411.639 82.4657 408.939 86.8967L414.92 94.0293L415.356 82.4657L411.811 80.1052Z" fill="#E6E6E6"/>
<path d="M408.925 86.8964C408.925 86.8964 407.765 91.1399 408.183 92.3269C408.183 92.3269 410.73 93.1729 412.56 92.112C412.56 92.112 411.267 89.1444 408.925 86.8964Z" fill="#0088E3"/>
<path d="M414.913 148.049C415.562 145.057 414.947 136.093 414.921 135.711L414.365 135.745C414.369 135.837 415.003 145.023 414.369 147.95L414.913 148.049Z" fill="#AD9F99"/>
<path d="M410.379 146.674C410.379 146.674 415.607 147.244 417.337 147.64L417.109 153.002L410.26 152.333L410.379 146.674Z" fill="#69737A"/>
<path d="M411.52 91.7314C411.52 91.7314 416.669 104.98 417.318 120.074C417.966 135.172 416.225 139.071 416.225 139.071L409.782 144.375L407.627 137.481C407.627 137.481 413.44 120.712 410.326 101.313C409.763 97.7964 408.925 91.1379 408.925 91.1379L411.52 91.7314Z" fill="#0088E3"/>
<path d="M529.568 163.677C529.568 163.677 528.435 164.67 528.041 165.594C527.729 166.331 526.693 167.3 526.202 167.856C525.71 168.408 523.879 171.004 523.619 171.727C523.509 172.021 523.651 174.061 523.359 174.641C523.071 175.22 522.323 176.329 522.892 176.537C523.452 176.745 524.427 175.913 524.427 175.913C524.427 175.913 524.2 176.455 524.63 176.776C525.475 177.4 526.1 177.148 526.1 177.148C526.1 177.148 526.267 177.837 526.693 178.018C527.631 178.413 528.224 178.154 528.224 178.154C528.224 178.154 528.557 178.594 529.243 178.731C530.125 178.904 530.709 178.294 530.709 178.294C530.709 178.294 531.753 178.741 532.224 178.338C532.691 177.932 532.793 177.417 533.061 177.015C533.325 176.616 534.433 172.716 533.865 169.609C533.292 166.505 535.944 164.175 535.944 164.175L529.568 163.677Z" fill="#EEA886"/>
<path d="M520.198 175.815C519.71 175.815 519.311 176.18 519.311 176.627V185.083C519.311 185.533 519.71 185.898 520.198 185.898H534.857C535.35 185.898 535.749 185.533 535.749 185.083V176.627C535.749 176.18 535.35 175.815 534.857 175.815H520.198ZM517.499 185.083V176.627C517.499 175.266 518.712 174.157 520.198 174.157H534.857C536.347 174.157 537.561 175.266 537.561 176.627V185.083C537.561 186.448 536.347 187.553 534.857 187.553H520.198C518.712 187.553 517.499 186.448 517.499 185.083Z" fill="#0E1E2B"/>
<path d="M500.032 219.973H555.028V183.924H500.032V219.973Z" fill="#54281A"/>
<path d="M550.971 87.5228C550.971 87.5228 553.704 87.506 554.909 95.2117C556.11 102.917 553.833 106.137 553.561 109.344C553.289 112.55 549.18 133.262 549.067 134.177C548.954 135.094 548.402 146.116 546.799 149.039C545.196 151.965 533.412 168.544 533.253 169.373C533.094 170.198 527.528 166.483 527.528 166.483C527.528 166.483 536.789 148.752 537.325 146.729C537.86 144.703 541.589 134.375 541.003 131.219C540.413 128.064 542.648 110.667 542.434 108.733C542.217 106.796 545.573 88.6997 550.971 87.5228Z" fill="#EEA886"/>
<path d="M550.892 87.4618C550.892 87.4618 553.704 87.4993 554.909 95.205C556.11 102.911 555.026 105.684 554.298 109.023C553.612 112.179 551.272 131.475 551.164 132.393C551.051 133.307 548.255 144.942 546.799 149.032C545.69 152.146 535.186 168.438 535.023 169.267C534.868 170.092 526.854 165.46 526.854 165.46C526.854 165.46 537.132 147.119 537.668 145.096C538.203 143.069 539.944 136.066 540.003 132.867C540.066 129.111 542.648 110.661 542.434 108.727C542.217 106.789 543.024 90.0949 550.892 87.4618Z" fill="#0088E3"/>
<path d="M574.458 267.19C574.458 267.19 569.555 273.855 567.577 275.465C567.577 275.465 563.026 276.922 562.743 279.75C562.56 281.602 562.739 284.577 567.933 284.709C573.132 284.843 576.47 283.181 577.422 280.302C578.37 277.42 580.17 276.134 580.17 276.134V282.161H581.339C581.339 282.161 581.635 276.335 581.709 275.264C581.778 274.193 582.548 270.072 580.078 268.247C577.605 266.422 574.458 267.19 574.458 267.19Z" fill="white"/>
<path d="M541.179 261.863C541.179 261.863 540.331 263.702 538.724 265.615C537.548 267.017 533.892 272.782 532.28 273.185C530.672 273.587 525.691 274.389 525.255 276.937C524.815 279.481 524.599 281.289 529.501 281.49C534.407 281.692 537.627 281.958 539.97 278.813C542.317 275.664 546.048 273.386 546.048 273.386V281.6H547.955C547.955 281.6 548.827 273.052 549.342 272.448C549.853 271.844 551.175 265.281 546.634 261.863C542.097 258.449 541.179 261.863 541.179 261.863Z" fill="white"/>
<path d="M577.747 138.544C577.747 138.544 583.947 145.912 585.623 154.655C587.303 163.398 584.631 192.736 584.706 197.055C584.776 201.376 589.172 212.128 588.29 220.267C587.413 228.406 580.072 268.244 580.072 268.244L574.452 267.186C574.452 267.186 575.005 225.892 574.452 222.478C573.903 219.06 572.802 206.609 572.583 205.2C572.363 203.795 558.639 166.856 558.639 160.556C558.639 154.252 562.812 128.263 577.747 138.544Z" fill="#EEA886"/>
<path d="M546.63 141.426C546.63 141.426 536.454 176.959 535.249 181.884C534.04 186.807 532.286 190.866 532.286 192.957C532.286 197.808 534.26 205.595 534.26 205.595L541.175 261.861H546.63C546.63 261.861 550.072 229.006 550.625 222.375C551.173 215.743 546.669 205.496 547.77 202.682C548.863 199.868 565.448 167.415 565.448 167.415C565.448 167.415 578.008 131.111 546.63 141.426Z" fill="#EEA886"/>
<path d="M566.724 275.804C566.724 275.804 570.999 277.814 574.88 275.16C578.762 272.506 580.074 268.246 580.074 268.246L574.451 267.188L566.724 275.804Z" fill="#EEA886"/>
<path d="M532.279 273.182C532.279 273.182 536.673 274.188 538.355 273.182C540.041 272.175 545.765 263.324 547.662 262.795C547.662 262.795 545.823 259.384 541.173 261.86C541.173 261.86 533.523 271.708 532.279 273.182Z" fill="#EEA886"/>
<path d="M533.606 187.555C533.606 187.555 552.306 197.625 587.353 197.625C587.353 197.625 589.336 160.434 584.241 149.972C579.146 139.51 545.319 146.015 545.319 146.015C545.319 146.015 534.808 179.863 533.606 187.555Z" fill="#2F2F2F"/>
<path d="M559.153 84.692C559.153 84.692 553.718 87.0389 551.833 87.3833C549.944 87.7314 542.623 96.433 541.338 99.6091C540.054 102.785 541.338 107.55 543.977 113.144C546.621 118.738 544.131 120.604 545.341 126.195C546.546 131.789 547.603 143.636 547.375 146.743C547.151 149.851 577.911 150.438 584.929 144.772C584.929 144.772 577.876 135.105 576.968 133.723C576.061 132.342 576.815 124.817 577.648 122.883C578.481 120.949 584.004 104.504 584.004 104.504C584.004 104.504 588.528 91.8761 584.442 88.973C580.896 86.4522 571.222 85.5519 569.49 85.0024C567.754 84.4498 562.7 84.208 559.153 84.692Z" fill="white"/>
<path d="M557.416 95.7715L554.11 92.2342L556.98 82.9182C556.98 82.9182 557.945 88.1065 557.416 95.7715Z" fill="#D6C5BE"/>
<path d="M566.011 49.3999C562.782 48.3596 550.912 45.8082 548.122 59.6912C545.327 73.571 553.706 83.4461 561.406 80.8227C569.106 78.1998 573.861 68.5976 574.312 61.2773C574.768 53.9571 570.091 50.7131 566.011 49.3999Z" fill="#EEA886"/>
<path d="M548.126 59.6898C548.126 59.6898 547.544 47.8089 560.449 47.3963C573.359 46.9801 576.834 56.7049 575.774 63.7899C574.722 70.8749 569.379 74.6133 569.379 74.6133C569.379 74.6133 569.841 68.8829 567.335 67.3922C564.83 65.9046 554.792 62.9339 550.411 56.03C550.411 56.03 548.38 58.2058 548.126 59.6898Z" fill="#252E3B"/>
<path d="M564.223 58.4322C565.922 63.16 570.962 65.8922 575.481 64.5346C580.005 63.1739 582.286 58.2378 580.587 53.5068C578.884 48.7755 573.843 46.0433 569.324 47.404C564.801 48.7651 562.519 53.7012 564.223 58.4322Z" fill="#252E3B"/>
<path d="M556.558 78.9502C556.558 78.9502 557.644 88.0717 557.417 91.0395C557.417 91.0395 563.064 96.2174 569.49 84.9984C569.49 84.9984 566.784 80.3727 568.819 74.0692C570.854 67.7653 556.558 78.9502 556.558 78.9502Z" fill="#EEA886"/>
<path d="M557.422 91.0401V95.7715L563.919 91.3301L557.422 91.0401Z" fill="#EEA886"/>
<path d="M557.419 95.7715L560.117 92.7152L569.206 84.4262L572.149 87.0186L557.419 95.7715Z" fill="#D6C5BE"/>
<path d="M570.47 85.2183C570.47 85.2183 562.842 95.8098 562.478 100.469C562.114 105.132 565.312 140.004 567.873 151.213C570.435 162.422 588.953 149.948 588.953 149.948C588.953 149.948 576.51 131.527 581.286 116.774C586.063 102.025 587.795 96.1272 587.795 96.1272C587.795 96.1272 586.155 87.9132 580.334 86.7567C575.229 85.7435 570.47 85.2183 570.47 85.2183Z" fill="#0088E3"/>
<path d="M540.836 101.024C540.836 101.024 539.457 105.476 544.819 115.323C544.819 115.323 544.735 127.924 544.58 131.86C544.434 135.797 543.41 150.68 543.41 150.68L548.713 153.518C549.783 154.091 551.103 153.299 550.953 152.174C549.457 140.845 544.572 97.8758 555.119 86.3256L550.886 87.4687C550.886 87.4687 543.364 93.0969 540.836 101.024Z" fill="#0088E3"/>
<path d="M566.037 64.8844C566.507 63.7962 568.075 63.4894 568.981 64.1101C569.886 64.7343 570.416 66.5968 568.981 69.0155C567.545 71.4337 562.491 73.1152 566.037 64.8844Z" fill="#EEA886"/>
<path d="M554.113 92.2364L549.952 93.2871L556.979 82.9205L554.113 92.2364Z" fill="#E6E6E6"/>
<path d="M560.114 92.7144L563.915 97.2754L571.723 85.3704L569.206 84.4255L560.114 92.7144Z" fill="#E6E6E6"/>
<path d="M556.761 80.9493L556.969 82.7608C556.969 82.7608 561.461 83.5554 567.335 76.9992C567.335 76.9992 563.15 81.6385 556.761 80.9493Z" fill="#A77860"/>
<path d="M533.686 136.805C533.686 136.805 531.047 138.36 529.528 137.49C528.237 136.75 525.983 136.648 525.288 136.614C524.362 136.569 521.569 135.464 521.495 136.535C521.422 137.606 526.007 138.558 526.921 138.937C527.839 139.312 523.802 141.113 523.347 141.976C522.892 142.836 526.539 148.785 529.15 147.253C531.765 145.721 533.451 142.508 533.97 142.324C534.486 142.136 535.92 141.277 535.92 141.277L533.686 136.805Z" fill="#EEA886"/>
<path d="M583.885 88.2294C583.885 88.2294 580.156 87.5882 576.985 90.6954C573.815 93.8031 572.23 98.9128 571.398 100.571C570.57 102.228 560.078 117.561 559.474 117.906C558.871 118.25 548.207 126.123 543.372 130.336C538.542 134.549 529.128 139.246 529.128 139.246L532.673 143.803C532.673 143.803 561.284 129.855 564.908 124.742C568.531 119.632 583 105.472 583 105.472C583 105.472 591.7 93.3765 583.885 88.2294Z" fill="#EEA886"/>
<path d="M523.861 141.484C523.861 141.484 516.198 146.659 516.005 147.396C515.808 148.129 516.138 148.494 516.877 148.037C517.617 147.58 524.44 143.234 524.44 143.234C524.44 143.234 516.496 150.752 516.19 151.322C516.013 151.656 516.608 152.393 517.026 152.185C517.448 151.973 525.79 144.936 525.79 144.936C525.79 144.936 518.384 151.966 518.288 152.512C518.195 152.99 518.931 153.542 519.517 153.055C520.104 152.57 527.382 146.399 527.382 146.399C527.382 146.399 522.343 151.827 522.56 152.335C522.688 152.645 523.17 153.303 524.424 151.867C525.678 150.428 529.021 147.321 529.021 147.321L523.861 141.484Z" fill="#EEA886"/>
<path d="M543.56 112.855C543.56 112.855 543.305 128.583 544.358 136.17L544.823 115.325L543.56 112.855Z" fill="#0088E3"/>
<path d="M581.745 87.2072C581.745 87.2072 579.845 87.5855 576.677 90.6932C573.509 93.8009 571.923 98.9107 571.092 100.568C570.261 102.226 559.767 117.559 559.162 117.903C558.557 118.248 549.821 123.74 544.992 127.953C540.158 132.165 531.166 137.197 531.166 137.197L535.779 143.463C535.779 143.463 561.013 130.678 565.012 125.81C569.285 120.612 584.529 105.34 584.529 105.34C584.529 105.34 594.223 91.3756 581.745 87.2072Z" fill="#0088E3"/>
<path d="M524.385 175.519C524.385 175.519 525.369 172.016 526.6 171.494C527.831 170.972 527.552 172.255 527.552 172.255C527.552 172.255 527.803 170.982 528.945 171.054C530.091 171.126 529.682 172.61 529.682 172.61C529.682 172.61 530.16 171.692 531.245 172.139C532.331 172.586 531.675 173.746 531.675 173.746C531.675 173.746 533.145 172.787 533.501 174.093C534.096 176.297 532.323 178.385 532.323 178.385C532.323 178.385 531.752 178.879 530.739 178.385C530.739 178.385 529.553 179.572 528.22 178.245C528.22 178.245 526.24 178.715 526.05 177.228C526.05 177.228 523.802 177.46 524.385 175.519Z" fill="#DB9C7C"/>
<path d="M564.723 129.498L573.364 116.747C573.364 116.747 565.997 124.702 565.229 125.555C564.465 126.411 564.396 126.473 564.396 126.473C564.396 126.473 564.62 129.062 564.723 129.498Z" fill="#004C80"/>
<path d="M82.5597 255.635C82.5597 255.635 81.0347 253.357 78.9451 252.466C76.8556 251.576 72.571 254.68 72.1944 256.406L67.229 263.037L68.1697 263.627L70.8201 260.087C69.0154 264.061 66.4359 268.819 68.2477 271.21C70.6799 274.42 76.1941 277.664 77.6513 277.105C79.1081 276.542 78.8157 267.209 78.8157 267.209C77.2434 258.968 82.5597 255.635 82.5597 255.635Z" fill="#1D3B54"/>
<path d="M82.56 255.633C82.56 255.633 80.7505 258.819 79.8206 261.289C78.8903 263.762 78.7165 270.604 78.1304 271.082C77.5442 271.556 72.9233 269.424 72.3066 266.866C71.6895 264.304 73.5635 259.191 75.3473 256.5C77.1311 253.812 78.9454 252.464 78.9454 252.464C78.9454 252.464 82.0958 253.024 82.56 255.633Z" fill="#DE9673"/>
<path d="M100.394 195.647C100.394 195.647 97.5639 209.39 97.5639 212.675C97.5639 215.96 96.5844 221.34 94.2988 225.32C92.0127 229.305 81.9831 256.515 81.1124 259.684C80.2414 262.853 79.4961 265.848 79.4961 265.848C79.4961 265.848 74.4893 263.757 74.4893 260.769C74.4893 257.784 78.8432 233.087 79.605 228.21C80.3671 223.332 86.68 198.339 86.68 198.339L100.394 195.647Z" fill="#DE9673"/>
<path d="M84.394 194.762C84.394 194.762 85.3739 206.213 85.265 209.197C85.1561 212.186 83.6322 218.957 83.6322 220.751C83.6322 222.542 83.6307 259.678 85.2546 264.157C86.8791 268.639 80.6933 265.556 80.6933 265.556C80.6933 265.556 69.9179 241.129 69.9179 230.94C69.9179 220.751 71.2241 215.672 70.4619 209.197C69.7002 202.727 66.3135 194.206 66.3135 194.206L84.394 194.762Z" fill="#EEA886"/>
<path d="M68.0947 139.645C68.0947 139.645 62.3023 146.136 60.7784 154.8C59.2545 163.461 62.5816 179.797 63.7658 184.525C64.8046 188.672 66.7897 201.945 66.8986 203.34C66.8986 203.34 86.3736 205.356 101.176 201.075C101.176 201.075 102.53 182.536 103.401 174.67C104.271 166.804 100.023 140.242 100.023 140.242L68.0947 139.645Z" fill="#2F2F2F"/>
<path d="M90.3638 275.455C83.3879 269.881 85.2545 264.158 85.2545 264.158C85.2545 264.158 82.4666 263.254 80.2015 263.769C77.9363 264.287 76.723 269.23 77.6279 270.806L78.3341 278.921L79.4852 278.839L79.1082 274.507C80.4539 278.689 81.7343 283.939 84.8268 284.764C88.9775 285.876 95.5806 285.218 96.3371 283.928C97.0933 282.636 90.3638 275.455 90.3638 275.455Z" fill="#1D3B54"/>
<path d="M94.4576 78.9704C94.4576 78.9704 92.7319 88.368 94.2223 91.5267C95.7122 94.6819 86.3008 87.8324 86.3008 87.8324C86.3008 87.8324 90.2062 77.4797 94.4576 78.9704Z" fill="#754836"/>
<path d="M90.9781 52.8577C90.9781 52.8577 75.87 49.6922 73.9878 64.4623C72.1056 79.2324 78.9029 81.0846 74.3014 91.0928C69.6999 101.104 85.5373 87.8318 85.5373 87.8318L90.9781 52.8577Z" fill="#754836"/>
<path d="M89.6755 52.6405C93.554 52.5689 102.09 54.5712 103.124 63.9961C103.124 63.9961 102.736 66.5203 102.003 68.4919C101.27 70.4635 103.038 76.3783 102.521 76.6546C102.003 76.9309 99.8912 77.2482 99.8912 77.2482C99.8912 77.2482 97.4341 83.5962 94.9769 83.4769C92.5205 83.3575 83.2671 81.362 79.1291 73.2777C74.9911 65.1933 74.0141 52.9304 89.6755 52.6405Z" fill="#EEA886"/>
<path d="M47.4165 169.576C47.4165 169.576 47.7778 163.89 49.4232 163.01C51.0687 162.126 50.1172 163.883 50.1172 163.883C50.1172 163.883 49.1925 168.01 48.9892 169.682C48.9788 169.76 47.4165 169.576 47.4165 169.576Z" fill="#1D3B54"/>
<path d="M55.03 156.781C55.03 156.781 55.489 159.329 56.3328 161.788C57.177 164.244 57.9537 165.025 57.6151 166.434C57.3601 167.495 56.0457 168.293 55.7146 167.952C55.3824 167.611 55.2221 163.48 53.3514 163.501C51.4804 163.521 53.9107 168.617 52.797 168.242C51.6836 167.867 47.3964 165.721 47.666 163.637C47.9356 161.556 49.6507 160.052 49.5404 156.941C49.4401 154.12 50.4013 152.94 50.4013 152.94L55.03 156.781Z" fill="#EEA886"/>
<path d="M53.5364 163.329C53.5364 163.329 56.0275 163.912 55.8795 171.621L53.0588 171.191C53.0588 171.191 53.1099 166.931 52.2676 164.608C52.2676 164.608 52.4115 163.1 53.5364 163.329Z" fill="#1D3B54"/>
<path d="M63.8801 173.359L41.9106 167.659L41.9755 192.41L63.8391 204.396L63.8801 173.359Z" fill="white"/>
<path d="M63.839 204.398L61.0869 204.865L39.8218 192.766L40.0854 167.773L41.9106 167.66L63.839 204.398Z" fill="white"/>
<path d="M91.7649 87.3635C91.7649 87.3635 97.6207 89.5636 98.6666 90.2322C99.7125 90.9008 101.804 98.6508 102.327 99.3194C102.85 99.9914 107.901 105.736 107.203 110.395C106.653 114.055 104.392 115.989 102.928 117.425C101.464 118.862 100.108 126.584 99.6491 127.734C99.1894 128.883 100.649 143.95 100.649 143.95C100.649 143.95 83.4665 150.07 68.0948 139.642C68.0948 139.642 71.1642 129.552 71.1642 127.734C71.1642 125.916 69.1772 113.097 63.8438 105.538C58.5111 97.9822 64.7852 89.9457 68.8632 88.9871C72.942 88.032 80.7848 85.3543 80.7848 85.3543L91.7649 87.3635Z" fill="white"/>
<path d="M73.0191 87.8446C73.0191 87.8446 64.419 87.3602 60.1054 91.9515C55.7921 96.5429 56.0274 101.997 54.9293 104.365C53.8312 106.732 51.3211 116.921 50.7726 118.572C50.2234 120.219 49.6879 129.498 48.9034 136.958C48.1193 144.421 48.2778 158.355 48.2778 158.355L56.5061 156.991C56.5061 156.991 56.8376 143.708 57.0468 136.006C57.2556 128.304 64.1055 114.697 66.6935 108.741C69.2815 102.785 79.5856 91.5797 73.0191 87.8446Z" fill="white"/>
<path d="M97.8133 89.7946C97.8133 89.7946 101.595 90.0163 103.399 93.4615C105.203 96.9033 105.893 99.7686 106.363 100.628C106.834 101.491 113.359 112.833 113.751 115.344C114.144 117.854 113.516 122.449 110.065 123.667C106.614 124.888 94.2227 125.031 94.2227 125.031C94.2227 125.031 97.3596 119.198 94.4579 116.186C94.4579 116.186 103.451 114.699 105.579 114.501C107.825 114.293 94.9635 92.3802 97.8133 89.7946Z" fill="white"/>
<path d="M77.2129 99.535L93.9686 135.338L114.86 126.336L99.4094 91.9555L77.2129 99.535Z" fill="#1D3B54"/>
<path d="M86.8254 117.125C86.8254 117.125 84.5565 117.674 83.8376 117.77C83.1191 117.865 84.0077 119.083 84.8895 119.121C85.7713 119.158 86.8254 117.125 86.8254 117.125Z" fill="#EEA886"/>
<path d="M88.3472 127.307C88.3472 127.307 89.4001 127.259 89.8494 127.034C89.8494 127.034 90.6324 126.566 91.2111 126.263C91.3953 126.167 91.5579 126.089 91.6686 126.045C92.1321 125.874 93.2052 125.622 94.1903 124.919C95.175 124.22 98.3791 121.426 98.3791 121.426L96.2608 118.506L94.6239 116.183C94.6239 116.183 87.7375 116.354 86.7379 116.91C86.6406 116.964 86.5462 117.022 86.4627 117.08C85.6659 117.626 85.3236 118.339 84.9407 118.67C84.8009 118.789 83.5014 120.085 83.5801 120.607C83.6882 121.33 84.0842 121.791 84.5771 122.006C84.5771 122.006 84.8571 123.415 85.6596 124.035C85.6596 124.035 85.8725 125.342 87.1119 125.857C87.1119 125.857 87.4899 127.16 88.3472 127.307Z" fill="#EEA886"/>
<path d="M94.458 116.187C94.458 116.187 104.66 114.516 107.478 114.246C107.478 114.246 107.669 110.972 107.155 108.195C106.641 105.418 104.149 101.697 104.149 101.697L109.366 106.067C109.366 106.067 113.655 113.588 113.751 115.345C113.848 117.105 114.357 119.817 111.819 122.569C109.281 125.319 97.3 124.06 97.3 124.06C97.3 124.06 98.3011 120.687 94.458 116.187Z" fill="white"/>
<path d="M91.3198 81.9791C91.3198 81.9791 90.9895 82.8694 90.6051 84.1929C90.4082 84.8683 90.1972 85.6597 90.0092 86.4988C89.4913 88.8252 89.1453 91.5506 89.7512 93.3858C89.7512 93.3858 84.2627 94.9686 80.1846 87.8291C80.1846 87.8291 82.2623 80.3077 80.0068 75.6515C77.7517 71.0022 91.3198 81.9791 91.3198 81.9791Z" fill="#EEA886"/>
<path d="M103.124 63.9968C103.124 63.9968 96.7158 67.7558 90.4513 68.3869C84.1865 69.0179 80.7021 77.6855 80.7021 77.6855C80.7021 77.6855 70.8529 63.6557 78.7841 55.0324C86.7152 46.4092 104.819 53.0881 103.124 63.9968Z" fill="#754836"/>
<path d="M87.8649 68.0612C87.8649 66.9526 86.5718 65.2607 84.5461 66.7206C82.5199 68.1806 85.02 73.5019 86.658 73.0312C88.296 72.557 87.8649 69.2039 87.8649 68.0612Z" fill="#EEA886"/>
<path d="M92.1106 87.4933C92.1106 87.4933 94.6931 94.4656 88.6538 94.4315C82.6149 94.394 79.9866 90.0483 78.2617 86.1937C78.2617 86.1937 81.0463 84.9589 82.3405 84.7781C83.6347 84.6007 92.1106 87.4933 92.1106 87.4933Z" fill="#EEA886"/>
<path d="M55.8845 171.286L53.0522 171.621L53.0552 170.412L55.8845 171.286Z" fill="#1D3B54"/>
<path d="M49.0131 169.499L47.4485 169.67C47.4485 169.67 47.4426 169.24 47.4564 169.096C47.4702 168.953 48.9586 169.41 49.0131 169.499Z" fill="#1D3B54"/>
<path d="M85.2545 264.153C85.2545 264.153 86.0472 267.717 87.036 270.207C88.0245 272.694 92.6528 278.186 92.5216 278.902C92.3911 279.619 87.2668 280.632 84.9991 278.974C82.7317 277.319 80.6451 272.199 80.1776 269.041C79.71 265.882 79.9576 263.842 79.9576 263.842C79.9576 263.842 83.0725 262.369 85.2545 264.153Z" fill="#EEA886"/>
<path d="M91.0928 82.7024C90.8963 83.3778 90.6051 84.193 90.3791 84.998C85.4215 81.9349 83.0464 78.2986 83.0464 78.2986C85.8582 80.7615 91.0928 82.7024 91.0928 82.7024Z" fill="#A77860"/>
<path d="M193.92 158.697C193.92 158.697 189.639 160.641 185.585 161.01C185.585 161.01 181.753 155.869 179.511 152.022C174.163 142.846 172.584 138.548 173.04 135.024C173.86 128.69 187.477 103.348 187.477 103.348L202.592 108.683L191.02 127.499C189.94 129.426 188.547 132.561 187.107 135.109C185.22 138.449 187.492 146.093 188.836 149.286C188.836 149.286 191.302 155.47 193.92 158.697Z" fill="#EEA886"/>
<path d="M146.685 263.083C146.685 263.083 146.239 265.376 147.974 268.435C149.709 271.499 157.48 279.303 156.945 282.51C156.41 285.713 147.429 285.334 141.789 279.692C136.15 274.05 127.774 268.19 128.084 266.836C128.393 265.481 136.85 258.441 139.79 257.506C142.73 256.572 146.685 263.083 146.685 263.083Z" fill="#353A3D"/>
<path d="M149.786 260.063L146.609 263.191L139.467 257.621L142.751 254.138L149.786 260.063Z" fill="#EEA886"/>
<path d="M139.978 254.138C143.462 250.525 171.58 224.202 171.58 224.202C185.922 209.081 191.533 208.681 191.533 208.681C191.533 208.681 195.157 208.753 200.077 209.367C200.783 209.456 203.086 209.432 203.824 209.544C212.956 210.899 213.21 209.944 209.873 216.79C204.383 228.039 149.332 260.51 149.332 260.51L139.978 254.138Z" fill="#2F2F2F"/>
<path d="M268.434 267.861C268.434 267.861 272.945 269.658 276.916 270.156C280.891 270.651 290.463 269.208 293.181 271.596C295.899 273.984 290.041 280.898 281.223 281.928C272.405 282.958 261.114 284.664 260.015 283.589C258.918 282.515 258.001 272.841 258.911 269.931C259.824 267.018 268.434 267.861 268.434 267.861Z" fill="#353A3D"/>
<path d="M266.539 263.584L268.434 267.861L258.911 269.932L257.475 265.354L266.539 263.584Z" fill="#EEA886"/>
<path d="M252.248 209.531C252.248 209.531 248.374 196.009 257.475 227.866C257.475 227.866 267.065 261.857 268.12 263.791C268.37 264.248 256.096 266.305 255.872 266.22C253.735 265.439 234.622 221.889 229.872 213.849C225.689 206.768 252.248 209.531 252.248 209.531Z" fill="#2F2F2F"/>
<path d="M252.251 209.536L233.146 219.592C233.146 219.592 225.63 211.146 220.65 207.697C220.138 207.349 219.626 206.991 219.107 206.623C218.372 206.115 217.637 205.593 216.902 205.067C216.369 204.685 215.828 204.296 215.302 203.908C211.663 201.25 208.261 198.566 206.388 196.58C200.975 190.867 212.823 154.723 227.784 170.844C227.784 170.844 247.84 188.07 252.251 209.536Z" fill="#2F2F2F"/>
<path d="M226.591 166.555C226.591 166.555 217.176 206.13 207.896 219.594C207.896 219.594 192.137 214.733 184.898 212.137C184.898 212.137 184.196 183.535 184.894 176.061C185.546 169.092 226.591 166.555 226.591 166.555Z" fill="#2F2F2F"/>
<path d="M183.003 180.438C183.003 180.438 186.972 144.877 183.685 128.329C181.498 117.329 184.662 99.4784 191.87 89.8488C192.744 88.6788 193.651 87.6385 194.587 86.7516C194.587 86.7516 209.14 90.2786 210.596 91.2065C210.804 91.3395 212.377 92.6153 214.37 94.8461H214.372C218.513 99.492 224.628 107.904 225.223 116.07C225.654 122.009 226.011 127.463 226.417 133.091C226.538 134.804 226.667 136.53 226.802 138.297C227.128 142.53 227.5 146.964 227.965 151.852C228.223 154.571 230.226 163.198 231.545 171.152L183.003 180.438Z" fill="white"/>
<path d="M219.108 206.623C218.372 206.115 217.637 205.593 216.903 205.068C216.369 204.686 215.829 204.297 215.302 203.908C216.066 201.677 220.218 191.512 221.847 184.253C221.847 184.253 223.05 195.561 219.108 206.623Z" fill="#0F1E2B"/>
<path d="M226.802 138.297C226.802 138.297 218.332 150.072 216.83 120.989L226.417 133.092C226.538 134.804 226.667 136.53 226.802 138.297Z" fill="#E6E6E6"/>
<path d="M194.586 86.7478C194.586 86.7478 196.103 79.0557 194.336 74.5838C192.569 70.1152 208.816 82.1189 208.816 82.1189C208.816 82.1189 208.816 82.7432 208.843 83.671C208.865 84.3975 208.908 85.3151 208.979 86.2736C209.126 88.1054 209.392 90.1009 209.887 91.2436C210.975 93.761 194.586 86.7478 194.586 86.7478Z" fill="#EEA886"/>
<path d="M218.082 59.8C218.082 59.8 221.507 65.7012 219.782 66.6051C218.356 67.3522 221.398 73.1408 221.795 74.0857C222.191 75.0306 219.211 75.6991 218.574 76.2995C217.938 76.9032 216.01 84.3599 213.559 84.5714C211.106 84.7795 200.091 81.2012 197.105 78.3223C194.119 75.4433 191.746 62.5118 193.792 57.0745C195.838 51.6372 212.038 49.4882 218.082 59.8Z" fill="#EEA886"/>
<path d="M218.765 61.0728C218.765 61.0728 222.351 54.7452 215.956 49.9935C209.562 45.2453 197.648 53.4422 196.31 53.7492C194.972 54.0562 187.035 56.3723 191.018 67.1684C194.631 76.9651 195.095 78.0703 195.095 78.0703C195.095 78.0703 197.29 71.5619 198.687 70.6478C200.868 69.2185 205.625 69.5937 205.625 69.5937C205.625 69.5937 203.397 64.0712 206.947 63.3139C210.496 62.5532 215.188 59.8346 218.765 61.0728Z" fill="#2F2F2F"/>
<path d="M201.872 66.4172C201.565 65.6599 200.578 62.4092 197.518 64.2955C194.459 66.1853 199.358 72.3355 199.888 72.4173C200.419 72.4992 204.457 72.7925 201.872 66.4172Z" fill="#EEA886"/>
<path d="M208.979 86.2754C203.944 85.0372 199.626 80.0365 199.626 80.0365C201.002 81.2679 208.843 83.6727 208.843 83.6727C208.865 84.3993 208.909 85.3169 208.979 86.2754Z" fill="#A77860"/>
<path d="M265.201 128.114L257.002 166.734L229.906 161.918L237.047 123.11L265.201 128.114Z" fill="#616161"/>
<path d="M263.165 129.998L255.883 164.297L231.821 160.023L238.163 125.557L263.165 129.998Z" fill="white"/>
<path d="M255.536 129.525L256.047 127.117L246.321 125.391L245.429 127.728L255.536 129.525Z" fill="#616161"/>
<path d="M262.032 155.226C262.032 155.226 260.838 155.683 260.212 155.649C260.212 155.649 259.075 155.509 258.258 155.454C258.001 155.437 257.774 155.427 257.628 155.437C257.017 155.468 255.682 155.71 254.19 155.41C252.695 155.113 246.615 152.313 246.615 152.313L247.337 148.878L247.509 145.572C247.509 145.572 256.375 142.816 257.8 142.946C257.941 142.959 258.076 142.976 258.206 143.004C259.399 143.222 260.19 143.843 260.805 144.024C261.029 144.088 263.217 144.893 263.43 145.507C263.728 146.36 263.557 147.059 263.135 147.537C263.135 147.537 263.639 149.229 263.113 150.307C263.113 150.307 263.631 151.852 262.557 153.022C262.557 153.022 262.893 154.646 262.032 155.226Z" fill="#EEA886"/>
<path d="M249.552 144.817C249.552 144.817 248.709 149.122 246.615 152.318C246.615 152.318 239.82 152.073 235.107 151.431C223.863 149.893 219.15 148.495 216.328 146.059C211.255 141.686 197.116 116.584 197.116 116.584L210.804 108.656L220.431 128.366C221.48 130.307 223.401 133.199 224.782 135.775C226.591 139.152 234.656 142.034 238.259 142.948C238.259 142.948 245.157 144.817 249.552 144.817Z" fill="#EEA886"/>
<path d="M217.63 119.364L202.07 126.766C202.07 126.766 198.985 121.304 198.082 119.531C195.49 114.438 191.483 106.742 196.523 103.492C207.4 96.475 212.075 108.117 214.747 114.503C215.572 116.471 217.63 119.364 217.63 119.364Z" fill="white"/>
<defs>
<linearGradient id="paint0_linear_10691_2163" x1="307.07" y1="140.794" x2="461.18" y2="140.794" gradientUnits="userSpaceOnUse">
<stop stop-color="#1F3747"/>
<stop offset="1" stop-color="#13364E"/>
</linearGradient>
</defs>
</svg>
