<svg width="350" height="207" viewBox="0 0 350 207" fill="none" xmlns="http://www.w3.org/2000/svg">
<g clip-path="url(#clip0_13240_193100)">
<path d="M175.565 188.627C126.528 163.532 126.254 173.098 80.9115 190.215C31.7899 208.756 1.44827 193.861 0.113979 166.757C-3.60602 91.1852 85.0292 129.96 76.2758 71.4006C69.8259 28.2544 98.8398 8.68257 116.033 2.86707C147.091 -7.63843 203.221 10.8433 199.898 56.0368C198.222 78.8438 183.88 91.1387 212.059 100.959C221.02 104.082 236.271 102.564 253.097 101.045C290.995 97.6247 336.884 94.2049 336.884 143.833C336.884 214.777 209.387 205.937 175.565 188.627Z" fill="#E7F4FA"/>
<path d="M285.451 44.0957V44.0813C285.526 44.0191 285.576 43.9713 285.576 43.9713C285.576 43.9713 285.534 44.0139 285.451 44.0957Z" fill="#CCCCCC"/>
<path d="M289.623 182.698C289.575 182.946 283.282 179.053 284.706 176.328C286.129 173.605 290.501 178.208 289.623 182.698Z" fill="#59B45A"/>
<path d="M294.673 188.155C295.414 188.39 296.454 188.221 297.771 187.652L297.62 187.378C296.152 188.014 295.086 188.12 294.456 187.704C293.411 187.01 293.844 185.074 293.848 185.055L293.502 185.003C293.483 185.088 293.027 187.143 294.239 187.949C294.371 188.033 294.516 188.106 294.673 188.155Z" fill="#116851"/>
<path d="M43.2354 167.777H100.107V102.596H43.2354V167.777Z" fill="white"/>
<path d="M43.2344 107.875H100.106V102.596H43.2344V107.875Z" fill="#C1E3FB"/>
<path d="M95.5087 105.429C95.5087 106.106 95.9973 106.652 96.5968 106.652C97.2002 106.652 97.685 106.106 97.685 105.429C97.685 104.754 97.2002 104.208 96.5968 104.208C95.9973 104.208 95.5087 104.754 95.5087 105.429Z" fill="#F5F9FC"/>
<path d="M92.2392 105.429C92.2392 106.106 92.7239 106.652 93.3273 106.652C93.9308 106.652 94.4161 106.106 94.4161 105.429C94.4161 104.754 93.9308 104.208 93.3273 104.208C92.7239 104.208 92.2392 104.754 92.2392 105.429Z" fill="#F5F9FC"/>
<path d="M88.9688 105.429C88.9688 106.106 89.4502 106.652 90.0536 106.652C90.661 106.652 91.1503 106.106 91.1503 105.429C91.1503 104.754 90.661 104.208 90.0536 104.208C89.4502 104.208 88.9688 104.754 88.9688 105.429Z" fill="#F5F9FC"/>
<path d="M49.7656 129.439H94.4311V125.967H49.7656V129.439Z" fill="#C1E3FB"/>
<path d="M49.7656 124.717H94.4311V114.741H49.7656V124.717Z" fill="#C1E3FB"/>
<path d="M49.7656 134.381H94.4311V130.911H49.7656V134.381Z" fill="#C1E3FB"/>
<path d="M49.7666 139.328H94.4321V135.853H49.7666V139.328Z" fill="#C1E3FB"/>
<path d="M49.7656 150.85H94.4311V141.176H49.7656V150.85Z" fill="#C1E3FB"/>
<path d="M49.7656 163.445H94.4311V153.777H49.7656V163.445Z" fill="#C1E3FB"/>
<path d="M116.649 202.779C116.649 202.779 20.7222 212.152 9.69345 177.251C-1.33485 142.35 66.3365 148.567 116.633 188.011L116.649 202.779Z" fill="#338672"/>
<path d="M122.589 201.065C103.17 185.318 31.079 174.802 30.1674 174.648L30.1387 175.332C31.0535 175.483 102.971 185.969 122.248 201.6L122.589 201.065Z" fill="#277461"/>
<path d="M71.2049 182.035C70.8468 179.872 69.1141 177.484 66.031 174.913L65.6818 175.443C69.195 178.38 70.8559 180.997 70.6139 183.219C70.2088 186.892 64.739 188.389 64.6875 188.406L64.9008 189.078C65.1421 189.012 70.7985 187.455 71.2447 183.374C71.2956 182.939 71.2806 182.495 71.2049 182.035Z" fill="#277461"/>
<path d="M49.9924 177.711C49.6346 175.547 47.9048 173.16 44.8224 170.584L44.4692 171.117C47.994 174.054 49.6509 176.672 49.4032 178.891C49.0029 182.563 43.5314 184.066 43.4746 184.081L43.6917 184.752C43.9376 184.689 49.5936 183.132 50.0403 179.05C50.0857 178.613 50.0681 178.166 49.9924 177.711Z" fill="#277461"/>
<path d="M37.6658 174.953C37.308 172.79 35.567 170.402 32.4889 167.831L32.135 168.36C35.6554 171.294 37.3131 173.917 37.07 176.135C36.6653 179.808 31.1934 181.31 31.1406 181.322L31.3613 181.992C31.5983 181.93 37.2509 180.376 37.702 176.293C37.7517 175.856 37.7415 175.412 37.6658 174.953Z" fill="#277461"/>
<path d="M61.5995 180.15C61.3003 178.342 59.8527 176.35 57.2893 174.206L56.9405 174.738C59.8321 177.153 61.2074 179.308 61.0004 181.125C60.672 184.123 56.1704 185.367 56.125 185.378L56.3414 186.047C56.5424 185.997 61.2609 184.699 61.6324 181.28C61.6778 180.914 61.6627 180.535 61.5995 180.15Z" fill="#277461"/>
<path d="M81.7639 184.42C81.4057 182.257 79.6685 179.87 76.59 177.299L76.2331 177.829C79.7566 180.759 81.4103 183.378 81.1676 185.601C80.7664 189.271 75.2944 190.777 75.2383 190.789L75.4594 191.461C75.7015 191.399 81.3529 189.842 81.8043 185.762C81.8539 185.325 81.8389 184.876 81.7639 184.42Z" fill="#277461"/>
<path d="M91.76 177.598C91.4025 175.437 89.6685 173.045 86.5893 170.472L86.2364 171.002C89.7533 173.939 91.4149 176.561 91.1676 178.778C90.7664 182.451 85.2983 183.949 85.2422 183.966L85.4594 184.637C85.6936 184.577 91.3529 183.02 91.7997 178.937C91.85 178.501 91.835 178.054 91.76 177.598Z" fill="#178369"/>
<path d="M100.995 180.739C100.737 179.174 99.4877 177.454 97.2736 175.608L96.9233 176.142C99.3938 178.195 100.555 180.026 100.391 181.56C100.111 184.109 96.2735 185.16 96.2363 185.171L96.4581 185.844C96.6277 185.8 100.699 184.678 101.023 181.721C101.054 181.403 101.051 181.071 100.995 180.739Z" fill="#178369"/>
<path d="M118.543 181.436C77.3428 184.905 54.7701 157.556 54.5459 157.281L55.8017 156.219C56.0206 156.489 78.0735 183.156 118.385 179.76L118.543 181.436Z" fill="#59B45A"/>
<path d="M57.6377 159.4C57.6769 159.725 48.7688 157.167 49.3926 153.298C50.017 149.429 56.9381 153.547 57.6377 159.4Z" fill="#59B45A"/>
<path d="M62.4436 163.959C62.6737 164.187 54.29 167.984 52.3731 164.55C50.4561 161.116 58.2885 159.835 62.4436 163.959Z" fill="#59B45A"/>
<path d="M70.1224 169.518C70.3971 169.687 63.1206 175.376 60.4905 172.477C57.8599 169.576 65.1667 166.474 70.1224 169.518Z" fill="#59B45A"/>
<path d="M78.213 174.209C78.4876 174.376 71.2118 180.066 68.5815 177.166C65.9505 174.266 73.2576 171.163 78.213 174.209Z" fill="#59B45A"/>
<path d="M86.6824 177.244C86.9864 177.347 81.1399 184.564 77.9576 182.323C74.7767 180.081 81.209 175.388 86.6824 177.244Z" fill="#59B45A"/>
<path d="M95.7076 179.865C96.011 179.968 90.1638 187.185 86.9822 184.944C83.8007 182.702 90.2343 178.009 95.7076 179.865Z" fill="#59B45A"/>
<path d="M103.431 180.756C103.747 180.785 99.6505 189.189 96.069 187.73C92.4895 186.272 97.7091 180.201 103.431 180.756Z" fill="#59B45A"/>
<path d="M63.6016 165.076C63.8761 165.245 65.2282 155.916 61.5076 154.915C57.7869 153.912 58.6459 162.032 63.6016 165.076Z" fill="#59B45A"/>
<path d="M72.4986 170.597C72.7622 170.782 74.6632 161.564 71.0041 160.334C67.3463 159.103 67.7259 167.254 72.4986 170.597Z" fill="#59B45A"/>
<path d="M80.1132 174.797C80.3885 174.966 81.7409 165.637 78.0198 164.635C74.2987 163.633 75.1572 171.752 80.1132 174.797Z" fill="#59B45A"/>
<path d="M89.9721 178.35C90.265 178.482 90.4457 169.036 86.6372 168.526C82.8293 168.016 84.6873 175.972 89.9721 178.35Z" fill="#59B45A"/>
<path d="M98.6858 180.226C98.9872 180.336 98.5156 170.889 94.6862 170.656C90.8568 170.423 93.2562 178.234 98.6858 180.226Z" fill="#59B45A"/>
<path d="M109.216 179.133C109.216 179.133 59.4892 164.208 60.742 144.735C61.9945 125.264 94.5885 142.124 112.069 171.841L109.216 179.133Z" fill="#178369"/>
<path d="M117.703 184.223C109.944 170.534 70.8568 148.143 70.3604 147.838L70.1895 148.224C70.6885 148.53 109.681 170.862 117.383 184.449L117.703 184.223Z" fill="#116851"/>
<path d="M92.6109 161.851C92.8908 160.52 92.4204 158.732 91.2051 156.518L90.8815 156.741C92.2652 159.267 92.6416 161.169 91.9977 162.393C90.9318 164.411 87.4057 163.973 87.3712 163.969L87.3438 164.408C87.4997 164.427 91.1483 164.876 92.3311 162.632C92.4589 162.393 92.5509 162.134 92.6109 161.851Z" fill="#116851"/>
<path d="M81.2236 154.318C81.5041 152.986 81.035 151.2 79.8216 148.984L79.4948 149.207C80.885 151.736 81.2588 153.638 80.6136 154.858C79.5496 156.877 76.0203 156.442 75.9844 156.437L75.959 156.875C76.1162 156.897 79.7649 157.346 80.9489 155.1C81.0742 154.86 81.1649 154.598 81.2236 154.318Z" fill="#116851"/>
<path d="M74.6617 149.798C74.9429 148.467 74.4673 146.677 73.2546 144.464L72.929 144.685C74.3179 147.212 74.6911 149.117 74.0478 150.337C72.9812 152.357 69.4526 151.92 69.4187 151.914L69.3965 152.352C69.5485 152.373 73.1939 152.822 74.3799 150.578C74.5084 150.339 74.6023 150.081 74.6617 149.798Z" fill="#116851"/>
<path d="M87.4377 158.48C87.6726 157.367 87.2792 155.875 86.2694 154.031L85.9458 154.254C87.0855 156.333 87.3999 157.901 86.8689 158.898C85.9993 160.547 83.0943 160.193 83.065 160.189L83.0402 160.625C83.1687 160.644 86.212 161.019 87.2022 159.139C87.3112 158.937 87.3882 158.717 87.4377 158.48Z" fill="#116851"/>
<path d="M98.2245 165.739C98.5051 164.408 98.0321 162.62 96.8187 160.407L96.4912 160.628C97.882 163.153 98.2546 165.055 97.6107 166.277C96.5467 168.296 93.0167 167.861 92.9808 167.855L92.958 168.295C93.1133 168.317 96.7593 168.765 97.9447 166.521C98.0725 166.282 98.1652 166.02 98.2245 165.739Z" fill="#116851"/>
<path d="M104.959 169.718C105.238 168.389 104.769 166.598 103.556 164.384L103.23 164.605C104.616 167.133 104.992 169.039 104.346 170.257C103.283 172.276 99.756 171.839 99.7201 171.835L99.6953 172.274C99.8447 172.295 103.496 172.744 104.679 170.498C104.807 170.259 104.9 169.999 104.959 169.718Z" fill="#116851"/>
<path d="M109.631 173.726C109.834 172.764 109.494 171.476 108.622 169.886L108.297 170.11C109.272 171.881 109.536 173.211 109.093 174.055C108.353 175.457 105.879 175.15 105.855 175.147L105.832 175.588C105.941 175.602 108.567 175.925 109.425 174.299C109.515 174.124 109.588 173.931 109.631 173.726Z" fill="#116851"/>
<path d="M124.807 97.2949H61.8457V34.1029H124.807V97.2949Z" fill="#E8A32B"/>
<path d="M68.5332 90.7235H117.704V41.3729H68.5332V90.7235ZM118.819 91.8418H67.4189V40.2539H118.819V91.8418Z" fill="white"/>
<path d="M70.761 43.3281H65.1895V37.7359H70.761V43.3281Z" fill="white"/>
<path d="M120.908 43.3281H115.336V37.7359H120.908V43.3281Z" fill="white"/>
<path d="M65.1895 93.6562H70.761V88.064H65.1895V93.6562Z" fill="white"/>
<path d="M115.336 88.064V93.6562H120.908V88.064H115.336Z" fill="white"/>
<path d="M68.7207 90.418L79.0261 69.6113L91.2416 79.9537L105.543 60.1318L117.516 90.418H68.7207Z" fill="#CA8623"/>
<path d="M87.3909 55.5012C87.3909 58.1156 85.2792 60.2344 82.6749 60.2344C80.07 60.2344 77.959 58.1156 77.959 55.5012C77.959 52.8868 80.07 50.768 82.6749 50.768C85.2792 50.768 87.3909 52.8868 87.3909 55.5012Z" fill="#CA8623"/>
<path d="M117.868 91.6777L67.582 41.2082L68.3701 40.4172L118.656 90.8868L117.868 91.6777Z" fill="white"/>
<path d="M68.5049 91.8086L67.7129 91.0222L117.73 40.2862L118.523 41.0725L68.5049 91.8086Z" fill="white"/>
<path d="M350.003 199.704C350.003 203.529 274.999 206.629 182.478 206.629C89.9564 206.629 14.9531 203.529 14.9531 199.704C14.9531 195.878 89.9564 192.778 182.478 192.778C274.999 192.778 350.003 195.878 350.003 199.704Z" fill="#CDE1E8"/>
<path d="M202.635 58.8411C199.425 64.8216 191.376 65.663 187.005 60.4754C184.563 57.5774 184.124 53.3471 185.918 50.0052C189.129 44.0247 197.177 43.1827 201.548 48.371C203.99 51.2689 204.429 55.4992 202.635 58.8411ZM209.338 40.2468L205.338 36.8375L200.177 40.7352C199.792 41.026 199.291 41.0875 198.833 40.9356C198.577 40.8505 198.319 40.7739 198.061 40.7038C197.591 40.5774 197.211 40.2324 197.071 39.7656L195.216 33.6273L189.983 34.0096L189.035 40.3476C188.951 40.9055 188.583 41.3645 188.078 41.6113C187.741 41.7756 187.411 41.9544 187.086 42.1462C186.59 42.4402 185.987 42.4887 185.471 42.2313L179.726 39.3753L176.42 43.4656L180.397 48.5281C180.769 49.0028 180.905 49.632 180.725 50.2082C180.649 50.4478 180.581 50.6894 180.519 50.9324C180.371 51.5112 179.932 51.9695 179.373 52.1783L173.531 54.3626L174.238 59.5823L180.112 60.0943C180.831 60.1565 181.471 60.5788 181.81 61.2185L181.902 61.3881C182.247 62.0166 182.253 62.7775 181.921 63.4139L179.215 68.5995L183.216 72.0088L188.245 68.2106C188.713 67.857 189.319 67.7837 189.878 67.9592L189.906 67.9677C190.477 68.1464 190.936 68.5746 191.109 69.1488L192.858 74.9375L198.092 74.5551L198.966 68.7134C199.05 68.149 199.434 67.6887 199.956 67.4602C200.263 67.3254 200.566 67.18 200.864 67.0229C201.33 66.7767 201.881 66.7479 202.354 66.9829L207.738 69.6602L211.044 65.5693L207.66 61.2604C207.305 60.8086 207.244 60.2049 207.456 59.6707C207.639 59.2064 207.798 58.7363 207.931 58.2603C208.069 57.7666 208.413 57.36 208.891 57.1813L214.553 55.0638L213.847 49.8448L208.474 49.3767C207.877 49.3243 207.376 48.9373 207.124 48.3913C206.953 48.0167 206.765 47.6488 206.559 47.2886C206.275 46.7917 206.236 46.1926 206.5 45.6852L209.338 40.2468Z" fill="#B7D9F7"/>
<path d="M161.345 52.2672C158.651 57.2852 151.898 57.9917 148.231 53.6389C146.182 51.2072 145.813 47.6578 147.319 44.8541C150.013 39.8361 156.766 39.129 160.433 43.4818C162.482 45.9142 162.851 49.4636 161.345 52.2672ZM166.969 36.6658L163.613 33.8052L159.283 37.0757C158.96 37.3192 158.539 37.371 158.155 37.2439C157.94 37.1726 157.724 37.1078 157.507 37.0495C157.113 36.9434 156.795 36.6534 156.676 36.2618L155.121 31.1115L150.729 31.4317L149.934 36.7503C149.864 37.2178 149.555 37.6034 149.131 37.811C148.849 37.9485 148.571 38.0984 148.299 38.2595C147.883 38.5057 147.377 38.5463 146.944 38.3308L142.123 35.9344L139.349 39.3666L142.685 43.614C142.998 44.0121 143.112 44.5399 142.961 45.0237C142.898 45.2254 142.84 45.4277 142.788 45.6313C142.664 46.1171 142.295 46.5015 141.827 46.677L136.925 48.5103L137.518 52.8892L142.446 53.3188C143.051 53.3718 143.587 53.7253 143.872 54.2622L143.949 54.4043C144.238 54.9321 144.244 55.5704 143.964 56.1041L141.694 60.4555L145.051 63.3155L149.271 60.1288C149.664 59.8329 150.172 59.7707 150.641 59.918L150.664 59.9252C151.144 60.0751 151.529 60.4346 151.675 60.9165L153.141 65.7734L157.533 65.4533L158.266 60.5505C158.337 60.0771 158.66 59.6914 159.097 59.4996C159.355 59.3863 159.609 59.2639 159.859 59.1323C160.251 58.926 160.713 58.9018 161.109 59.0989L165.627 61.3454L168.401 57.9131L165.561 54.2976C165.263 53.9185 165.213 53.4117 165.39 52.9632C165.544 52.5743 165.677 52.1795 165.789 51.7801C165.904 51.3656 166.193 51.0252 166.594 50.8746L171.346 49.0982L170.753 44.7186L166.245 44.3257C165.744 44.2825 165.323 43.9578 165.112 43.4988C164.968 43.1852 164.81 42.8761 164.637 42.5743C164.399 42.1572 164.367 41.655 164.588 41.2288L166.969 36.6658Z" fill="#B7D9F7"/>
<path d="M178.81 28.5038C177.293 31.3284 173.491 31.7265 171.427 29.2758C170.273 27.9067 170.066 25.9084 170.913 24.3304C172.43 21.5058 176.232 21.1077 178.296 23.5585C179.449 24.9269 179.657 26.9252 178.81 28.5038ZM181.975 19.721L180.086 18.1109L177.649 19.9514C177.466 20.0889 177.23 20.1184 177.013 20.0464C176.892 20.0064 176.771 19.9698 176.648 19.937C176.427 19.8774 176.247 19.7144 176.181 19.4931L175.305 16.5945L172.833 16.7752L172.385 19.7681C172.346 20.032 172.172 20.2487 171.933 20.3652C171.775 20.4431 171.618 20.5276 171.465 20.618C171.231 20.7568 170.946 20.7797 170.702 20.6586L167.988 19.3091L166.427 21.2413L168.305 23.6324C168.481 23.8564 168.545 24.1543 168.46 24.426C168.425 24.5393 168.392 24.6532 168.363 24.7684C168.293 25.0415 168.085 25.2582 167.822 25.3564L165.062 26.3889L165.396 28.8541L168.17 29.0957C168.51 29.1252 168.812 29.3249 168.973 29.6267L169.016 29.7066C169.18 30.0038 169.182 30.3633 169.025 30.6638L167.747 33.1132L169.636 34.7233L172.012 32.9293C172.233 32.7623 172.52 32.7276 172.784 32.8108L172.797 32.8147C173.066 32.8992 173.284 33.1015 173.366 33.3725L174.191 36.1074L176.663 35.9267L177.076 33.1669C177.116 32.9005 177.298 32.6831 177.544 32.575C177.689 32.5115 177.832 32.4428 177.973 32.3681C178.194 32.2523 178.453 32.2385 178.677 32.3498L181.22 33.6141L182.781 31.682L181.183 29.6463C181.015 29.4329 180.987 29.1481 181.087 28.896C181.173 28.6767 181.248 28.4547 181.311 28.2295C181.376 27.9964 181.539 27.8045 181.764 27.7194L184.439 26.7196L184.105 24.2545L181.567 24.0332C181.285 24.0083 181.049 23.8262 180.93 23.5676C180.848 23.3915 180.76 23.2173 180.662 23.0471C180.529 22.8127 180.51 22.5292 180.635 22.2896L181.975 19.721Z" fill="#B7D9F7"/>
<path d="M336.859 175.635V187.824L350.003 181.729L336.859 175.635Z" fill="#E8A32B"/>
<path d="M284.946 184.499C284.946 188.613 281.364 191.949 276.957 191.949H94.5911C90.1759 191.949 86.5977 188.613 86.5977 184.499V76.9342C86.5977 72.8197 90.1759 69.4785 94.5911 69.4785H276.957C281.364 69.4785 284.946 72.8197 284.946 76.9342V184.499Z" fill="#2537A2"/>
<path d="M276.958 192.572H94.5917C89.8392 192.572 85.9746 188.948 85.9746 184.496V76.9314C85.9746 72.4745 89.8392 68.8491 94.5917 68.8491H276.958C281.705 68.8491 285.571 72.4745 285.571 76.9314V184.496C285.571 188.948 281.705 192.572 276.958 192.572Z" fill="#2537A2"/>
<path d="M289.124 184.499C289.124 188.613 285.541 191.949 281.135 191.949H98.7688C94.353 191.949 90.7754 188.613 90.7754 184.499V76.9342C90.7754 72.8197 94.353 69.4785 98.7688 69.4785H281.135C285.541 69.4785 289.124 72.8197 289.124 76.9342V184.499Z" fill="#4D6AC4"/>
<path d="M281.135 192.572H98.7694C94.0169 192.572 90.1523 188.948 90.1523 184.496V76.9314C90.1523 72.4745 94.0169 68.8491 98.7694 68.8491H281.135C285.883 68.8491 289.748 72.4745 289.748 76.9314V184.496C289.748 188.948 285.883 192.572 281.135 192.572Z" fill="#4D6AC4"/>
<path d="M282.211 185.699H96.0664V77.2868H282.211V185.699Z" fill="#C5E1EA"/>
<path d="M279.307 185.699H96.0664V77.2868H279.307V185.699Z" fill="#E7F4FA"/>
<path d="M305.701 197.158H71.6719V185.173H305.701V197.158Z" fill="#4D6AC4"/>
<path d="M306.339 197.785H71.0322V184.548H306.339V197.785Z" fill="#4D6AC4"/>
<path d="M112.582 145.644C112.582 149.156 115.409 152.004 118.907 152.004H257.965C261.468 152.004 264.301 149.156 264.301 145.644V58.1223C264.301 54.6109 261.468 51.7633 257.965 51.7633H118.907C115.409 51.7633 112.582 54.6109 112.582 58.1223V145.644Z" fill="#C5E1EA"/>
<path d="M118.907 51.7584H257.965C261.468 51.7584 264.301 54.6059 264.301 58.1174V69.9219H112.582V58.1174C112.582 54.6059 115.409 51.7584 118.907 51.7584Z" fill="#B7D9F7"/>
<path d="M248.943 60.906C248.943 62.6398 250.349 64.0547 252.092 64.0547C253.828 64.0547 255.235 62.6398 255.235 60.906C255.235 59.1526 253.828 57.7462 252.092 57.7462C250.349 57.7462 248.943 59.1526 248.943 60.906Z" fill="white"/>
<path d="M240.995 60.906C240.995 62.6398 242.407 64.0547 244.149 64.0547C245.881 64.0547 247.293 62.6398 247.293 60.906C247.293 59.1526 245.881 57.7462 244.149 57.7462C242.407 57.7462 240.995 59.1526 240.995 60.906Z" fill="white"/>
<path d="M233.332 60.906C233.332 62.6398 234.738 64.0547 236.48 64.0547C238.213 64.0547 239.62 62.6398 239.62 60.906C239.62 59.1526 238.213 57.7462 236.48 57.7462C234.738 57.7462 233.332 59.1526 233.332 60.906Z" fill="white"/>
<path d="M118.708 145.644C118.708 149.156 121.535 152.004 125.033 152.004H264.091C267.595 152.004 270.426 149.156 270.426 145.644V58.1223C270.426 54.6109 267.595 51.7633 264.091 51.7633H125.033C121.535 51.7633 118.708 54.6109 118.708 58.1223V145.644Z" fill="white"/>
<path d="M125.033 51.7584H264.091C267.595 51.7584 270.426 54.6059 270.426 58.1174V69.9219H118.708V58.1174C118.708 54.6059 121.535 51.7584 125.033 51.7584Z" fill="#C1E3FB"/>
<path d="M255.068 60.906C255.068 62.6398 256.475 64.0547 258.217 64.0547C259.953 64.0547 261.36 62.6398 261.36 60.906C261.36 59.1526 259.953 57.7462 258.217 57.7462C256.475 57.7462 255.068 59.1526 255.068 60.906Z" fill="white"/>
<path d="M247.122 60.906C247.122 62.6398 248.533 64.0547 250.276 64.0547C252.008 64.0547 253.419 62.6398 253.419 60.906C253.419 59.1526 252.008 57.7462 250.276 57.7462C248.533 57.7462 247.122 59.1526 247.122 60.906Z" fill="white"/>
<path d="M239.458 60.906C239.458 62.6398 240.864 64.0547 242.606 64.0547C244.338 64.0547 245.745 62.6398 245.745 60.906C245.745 59.1526 244.338 57.7462 242.606 57.7462C240.864 57.7462 239.458 59.1526 239.458 60.906Z" fill="white"/>
<path d="M256.91 116.344H131.934C131.216 116.344 130.629 115.754 130.629 115.034V80.6722C130.629 79.952 131.216 79.3627 131.934 79.3627H256.91C257.627 79.3627 258.215 79.952 258.215 80.6722V115.034C258.215 115.754 257.627 116.344 256.91 116.344Z" fill="#E1F3F9"/>
<path d="M257.177 124.199H130.629V120.646H257.177V124.199Z" fill="#A9D1EA"/>
<path d="M257.178 132.492H130.63V128.939H257.178V132.492Z" fill="#A9D1EA"/>
<path d="M270.893 201.484H187.324V188.946H270.893V201.484Z" fill="#70ABFF"/>
<path d="M261.571 188.947H178.002V174.197H261.571V188.947Z" fill="#70ABFF"/>
<path d="M250.251 174.195H166.682V159.444H250.251V174.195Z" fill="#70ABFF"/>
<path d="M239.265 159.445H155.695V144.694H239.265V159.445Z" fill="#70ABFF"/>
<path d="M229.275 144.695H145.706V127.733H229.275V144.695Z" fill="#70ABFF"/>
<path d="M278.885 201.484H195.316V186.733H278.885V201.484Z" fill="#80BAFA"/>
<path d="M269.562 186.734H185.993V171.984H269.562V186.734Z" fill="#5D9FED"/>
<path d="M258.242 171.98H174.672V157.23H258.242V171.98Z" fill="#80BAFA"/>
<path d="M247.255 157.23H163.686V142.48H247.255V157.23Z" fill="#5D9FED"/>
<path d="M237.266 142.482H153.697V127.732H237.266V142.482Z" fill="#80BAFA"/>
<path d="M226.988 181.874C226.988 181.874 227.665 185.27 227.428 185.825C226.724 187.478 220.877 188.41 218.787 187.547C218.496 187.426 218.156 186.935 218.678 186.213C219.199 185.491 222.403 184.276 222.031 182.879C221.658 181.481 226.988 181.874 226.988 181.874Z" fill="#E8A32B"/>
<path d="M226.31 159.57C226.31 159.57 229.28 140.267 229.192 137.051C229.065 132.327 224.936 129.789 219.616 130.83C212.606 132.202 213.493 160.932 219.845 164.525C224.804 167.331 226.31 159.57 226.31 159.57Z" fill="#6C4967"/>
<path d="M219.508 182.618C217.951 176.818 215.445 158.475 217.617 154.347C219.966 149.884 225.575 153.719 226.291 160.323C226.754 164.605 228.13 179.122 228.23 183.085C228.254 184.046 225.289 184.242 223.786 184.262C223.749 184.262 219.957 184.294 219.508 182.618Z" fill="#6C4967"/>
<path d="M203.595 165.723C203.595 165.723 204.524 169.059 204.331 169.63C203.751 171.332 197.991 172.703 195.843 171.999C195.543 171.901 195.168 171.437 195.633 170.678C196.098 169.919 199.204 168.464 198.727 167.1C198.251 165.735 203.595 165.723 203.595 165.723Z" fill="#E8A32B"/>
<path d="M205.073 146.017C205.073 146.017 218.944 142.997 221.738 141.786C225.843 140.007 227.109 131.895 223.308 128.411C220.695 126.016 192.956 136.121 194.31 143.203C195.327 148.53 205.073 146.017 205.073 146.017Z" fill="#6C4967"/>
<path d="M196.721 167.123C195.185 161.816 192.616 144.973 194.632 141.119C196.811 136.953 202.394 137.412 203.143 143.481C203.627 147.414 204.858 163.705 204.995 167.353C205.027 168.237 201.993 168.506 200.568 168.559C200.533 168.56 197.166 168.657 196.721 167.123Z" fill="#6C4967"/>
<path d="M223.335 137.648C223.907 139.138 225.5 142.829 227.639 141.937C227.925 141.818 227.796 141.344 227.504 141.466C225.73 142.206 224.287 138.769 223.805 137.513C223.693 137.221 223.221 137.351 223.335 137.648Z" fill="#5B3C58"/>
<path d="M211.929 136.612C210.366 136.919 206.406 137.529 206.02 135.237C205.968 134.93 206.436 134.788 206.489 135.1C206.808 137.002 210.476 136.4 211.793 136.141C212.098 136.08 212.239 136.551 211.929 136.612Z" fill="#5B3C58"/>
<path d="M235.596 123.082C235.596 123.082 227.953 120.244 226.272 116.517C224.593 112.79 227.441 110.732 227.441 110.732C227.441 110.732 233.45 118.237 237.892 119.455C242.336 120.675 235.596 123.082 235.596 123.082Z" fill="#CC8C71"/>
<path d="M222.929 108.369C222.929 108.369 222.169 108.204 222.17 112.101C222.171 116.927 229.647 120.859 229.647 120.859L234.405 116.969C234.405 116.969 227.844 109.098 222.929 108.369Z" fill="#EF7BAB"/>
<path d="M234.409 122.578C237.331 124.231 244.329 124.379 244.329 124.379L244.158 121.886L235.388 118.505C235.388 118.505 231.489 120.921 234.409 122.578Z" fill="#CC8C71"/>
<path d="M246.814 121.621C247.942 121.481 249.052 121.211 250.182 121.093C250.5 121.06 250.822 121.039 251.136 121.093C251.254 121.113 251.376 121.147 251.464 121.229C251.553 121.31 251.596 121.452 251.534 121.555C251.474 121.656 251.327 121.709 251.323 121.827C251.318 121.985 251.558 122.013 251.654 122.138C251.733 122.24 251.696 122.399 251.607 122.492C251.519 122.586 251.391 122.633 251.269 122.676C250.953 122.787 250.636 122.899 250.319 123.011C250.43 123.165 250.599 123.275 250.783 123.315C250.861 123.332 250.943 123.337 251.014 123.375C251.085 123.413 251.14 123.497 251.111 123.573L251.014 123.671C250.525 123.987 249.927 124.081 249.345 124.105C248.765 124.129 248.18 124.093 247.604 124.179C247.334 124.221 247.042 124.308 246.898 124.541C246.722 124.827 246.844 125.196 246.971 125.509C247.073 125.758 247.174 126.009 247.276 126.26C247.353 126.451 247.406 126.721 247.226 126.821C247.118 126.88 246.984 126.837 246.874 126.781C246.332 126.505 245.975 125.972 245.568 125.518C244.821 124.685 243.833 124.073 242.756 123.775C242.668 123.751 242.576 123.727 242.5 123.675C242.393 123.603 242.328 123.482 242.278 123.362C242.079 122.886 242.043 122.342 242.179 121.843C242.2 121.766 242.226 121.687 242.279 121.628C242.342 121.557 242.436 121.523 242.526 121.496C243.237 121.284 243.738 121.518 244.431 121.629C245.219 121.754 246.025 121.72 246.814 121.621Z" fill="#CC8C71"/>
<path d="M214.587 108.81C214.587 108.81 218.719 107.649 222.872 108.084C222.872 108.084 224.454 108.515 224.858 108.877C228.253 111.907 229.3 116.913 229.598 127.018C229.651 128.785 229.709 131.146 229.753 133.033C229.792 134.695 228.33 135.987 226.692 135.744L219.508 134.678C216.536 134.237 212.771 133.693 208.365 133.033C206.697 132.783 205.695 131.072 206.239 129.47C206.533 128.605 206.847 127.488 207.171 126.046C207.695 123.702 208.099 122.862 207.522 115.674C207.108 110.525 212.837 109.245 212.837 109.245L214.587 108.81Z" fill="#FA8FB8"/>
<path d="M229.516 105.668C230.004 107.355 229.407 109.01 228.185 109.366C226.963 109.721 225.577 108.643 225.09 106.957C224.603 105.27 225.198 103.614 226.42 103.258C227.642 102.903 229.028 103.982 229.516 105.668Z" fill="#DD8B12"/>
<path d="M226.045 103.42L227.406 102.732L229.327 109.281L227.941 109.439L227.567 109.164L226.045 103.42Z" fill="#DD8B12"/>
<path d="M231.023 105.229C231.551 107.051 230.907 108.839 229.586 109.224C228.266 109.607 226.769 108.442 226.242 106.621C225.716 104.798 226.36 103.01 227.679 102.625C229 102.241 230.497 103.406 231.023 105.229Z" fill="#F1A52B"/>
<path d="M230.598 105.402C230.959 106.744 230.465 108.047 229.491 108.31C228.519 108.574 227.437 107.7 227.075 106.359C226.714 105.016 227.209 103.713 228.182 103.45C229.154 103.185 230.236 104.06 230.598 105.402Z" fill="#DD8B12"/>
<path d="M250.072 108.026L244.091 90.6053L228.666 103.309L228.672 103.328C227.833 103.548 227.431 104.786 227.771 106.094C228.111 107.402 229.066 108.286 229.903 108.066L229.985 108.037L229.987 108.044L250.072 108.026Z" fill="#FFB725"/>
<path d="M233.426 106.989C233.431 107.062 233.425 107.134 233.408 107.205C233.303 107.652 232.962 109.465 234.226 109.85C235.302 110.177 237.337 110.265 238.432 110.344C239.039 110.388 239.769 110.105 240.025 109.549C240.228 109.108 240.316 108.537 239.805 107.764C239.531 107.352 239.731 106.793 240.205 106.655L240.267 106.636C240.605 106.537 240.965 106.695 241.122 107.012C241.63 108.042 242.494 110.279 241.037 111.305C239.081 112.683 233.494 111.375 232.835 111.214L232.688 111.16C232.303 110.967 230.775 109.966 231.789 106.658C233.042 102.565 233.375 106.27 233.426 106.989Z" fill="#F1A52B"/>
<path d="M229.903 108.066L229.984 108.037L229.986 108.044L250.072 108.026L247.234 99.7594L227.663 105.457C227.68 105.665 227.714 105.879 227.771 106.094C228.11 107.402 229.065 108.286 229.903 108.066Z" fill="#F1A52B"/>
<path d="M253.729 97.2802C255.307 102.744 254.092 107.9 251.015 108.796C247.937 109.692 244.162 105.989 242.582 100.525C241.004 95.0612 242.218 89.905 245.296 89.0087C248.374 88.113 252.149 91.8163 253.729 97.2802Z" fill="#DD8B12"/>
<path d="M244.358 89.4473L247.73 87.5197L253.936 108.742L250.397 108.977L249.382 108.027L244.358 89.4473Z" fill="#DD8B12"/>
<path d="M257.527 96.1765C259.233 102.079 257.92 107.65 254.596 108.617C251.27 109.585 247.192 105.585 245.486 99.6813C243.78 93.7787 245.092 88.2088 248.418 87.2404C251.743 86.2727 255.821 90.2732 257.527 96.1765Z" fill="#F1A52B"/>
<path d="M256.433 96.4922C257.83 101.322 256.755 105.879 254.034 106.671C251.314 107.463 247.977 104.19 246.581 99.3601C245.185 94.5306 246.26 89.9729 248.98 89.1806C251.701 88.389 255.038 91.6621 256.433 96.4922Z" fill="#F9B35F"/>
<path d="M248.98 89.1818C248.15 89.4234 247.473 90.0185 246.973 90.8638C249.322 91.3372 251.781 94.2528 252.928 98.2226C253.898 101.578 253.675 104.8 252.538 106.721C253.047 106.823 253.55 106.813 254.035 106.672C256.756 105.88 257.83 101.323 256.433 96.4934C255.038 91.6633 251.701 88.3902 248.98 89.1818Z" fill="#DD8B12"/>
<path d="M225.462 125.236C222.568 125.475 217.505 124.371 214.644 120.998C211.781 117.626 213.923 114.711 213.923 114.711C213.923 114.711 222.276 120.773 227.049 120.792C231.824 120.811 227.536 125.066 225.462 125.236Z" fill="#CC8C71"/>
<path d="M208.521 112.55C205.683 118.489 218.524 124.484 218.524 124.484L222.702 118.747C222.702 118.747 211.288 106.758 208.521 112.55Z" fill="#EF7BAB"/>
<path d="M224.692 125.004C228.14 127.048 236.75 114.214 236.75 114.214L234.036 113.778L224.361 120.351C224.361 120.351 221.919 123.359 224.692 125.004Z" fill="#CC8C71"/>
<path d="M233.545 113.762C233.555 113.462 233.38 113.134 233.316 112.846C233.188 112.273 233.25 111.687 233.322 111.111C233.361 110.791 233.069 110.07 233.426 109.859C234.011 109.512 234.171 110.845 234.308 111.117C234.434 111.367 234.696 111.584 234.97 111.532C235.152 111.497 235.292 111.357 235.414 111.218C235.799 110.774 236.11 110.272 236.447 109.79C236.623 109.54 236.813 109.306 237.004 109.068C237.146 108.89 237.267 108.596 237.447 108.462C237.589 108.357 237.834 108.369 237.914 108.551C237.985 108.715 237.846 108.82 237.775 108.952C237.614 109.25 237.46 109.551 237.31 109.854C237.277 109.921 237.084 110.202 237.118 110.277C237.287 110.642 237.814 109.895 237.903 109.781C238.127 109.494 238.371 109.201 238.732 109.087L238.876 109.091C238.941 109.136 238.922 109.235 238.893 109.308C238.717 109.737 238.391 110.092 238.225 110.526C238.197 110.596 238.179 110.684 238.227 110.741C238.426 110.97 238.869 110.557 239.027 110.434C239.126 110.356 239.257 110.27 239.366 110.333C239.437 110.374 239.464 110.468 239.45 110.549C239.437 110.631 239.391 110.703 239.347 110.773C239.216 110.976 239.097 111.202 238.942 111.388C238.867 111.478 238.622 111.725 238.721 111.851L238.805 111.888C238.919 111.895 239.021 111.823 239.121 111.77C239.222 111.716 239.355 111.68 239.444 111.751C239.556 111.839 239.52 112.016 239.46 112.144C239.243 112.607 238.86 112.99 238.52 113.363C238.158 113.763 237.777 114.145 237.378 114.511C236.851 114.995 236.293 115.448 235.712 115.865C235.204 116.229 234.598 116.614 233.944 116.559C233.759 116.544 233.58 116.491 233.404 116.434C233.173 116.358 232.941 116.272 232.743 116.13C232.545 115.99 232.381 115.784 232.336 115.544V115.445L232.414 115.347C232.66 115.135 232.918 114.934 233.131 114.688C233.339 114.447 233.505 114.14 233.545 113.762Z" fill="#CC8C71"/>
<path d="M232.687 111.165C232.687 111.165 233.992 111.531 234.971 111.535C235.949 111.539 234.391 110.398 234.391 110.398C234.391 110.398 233.483 109.249 232.97 109.242C232.46 109.234 232.687 111.165 232.687 111.165Z" fill="#F1A52B"/>
<path d="M215.763 101.91C215.763 101.91 220.983 103.961 220.612 104.392C220.24 104.82 220.626 105.856 220.503 106.784C220.373 107.791 220.836 108.947 221.519 110.085C221.996 110.882 220.836 111.577 219.888 111.627C215.802 111.84 213.533 109.874 214.575 108.617C216.918 105.795 215.763 101.91 215.763 101.91Z" fill="#CC8C71"/>
<path d="M220.503 106.785C220.627 105.857 220.24 104.822 220.612 104.393C220.983 103.963 215.352 101.751 215.352 101.751C215.352 101.751 216.092 102.856 216.028 104.342C217.506 106.208 219.26 107.316 220.632 108.146C220.512 107.713 220.456 107.149 220.503 106.785Z" fill="#BF7C64"/>
<path d="M222.189 96.0214C224.061 98.0649 224.994 104.302 222.35 106.814C220.898 108.194 216.696 105.875 215.111 102.168C214.905 101.685 214.614 99.0595 216.13 96.4673C216.814 95.2927 220.244 93.8968 222.189 96.0214Z" fill="#CC8B6E"/>
<path d="M223.951 101.082C223.894 101.448 224.005 97.4007 221.966 96.8225C221.138 96.5875 221.186 97.5735 220.194 97.5055C219.347 97.4485 217.102 95.2623 217.278 100.773C217.286 101.037 217.014 101.307 216.87 101.522C216.69 101.787 217.02 102.503 216.967 102.823C216.915 103.131 216.191 102.053 216.163 102.364C216.12 102.836 216.68 104.253 216.028 104.339C215.25 104.441 214.697 101.631 214.739 99.086C214.75 98.4313 214.618 95.8574 214.66 95.3127C214.75 94.1531 220.25 93.2096 222.552 93.5547C223.911 93.7577 223.237 95.7055 223.509 97.0203C223.776 98.3088 224.168 99.6838 223.951 101.082Z" fill="#282738"/>
<path d="M217.601 102.184C217.601 102.184 216.28 100.502 215.372 100.795C214.462 101.09 215.287 103.745 217.085 103.662C218.88 103.579 218.015 102.646 217.601 102.184Z" fill="#CC8B6E"/>
<path d="M218.337 101.572L218.402 101.605C218.475 101.639 218.547 101.669 218.626 101.684C218.93 101.742 219.089 101.553 219.186 101.299C219.248 101.14 219.496 101.256 219.435 101.415C219.218 101.977 218.659 102.094 218.158 101.772C218.011 101.677 218.191 101.478 218.337 101.572Z" fill="#1E100C"/>
<path d="M221.28 100.829C221.345 100.904 221.431 100.974 221.519 101.023C221.807 101.182 221.992 101.013 222.127 100.755C222.206 100.604 222.455 100.718 222.375 100.871C222.216 101.175 221.959 101.436 221.576 101.332C221.37 101.277 221.189 101.135 221.054 100.979C220.94 100.849 221.167 100.699 221.28 100.829Z" fill="#1E100C"/>
<path d="M221.903 99.482C221.465 99.3471 221.087 99.5383 220.886 99.9469C220.791 100.138 220.508 99.9704 220.601 99.7806C220.867 99.2404 221.405 98.9831 221.991 99.1631C222.194 99.226 222.106 99.5442 221.903 99.482Z" fill="#552B19"/>
<path d="M219.171 100.335C218.786 100.086 218.37 100.168 218.067 100.507C217.924 100.665 217.696 100.426 217.837 100.269C218.239 99.822 218.826 99.7192 219.342 100.052C219.52 100.168 219.349 100.451 219.171 100.335Z" fill="#552B19"/>
<path d="M220.282 100.487C220.197 100.778 220.16 101.115 220.248 101.405C220.378 101.829 220.859 102.012 221.125 102.36C221.491 102.836 221.137 103.128 220.556 103.3C220.415 103.342 220.346 103.164 220.486 103.122C221.789 102.737 220.258 102.077 220.053 101.533C219.924 101.192 219.957 100.795 220.058 100.448C220.092 100.33 220.316 100.369 220.282 100.487Z" fill="#BF7C64"/>
<path d="M219.461 103.87C219.461 103.87 219.386 105.005 220.324 105.002C221.262 105.001 221.358 103.983 221.358 103.983L219.461 103.87Z" fill="#FAFFFF"/>
<path d="M217.689 103.593C217.805 103.927 218.17 104.104 218.503 103.988C218.836 103.871 219.012 103.506 218.896 103.17C218.78 102.836 218.416 102.659 218.082 102.776C217.749 102.892 217.573 103.258 217.689 103.593Z" fill="#C1775D"/>
<path d="M223.037 101.961C222.755 101.739 222.349 101.788 222.128 102.069C221.907 102.351 221.956 102.76 222.236 102.982C222.517 103.204 222.924 103.155 223.145 102.873C223.366 102.591 223.318 102.183 223.037 101.961Z" fill="#C1775D"/>
<path d="M98.1376 143.957C98.7456 144.145 104.523 148.055 106.426 147.095C107.804 146.399 106.817 141.565 106.817 141.565C106.817 141.565 105.162 142.875 100.804 139.179C97.1323 136.065 98.1376 143.957 98.1376 143.957Z" fill="#7C4930"/>
<path d="M106.948 146.813C109.964 144.962 116.233 136.382 116.233 136.382L113.906 136.199L104.216 143.532C104.216 143.532 103.932 148.661 106.948 146.813Z" fill="#7C4930"/>
<path d="M113.291 136.288C113.302 136.04 113.161 135.766 113.11 135.526C113.009 135.05 113.065 134.564 113.131 134.087C113.167 133.821 112.93 133.22 113.229 133.047C113.717 132.766 113.839 133.874 113.95 134.101C114.052 134.31 114.266 134.492 114.495 134.452C114.646 134.425 114.764 134.31 114.866 134.195C115.191 133.831 115.453 133.416 115.738 133.02C115.886 132.814 116.046 132.621 116.207 132.425C116.326 132.278 116.429 132.035 116.58 131.927C116.7 131.841 116.903 131.853 116.967 132.005C117.025 132.141 116.908 132.228 116.847 132.337C116.711 132.582 116.58 132.831 116.453 133.081C116.425 133.136 116.262 133.367 116.29 133.43C116.426 133.735 116.871 133.12 116.946 133.026C117.134 132.789 117.34 132.549 117.641 132.458L117.76 132.463C117.813 132.499 117.798 132.582 117.772 132.643C117.622 132.997 117.348 133.288 117.206 133.647L117.207 133.826C117.369 134.018 117.742 133.679 117.873 133.578C117.956 133.515 118.066 133.444 118.155 133.498C118.214 133.532 118.235 133.611 118.223 133.678C118.211 133.746 118.173 133.805 118.136 133.862C118.025 134.031 117.924 134.216 117.794 134.37C117.731 134.443 117.525 134.646 117.605 134.752L117.675 134.784C117.769 134.79 117.854 134.732 117.939 134.688C118.023 134.645 118.133 134.616 118.207 134.676C118.299 134.749 118.267 134.896 118.217 135.003C118.031 135.384 117.71 135.699 117.425 136.006C117.119 136.334 116.8 136.647 116.466 136.947C115.84 137.509 115.09 137.94 114.518 138.556C114.432 138.649 114.347 138.746 114.241 138.815C114.039 138.944 113.78 138.951 113.545 138.908C113.102 138.828 112.668 138.555 112.456 138.149C112.388 138.02 112.231 137.768 112.294 137.635C112.339 137.538 112.523 137.441 112.604 137.372C112.722 137.272 112.837 137.169 112.939 137.054C113.114 136.856 113.254 136.603 113.291 136.288Z" fill="#7C4930"/>
<path d="M91.2594 134.818C88.9422 133.974 86.4378 134.04 85.6145 135.998C85.1467 137.109 86.0542 139.352 87.2591 140.377C89.575 142.345 95.8201 145.826 101.021 146.32C102.926 146.502 105.73 142.425 103.089 140.475C99.6221 137.916 94.5225 136.005 91.2594 134.818Z" fill="#FA8FB8"/>
<path d="M63.4081 196.188C63.4081 196.188 60.2856 197.454 59.9613 197.945C58.9952 199.407 61.3715 204.693 63.1928 205.941C63.4476 206.115 64.0284 206.129 64.3362 205.316C64.6435 204.503 63.9134 201.228 65.2485 200.784C66.5839 200.341 63.4081 196.188 63.4081 196.188Z" fill="#E8A32B"/>
<path d="M81.2729 181.692C81.2729 181.692 76.8896 166.781 76.2262 163.506C74.1999 153.51 84.0219 153.095 89.3831 154.828C93.0696 156.019 94.9843 186.479 89.783 190.426C85.0651 194.005 81.2729 181.692 81.2729 181.692Z" fill="#6C4967"/>
<path d="M66.8117 202.707C72.3588 200.874 88.6079 193.095 90.7985 189.104C93.1666 184.79 87.0441 182.253 81.2936 185.206C77.5666 187.121 65.0309 193.776 61.7576 195.818C60.9635 196.314 61.7443 198.702 62.5332 199.943C62.5526 199.974 65.2087 203.237 66.8117 202.707Z" fill="#6C4967"/>
<path d="M100.873 194.709C100.873 194.709 99.1523 197.713 99.2012 198.316C99.3447 200.109 104.594 202.862 106.851 202.711C107.166 202.69 107.643 202.332 107.379 201.481C107.114 200.629 104.459 198.452 105.256 197.246C106.053 196.04 100.873 194.709 100.873 194.709Z" fill="#E8A32B"/>
<path d="M106.012 172.815C106.012 172.815 89.7315 167.856 86.9224 166.062C82.7942 163.426 83.6169 156.558 88.325 153.456C91.5627 151.322 118.699 165.053 118.496 171.594C118.311 177.528 106.012 172.815 106.012 172.815Z" fill="#6C4967"/>
<path d="M107.731 197.804C111.048 192.801 119.246 176.203 118.496 171.592C117.685 166.609 111.147 168.453 108.372 174.489C106.574 178.401 100.661 191.732 99.3093 195.459C98.9812 196.363 101.963 197.606 103.383 198.106C103.418 198.119 106.772 199.25 107.731 197.804Z" fill="#6C4967"/>
<path d="M83.427 163.643C82.6076 165.085 80.3974 168.627 78.3392 167.376C78.0632 167.208 78.27 166.742 78.5499 166.913C80.2578 167.951 82.2743 164.647 82.9651 163.432C83.1256 163.149 83.5894 163.357 83.427 163.643Z" fill="#5B3C58"/>
<path d="M91.8043 163.685C92.7385 164.777 92.9982 166.637 92.5754 168.135C92.4684 168.517 93.0686 168.646 93.1763 168.265C93.6564 166.563 93.3954 164.606 92.2192 163.231C91.9622 162.931 91.5506 163.388 91.8043 163.685Z" fill="#5B3C58"/>
<path d="M91.5868 136.351C89.7308 132.147 82.0897 134.368 76.8636 135.79C73.3415 136.748 71.5064 138.629 72.4379 145.183C72.8046 147.761 73.5437 155.665 75.2372 159.501C75.5419 160.19 75.8289 161.213 76.4435 161.647C79.9767 164.142 97.8338 158.734 96.6955 154.787C96.6955 154.787 95.5538 145.337 91.5868 136.351Z" fill="#FA8FB8"/>
<path d="M95.1904 159.207C96.7235 159.83 100.644 161.238 101.488 158.977C101.601 158.674 101.151 158.437 101.037 158.744C100.336 160.621 96.7144 159.279 95.4227 158.753C95.1226 158.631 94.8864 159.083 95.1904 159.207Z" fill="#5B3C58"/>
<path d="M82.2475 138.114C86.8258 144.411 89.522 152.975 87.6497 160.663C87.5519 161.065 88.1729 161.229 88.2714 160.826C90.1828 152.977 87.4814 144.226 82.8053 137.794C82.5639 137.461 82.0042 137.779 82.2475 138.114Z" fill="#EF7BAB"/>
<path d="M77.4258 129.823C77.4258 129.823 83.0374 130.372 82.7843 130.857C82.5292 131.34 83.1672 132.183 83.2814 133.058C83.408 134.006 84.1517 134.94 85.1048 135.802C85.7721 136.406 84.8151 137.33 83.9025 137.614C79.9687 138.836 77.2575 137.622 77.9581 136.217C79.5323 133.063 77.4258 129.823 77.4258 129.823Z" fill="#7C4930"/>
<path d="M83.28 133.058C83.1659 132.183 82.5278 131.34 82.7829 130.857C83.036 130.372 76.9814 129.781 76.9814 129.781C76.9814 129.781 77.9835 130.599 78.2953 131.965C80.1976 133.977 82.5618 134.359 84.1111 134.768C83.8835 134.404 83.3257 133.4 83.28 133.058Z" fill="#56301B"/>
<path d="M82.2088 122.85C84.5514 124.236 87.0363 129.668 85.0889 132.617C84.0191 134.237 79.3338 133.189 76.8522 130.218C76.5286 129.832 75.5814 127.519 76.4086 124.782C76.7785 123.543 79.7741 121.41 82.2088 122.85Z" fill="#7C4930"/>
<path d="M85.2069 127.007C85.2441 127.354 84.3321 123.649 82.1956 123.636C81.328 123.632 81.6242 124.516 80.6384 124.704C79.7969 124.865 77.055 123.444 78.6161 128.407C78.6911 128.646 78.4935 128.959 78.4067 129.191C78.2991 129.477 78.8014 130.044 78.8301 130.348C78.8575 130.641 77.8789 129.845 77.9292 130.135C78.0055 130.574 78.9103 131.72 78.2952 131.963C77.5625 132.251 76.3139 129.838 75.7124 127.514C75.5578 126.917 74.7796 124.611 74.6837 124.105C74.4795 123.029 79.6097 120.786 81.9432 120.519C83.3203 120.362 83.154 122.301 83.7515 123.428C84.3367 124.531 85.0673 125.682 85.2069 127.007Z" fill="#282738"/>
<path d="M79.2871 129.607C79.2871 129.607 77.574 128.413 76.7612 128.908C75.9477 129.404 77.422 131.61 79.1567 131.081C80.8867 130.554 79.8077 129.924 79.2871 129.607Z" fill="#7C4930"/>
<path d="M82.6688 122.498C82.7151 122.9 83.0772 123.189 83.4778 123.141C83.8783 123.096 84.1654 122.732 84.1197 122.33C84.0734 121.929 83.7113 121.639 83.3108 121.687C82.9109 121.732 82.6232 122.096 82.6688 122.498Z" fill="#282738"/>
<path d="M80.9603 121.072C81.0464 121.827 81.7268 122.368 82.4784 122.282C83.2305 122.195 83.7701 121.513 83.6839 120.758C83.5972 120.003 82.9174 119.461 82.1652 119.548C81.4137 119.635 80.8736 120.317 80.9603 121.072Z" fill="#282738"/>
<path d="M78.5945 122.418C79.395 123.055 80.5595 122.921 81.1949 122.118C81.8303 121.314 81.6965 120.146 80.8961 119.508C80.0956 118.871 78.9312 119.004 78.2958 119.808C77.6604 120.612 77.7941 121.78 78.5945 122.418Z" fill="#282738"/>
<path d="M75.9715 121.951C76.0544 122.671 76.7022 123.187 77.4198 123.105C78.1367 123.021 78.6514 122.371 78.5686 121.651C78.4864 120.931 77.8379 120.415 77.121 120.497C76.4034 120.581 75.8893 121.231 75.9715 121.951Z" fill="#282738"/>
<path d="M73.5734 123.87C73.6764 124.767 74.4841 125.41 75.3785 125.308C76.2722 125.205 76.9141 124.393 76.811 123.496C76.708 122.599 75.8997 121.955 75.006 122.058C74.1122 122.161 73.4703 122.973 73.5734 123.87Z" fill="#282738"/>
<path d="M73.7422 125.811C73.8166 126.462 74.4024 126.929 75.0502 126.853C75.6986 126.779 76.1631 126.191 76.0887 125.541C76.0144 124.89 75.4286 124.424 74.7808 124.499C74.1323 124.574 73.6678 125.161 73.7422 125.811Z" fill="#282738"/>
<path d="M74.6132 126.901C74.6875 127.549 75.2714 128.014 75.9173 127.939C76.5624 127.865 77.0256 127.279 76.9513 126.631C76.8769 125.983 76.2937 125.518 75.6478 125.593C75.0026 125.667 74.5395 126.253 74.6132 126.901Z" fill="#282738"/>
<path d="M83.5832 123.473C83.6302 123.884 84 124.179 84.4097 124.132C84.8194 124.085 85.113 123.714 85.066 123.302C85.019 122.892 84.6491 122.596 84.2395 122.644C83.8298 122.691 83.5356 123.062 83.5832 123.473Z" fill="#282738"/>
<path d="M74.7205 128.387C74.7831 128.931 75.2724 129.321 75.8152 129.259C76.3573 129.196 76.7461 128.705 76.6841 128.16C76.6215 127.616 76.1315 127.225 75.5894 127.288C75.0467 127.351 74.6579 127.843 74.7205 128.387Z" fill="#282738"/>
<path d="M80.4675 128.539L80.534 128.571C80.6078 128.601 80.6802 128.629 80.7604 128.642C81.0657 128.689 81.2177 128.496 81.3071 128.239C81.3632 128.078 81.6143 128.186 81.5582 128.346C81.3606 128.915 80.8067 129.051 80.2959 128.746C80.1459 128.655 80.3194 128.45 80.4675 128.539Z" fill="#201714"/>
<path d="M83.3788 127.696C83.4466 127.77 83.5354 127.836 83.6247 127.882C83.9163 128.032 84.097 127.857 84.223 127.595C84.2967 127.441 84.5485 127.548 84.4741 127.702C84.3254 128.011 84.0768 128.28 83.6919 128.189C83.4845 128.141 83.2985 128.005 83.1576 127.855C83.0396 127.728 83.2614 127.571 83.3788 127.696Z" fill="#201714"/>
<path d="M83.8952 126.153C83.4535 126.033 83.083 126.237 82.8958 126.652C82.8077 126.846 82.5187 126.687 82.6061 126.494C82.854 125.947 83.3818 125.672 83.9728 125.832C84.177 125.888 84.1 126.209 83.8952 126.153Z" fill="#56301B"/>
<path d="M81.1981 127.097C80.8054 126.862 80.3938 126.958 80.1015 127.306C79.9645 127.469 79.7296 127.238 79.8647 127.076C80.2509 126.616 80.8341 126.494 81.3599 126.81C81.5406 126.919 81.3801 127.207 81.1981 127.097Z" fill="#56301B"/>
<path d="M82.3718 127.394C82.2975 127.688 82.2701 128.025 82.3686 128.312C82.5121 128.731 82.9981 128.897 83.276 129.235C83.657 129.699 83.3125 130.002 82.7385 130.193C82.5995 130.24 82.5238 130.064 82.6628 130.018C83.9499 129.59 82.4005 128.983 82.1774 128.445C82.0378 128.109 82.0574 127.713 82.1468 127.363C82.1768 127.244 82.4018 127.275 82.3718 127.394Z" fill="#56301B"/>
<path d="M83.299 132.074C83.299 132.074 83.8992 131.448 83.3486 130.986C82.7987 130.524 82.2441 131.073 82.2441 131.073L83.299 132.074Z" fill="#FAFFFF"/>
<path d="M79.8869 130.58C80.0141 130.91 80.3833 131.075 80.7128 130.947C81.0416 130.819 81.2053 130.449 81.0781 130.119C80.9515 129.788 80.5817 129.624 80.2522 129.751C79.9234 129.878 79.7597 130.25 79.8869 130.58Z" fill="#56301B"/>
<path d="M84.9675 128.935C84.6804 128.723 84.2753 128.786 84.064 129.074C83.8526 129.363 83.9146 129.769 84.2023 129.982C84.49 130.194 84.8951 130.131 85.1064 129.843C85.3172 129.553 85.2558 129.148 84.9675 128.935Z" fill="#56301B"/>
<path d="M57.0673 191.415C56.409 190.86 56.3219 189.866 56.8744 189.205L118.29 115.693C118.843 115.032 119.834 114.945 120.492 115.5C121.151 116.053 121.238 117.048 120.686 117.709L59.269 191.22C58.7168 191.882 57.726 191.969 57.0673 191.415Z" fill="#80BAFA"/>
<path d="M72.6858 204.557C72.0269 204.003 71.9401 203.009 72.4927 202.347L133.909 128.836C134.461 128.175 135.452 128.088 136.111 128.642C136.77 129.195 136.856 130.191 136.304 130.851L74.8875 204.363C74.335 205.024 73.3447 205.111 72.6858 204.557Z" fill="#80BAFA"/>
<path d="M125.546 142.142L110.285 129.298C109.858 128.938 109.802 128.293 110.16 127.864C110.518 127.436 111.16 127.379 111.588 127.739L126.85 140.582C127.277 140.942 127.333 141.587 126.975 142.016C126.617 142.445 125.974 142.502 125.546 142.142Z" fill="#80BAFA"/>
<path d="M117.908 151.289L102.647 138.444C102.219 138.085 102.162 137.44 102.521 137.011C102.879 136.582 103.522 136.526 103.949 136.885L119.211 149.729C119.639 150.089 119.695 150.734 119.337 151.163C118.978 151.592 118.335 151.648 117.908 151.289Z" fill="#80BAFA"/>
<path d="M111.359 159.122L96.0974 146.279C95.6701 145.919 95.614 145.274 95.9722 144.846C96.3303 144.416 96.9735 144.36 97.4002 144.719L112.662 157.563C113.09 157.923 113.146 158.569 112.788 158.997C112.429 159.426 111.787 159.482 111.359 159.122Z" fill="#80BAFA"/>
<path d="M103.72 168.271L88.459 155.427C88.0317 155.067 87.975 154.422 88.3338 153.993C88.6919 153.564 89.3345 153.507 89.7618 153.868L105.023 166.711C105.451 167.071 105.507 167.717 105.149 168.145C104.791 168.574 104.148 168.631 103.72 168.271Z" fill="#80BAFA"/>
<path d="M94.9891 178.718L79.7277 165.874C79.3004 165.515 79.2436 164.87 79.6018 164.441C79.9606 164.011 80.6032 163.955 81.0305 164.315L96.2925 177.159C96.7192 177.518 96.7759 178.163 96.4178 178.593C96.059 179.022 95.4164 179.078 94.9891 178.718Z" fill="#80BAFA"/>
<path d="M87.3507 187.865L72.0886 175.021C71.6613 174.661 71.6052 174.017 71.9634 173.587C72.3222 173.158 72.9641 173.101 73.3921 173.461L88.6535 186.305C89.0808 186.665 89.1369 187.31 88.7794 187.739C88.4206 188.168 87.778 188.225 87.3507 187.865Z" fill="#80BAFA"/>
<path d="M80.8014 195.701L65.54 182.857C65.1127 182.497 65.0561 181.852 65.4148 181.423C65.7729 180.995 66.4155 180.938 66.8428 181.297L82.1049 194.141C82.5322 194.501 82.5883 195.146 82.2301 195.575C81.872 196.004 81.2287 196.06 80.8014 195.701Z" fill="#80BAFA"/>
<path d="M70.6581 154.242C70.6776 154.918 68.7349 162.069 70.3423 163.658C71.5075 164.81 76.0048 162.17 76.0048 162.17C76.0048 162.17 74.1319 160.948 76.3434 155.301C78.2066 150.543 70.6581 154.242 70.6581 154.242Z" fill="#7C4930"/>
<path d="M70.802 164.092C73.6802 166.499 84.3927 169.893 84.3927 169.893L83.7834 167.486L73.1524 160.223C73.1524 160.223 67.927 161.683 70.802 164.092Z" fill="#7C4930"/>
<path d="M83.4814 166.897C83.7338 166.822 83.9602 166.587 84.182 166.455C84.6243 166.19 85.1299 166.082 85.6289 165.985C85.9062 165.931 86.4274 165.489 86.7014 165.73C87.1489 166.127 86.083 166.626 85.8931 166.815C85.7196 166.989 85.6107 167.268 85.7287 167.484C85.8064 167.627 85.9616 167.706 86.111 167.77C86.5866 167.973 87.0896 168.097 87.5828 168.248C87.8392 168.327 88.0864 168.423 88.3376 168.518C88.5241 168.588 88.8027 168.609 88.9625 168.725C89.0891 168.815 89.1458 169.025 89.016 169.14C88.8992 169.245 88.7733 169.157 88.6435 169.133C88.3519 169.079 88.059 169.032 87.7654 168.989C87.7008 168.979 87.4138 168.894 87.3603 168.944C87.1026 169.185 87.8692 169.424 87.9885 169.466C88.2886 169.576 88.5992 169.702 88.7929 169.974L88.8294 170.095C88.8092 170.162 88.7218 170.173 88.6526 170.169C88.2469 170.139 87.862 169.961 87.4562 169.94C87.3897 169.937 87.3114 169.944 87.2775 170.001C87.1405 170.23 87.6063 170.49 87.7511 170.588C87.8431 170.65 87.9514 170.737 87.9279 170.846C87.9129 170.916 87.8424 170.964 87.7707 170.975C87.6989 170.986 87.6265 170.968 87.5567 170.949C87.3512 170.896 87.1307 170.857 86.933 170.778C86.8378 170.74 86.5657 170.602 86.4868 170.718L86.479 170.799C86.5044 170.896 86.5918 170.962 86.6636 171.033C86.736 171.103 86.8019 171.204 86.7686 171.298C86.7262 171.417 86.5677 171.435 86.4444 171.419C86.0001 171.362 85.5754 171.147 85.1723 170.962C84.7404 170.768 84.317 170.553 83.9047 170.318C83.1297 169.879 82.4434 169.271 81.6326 168.905C81.5106 168.849 81.384 168.797 81.2796 168.714C81.0813 168.554 80.9867 168.296 80.9489 168.044C80.8778 167.57 81.0037 167.041 81.337 166.688C81.4427 166.576 81.641 166.333 81.7956 166.351C81.9085 166.364 82.0677 166.515 82.1649 166.573C82.3045 166.657 82.4461 166.739 82.5967 166.802C82.8544 166.911 83.1552 166.966 83.4814 166.897Z" fill="#7C4930"/>
<path d="M77.4524 144.206C77.5058 141.585 76.5886 139.085 74.3504 138.922C73.0809 138.83 71.9379 138.658 71.3247 140.22C70.1446 143.222 67.9989 152.548 69.275 157.954C69.7421 159.935 74.7737 161.37 75.8234 158.047C77.2012 153.684 77.3767 147.897 77.4524 144.206Z" fill="#EF7BAB"/>
</g>
<defs>
<clipPath id="clip0_13240_193100">
<rect width="350" height="206.627" fill="white"/>
</clipPath>
</defs>
</svg>
