<svg width="193" height="210" viewBox="0 0 193 210" fill="none" xmlns="http://www.w3.org/2000/svg">
<path opacity="0.38" d="M93.8084 1.08542C147.537 3.97383 149.848 61.7468 144.071 84.2779C138.293 106.809 182.201 112.009 187.4 148.983C192.6 185.958 158.514 201.557 134.249 202.134C109.985 202.712 90.92 188.269 86.876 170.359C82.8321 152.45 71.2774 143.783 51.0569 140.317C30.8364 136.851 -5.56053 109.697 0.79461 74.456C0.79461 74.456 2.28258 36.9577 37.481 12.0618C61.1677 -4.6914 93.8084 1.08542 93.8084 1.08542Z" fill="#E2E7FF"/>
<path d="M59.0529 89.6214C59.0529 89.6214 57.5891 70.956 63.0787 58.512C65.2744 55.5844 66.7387 56.682 66.7387 56.682C66.7387 56.682 67.4706 64.3678 65.6406 71.6873C63.8106 79.0074 62.713 93.2809 62.713 93.2809L59.0529 89.6214Z" fill="#61A27D"/>
<path d="M57.955 88.1578C57.955 88.1578 57.5888 79.3739 48.4392 71.6881C39.2896 64.0024 37.4596 64.0024 37.4596 64.0024C37.4596 64.0024 44.7792 63.6361 49.903 66.9305C55.0269 70.2243 56.8569 79.3739 57.2231 80.8382C57.5893 82.302 59.785 88.1583 59.785 88.1583L57.955 88.1578Z" fill="#578B71"/>
<path d="M63.8913 89.5033C63.8913 89.5033 65.6064 80.8811 75.8305 74.6961C86.0551 68.5118 87.8631 68.7937 87.8631 68.7937C87.8631 68.7937 80.6869 67.3041 75.1168 69.7694C69.5468 72.2346 66.3292 80.9933 65.7417 82.383C65.1548 83.7732 62.0828 89.2209 62.0828 89.2209L63.8913 89.5033Z" fill="#578B71"/>
<path d="M59.7849 88.1585C59.7849 88.1585 50.2691 56.6835 41.8514 49.3634C42.2171 48.2653 52.0991 51.5591 55.0267 59.6111C57.9549 67.6626 58.6868 79.7403 59.7849 83.0347C60.883 86.3285 62.3468 89.2566 62.3468 89.2566" fill="#7CC97D"/>
<path d="M59.0536 89.6198C59.0536 89.6198 62.7136 72.4183 72.2294 66.5625C72.9613 68.7582 62.348 86.6917 63.4455 94.7437C64.5431 102.795 59.0536 89.6198 59.0536 89.6198Z" fill="#7CC97D"/>
<path d="M53.8277 109.007H67.9024C68.7686 103.136 69.4962 97.8579 69.6309 95.841C69.908 91.6821 68.5065 88.1579 67.8101 86.6914H53.92C53.2236 88.1579 51.8221 91.6821 52.0991 95.841C52.2334 97.8579 52.961 103.136 53.8277 109.007Z" fill="#A9A7E7"/>
<path d="M181.992 73.959H156.179V108.882H181.992V73.959Z" fill="#24ADB2"/>
<path d="M179.334 73.959H153.521V108.882H179.334V73.959Z" fill="#26C6DA"/>
<path d="M172.881 70.4141H147.068V108.881H172.881V70.4141Z" fill="#E1543C"/>
<path d="M170.224 70.4141H140.615V108.881H170.224V70.4141Z" fill="#FF634D"/>
<path d="M170.224 70.4141H165.163V108.881H170.224V70.4141Z" fill="#EB594D"/>
<path d="M22.4329 80.0312C22.4329 80.0312 18.3841 82.0557 16.6126 87.8765C14.8411 93.6968 24.4578 109.387 24.4578 108.628C24.4578 107.869 34.0746 103.566 34.0746 103.566L29.2665 85.8516L22.4329 80.0312Z" fill="#5161B3"/>
<path d="M123.571 110.745L118.224 96.6152H104.858L110.204 110.745" fill="#4F57A0"/>
<path d="M75.0696 99.4194H151.067L152.396 92.291H76.3986" fill="#E2E7FF"/>
<path d="M83.1243 56.2136L76.3987 92.2884H152.396L158.966 57.0486C159.227 55.6476 158.152 54.3535 156.726 54.3535H85.363C84.2665 54.3535 83.3252 55.1354 83.1243 56.2136Z" fill="#243FA7"/>
<path d="M120.559 105.653L140.678 90.6585L120.939 89.5195L102.338 103.944L120.559 105.653Z" fill="white"/>
<path d="M114.929 100.779L119.99 97.9951C119.99 97.9951 124.878 95.9707 125.02 95.9707C125.162 95.9707 125.589 96.4454 125.067 97.4415C124.545 98.4381 123.169 98.6755 123.169 98.6755L122.267 101.19L126.949 100.526L128.025 100.273C128.025 100.273 127.266 102.171 126.949 102.614C126.633 103.057 124.862 104.196 124.862 104.196C124.862 104.196 121.508 106.979 120.306 107.296C119.104 107.612 114.929 107.801 114.929 107.801L112.272 107.738L109.804 108.244C109.804 108.244 108.539 105.904 108.729 102.614L114.929 100.779Z" fill="#FF8D68"/>
<path d="M144.917 112.424L159.595 208.084H163.138L153.521 111.918L144.917 112.424Z" fill="#E2E7FF"/>
<path d="M174.779 112.424L189.457 208.084H193L183.383 111.918L174.779 112.424Z" fill="#E2E7FF"/>
<path d="M88.7361 112.424L74.0584 208.084H70.5154L80.1321 111.918L88.7361 112.424Z" fill="#C2D3EB"/>
<path d="M58.8733 112.424L44.1956 208.084H40.6526L50.2693 111.918L58.8733 112.424Z" fill="#C2D3EB"/>
<path d="M185.408 111.408H53.3068V115.963H185.408V111.408Z" fill="#A9A7E7"/>
<path d="M187.938 113.439H57.3557C55.958 113.439 54.825 112.305 54.825 110.908C54.825 109.51 55.958 108.377 57.3557 108.377H187.938C189.336 108.377 190.469 109.51 190.469 110.908C190.469 112.305 189.336 113.439 187.938 113.439Z" fill="#FFC757"/>
<path d="M61.7292 198.466C61.7292 198.466 62.5594 196.434 66.0299 196.795C69.5004 197.156 69.93 197.8 70.4116 199.502C70.8933 201.205 72.1761 203.002 72.9907 203.36C73.8048 203.719 76.8167 205.563 79.2208 205.844C81.6248 206.125 81.961 207.569 81.4632 208.258C80.9659 208.946 71.9828 209.917 69.9826 209.749C69.9826 209.749 63.2199 209.946 61.6041 209.494C59.9889 209.042 61.6293 199.135 61.7292 198.466Z" fill="#201360"/>
<path d="M62.6504 183.893L61.6086 199.755C61.6086 199.755 64.0814 200.552 65.9635 201.931C68.7446 203.969 71.0219 201.501 71.0219 201.501L71.6491 191.52L62.6504 183.893Z" fill="#FF8D68"/>
<path d="M82.7884 155.95L72.5391 199.984C72.5391 199.984 67.2247 200.744 60.7712 197.707C60.7712 197.707 66.4654 156.331 66.845 153.673C67.2247 151.016 82.0292 153.673 82.7884 155.95Z" fill="#5161B3"/>
<path d="M41.2431 42.0259C41.2431 42.0259 45.4508 42.8099 48.2163 49.0066C50.9817 55.2033 50.3164 68.8066 48.8596 70.4986C47.4028 72.1907 42.6161 71.8991 35.8905 70.1636C28.7841 68.3303 25.9542 61.2567 24.3948 56.571C21.4076 47.5976 28.7245 37.6731 41.2431 42.0259Z" fill="#FF8D68"/>
<path d="M29.5614 78.298L31.9816 66.7051C31.9816 66.7051 38.2111 64.4305 42.4628 68.4014L43.9095 70.1665L44.4019 77.5779C44.4019 77.5779 37.8722 79.3408 29.5614 78.298Z" fill="#FF8D68"/>
<path d="M29.427 149.587C29.427 149.587 42.9884 153.555 59.0736 153.008C75.1588 152.46 77.2873 147.899 77.7889 143.551C78.2904 139.202 65.7783 136.557 60.3355 135.128C54.8926 133.699 36.2836 128.348 31.2511 133.776C26.2191 139.203 25.0484 145.878 29.427 149.587Z" fill="#201360"/>
<path d="M99.3117 198.466C99.3117 198.466 100.142 196.434 103.612 196.795C107.083 197.156 107.512 197.8 107.994 199.502C108.476 201.205 109.759 203.002 110.573 203.36C111.387 203.719 114.399 205.563 116.803 205.844C119.207 206.125 119.543 207.569 119.046 208.258C118.548 208.946 109.565 209.917 107.565 209.749C107.565 209.749 100.802 209.946 99.1866 209.494C97.5708 209.042 99.2113 199.135 99.3117 198.466Z" fill="#201360"/>
<path d="M95.3157 185.055L99.1116 200.492C99.1116 200.492 102.148 199.732 103.92 201.251C105.691 202.77 108.981 201.757 108.981 201.757L106.198 189.61L95.3157 185.055Z" fill="#FF8D68"/>
<path d="M63.9353 133.428C64.6946 133.428 90.5071 142.032 95.5687 145.828C100.63 149.877 108.728 194.986 109.234 195.999C109.741 197.011 101.895 199.795 96.8338 199.035C96.5809 198.023 84.6863 160 84.6863 157.469C84.6863 157.469 64.4411 156.457 55.8366 154.938C47.2325 153.419 41.4117 153.167 37.8687 143.803C34.3257 134.44 55.0773 133.681 55.0773 133.681L63.9353 133.428Z" fill="#5161B3"/>
<path d="M108.095 100.151C108.095 100.151 113.03 100.024 113.41 100.53C113.789 101.037 115.561 105.592 113.916 107.49C112.524 108.502 112.524 108.502 112.524 108.502H108.222L108.095 100.151Z" fill="#E2E7FF"/>
<path d="M28.6956 76.6119L30.024 73.1956C30.024 73.1956 37.9955 70.7282 44.8285 73.7648C46.5367 75.4729 47.486 78.1304 47.486 78.1304L28.6956 76.6119Z" fill="#E2E7FF"/>
<path d="M26.9879 76.9937C26.9879 76.9937 28.0001 75.2222 29.7716 74.9693C31.5431 74.7164 39.6413 73.7042 44.9557 75.2222C46.9801 75.9815 47.9924 76.9937 47.9924 76.9937C47.9924 76.9937 55.5842 79.5245 58.1149 81.0425C60.6457 82.5611 61.405 94.2023 61.9108 97.9982C62.4167 101.794 60.8986 105.843 60.8986 105.843C60.8986 105.843 66.9724 130.644 66.9724 134.187C66.9724 137.73 64.948 141.779 57.862 144.309C50.776 146.84 31.5431 145.828 24.9629 141.779C22.9385 137.73 19.9014 89.6465 19.3955 85.0913C18.8897 80.5367 26.9879 76.9937 26.9879 76.9937Z" fill="#5161B3"/>
<path d="M53.9394 80.0295C53.9394 80.0295 55.8376 78.8906 60.3928 81.9277C64.948 84.9643 77.4746 96.3526 78.9932 97.1119C80.5118 97.8712 109.741 99.3897 109.741 99.3897C109.741 99.3897 113.917 104.704 109.361 108.88C109.361 108.88 81.1443 110.019 75.8298 109.639C70.5154 109.259 52.8004 99.0101 52.8004 99.0101C52.8004 99.0101 45.5883 88.3806 53.9394 80.0295Z" fill="#5161B3"/>
<path d="M47.8557 96.7812C47.8557 96.7812 71.5204 109.205 74.2815 109.599C77.0427 109.994 87.4944 109.599 87.4944 109.599" stroke="#1B2048" stroke-width="0.643389" stroke-miterlimit="10"/>
<path d="M79.8036 99.9375C79.8036 99.9375 80.5924 104.276 77.8313 106.84" stroke="#1B2048" stroke-width="0.643389" stroke-miterlimit="10"/>
<path d="M81.5784 98.752C81.5784 98.752 83.9448 102.499 82.7613 105.26" stroke="#1B2048" stroke-width="0.643389" stroke-miterlimit="10"/>
<path d="M47.6581 91.8503C47.6581 91.8503 45.6857 84.948 52.5881 80.4121" stroke="#1B2048" stroke-width="0.643389" stroke-miterlimit="10"/>
<path d="M22.2192 85.3438C22.2192 85.3438 20.8386 97.5708 20.8386 103.29" stroke="#1B2048" stroke-width="0.643389" stroke-miterlimit="10"/>
<path d="M29.3181 77.2568C29.3181 77.2568 38.3898 76.468 45.8834 77.2568" stroke="#1B2048" stroke-width="0.643389" stroke-miterlimit="10"/>
<path d="M88.678 156.732C88.678 156.732 93.0168 155.351 94.5944 148.646" stroke="#1B2048" stroke-width="0.643389" stroke-miterlimit="10"/>
<path d="M91.6365 157.325C91.6365 157.325 94.2 156.536 95.3835 152.986" stroke="#1B2048" stroke-width="0.643389" stroke-miterlimit="10"/>
<path d="M75.859 165.018L69.3508 197.557" stroke="#1B2048" stroke-width="0.643389" stroke-miterlimit="10"/>
<path d="M47.2961 50.2318C47.2961 50.2318 48.0554 53.6481 45.0182 55.9259L45.2078 59.7218C45.2078 59.7218 46.3467 63.1381 45.5874 63.5177C44.8281 63.8974 44.6386 63.3276 44.6386 63.3276C44.6386 63.3276 42.1711 59.3416 41.4119 59.1521C40.6526 58.962 43.12 64.4666 43.12 64.4666C43.12 64.4666 40.6526 68.2625 36.0974 68.8317L37.0462 67.5032C37.0462 67.5032 34.9584 68.8317 31.7317 68.6421C28.505 68.452 26.0376 63.5177 26.0376 63.5177C26.0376 63.5177 26.6068 64.8462 26.0376 65.4159C25.4684 65.9851 22.2417 61.0503 22.0516 54.787L21.1028 56.6852C21.1028 56.6852 21.2923 52.3196 23.001 47.3847C24.7091 42.4499 32.3015 38.8436 36.477 38.8436C40.6526 38.8436 44.8281 39.2232 45.967 38.8436C47.106 38.4639 46.5362 41.6906 46.5362 41.6906C46.5362 41.6906 47.1054 40.3621 47.2955 39.2232C48.0548 38.654 49.1938 43.2092 48.8141 44.9173C48.4345 46.6254 48.4345 46.6254 48.4345 46.6254C48.4345 46.6254 49.763 44.9173 49.953 43.9679C50.7123 43.7784 50.5228 47.9539 47.2961 50.2318Z" fill="#3A3A3A"/>
<path d="M44.5423 59.6909C44.5423 59.6909 43.7755 57.1499 41.6705 58.4859C39.5661 59.8219 42.5554 65.8049 44.3157 65.2889C46.0764 64.7728 45.0051 60.6569 44.5423 59.6909Z" fill="#FF634D"/>
<path d="M121.572 103.692L126.949 102.617L128.025 100.275" stroke="#E66657" stroke-width="0.997047" stroke-miterlimit="10"/>
<path d="M126.759 102.742C126.759 102.742 124.039 105.02 123.659 105.21C123.28 105.4 121.572 105.842 121.572 105.842" stroke="#E66657" stroke-width="0.997047" stroke-miterlimit="10"/>
<path d="M43.6898 66.1113C43.6898 66.1113 42.9305 68.7683 47.4857 70.2869" stroke="#E66657" stroke-width="0.997047" stroke-miterlimit="10"/>
<path d="M147.448 86.1021H106.957L112.018 59.7832H152.509L147.448 86.1021Z" fill="#2E60BE"/>
<path d="M93.9469 68.8978C93.802 69.6523 94.3797 70.352 95.1482 70.352H139.229C139.815 70.352 140.319 69.9358 140.43 69.3596L141.079 65.9863H94.5065L93.9469 68.8978Z" fill="#26C6F8"/>
<path d="M144.579 40.0781H100.499C99.9124 40.0781 99.4082 40.4943 99.2976 41.0705L94.5061 65.9847H141.078L145.781 41.5328C145.926 40.7778 145.348 40.0781 144.579 40.0781Z" fill="#CAE5FF"/>
<path d="M114.442 70.3664C115.022 68.7657 115.381 67.6214 115.381 67.6214C115.381 67.6214 116.71 60.6718 110.788 62.4546C110.788 62.4546 108.733 63.9957 107.766 67.2589C107.466 68.2722 107.108 69.3548 106.756 70.3664H114.442Z" fill="#387AB6"/>
<path d="M126.708 70.3703C126.599 66.9438 126.386 64.1961 126.016 63.4556C124.928 61.4613 120.487 59.6484 120.487 59.6484L114.414 60.5549C114.414 60.5549 111.875 61.2798 111.06 63.0932C110.786 63.7026 110.123 66.6668 109.414 70.3708L126.708 70.3703Z" fill="#DCE4FF"/>
<path d="M115.45 55.5365C115.45 55.5365 115.083 58.253 114.275 60.2356C114.275 60.2356 114.055 61.7772 117.286 61.1167C120.516 60.4557 120.076 58.8405 120.076 58.8405V52.4531L115.45 55.5365Z" fill="#FF8D68"/>
<path d="M110.916 48.8169C110.916 48.8169 110.952 54.8906 112.695 57.8166C113.885 59.0474 117.942 57.1143 119.649 54.5029C121.356 51.8916 121.323 47.9631 119.972 45.776C118.621 43.5889 114.172 44.2467 112.868 45.0022C111.564 45.7572 110.842 47.8455 110.916 48.8169Z" fill="#FF8D68"/>
<path d="M119.112 52.2474C119.112 52.2474 120.257 50.4823 121.023 51.5332C121.79 52.584 119.136 54.7336 118.933 53.9157C118.73 53.0979 119.112 52.2474 119.112 52.2474Z" fill="#FBA894"/>
<path d="M110.915 48.8186C110.915 48.8186 108.784 46.945 111.354 44.5222C112.823 43.4208 113.557 44.2285 115.099 43.9347C116.64 43.641 119.43 43.9347 120.458 45.55C121.486 47.1652 121.119 50.9095 120.826 51.2768C120.532 51.6441 119.651 51.8643 119.651 52.5248C119.651 53.1858 119.504 53.6997 119.283 53.6997C119.063 53.6997 119.063 52.5983 119.063 51.7907C119.063 50.9831 118.917 49.4415 118.549 48.3401C118.182 47.2388 116.494 47.3123 115.833 47.4589C115.172 47.6055 114.735 49.297 110.915 48.8186Z" fill="#713336"/>
<path opacity="0.53" d="M118.916 50.6427C118.916 50.6427 118.964 50.6185 119.037 50.5879C119.037 50.5858 119.037 50.582 119.037 50.582L118.916 50.6427Z" fill="#505E83"/>
<path d="M119.037 50.5899C119.05 50.7102 119.435 54.2269 118.039 55.2068C116.589 56.1739 116.529 54.9351 115.38 54.7536C114.232 54.5721 113.295 54.6328 112.782 55.3883C112.329 56.1439 112.419 56.4762 111.996 56.2647C111.905 56.5063 112.54 57.9868 113.507 58.3798C114.474 58.7724 116.77 57.5642 117.798 56.6578C118.825 55.7513 119.46 55.1773 119.641 54.3917C119.822 53.6061 119.731 52.095 119.943 51.0377C120.064 50.2387 119.333 50.4669 119.037 50.5899ZM113.749 57.0804C112.359 56.778 112.54 55.6907 113.96 55.2374C113.96 55.2374 115.471 54.5426 115.985 55.5999C116.196 56.2948 115.139 57.3827 113.749 57.0804Z" fill="#713336"/>
<path d="M120.079 58.3789C120.079 58.3789 118.311 60.5998 115.41 60.8716C114.821 60.645 114.504 59.557 114.504 59.557L114.051 60.2368C114.051 60.2368 113.824 61.5965 114.051 62.1404C114.322 62.1855 115.32 61.5057 115.32 61.5057C115.32 61.5057 115.999 62.4578 116.498 62.6388C116.996 62.8197 120.169 60.6901 120.486 59.6472C120.487 59.6478 120.464 58.8998 120.079 58.3789Z" fill="white"/>
<path d="M127.17 70.3703C127.013 66.9927 126.811 64.4109 126.621 63.8788C125.896 62.1867 123.176 60.0114 120.487 59.6484C120.487 59.6484 119.477 64.311 118.483 70.3703H127.17Z" fill="#387AB6"/>
<path d="M111.527 70.3683C112.952 64.323 114.052 60.7344 114.052 60.7344C113.236 60.8251 111.786 61.4593 110.788 62.4565C110.247 63.539 109.406 66.6481 108.538 70.3683H111.527Z" fill="#387AB6"/>
<path d="M126.628 70.37C126.727 67.1364 126.546 64.1465 126.017 63.4554C124.295 62.005 122.483 62.0957 121.576 63.7276C121.08 64.6195 120.423 67.7313 119.928 70.3706L126.628 70.37Z" fill="#387AB6"/>
<path d="M115.321 61.5039C114.807 63.5976 114.381 65.7149 113.996 67.836" stroke="#87B8EB" stroke-width="0.279921" stroke-miterlimit="10"/>
<path d="M148.593 44.8846C152.866 41.1119 153.944 35.3528 151.003 32.0211C148.061 28.6894 142.212 29.0468 137.94 32.8195C133.667 36.5921 132.589 42.3513 135.531 45.6829C138.472 49.0146 144.321 48.6572 148.593 44.8846Z" fill="#6787FF"/>
<path d="M154.229 48.6388C153.885 50.0161 152.49 51.1331 151.113 51.1331C149.735 51.1331 148.897 50.0161 149.24 48.6388C149.584 47.2614 150.979 46.1445 152.356 46.1445C153.734 46.1445 154.572 47.2609 154.229 48.6388Z" fill="#6787FF"/>
<path d="M140.913 43.4759C140.626 43.4759 140.367 43.3664 140.203 43.1478L137.848 40.0102C137.519 39.5726 137.696 38.8633 138.243 38.4256C138.789 37.988 139.499 37.988 139.827 38.4256L141.588 40.7706L147.878 35.7364C148.424 35.2988 149.134 35.2988 149.462 35.7364C149.791 36.1741 149.614 36.8834 149.067 37.3211L141.788 43.1478C141.514 43.3664 141.199 43.4759 140.913 43.4759Z" fill="white"/>
<path d="M76.2978 23.6572H73.317C72.5685 23.6572 72.1131 23.0504 72.3 22.3024L73.0432 19.3216C73.23 18.573 73.9877 17.9668 74.7357 17.9668H77.7165C78.465 17.9668 78.9204 18.5736 78.7335 19.3216L77.9903 22.3024C77.804 23.0509 77.0463 23.6572 76.2978 23.6572Z" fill="#BFD9FF"/>
<path d="M74.119 32.3935H71.1383C70.3903 32.3935 69.9344 31.7867 70.1212 31.0387L70.8644 28.0579C71.0513 27.3099 71.809 26.7031 72.557 26.7031H75.5377C76.2858 26.7031 76.7417 27.3099 76.5548 28.0579L75.8116 31.0387C75.6253 31.7867 74.8671 32.3935 74.119 32.3935Z" stroke="#A9A7E7" stroke-width="0.583979" stroke-miterlimit="10"/>
<path d="M83.6035 32.3935H80.6227C79.8741 32.3935 79.4188 31.7867 79.6056 31.0387L80.3488 28.0579C80.5357 27.3099 81.2934 26.7031 82.0414 26.7031H85.0222C85.7707 26.7031 86.2261 27.3099 86.0392 28.0579L85.296 31.0387C85.1097 31.7867 84.352 32.3935 83.6035 32.3935Z" fill="#26C6DA"/>
<path d="M93.0873 32.3935H90.1066C89.358 32.3935 88.9027 31.7867 89.0895 31.0387L89.8327 28.0579C90.019 27.3099 90.7773 26.7031 91.5253 26.7031H94.506C95.254 26.7031 95.7099 27.3099 95.5231 28.0579L94.7799 31.0387C94.5936 31.7867 93.8359 32.3935 93.0873 32.3935Z" fill="white"/>
<path d="M71.8895 41.3388H68.9088C68.1608 41.3388 67.7049 40.732 67.8917 39.984L68.6349 37.0032C68.8218 36.2547 69.5795 35.6484 70.3275 35.6484H73.3082C74.0568 35.6484 74.5122 36.2552 74.3253 37.0032L73.5821 39.984C73.3958 40.732 72.6376 41.3388 71.8895 41.3388Z" fill="#26C6DA"/>
<path d="M69.5092 50.8954H66.5284C65.7799 50.8954 65.3245 50.2886 65.5114 49.5406L66.2546 46.5599C66.4409 45.8119 67.1991 45.2051 67.9471 45.2051H70.9279C71.6759 45.2051 72.1318 45.8119 71.9449 46.5599L71.2018 49.5406C71.0149 50.2892 70.2572 50.8954 69.5092 50.8954Z" fill="white"/>
<path d="M81.3744 41.3388H78.3937C77.6451 41.3388 77.1898 40.732 77.3766 39.984L78.1198 37.0032C78.3061 36.2547 79.0644 35.6484 79.8124 35.6484H82.7931C83.5412 35.6484 83.997 36.2552 83.8102 37.0032L83.067 39.984C82.8807 40.732 82.123 41.3388 81.3744 41.3388Z" fill="#EDF4FF"/>
<path d="M77.2195 58.0048H74.2388C73.4902 58.0048 73.0349 57.398 73.2217 56.65L73.9649 53.6692C74.1518 52.9212 74.9095 52.3145 75.6575 52.3145H78.6382C79.3868 52.3145 79.8421 52.9212 79.6553 53.6692L78.9121 56.65C78.7258 57.398 77.9681 58.0048 77.2195 58.0048Z" stroke="#A9A7E7" stroke-width="0.583979" stroke-miterlimit="10"/>
<path d="M166.891 46.4209H165.796C165.522 46.4209 165.355 46.198 165.423 45.9236L165.696 44.8293C165.765 44.5543 166.043 44.332 166.317 44.332H167.412C167.687 44.332 167.854 44.5549 167.785 44.8293L167.512 45.9236C167.443 46.1986 167.165 46.4209 166.891 46.4209Z" fill="#CAE5FF"/>
<path d="M166.092 49.6318H164.998C164.723 49.6318 164.556 49.409 164.624 49.1346L164.897 48.0402C164.966 47.7653 165.244 47.543 165.518 47.543H166.613C166.888 47.543 167.055 47.7658 166.986 48.0402L166.713 49.1346C166.645 49.409 166.367 49.6318 166.092 49.6318Z" fill="#CAE5FF"/>
<path d="M169.573 49.6318H168.479C168.204 49.6318 168.037 49.409 168.106 49.1346L168.379 48.0402C168.447 47.7653 168.725 47.543 169 47.543H170.094C170.369 47.543 170.536 47.7658 170.467 48.0402L170.195 49.1346C170.126 49.409 169.848 49.6318 169.573 49.6318Z" fill="#CAE5FF"/>
<path d="M173.055 49.6318H171.961C171.686 49.6318 171.519 49.409 171.588 49.1346L171.86 48.0402C171.929 47.7653 172.207 47.543 172.482 47.543H173.576C173.851 47.543 174.018 47.7658 173.949 48.0402L173.676 49.1346C173.608 49.409 173.33 49.6318 173.055 49.6318Z" fill="#CAE5FF"/>
<path d="M165.272 52.9209H164.177C163.902 52.9209 163.735 52.698 163.804 52.4236L164.077 51.3293C164.146 51.0543 164.424 50.832 164.698 50.832H165.793C166.068 50.832 166.235 51.0549 166.166 51.3293L165.893 52.4236C165.825 52.698 165.547 52.9209 165.272 52.9209Z" fill="#CAE5FF"/>
<path d="M164.397 56.4267H163.303C163.028 56.4267 162.861 56.2039 162.93 55.9295L163.202 54.8351C163.271 54.5602 163.549 54.3379 163.824 54.3379H164.918C165.193 54.3379 165.36 54.5607 165.291 54.8351L165.018 55.9295C164.95 56.2044 164.672 56.4267 164.397 56.4267Z" fill="#CAE5FF"/>
<path d="M168.754 52.9209H167.659C167.384 52.9209 167.217 52.698 167.286 52.4236L167.559 51.3293C167.628 51.0543 167.906 50.832 168.18 50.832H169.275C169.549 50.832 169.716 51.0549 169.648 51.3293L169.375 52.4236C169.307 52.698 169.028 52.9209 168.754 52.9209Z" fill="#CAE5FF"/>
<path d="M167.227 59.0361H166.133C165.858 59.0361 165.691 58.8133 165.76 58.5389L166.033 57.4445C166.101 57.1696 166.379 56.9473 166.654 56.9473H167.748C168.023 56.9473 168.19 57.1701 168.121 57.4445L167.849 58.5389C167.78 58.8138 167.502 59.0361 167.227 59.0361Z" fill="#CAE5FF"/>
<path opacity="0.9" d="M166.541 87.8853H130.564C130.186 87.8853 129.91 87.5283 130.005 87.162L133.363 74.2584C133.429 74.0039 133.66 73.8262 133.922 73.8262H169.899C170.277 73.8262 170.553 74.1833 170.458 74.5495L167.1 87.4531C167.034 87.7076 166.804 87.8853 166.541 87.8853Z" fill="#BFD9FF"/>
<path d="M135.498 76.5879H148.017" stroke="#A9C2FF" stroke-width="0.837815" stroke-miterlimit="10" stroke-linecap="round" stroke-linejoin="round"/>
<path d="M134.536 82.3691H147.054" stroke="#A9C2FF" stroke-width="0.837815" stroke-miterlimit="10" stroke-linecap="round" stroke-linejoin="round"/>
<path d="M139.799 80.1836H152.318" stroke="#A9C2FF" stroke-width="0.837815" stroke-miterlimit="10" stroke-linecap="round" stroke-linejoin="round"/>
<path d="M135.177 78.5156H138.933" stroke="#A9C2FF" stroke-width="0.837815" stroke-miterlimit="10" stroke-linecap="round" stroke-linejoin="round"/>
<path d="M134.664 80.1836H138.42" stroke="#A9C2FF" stroke-width="0.837815" stroke-miterlimit="10" stroke-linecap="round" stroke-linejoin="round"/>
<path d="M150.006 76.5879H154.468" stroke="#A9C2FF" stroke-width="0.837815" stroke-miterlimit="10" stroke-linecap="round" stroke-linejoin="round"/>
<path d="M152.193 85.0786H145.53C145.496 85.0786 145.472 85.0469 145.481 85.0141L145.779 83.8687C145.784 83.8462 145.805 83.8301 145.828 83.8301H152.491C152.525 83.8301 152.549 83.8618 152.541 83.8945L152.243 85.0404C152.237 85.063 152.216 85.0786 152.193 85.0786Z" stroke="#84AEE5" stroke-width="0.279298" stroke-miterlimit="10"/>
<path d="M143.912 85.0786H137.249C137.215 85.0786 137.191 85.0469 137.2 85.0141L137.498 83.8687C137.504 83.8462 137.524 83.8301 137.547 83.8301H144.21C144.244 83.8301 144.268 83.8618 144.259 83.8945L143.961 85.0404C143.955 85.063 143.935 85.0786 143.912 85.0786Z" stroke="#84AEE5" stroke-width="0.279298" stroke-miterlimit="10"/>
<path d="M163.903 83.4164C163.561 82.9616 162.176 82.6308 161.793 82.176C161.597 81.9435 161.597 81.5117 161.644 81.145C161.781 81.058 161.894 80.971 161.961 80.8899C162.076 80.7218 162.206 80.4872 162.336 80.2294C162.375 80.2681 162.428 80.2976 162.495 80.296C162.677 80.2906 163.369 79.3477 163.191 79.1297C163.089 79.0046 162.924 79.113 162.802 79.229C162.985 78.8091 163.114 78.4875 163.114 78.4875H163.107C163.124 78.4343 163.14 78.3811 163.154 78.3274C163.429 77.2256 162.758 76.332 161.656 76.332C160.554 76.332 159.438 77.2256 159.163 78.3274C159.15 78.3817 159.139 78.4348 159.131 78.4875H159.124C159.124 78.4875 159.092 78.8091 159.066 79.229C159.001 79.1136 158.891 79.0051 158.726 79.1297C158.439 79.3482 158.661 80.2906 158.841 80.296C158.907 80.2981 158.975 80.2681 159.033 80.2294C159.034 80.4872 159.047 80.7218 159.078 80.8899C159.111 80.9887 159.207 81.0972 159.333 81.203C159.196 81.5568 158.987 81.9558 158.692 82.176C158.082 82.6308 156.532 82.9616 155.963 83.4164C155.452 83.8256 154.996 85.0203 154.91 85.2566H164.04C164.07 85.0203 164.21 83.8256 163.903 83.4164Z" fill="#387AB6"/>
<path d="M117.759 83.2837H88.238C85.6465 83.2837 84.0694 81.1826 84.7154 78.5911C85.3614 75.9996 87.9861 73.8984 90.5781 73.8984H120.099C122.691 73.8984 124.268 75.9996 123.622 78.5911C122.976 81.1826 120.351 83.2837 117.759 83.2837Z" fill="white"/>
<path d="M91.3691 79.8156L90.1035 80.4042C89.9843 80.4595 89.8833 80.3703 89.9327 80.2527L90.4574 79.0064C90.4772 78.9597 90.4735 78.9124 90.4477 78.8791L89.7625 77.9963C89.6981 77.9131 89.7813 77.7687 89.9032 77.7515L91.2 77.5695C91.2483 77.5625 91.2961 77.5335 91.3278 77.4911L92.1698 76.3575C92.2492 76.2506 92.4012 76.2506 92.4275 76.3575L92.7046 77.4911C92.7148 77.5335 92.7481 77.563 92.7932 77.5695L93.9993 77.7515C94.1126 77.7687 94.1238 77.9131 94.0175 77.9963L92.892 78.8791C92.8501 78.9119 92.8227 78.9597 92.819 79.0064L92.7223 80.2527C92.7132 80.3698 92.5677 80.4595 92.4764 80.4042L91.5039 79.8156C91.4663 79.7936 91.4164 79.7936 91.3691 79.8156Z" fill="#FFA402"/>
<path d="M97.6025 79.8156L96.3369 80.4042C96.2177 80.4595 96.1167 80.3703 96.1661 80.2527L96.6907 79.0064C96.7106 78.9597 96.7069 78.9124 96.6811 78.8791L95.9959 77.9963C95.9315 77.9131 96.0147 77.7687 96.1366 77.7515L97.4334 77.5695C97.4817 77.5625 97.5295 77.5335 97.5612 77.4911L98.4032 76.3575C98.4826 76.2506 98.6346 76.2506 98.6609 76.3575L98.938 77.4911C98.9482 77.5335 98.9815 77.563 99.0266 77.5695L100.233 77.7515C100.346 77.7687 100.357 77.9131 100.251 77.9963L99.1259 78.8791C99.0841 78.9119 99.0567 78.9597 99.0529 79.0064L98.9557 80.2527C98.9466 80.3698 98.8011 80.4595 98.7098 80.4042L97.7373 79.8156C97.6997 79.7936 97.6498 79.7936 97.6025 79.8156Z" fill="#FFA402"/>
<path d="M103.834 79.8156L102.569 80.4042C102.45 80.4595 102.349 80.3703 102.398 80.2527L102.923 79.0064C102.942 78.9597 102.939 78.9124 102.913 78.8791L102.228 77.9963C102.163 77.9131 102.247 77.7687 102.369 77.7515L103.665 77.5695C103.714 77.5625 103.761 77.5335 103.793 77.4911L104.635 76.3575C104.715 76.2506 104.867 76.2506 104.892 76.3575L105.169 77.4911C105.18 77.5335 105.213 77.563 105.258 77.5695L106.464 77.7515C106.577 77.7687 106.589 77.9131 106.482 77.9963L105.357 78.8791C105.315 78.9119 105.288 78.9597 105.284 79.0064L105.187 80.2527C105.177 80.3698 105.032 80.4595 104.941 80.4042L103.968 79.8156C103.932 79.7936 103.882 79.7936 103.834 79.8156Z" fill="#FFA402"/>
<path d="M110.068 79.8156L108.802 80.4042C108.683 80.4595 108.582 80.3703 108.631 80.2527L109.156 79.0064C109.176 78.9597 109.172 78.9124 109.146 78.8791L108.461 77.9963C108.396 77.9131 108.48 77.7687 108.602 77.7515L109.898 77.5695C109.946 77.5625 109.994 77.5335 110.026 77.4911L110.868 76.3575C110.948 76.2506 111.1 76.2506 111.125 76.3575L111.402 77.4911C111.413 77.5335 111.446 77.563 111.491 77.5695L112.697 77.7515C112.81 77.7687 112.822 77.9131 112.716 77.9963L111.59 78.8791C111.548 78.9119 111.521 78.9597 111.517 79.0064L111.42 80.2527C111.411 80.3698 111.266 80.4595 111.174 80.4042L110.202 79.8156C110.165 79.7936 110.115 79.7936 110.068 79.8156Z" fill="#FFA402"/>
<path d="M116.3 79.8156L115.034 80.4042C114.915 80.4595 114.814 80.3703 114.864 80.2527L115.388 79.0064C115.408 78.9597 115.404 78.9124 115.379 78.8791L114.693 77.9963C114.629 77.9131 114.712 77.7687 114.834 77.7515L116.13 77.5695C116.179 77.5625 116.226 77.5335 116.258 77.4911L117.1 76.3575C117.18 76.2506 117.332 76.2506 117.358 76.3575L117.635 77.4911C117.645 77.5335 117.678 77.563 117.724 77.5695L118.93 77.7515C119.043 77.7687 119.054 77.9131 118.948 77.9963L117.822 78.8791C117.78 78.9119 117.753 78.9597 117.749 79.0064L117.652 80.2527C117.643 80.3698 117.498 80.4595 117.406 80.4042L116.434 79.8156C116.398 79.7936 116.348 79.7936 116.3 79.8156Z" fill="#C2D4D9"/>
<path d="M45.168 65.1805C46.5159 65.1805 47.6086 63.6575 47.6086 61.7787C47.6086 59.9 46.5159 58.377 45.168 58.377C43.8201 58.377 42.7274 59.9 42.7274 61.7787C42.7274 63.6575 43.8201 65.1805 45.168 65.1805Z" fill="#5161B3"/>
<path d="M45.5382 62.0742C45.5382 62.0742 52.3417 69.6172 52.3417 70.8007C52.3417 71.9836 50.1229 71.836 50.1229 71.836" stroke="#5161B3" stroke-width="0.857904" stroke-miterlimit="10"/>
<path d="M50.64 71.8329C50.64 72.3232 50.2426 72.7206 49.7524 72.7206C49.2621 72.7206 48.8647 72.3232 48.8647 71.8329C48.8647 71.3427 49.2621 70.9453 49.7524 70.9453C50.2426 70.9453 50.64 71.3427 50.64 71.8329Z" fill="#5161B3"/>
<path d="M33.4417 160.127C35.8581 164.296 43.4386 167.339 52.4217 167.339C61.4048 167.339 68.9853 164.296 71.4017 160.127H33.4417Z" fill="#4F57A0"/>
<path d="M84.6863 138.74L80.1311 159.745H77.3474L79.8782 139.247L84.6863 138.74Z" fill="#A9A7E7"/>
<path d="M93.0366 140.513H52.2595V135.451H88.9873C91.2238 135.451 93.0361 137.264 93.0361 139.5L93.0366 140.513Z" fill="#7A82CC"/>
<path d="M18.8877 157.471L9.01853 110.007C8.62654 108.121 10.0662 106.352 11.9918 106.352H44.6492C46.4481 106.352 47.9994 107.614 48.3656 109.375L58.3658 157.471" fill="#A9A7E7"/>
<path d="M85.9539 162.677H23.9372C21.8446 162.677 20.0028 161.296 19.4169 159.287L18.8875 157.471H85.9545V162.677H85.9539Z" fill="#A9A7E7"/>
<path d="M55.4575 165.061H50.5227V209.094H55.4575V165.061Z" fill="#E2E7FF"/>
<path d="M55.4575 173.222L50.5227 177.208V165.061H55.4575V173.222Z" fill="#4F57A0"/>
<path d="M55.3071 202.531H53.5023H53.0513H51.2465L32.7476 209.876H73.806L55.3071 202.531Z" fill="#E2E7FF"/>
<path d="M13.3702 109.598H42.7247" stroke="#4F57A0" stroke-width="0.778639" stroke-miterlimit="10"/>
<path d="M45.7677 112.996L50.7793 138.234" stroke="#4F57A0" stroke-width="0.778639" stroke-miterlimit="10"/>
<path d="M51.674 142.711L52.7479 150.049" stroke="#4F57A0" stroke-width="0.778639" stroke-miterlimit="10"/>
<path d="M188.52 67.1736H164.883C163.664 67.1736 162.733 66.0846 162.923 64.8801L163.102 63.7471C163.254 62.7827 164.085 62.0723 165.062 62.0723H188.699C189.918 62.0723 190.849 63.1618 190.659 64.3657L190.48 65.4987C190.328 66.4631 189.496 67.1736 188.52 67.1736Z" fill="#CAE5FF"/>
<path d="M165.873 64.666H186.278" stroke="white" stroke-width="1.55728" stroke-miterlimit="10"/>
<path d="M102.422 37.8203H95.9785C92.9139 37.8203 89.9015 40.3044 89.2501 43.3689C88.5988 46.4334 90.555 48.9175 93.6195 48.9175H95.0183C96.5815 52.6184 100.273 52.1394 100.273 52.1394C99.5751 50.7481 99.4264 49.6344 99.4312 48.9175H100.063C103.128 48.9175 106.14 46.4334 106.792 43.3689C107.443 40.3049 105.487 37.8203 102.422 37.8203Z" fill="#FF634D"/>
<path d="M93.2375 42.2949H99.3231" stroke="white" stroke-width="1.55728" stroke-miterlimit="10"/>
<path d="M92.7234 44.7109H102.612" stroke="white" stroke-width="1.55728" stroke-miterlimit="10"/>
</svg>
