<svg width="352" height="232" viewBox="0 0 352 232" fill="none" xmlns="http://www.w3.org/2000/svg">
<path d="M321.423 230.681C321.423 230.681 388.498 154.178 317.287 133.254C299.35 127.984 293.092 54.1981 213.418 91.0911C181.733 105.763 136.108 88.008 92.4166 97.7124C52.2909 106.625 51.3685 132.333 56.4419 141.588C61.9855 151.701 39.879 163.791 17.2387 172.095C-18.2748 185.121 7.83988 230.898 41.3899 231.117C74.9397 231.336 321.423 230.681 321.423 230.681Z" fill="#EBF3FA"/>
<path d="M35.4131 108.738H45.834C48.5755 108.738 50.8184 106.495 50.8184 103.754V95.17C50.8184 92.4285 48.5753 90.1855 45.834 90.1855H35.4131C32.6718 90.1855 30.4287 92.4285 30.4287 95.17V103.754C30.4286 106.495 32.6716 108.738 35.4131 108.738Z" fill="#A6D9F1"/>
<path d="M45.4989 94.4395H35.7488C34.2268 94.4395 32.9814 95.6847 32.9814 97.2068V99.5955C32.9814 101.03 34.091 102.204 35.4919 102.337L34.3122 105.766L40.4754 102.363H45.4989C47.0209 102.363 48.2663 101.118 48.2663 99.5955V97.2068C48.2663 95.6847 47.0209 94.4395 45.4989 94.4395Z" fill="#E69D43"/>
<path d="M45.8504 98.0297H35.1103C34.7934 98.0297 34.5342 97.7705 34.5342 97.4536V97.4257C34.5342 97.1088 34.7934 96.8496 35.1103 96.8496H45.8503C46.1671 96.8496 46.4264 97.1088 46.4264 97.4257V97.4536C46.4265 97.7705 46.1671 98.0297 45.8504 98.0297Z" fill="#CA5F00"/>
<path d="M45.8504 99.9399H35.1103C34.7934 99.9399 34.5342 99.6807 34.5342 99.3638V99.3359C34.5342 99.019 34.7934 98.7598 35.1103 98.7598H45.8503C46.1671 98.7598 46.4264 99.019 46.4264 99.3359V99.3638C46.4265 99.6807 46.1671 99.9399 45.8504 99.9399Z" fill="#CA5F00"/>
<path d="M291.748 64.0801H281.327C278.586 64.0801 276.343 66.323 276.343 69.0645V77.6484C276.343 80.3899 278.586 82.6329 281.327 82.6329H291.748C294.49 82.6329 296.732 80.3899 296.732 77.6484V69.0645C296.732 66.3232 294.489 64.0801 291.748 64.0801Z" fill="#A6D9F1"/>
<path d="M291.956 73.2059C291.39 74.6986 286.534 78.6185 286.534 78.6185C286.534 78.6185 284.952 77.3328 283.486 75.9481C282.389 74.9232 281.365 73.8441 281.122 73.2058C280.546 71.7223 281.158 69.6003 283.28 69.2407C285.393 68.8809 286.534 71.093 286.534 71.093C286.534 71.093 287.676 68.8809 289.798 69.2407C290.167 69.3037 290.49 69.4205 290.769 69.5826C292.091 70.3199 292.424 71.9833 291.956 73.2059Z" fill="#D6716B"/>
<path d="M291.957 73.2073C291.39 74.7 286.535 78.6199 286.535 78.6199C286.535 78.6199 284.953 77.3342 283.487 75.9495C289.269 74.3311 290.509 70.9864 290.77 69.584C292.092 70.3213 292.424 71.9847 291.957 73.2073Z" fill="#AA443E"/>
<path d="M30.4287 66.1092C30.4287 66.1092 41.9012 64.6798 48.9115 71.1382C55.922 77.5964 68.9817 71.7104 74.2399 71.1382C83.3824 70.1431 90.5496 73.1343 92.6753 76.4222V86.2857H30.4287V66.1092Z" fill="#EE9849"/>
<path d="M39.8014 50.2363H39.3208V65.6385H39.8014V50.2363Z" fill="#A6C7F9"/>
<path d="M58.6682 56.8457H58.1875V72.2479H58.6682V56.8457Z" fill="#A6C7F9"/>
<path d="M78.1354 53.3613H77.6548V68.7635H78.1354V53.3613Z" fill="#A6C7F9"/>
<path d="M45.1693 52.5959H41.4842C41.2638 52.5959 41.0835 52.4157 41.0835 52.1954C41.0835 51.9751 41.2637 51.7949 41.4842 51.7949H45.1693C45.3894 51.7949 45.5698 51.9751 45.5698 52.1954C45.5696 52.4157 45.3894 52.5959 45.1693 52.5959Z" fill="#A6C7F9"/>
<path d="M45.1693 54.0413H41.4842C41.2638 54.0413 41.0835 53.8611 41.0835 53.6408C41.0835 53.4204 41.2637 53.2402 41.4842 53.2402H45.1693C45.3894 53.2402 45.5698 53.4204 45.5698 53.6408C45.5696 53.8611 45.3894 54.0413 45.1693 54.0413Z" fill="#A6C7F9"/>
<path d="M63.7551 60.4514H60.0699C59.8498 60.4514 59.6694 60.2712 59.6694 60.0509C59.6694 59.8306 59.8498 59.6504 60.0699 59.6504H63.7551C63.9752 59.6504 64.1556 59.8306 64.1556 60.0509C64.1556 60.2712 63.9752 60.4514 63.7551 60.4514Z" fill="#A6C7F9"/>
<path d="M63.7551 61.8655H60.0699C59.8498 61.8655 59.6694 61.6853 59.6694 61.465C59.6694 61.2447 59.8498 61.0645 60.0699 61.0645H63.7551C63.9752 61.0645 64.1556 61.2447 64.1556 61.465C64.1556 61.6853 63.9752 61.8655 63.7551 61.8655Z" fill="#A6C7F9"/>
<path d="M83.5427 54.643H79.8575C79.6374 54.643 79.457 54.4626 79.457 54.2423C79.457 54.022 79.6372 53.8418 79.8575 53.8418H83.5427C83.763 53.8418 83.9432 54.0221 83.9432 54.2423C83.9432 54.4626 83.763 54.643 83.5427 54.643Z" fill="#A6C7F9"/>
<path d="M83.5427 56.053H79.8575C79.6374 56.053 79.457 55.8728 79.457 55.6525C79.457 55.4322 79.6372 55.252 79.8575 55.252H83.5427C83.763 55.252 83.9432 55.4322 83.9432 55.6525C83.9432 55.8728 83.763 56.053 83.5427 56.053Z" fill="#A6C7F9"/>
<path d="M317.887 174.334H261.561V141.053H262.261V173.634H317.887V174.334Z" fill="#A6C7F9"/>
<path d="M279.167 162.3C272.272 156.811 264.939 162.3 264.939 162.3V171.683H316.488V147.428C302.479 147.782 286.062 167.788 279.167 162.3Z" fill="#A6C7F9"/>
<path d="M265.53 143.588H289.549C289.874 143.588 290.139 143.323 290.139 142.998C290.139 142.674 289.874 142.408 289.549 142.408H265.53C265.205 142.408 264.939 142.674 264.939 142.998C264.939 143.323 265.205 143.588 265.53 143.588Z" fill="#A6C7F9"/>
<path d="M265.53 146.475H289.549C289.874 146.475 290.139 146.21 290.139 145.885C290.139 145.56 289.874 145.295 289.549 145.295H265.53C265.205 145.295 264.939 145.56 264.939 145.885C264.939 146.21 265.205 146.475 265.53 146.475Z" fill="#A6C7F9"/>
<path d="M265.422 149.194H281.327C281.592 149.194 281.81 148.977 281.81 148.711V148.497C281.81 148.231 281.592 148.014 281.327 148.014H265.422C265.157 148.014 264.939 148.231 264.939 148.497V148.711C264.939 148.977 265.157 149.194 265.422 149.194Z" fill="#A6C7F9"/>
<path d="M234.273 2.02148H225.255V58.1961H234.273V2.02148Z" fill="#A6C7F9"/>
<path d="M249.047 -13.6348H240.029V58.198H249.047V-13.6348Z" fill="#A6C7F9"/>
<path d="M265.166 15.6074H256.148V58.1973H265.166V15.6074Z" fill="#A6C7F9"/>
<path d="M280.852 -4.04102H271.834V58.2016H280.852V-4.04102Z" fill="#A6C7F9"/>
<path d="M296.62 23.9434H287.603V58.1972H296.62V23.9434Z" fill="#A6C7F9"/>
<path d="M264.477 7.22461H256.84C256.405 7.22461 256.05 7.58011 256.05 8.01464C256.05 8.44917 256.405 8.80467 256.84 8.80467H264.477C264.911 8.80467 265.267 8.44917 265.267 8.01464C265.267 7.58011 264.911 7.22461 264.477 7.22461Z" fill="#A6C7F9"/>
<path d="M258.579 10.1035H256.84C256.405 10.1035 256.05 10.459 256.05 10.8935C256.05 11.3281 256.405 11.6836 256.84 11.6836H258.579C259.014 11.6836 259.369 11.3281 259.369 10.8935C259.369 10.459 259.014 10.1035 258.579 10.1035Z" fill="#A6C7F9"/>
<path d="M295.93 15.6113H288.293C287.859 15.6113 287.503 15.9668 287.503 16.4014C287.503 16.8359 287.859 17.1914 288.293 17.1914H295.93C296.364 17.1914 296.72 16.8359 296.72 16.4014C296.72 15.9668 296.364 15.6113 295.93 15.6113Z" fill="#A6C7F9"/>
<path d="M290.032 18.4824H288.293C287.859 18.4824 287.503 18.8379 287.503 19.2725C287.503 19.707 287.859 20.0625 288.293 20.0625H290.032C290.467 20.0625 290.822 19.707 290.822 19.2725C290.822 18.8379 290.467 18.4824 290.032 18.4824Z" fill="#A6C7F9"/>
<path d="M220.575 46.4941H114.434V206.567H220.575V46.4941Z" fill="#D2E4FF"/>
<path d="M210.145 55.4473H124.689V150.698H210.145V55.4473Z" fill="#F3F9FF"/>
<path d="M156.081 187.011C159.329 179.169 155.605 170.179 147.763 166.93C139.921 163.682 130.931 167.406 127.683 175.248C124.434 183.09 128.158 192.081 136 195.329C143.842 198.577 152.833 194.853 156.081 187.011Z" fill="#F3F9FF"/>
<path d="M154.865 181.127C154.865 173.952 149.049 168.135 141.875 168.135C134.699 168.135 128.883 173.952 128.883 181.127C128.883 188.301 134.699 194.118 141.875 194.118C144.839 194.118 147.569 193.127 149.754 191.456L141.875 181.127L154.015 185.76C154.564 184.321 154.865 182.759 154.865 181.127Z" fill="#A8D29F"/>
<path d="M209.195 184.683C211.145 176.422 206.03 168.144 197.769 166.194C189.509 164.243 181.231 169.359 179.281 177.619C177.33 185.88 182.445 194.157 190.706 196.108C198.966 198.058 207.244 192.943 209.195 184.683Z" fill="#F3F9FF"/>
<path d="M194.239 168.135C187.063 168.135 181.247 173.952 181.247 181.127C181.247 184.678 182.67 187.894 184.98 190.239L194.239 181.127L206.379 185.76C206.928 184.321 207.229 182.759 207.229 181.127C207.229 173.952 201.413 168.135 194.239 168.135Z" fill="#A8D29F"/>
<path d="M192.34 174.537H186.81C186.593 174.537 186.415 174.715 186.415 174.932C186.415 175.149 186.593 175.327 186.81 175.327H192.34C192.557 175.327 192.735 175.149 192.735 174.932C192.735 174.715 192.557 174.537 192.34 174.537Z" fill="#82B378"/>
<path d="M192.34 175.787H186.81C186.593 175.787 186.415 175.965 186.415 176.182C186.415 176.399 186.593 176.577 186.81 176.577H192.34C192.557 176.577 192.735 176.399 192.735 176.182C192.735 175.965 192.557 175.787 192.34 175.787Z" fill="#82B378"/>
<path d="M189.094 177.037H186.81C186.593 177.037 186.415 177.215 186.415 177.432C186.415 177.649 186.593 177.827 186.81 177.827H189.094C189.311 177.827 189.489 177.649 189.489 177.432C189.489 177.215 189.311 177.037 189.094 177.037Z" fill="#82B378"/>
<path d="M139.869 174.537H134.339C134.122 174.537 133.944 174.715 133.944 174.932C133.944 175.149 134.122 175.327 134.339 175.327H139.869C140.087 175.327 140.264 175.149 140.264 174.932C140.264 174.715 140.087 174.537 139.869 174.537Z" fill="#82B378"/>
<path d="M139.869 175.787H134.339C134.122 175.787 133.944 175.965 133.944 176.182C133.944 176.399 134.122 176.577 134.339 176.577H139.869C140.087 176.577 140.264 176.399 140.264 176.182C140.264 175.965 140.087 175.787 139.869 175.787Z" fill="#82B378"/>
<path d="M136.623 177.037H134.339C134.122 177.037 133.944 177.215 133.944 177.432C133.944 177.649 134.122 177.827 134.339 177.827H136.623C136.84 177.827 137.018 177.649 137.018 177.432C137.018 177.215 136.84 177.037 136.623 177.037Z" fill="#82B378"/>
<path d="M90.5015 217.787L92.3168 225.433L95.0362 225.418L95.1359 217.787H90.5015Z" fill="#FFB27D"/>
<path d="M113.375 218.11L118.54 225.43L120.554 222.845L117.445 217.104L113.375 218.11Z" fill="#FFB27D"/>
<path d="M99.9456 117.311C99.0069 116.777 97.8818 116.719 97.0951 116.766C97.2977 116.557 97.6963 116.48 97.6963 116.48C97.2083 116.408 96.1192 116.892 96.1192 116.892C89.3319 114.277 88.2651 124.27 88.4079 126.592C88.5494 128.914 86.1271 129.672 82.5958 131.501C75.8583 134.992 75.2666 139.665 75.2666 139.665C75.319 139.696 75.3739 139.732 75.4322 139.772C75.7665 139.205 76.4546 138.142 77.0349 137.981C77.0129 138.033 76.3491 139.445 76.1015 140.255C78.0892 141.767 81.8075 145.117 84.399 147.493C84.3875 147.028 84.4059 146.369 84.5755 146.021L84.8957 147.949C86.2823 149.224 87.2387 150.121 87.2387 150.121C87.0674 148.244 95.7243 138.343 100.241 135.378C101.34 133.759 101.731 130.9 101.76 130.675C101.571 132.942 101.183 134.214 100.836 134.93C104.66 131.41 102.434 118.725 99.9456 117.311Z" fill="#163560"/>
<path d="M99.973 135.525C99.9956 135.535 97.7923 136.679 96.135 136.226C94.5761 135.801 93.5576 133.779 93.5789 133.775C94.2391 133.644 94.4294 132.736 94.4155 128.838L94.7139 128.897L99.7322 129.89C99.7322 129.89 99.6181 131.47 99.6147 132.957C99.6113 134.207 99.687 135.391 99.973 135.525Z" fill="#FFB27D"/>
<path d="M94.2983 118.945C94.2983 118.945 96.7739 116.309 99.8819 118.81C99.8819 118.81 98.073 118.497 94.2983 118.945Z" fill="#E37970"/>
<path d="M99.7321 129.89C99.7321 129.89 99.6181 131.47 99.6146 132.957C96.8065 132.878 95.3222 130.316 94.7139 128.896L99.7321 129.89Z" fill="#D68D5D"/>
<path d="M94.1956 128.348C94.1956 128.348 92.724 126.023 92.3707 124.035C92.1185 122.615 92.8415 117.354 98.129 118.111C98.129 118.111 99.6646 118.263 101.108 119.238C102.256 120.013 103.913 121.687 102.061 126.278L101.579 127.829L94.1956 128.348Z" fill="#163560"/>
<path d="M119.734 220.841L117.074 220.923L114.194 221.011C114.194 221.011 107.544 213.606 103.813 201.736C103.726 201.46 103.634 201.181 103.537 200.898C101.495 194.945 97.2628 187.473 95.0322 180.709C94.6773 179.631 94.3584 178.617 94.0724 177.658C93.9809 177.35 93.8915 177.048 93.8068 176.751C92.163 171.04 91.6872 167.29 91.2485 163.283L107.355 163.412C107.355 163.412 109.955 190.77 119.734 220.841Z" fill="#80BDCC"/>
<path d="M105.1 154.158C105.059 161.823 106.224 165.111 106.224 165.111C106.224 165.111 99.3282 168.615 91.1321 166.036C91.0356 166.005 84.3457 164.478 84.3457 164.478C84.483 164.168 85.7026 159.003 85.8363 158.718C87.5667 155.002 88.8807 153.373 89.086 152.231C89.4668 150.098 89.4751 147.891 89.2852 145.809C88.7852 140.299 87.2978 135.725 87.2978 135.725C89.5311 135.217 91.6803 134.348 94.0046 133.477C94.5393 134.142 96.1158 134.815 97.5336 134.783C99.1663 134.747 99.6761 134.057 99.6161 133.279C101.356 134.247 102.739 135.168 102.739 135.168C104.218 137.736 107.216 140.231 107.434 144.171C107.487 145.14 105.101 153.944 105.1 154.158Z" fill="#E7F1FD"/>
<path d="M91.2485 155.009C90.5445 156.005 89.1947 162.062 85.8364 162.823C87.5668 158.507 88.8808 156.614 89.0861 155.287C89.4669 152.809 89.4752 150.246 89.2853 147.828C90.4095 145.858 91.2485 144.507 91.2485 144.507C91.3368 144.188 93.0351 138.937 93.5793 143.631C94.1222 148.326 92.035 153.894 91.2485 155.009Z" fill="#5F9AA8"/>
<path d="M100.67 131.303C100.67 131.303 94.026 131.413 94.0214 127.274C94.0168 123.135 93.1562 120.362 97.3981 120.117C101.64 119.872 102.466 121.45 102.803 122.832C103.141 124.213 102.398 131.168 100.67 131.303Z" fill="#FFB27D"/>
<path d="M102.606 120.525C101.581 119.282 100.805 119.553 100.37 119.926C98.9342 117.78 94.3963 120.883 94.3963 120.883C93.952 123.853 91.8105 125.554 91.8105 125.554C91.8105 125.554 93.0216 126.302 95.8133 125.584C98.0105 125.019 99.6048 121.892 100.184 120.585C100.579 120.936 101.413 121.748 101.663 122.543C101.994 123.597 102.143 125.766 102.776 125.692C102.776 125.692 104.146 122.392 102.606 120.525Z" fill="#163560"/>
<path d="M92.2255 225.002C92.2255 225.002 92.4445 226.516 91.8792 228.137C91.8792 228.137 91.4341 230.165 93.4313 230.202C95.4286 230.24 95.9185 230.052 95.6922 228.808C95.4661 227.565 95.0361 225.414 95.0361 225.414L92.2255 225.002Z" fill="#FFB27D"/>
<path d="M95.8811 231.201C95.8811 231.201 95.8789 231.202 95.8746 231.205H91.7423C91.738 231.202 91.7358 231.201 91.7358 231.201C91.5098 230.14 91.8791 228.142 91.8791 228.142C94.1408 230.305 95.5563 228.088 95.5563 228.088C95.9235 229.013 95.8811 231.201 95.8811 231.201Z" fill="#C45446"/>
<path d="M125.367 229.107C125.367 229.107 121.684 224.925 120.554 222.846L117.816 224.248L123.936 229.996L125.368 229.808L125.367 229.107Z" fill="#FFB27D"/>
<path d="M127.625 231.193H122.516C122.067 230.788 121.637 229.971 121.112 228.9C120.811 228.286 120.136 227.948 119.444 227.762V231.193H118.387L117.408 227.545C116.757 226.323 117.246 225.202 117.705 224.236C118.238 224.235 119.785 224.621 122.505 227.746C123.399 228.772 124.386 229.139 125.367 229.108C125.38 229.117 125.394 229.124 125.407 229.13C126.956 229.84 127.461 230.714 127.625 231.193Z" fill="#C45446"/>
<path d="M127.377 138.17C127.377 138.17 123.016 140.609 121.458 141.312C120.904 141.562 119.9 142.029 118.875 142.508C118.256 142.797 117.629 143.091 117.087 143.347C116.171 143.777 115.081 143.541 114.423 142.772C112.062 140.015 105.95 134.038 99.6384 133.289L99.6165 133.279C99.6165 133.279 99.6176 133.282 99.6194 133.286C99.6167 133.286 99.614 133.286 99.6113 133.285L99.6462 133.353C100.001 134.235 103.461 142.88 103.568 144.704C103.681 146.626 104.021 176.132 104.021 176.132C104.021 176.132 103.794 177.488 106.395 176.923C108.995 176.357 109.673 175.792 109.673 175.792C109.673 175.792 107.186 157.591 107.864 151.261C107.997 150.018 107.877 148.622 107.599 147.181C111.443 149.509 115.975 150.545 115.975 150.545C115.975 150.545 117.666 149.807 120.292 148.18C121.395 147.495 122.674 146.404 123.933 145.251C125.453 143.856 128.07 140.489 128.07 140.489L127.377 138.17Z" fill="#739AF0"/>
<path d="M117.074 220.919L114.195 221.007C114.195 221.007 107.544 213.602 103.813 201.732C103.726 201.456 103.635 201.177 103.537 200.895C101.496 194.941 97.2632 187.469 95.0326 180.705C94.6777 179.628 94.3587 178.614 94.0727 177.654C93.9812 177.346 93.8918 177.044 93.8071 176.747L96.1788 174.947C96.1788 174.947 103.3 186.478 105.504 197.33C107.419 206.756 115.089 218.099 117.074 220.919Z" fill="#5F9AA8"/>
<path d="M96.4266 198.342C96.4673 203.62 96.2005 215.752 95.5131 220.775H92.9627C91.553 220.775 90.8498 220.755 90.8498 220.755C89.1258 212.021 87.8991 204.795 87.0061 198.568C86.2736 193.459 85.6225 189.078 85.1215 185.307C84.6173 181.512 84.2669 178.334 84.1415 175.649C84.1222 175.226 84.1076 174.815 84.0996 174.415C84.0917 174.014 84.0895 173.624 84.0928 173.245L98.0092 171.889C97.8341 181.135 96.404 195.275 96.4266 198.342Z" fill="#80BDCC"/>
<path d="M92.9628 220.773C91.5532 220.773 90.8499 220.752 90.8499 220.752C89.1259 212.019 87.8992 204.793 87.0062 198.566C86.2737 193.456 85.6226 189.076 85.1216 185.304C84.6174 181.509 84.267 178.331 84.1416 175.646L89.248 178.65C89.248 178.65 85.9888 179.8 87.2323 188.505C88.4759 197.209 91.232 219.54 92.9628 220.773Z" fill="#5F9AA8"/>
<path d="M93.62 175.564C93.62 175.564 92.6398 179.106 89.2484 178.654C85.8568 178.202 81.0342 176.167 81.0342 176.167C81.0342 176.167 82.4835 171.587 84.2855 165.571C86.4674 158.287 89.1682 148.897 90.441 142.974C90.7983 141.315 91.0425 139.929 91.1328 138.936L94.0049 133.475C94.0049 133.475 98.1419 142.893 98.3679 145.267C98.5942 147.641 93.62 175.564 93.62 175.564Z" fill="#739AF0"/>
<path d="M105.732 147.919C104.1 148.133 103.474 149.001 103.272 150.171C103.164 150.803 102.838 151.426 102.562 151.868C100.936 151.955 97.0635 152.166 93.8103 152.372L93.542 156.639C96.2144 156.306 99.4986 155.628 103.278 154.334C103.569 154.284 103.932 154.104 104.386 153.732C106.728 151.814 108.058 148.601 108.062 148.141C108.066 147.681 107.364 147.704 105.732 147.919Z" fill="#FFB27D"/>
<path d="M93.4693 150.241C93.3178 154.085 92.4135 161.546 84.3496 165.54C84.3281 165.55 84.3067 165.562 84.2852 165.571C86.467 158.287 89.1678 148.897 90.4406 142.975C91.9216 145.188 93.5517 148.125 93.4693 150.241Z" fill="#4A75CB"/>
<path d="M94.0051 133.475C94.0051 133.475 87.5467 134.194 85.4492 137.657C81.2544 144.581 82.7493 154.289 85.3737 157.252C85.3737 157.252 88.2791 158.079 93.4177 157.118C93.4807 157.107 93.544 157.095 93.6075 157.082C93.6075 157.082 95.2467 153.069 93.777 152.278C93.777 152.278 89.4435 152.504 89.8957 151.072C90.348 149.64 94.0051 133.475 94.0051 133.475Z" fill="#739AF0"/>
<path d="M132.052 135.267C128.341 134.79 127.404 138.166 127.404 138.166L128.097 140.484C129.241 140.642 130.242 140.344 131.164 139.024C132.087 137.704 132.341 138.211 132.927 137.229C133.722 135.897 132.478 135.4 132.052 135.267Z" fill="#FFB27D"/>
<path d="M121.457 141.311C120.903 141.561 119.9 142.028 118.874 142.507C119.423 143.482 120.109 145.252 120.292 148.179C121.394 147.495 122.822 146.356 124.041 145.159C125.996 143.24 128.07 140.488 128.07 140.488L127.377 138.17C127.377 138.17 123.015 140.608 121.457 141.311Z" fill="#FFB27D"/>
<path d="M227.23 168.369C227.23 168.369 224.591 169.047 222.914 168.541C221.236 168.036 218.349 168.866 217.884 169.478C217.419 170.09 217.59 170.332 218.419 170.544C219.249 170.755 222.188 172.009 224.12 171.283C226.052 170.557 228.572 170.531 228.572 170.531L227.23 168.369Z" fill="#E49963"/>
<path d="M250.037 145.443C250.037 145.443 247.073 166.513 242.164 168.4C239.742 169.331 229.038 171.442 225.871 171.654C225.871 171.654 225.096 171.024 225.285 168.463C225.285 168.463 236.5 164.346 238.093 162.107C240.464 158.774 236.621 148.493 239.596 145.363C242.572 142.233 247.583 140.888 250.037 145.443Z" fill="#C45446"/>
<path d="M249.659 226.627V222.033H256.891C257.086 222.033 257.246 221.874 257.246 221.678V220.942C257.246 220.747 257.086 220.588 256.891 220.588H249.659V194.438C249.659 193.704 249.058 193.104 248.325 193.104H246.893C246.16 193.104 245.559 193.704 245.559 194.438V220.588H238.327C238.132 220.588 237.972 220.747 237.972 220.942V221.678C237.972 221.874 238.132 222.033 238.327 222.033H245.559V226.627C240.327 227.023 236.134 228.907 234.958 231.341H260.26C259.084 228.907 254.891 227.023 249.659 226.627Z" fill="#2B478B"/>
<path d="M249.039 189.834C248.174 191.301 247.174 192.676 246.143 193.977C242.957 198 239.488 201.316 238.884 204.451C238.764 205.076 238.573 205.749 238.324 206.457C238.072 207.175 237.76 207.93 237.4 208.711C236.048 211.648 234.026 214.939 232.007 217.93C228.517 223.101 225.236 227.416 225.236 227.416L219.218 227.159C219.459 226.556 222.084 219.416 225.595 210.691C227.021 207.149 228.537 203.381 230 199.748C230.195 199.262 230.389 198.779 230.582 198.3C231.03 197.188 231.47 196.094 231.899 195.028C235.196 186.835 237.822 180.311 237.822 180.311C237.822 180.311 251 175.319 252.368 178.553C253.497 181.221 252.578 183.833 249.039 189.834Z" fill="#163560"/>
<path d="M225.048 226.318C225.048 226.318 224.74 231.284 223.779 231.356C223.651 231.365 218.906 231.365 218.906 231.365L212.849 231.33C212.849 231.33 212.888 229.87 214.659 229.562C216.429 229.253 219.393 228.009 220.466 225.669C221.594 223.207 225.048 226.318 225.048 226.318Z" fill="#163560"/>
<path d="M238.983 212.135C238.983 212.135 243.169 214.825 242.763 215.698C242.709 215.814 240.396 219.958 240.396 219.958L237.412 225.229C237.412 225.229 236.157 224.483 236.751 222.787C237.344 221.09 237.703 217.896 236.182 215.819C234.583 213.633 238.983 212.135 238.983 212.135Z" fill="#163560"/>
<path d="M233.32 177.939C233.32 177.939 216.779 188.242 214.933 195.166C213.087 202.09 236.935 216.861 236.935 216.861C236.935 216.861 239.551 214.553 240.013 212.86C240.013 212.86 229.233 199.945 226.894 197.05C225.458 195.272 248.129 190.895 250.898 186.587C253.668 182.279 252.676 178.654 252.676 178.654L233.32 177.939Z" fill="#1C468A"/>
<path d="M264.535 191.174H230.683C230.006 191.174 229.452 191.728 229.452 192.405V199.175C229.452 199.852 230.006 200.406 230.683 200.406H264.535C265.212 200.406 265.766 199.852 265.766 199.175V192.405C265.766 191.728 265.212 191.174 264.535 191.174Z" fill="#EE9849"/>
<path d="M240.968 141.835C239.343 142.841 238.448 144.118 238.448 144.118C242.411 145.143 248.98 141.471 248.98 141.471C248.98 141.471 246.429 139.757 245.484 135.992C245.436 135.802 245.393 135.607 245.354 135.408C245.231 134.773 245.154 134.087 245.14 133.346L243.32 134.976L240.293 137.688C240.293 137.688 240.361 138.813 240.74 140.748C240.806 141.086 240.881 141.449 240.968 141.835Z" fill="#E49963"/>
<path d="M253.156 160.526C252.588 168.16 253.543 179.765 252.899 181.776C252.343 183.511 245.804 182.484 243.276 181.905C242.341 181.69 241.208 181.384 240.038 181.022C236.774 180.011 233.217 178.568 232.835 177.497C232.821 177.455 232.808 177.414 232.8 177.374C232.765 177.218 232.773 177.072 232.807 176.924C232.934 176.378 233.424 175.787 233.482 174.435C233.547 172.925 233.537 171.148 233.594 169.236C233.597 169.02 233.6 168.786 233.623 168.571L233.624 168.493C233.625 168.452 233.626 168.412 233.627 168.371C233.682 166.239 233.793 163.997 233.923 161.774C234.005 160.378 234.1 158.995 234.209 157.67C234.494 154.251 234.878 151.21 235.385 149.287C236.215 146.153 238.045 144.109 239.71 142.611L240.915 141.578C242.259 141.871 243.848 141.677 245.285 140.996C246.841 140.257 247.378 139.728 247.649 139.927C251.242 142.699 253.826 151.193 253.156 160.526Z" fill="#E37970"/>
<path d="M240.057 181.038C236.793 180.027 233.236 178.584 232.855 177.513C232.84 177.471 232.827 177.43 232.819 177.39C232.821 177.24 232.823 177.09 232.826 176.94C232.953 176.394 233.444 175.803 233.501 174.451C233.566 172.941 233.556 171.164 233.613 169.252C233.616 169.036 233.619 168.802 233.642 168.587L233.643 168.509C233.644 168.468 233.645 168.428 233.646 168.387L245.975 162.795C245.975 162.795 246.686 172.732 240.057 181.038Z" fill="#C45446"/>
<path d="M240.292 137.682C240.292 137.682 240.361 138.808 240.739 140.743C243.695 139.788 245.036 137.119 245.483 135.986C245.611 135.666 245.666 135.469 245.666 135.469C245.666 135.469 245.551 135.444 245.354 135.402C244.938 135.314 244.156 135.148 243.319 134.971L240.292 137.682Z" fill="#D68D5D"/>
<path d="M239.096 137.654C239.096 137.654 245.589 138.386 245.983 134.335C246.377 130.284 247.48 127.651 243.351 127.012C239.222 126.373 238.265 127.84 237.805 129.16C237.344 130.48 237.417 137.359 239.096 137.654Z" fill="#E49963"/>
<path d="M245.955 134.616C245.955 134.616 245.544 129.239 239.633 128.682C235.584 128.3 237.841 124.816 238.273 124.26C238.273 124.26 241.375 124.685 244.554 125.21C251.228 126.313 246.611 133.778 245.955 134.616Z" fill="#2B478B"/>
<path d="M209.667 158.767L209.099 158.951L213.934 173.834L214.503 173.649L209.667 158.767Z" fill="#4A75CB"/>
<path d="M230.369 172.498L213.95 172.85L213.971 173.832L230.39 173.48L230.369 172.498Z" fill="#4A75CB"/>
<path d="M228.588 171.607C228.588 171.607 226.04 172.572 224.317 172.255C222.594 171.937 219.816 173.081 219.421 173.74C219.026 174.399 219.223 174.622 220.071 174.74C220.919 174.858 223.978 175.781 225.818 174.846C227.659 173.912 230.16 173.608 230.16 173.608L228.588 171.607Z" fill="#E49963"/>
<path d="M248.729 146.311C248.729 146.311 248.105 167.578 243.435 169.995C241.13 171.188 230.723 174.466 227.6 175.026C227.6 175.026 226.76 174.486 226.665 171.919C226.665 171.919 237.358 166.591 238.694 164.189C240.684 160.616 235.73 150.821 238.343 147.382C240.955 143.943 245.787 142.054 248.729 146.311Z" fill="#E37970"/>
<mask id="mask0_13240_193458" style="mask-type:luminance" maskUnits="userSpaceOnUse" x="114" y="29" width="107" height="122">
<path d="M220.575 29.1309H114.434V150.289H220.575V29.1309Z" fill="white"/>
</mask>
<g mask="url(#mask0_13240_193458)">
<path d="M137.946 116.631L136.867 118.378C136.307 119.021 136.158 119.381 135.714 119.599C134.643 120.126 132.665 121.479 132.516 124.32C132.516 124.32 132.549 125.928 133.627 125.407C134.706 124.886 134.235 124.934 135.767 124.232C137.299 123.53 137.867 121.297 138.001 120.536L139.252 118.894L137.946 116.631Z" fill="#D9935C"/>
<path d="M206.228 91.0371C206.228 91.0371 207.371 88.2356 208.629 88.1212C209.887 88.0068 213.889 87.3778 214.175 87.9496C214.461 88.5214 214.175 90.5796 213.317 91.323C212.46 92.0662 207.142 93.2668 207.142 93.2668L206.228 91.0371Z" fill="#D9935C"/>
<path d="M161.348 133.036C161.95 136.413 162.808 139.903 163.553 143.533C164.751 149.369 165.655 155.569 164.73 162.244C164.611 163.104 164.547 164.052 164.533 165.071C164.353 176.871 169.625 198.254 169.625 198.254C169.625 198.254 171.057 198.871 173.457 198.753C174.693 198.691 176.589 197.895 176.589 197.895C176.589 197.895 177.088 184.637 177.118 166.808C177.139 153.884 179.677 136.867 180.189 126.868C180.5 120.817 179.826 112.755 179.826 112.755C179.826 112.755 169.317 104.304 165.542 108.628C161.813 112.9 159.097 120.403 161.348 133.036Z" fill="#80BDCC"/>
<path d="M164.73 162.245C164.611 163.104 164.547 164.052 164.533 165.072C172.404 153.669 174.144 128.803 174.144 128.803L165.5 132.998C165.5 132.998 164.552 137.661 163.554 143.533C164.751 149.369 165.655 155.569 164.73 162.245Z" fill="#5F9AA8"/>
<path d="M147.835 198.856C147.835 198.856 149.532 199.659 150.754 199.904C151.976 200.148 154.516 199.671 154.516 199.671C154.973 194.537 156.037 186.508 158.105 177.448C160.46 167.134 163.963 154.945 168.848 143.403C169.891 140.938 174.193 129.27 174.923 126.326C177.131 117.429 174.914 118.388 174.914 118.388L155.618 116.123C155.618 116.123 153.241 117.345 152.146 129.908C151.818 133.671 151.778 149.916 151.284 152.995C150.817 155.912 150.269 158.337 149.627 159.912C146.042 168.711 147.835 198.856 147.835 198.856Z" fill="#80BDCC"/>
<path d="M177.362 58.3454C178.014 53.0224 176.351 44.5049 165.727 45.8659C155.103 47.227 151.755 57.668 153.898 62.3104C156.04 66.9528 150.813 68.0724 149.172 73.0648C147.763 77.3535 147.271 82.6786 144.99 85.0684C137.635 92.7734 152.051 104.622 160.741 102.123C176.571 97.5725 178.609 96.8933 178.048 84.4559C177.76 78.0835 172.802 75.6145 175.95 73.7709C183.554 69.317 175.887 70.3902 177.362 58.3454Z" fill="#B74B42"/>
<path d="M161.746 72.2757L164.673 79.8389L170.99 80.147L174.141 75.4408C172.152 73.9281 171.312 71.6594 171.004 69.6286C170.752 68.0037 170.822 66.5335 170.892 65.735C170.934 65.3288 170.976 65.0907 170.976 65.0907L163.105 62.6958L163.077 62.6816C162.979 64.7684 162.867 66.407 162.741 67.6815C162.292 72.1775 161.746 72.2757 161.746 72.2757Z" fill="#D9935C"/>
<path d="M174.168 72.012C173.761 72.012 166.862 70.608 155.211 73.5887C155.211 73.5887 161.592 102.824 159.424 108.334C157.257 113.845 156.433 118.735 156.433 118.735L179.949 119.027C179.949 119.027 179.62 100.113 180.704 93.4195C181.788 86.7256 174.168 72.012 174.168 72.012Z" fill="#D9935C"/>
<path d="M155.695 95.3647C155.354 94.2909 154.963 93.222 154.549 92.127C154.07 90.8512 151.915 77.5468 153.49 75.751C155.154 73.8544 160.823 72.4236 160.823 72.4236C161.985 74.2438 165.962 78.7654 170.898 77.9507C173.56 77.5116 174.101 72.7263 174.162 72.0821L174.144 72.0099C174.144 72.0099 174.152 72.011 174.167 72.0132C174.168 72.0113 174.168 72.0098 174.168 72.0098C174.187 72.0136 174.205 72.0175 174.225 72.0215C175.002 72.1365 181.191 73.1433 183.026 76.3037C185.738 80.9696 188.69 94.9713 191.591 94.7647C192.923 94.6691 206.323 89.6327 206.323 89.6327C206.323 89.6327 208.555 91.724 208.128 94.29C208.128 94.29 201.512 98.7206 195.916 101.548C195.141 101.94 194.385 102.3 193.67 102.614C191.653 103.499 189.953 104.012 189.025 103.793C188.759 103.73 188.476 103.61 188.183 103.439C186.97 102.738 185.552 101.198 184.194 99.4436C183.292 98.2761 182.415 97.0144 181.641 95.8398C181.624 95.8147 181.609 95.7904 181.593 95.7655C181.261 100.217 180.928 105.061 181.272 108.857C181.535 111.744 181.726 117.999 181.23 119.615C180.197 122.983 172.605 123.874 165.521 123.522C162.18 123.355 159.821 123.165 158.103 122.769C155.612 122.197 154.473 121.195 153.653 119.217C152.871 117.333 156.487 108.49 156.831 104.62C157.147 101.076 156.596 98.1983 155.695 95.3647Z" fill="#E69D43"/>
<path d="M160.822 72.4238C160.822 72.4238 155.228 72.645 152.634 75.0588C149.702 77.7881 145.336 94.4766 144.158 102.604C144.158 102.604 138.238 113.886 136.354 118.361C136.354 118.361 136.707 118.972 137.413 119.434C138.097 119.881 138.961 120.059 138.961 120.059C138.961 120.059 149.64 108.139 150.341 106.255C151.043 104.37 161.539 88.1499 160.822 72.4238Z" fill="#E69D43"/>
<path d="M153.653 119.219C154.473 121.197 155.612 122.199 158.103 122.771C161.434 122.131 163.631 116.003 164.761 112.987C166.065 109.511 159.275 91.6409 157.401 91.8038C156.008 91.9243 155.741 94.2039 155.695 95.3674C156.596 98.2012 157.147 101.079 156.831 104.623C156.487 108.493 152.871 117.336 153.653 119.219Z" fill="#E58638"/>
<path d="M181.641 95.8429C182.415 97.0176 183.291 98.2791 184.194 99.4468C185.488 101.041 186.918 102.581 188.183 103.443C188.476 103.614 188.758 103.733 189.025 103.796C189.953 104.016 191.652 103.502 193.67 102.617C192.469 102.705 191.29 102.663 190.131 102.564C188.101 102.392 187.511 100.193 184.302 96.8977C182.383 94.9276 181.8 95.2313 181.641 95.8429Z" fill="#E58638"/>
<path d="M163.104 62.6973C164.294 64.644 167.165 68.6497 171.003 69.63C170.751 68.0051 170.821 66.5348 170.891 65.7363C170.933 65.3301 170.975 65.092 170.975 65.092L163.104 62.6973Z" fill="#CC7C46"/>
<path d="M173.042 65.626C173.042 65.626 163.579 67.5264 162.486 61.6153C161.393 55.704 159.436 51.9681 165.431 50.5049C171.427 49.0416 173.021 51.0797 173.866 52.964C174.71 54.8483 175.475 64.9794 173.042 65.626Z" fill="#D9935C"/>
<path d="M160.654 50.8958C162.255 49.0942 164.565 48.7438 166.249 48.773C165.234 47.5419 169.317 44.845 173.985 49.4453C175.996 51.4272 175.693 55.3229 174.615 57.5836C174.615 57.5836 172.961 52.7395 169.95 51.6828C169.28 51.4477 168.644 51.0558 168.059 50.5894C167.693 51.5104 166.955 52.8137 165.471 54.4353C162.359 57.8374 162.966 64.7174 162.966 64.7174C162.966 64.7174 157.856 54.0437 160.654 50.8958Z" fill="#B74B42"/>
<path d="M170.094 62.7175C170.094 62.7175 170.347 63.4192 172.128 63.1007C172.128 63.1007 173.624 62.8336 173.486 62.0462C173.486 62.0462 171.961 61.651 170.094 62.7175Z" fill="white"/>
</g>
<path d="M351.675 231.878H18.7642C18.5856 231.878 18.4395 231.732 18.4395 231.553C18.4395 231.375 18.5856 231.229 18.7642 231.229H351.675C351.854 231.229 352 231.375 352 231.553C352 231.732 351.854 231.878 351.675 231.878Z" fill="#202F4E"/>
<path d="M194.68 82.6357H286.34C286.532 82.6357 286.687 82.4806 286.687 82.2891V82.2821C286.687 82.0908 286.532 81.9355 286.34 81.9355H194.68C194.488 81.9355 194.333 82.0906 194.333 82.2821V82.2891C194.333 82.4806 194.488 82.6357 194.68 82.6357Z" fill="#A6D9F1"/>
<path d="M272.363 72.1727H227.267C226.188 72.1727 225.312 71.2977 225.312 70.2184V70.1789C225.312 69.0996 226.188 68.2246 227.267 68.2246H272.363C273.442 68.2246 274.317 69.0995 274.317 70.1789V70.2184C274.317 71.2977 273.442 72.1727 272.363 72.1727Z" fill="#A6D9F1"/>
<path d="M272.363 78.8524H227.267C226.188 78.8524 225.312 77.9774 225.312 76.8981V76.8586C225.312 75.7793 226.188 74.9043 227.267 74.9043H272.363C273.442 74.9043 274.317 75.7793 274.317 76.8586V76.8981C274.317 77.9774 273.442 78.8524 272.363 78.8524Z" fill="#A6D9F1"/>
<path d="M202.289 119.366H302.863C303.054 119.366 303.209 119.211 303.209 119.019V119.012C303.209 118.821 303.054 118.666 302.863 118.666H202.289C202.097 118.666 201.942 118.821 201.942 119.012V119.019C201.942 119.211 202.097 119.366 202.289 119.366Z" fill="#A6D9F1"/>
<path d="M291.981 128.071H255.798C254.719 128.071 253.844 127.196 253.844 126.117V126.077C253.844 124.998 254.719 124.123 255.798 124.123H291.981C293.06 124.123 293.935 124.998 293.935 126.077V126.117C293.935 127.196 293.06 128.071 291.981 128.071Z" fill="#A6D9F1"/>
<path d="M291.981 134.755H255.798C254.719 134.755 253.844 133.88 253.844 132.8V132.761C253.844 131.682 254.719 130.807 255.798 130.807H291.981C293.06 130.807 293.935 131.682 293.935 132.761V132.8C293.935 133.88 293.06 134.755 291.981 134.755Z" fill="#A6D9F1"/>
<path d="M129.264 108.741H40.8259C40.6346 108.741 40.4795 108.586 40.4795 108.394V108.387C40.4795 108.196 40.6346 108.041 40.8259 108.041H129.263C129.455 108.041 129.61 108.196 129.61 108.387V108.394C129.61 108.586 129.455 108.741 129.264 108.741Z" fill="#A6D9F1"/>
<path d="M54.8024 98.2781H90.985C92.0643 98.2781 92.9393 97.4031 92.9393 96.3239V96.2844C92.9393 95.2051 92.0643 94.3301 90.985 94.3301H54.8024C53.7232 94.3301 52.8481 95.2051 52.8481 96.2844V96.3239C52.8483 97.4033 53.7232 98.2781 54.8024 98.2781Z" fill="#A6D9F1"/>
<path d="M54.8024 104.962H90.985C92.0643 104.962 92.9393 104.087 92.9393 103.007V102.968C92.9393 101.889 92.0643 101.014 90.985 101.014H54.8024C53.7232 101.014 52.8481 101.889 52.8481 102.968V103.007C52.8483 104.087 53.7232 104.962 54.8024 104.962Z" fill="#A6D9F1"/>
<path d="M312.8 137.219H302.379C299.637 137.219 297.395 134.976 297.395 132.234V123.65C297.395 120.909 299.637 118.666 302.379 118.666H312.8C315.541 118.666 317.784 120.909 317.784 123.65V132.234C317.784 134.976 315.541 137.219 312.8 137.219Z" fill="#A6D9F1"/>
<path d="M314.363 126.651C312.273 125.546 309.401 124.229 307.588 124.229C305.775 124.229 302.903 125.546 300.813 126.651C300.333 126.904 300.035 127.399 300.035 127.942C300.035 128.485 300.333 128.98 300.813 129.234C302.903 130.339 305.775 131.656 307.588 131.656C309.402 131.656 312.273 130.339 314.363 129.234C314.843 128.98 315.141 128.486 315.141 127.942C315.141 127.399 314.843 126.904 314.363 126.651ZM310.873 125.987C310.829 127.762 309.373 129.192 307.588 129.192C305.803 129.192 304.347 127.762 304.303 125.987C305.493 125.503 306.711 125.12 307.588 125.12C308.465 125.12 309.683 125.503 310.873 125.987ZM313.947 128.446C312.411 129.258 309.327 130.765 307.588 130.765C305.849 130.765 302.765 129.258 301.23 128.446C300.825 128.232 300.825 127.652 301.23 127.439C301.8 127.137 302.585 126.739 303.435 126.359C303.661 128.45 305.437 130.084 307.588 130.084C309.739 130.084 311.515 128.45 311.741 126.359C312.591 126.739 313.376 127.137 313.947 127.439C314.351 127.652 314.351 128.232 313.947 128.446Z" fill="#E69D43"/>
<path d="M307.588 127.946C308.12 127.946 308.551 127.516 308.551 126.984C308.551 126.452 308.12 126.021 307.588 126.021C307.057 126.021 306.626 126.452 306.626 126.984C306.626 127.516 307.057 127.946 307.588 127.946Z" fill="#CA5F00"/>
</svg>
