<svg width="333" height="201" viewBox="0 0 333 201" fill="none" xmlns="http://www.w3.org/2000/svg">
<path d="M25.6035 199.757C-18.7229 139.105 2.74524 58.5841 30.4991 39.6392C70.7721 12.1488 98.202 44.0726 139.933 44.0279C184.8 43.98 180.705 -3.694 243.434 0.976319C304.533 5.52539 328.227 68.3991 331.418 115.229C334.67 162.954 324.112 188.839 317.793 199.757H25.6035Z" fill="#FCE0DB"/>
<path d="M263.292 200.207C263.803 199.798 272.134 183.738 277.65 191.397C277.65 191.397 285.924 163.312 297.262 164.639C308.6 165.967 298.998 186.801 298.998 186.801C298.998 186.801 308.702 182.818 306.455 193.338C306.455 193.338 318.814 191.091 317.895 199.976L263.292 200.207Z" fill="#7FC6A6"/>
<path d="M313.229 176.478C314.741 174.654 315.175 172.519 314.198 171.709C313.22 170.899 311.202 171.721 309.69 173.545C308.178 175.369 307.744 177.504 308.722 178.314C309.699 179.124 311.717 178.302 313.229 176.478Z" fill="#7FC6A6"/>
<path d="M311.986 180.713C311.09 181.793 310.834 183.056 311.412 183.536C311.991 184.015 313.185 183.529 314.08 182.449C314.976 181.369 315.232 180.105 314.654 179.626C314.075 179.147 312.881 179.633 311.986 180.713Z" fill="#7FC6A6"/>
<path d="M298.549 188.855C298.52 188.849 298.493 188.832 298.476 188.805C298.439 188.751 298.454 188.677 298.508 188.641C298.607 188.575 300.959 187.024 303.023 187.472C303.024 187.472 303.024 187.472 303.025 187.472C303.089 187.486 303.129 187.549 303.115 187.613C303.101 187.677 303.038 187.718 302.974 187.704C302.974 187.704 302.973 187.704 302.973 187.703C301.008 187.277 298.663 188.822 298.64 188.838C298.612 188.857 298.579 188.862 298.549 188.855Z" fill="black"/>
<path d="M300.13 189.031C300.1 189.025 300.074 189.008 300.056 188.981C300.02 188.926 300.035 188.853 300.089 188.816C300.135 188.786 301.221 188.083 303.15 188.203C303.215 188.207 303.265 188.264 303.261 188.329C303.257 188.394 303.2 188.444 303.135 188.44C301.285 188.325 300.231 189.007 300.22 189.014C300.193 189.033 300.16 189.038 300.13 189.031Z" fill="black"/>
<path d="M270.675 193.619C270.645 193.619 270.615 193.608 270.592 193.586C270.545 193.54 270.544 193.465 270.589 193.418C270.672 193.332 272.642 191.318 274.754 191.318C274.822 191.32 274.874 191.371 274.874 191.437C274.874 191.502 274.821 191.556 274.755 191.556C274.755 191.556 274.754 191.556 274.754 191.556C272.741 191.556 270.78 193.563 270.76 193.583C270.737 193.607 270.706 193.619 270.675 193.619Z" fill="black"/>
<path d="M272.257 193.456C272.227 193.456 272.197 193.445 272.174 193.423C272.127 193.377 272.126 193.302 272.172 193.255C272.21 193.216 273.122 192.299 275.032 192.007C275.098 191.997 275.158 192.042 275.168 192.107C275.177 192.171 275.133 192.232 275.068 192.242C273.242 192.52 272.35 193.412 272.342 193.421C272.319 193.445 272.288 193.456 272.257 193.456Z" fill="black"/>
<path d="M220.738 107.205L217.774 102.889L218.66 102.282L221.623 106.597L220.738 107.205ZM214.811 98.5741L211.847 94.2586L212.732 93.6508L215.696 97.9663L214.811 98.5741ZM208.883 89.9431L205.92 85.6276L206.805 85.0197L209.769 89.3352L208.883 89.9431ZM202.956 81.3122L199.992 76.9967L200.878 76.3889L203.841 80.7044L202.956 81.3122ZM197.029 72.6811L194.065 68.3656L194.95 67.7578L197.914 72.0733L197.029 72.6811Z" fill="white"/>
<path d="M42.9805 94.6604C42.9805 94.6604 35.2682 81.9113 16.7654 85.2173C16.7654 85.2173 29.2215 103.687 42.9805 94.6604Z" fill="#3E9896"/>
<path d="M55.0247 98.0252C55.0247 98.0252 52.7272 72.4692 21.597 63.6035C21.597 63.6035 26.911 101.596 55.0247 98.0252Z" fill="#80C4A4"/>
<path d="M39.034 58.7586C43.9108 58.5014 60.6233 57.7966 72.0517 59.4906C73.5341 59.7102 74.4783 57.934 73.4528 56.8414C72.853 56.2023 71.8299 55.6818 70.1091 55.5614C70.1091 55.5614 70.7018 44.8938 62.6427 44.1873C53.3998 43.3768 53.2878 53.8572 53.2878 53.8572C53.2878 53.8572 49.0868 49.8695 46.0568 54.9252C46.0568 54.9252 40.8205 51.8992 38.1792 57.4882C37.891 58.0977 38.3608 58.7941 39.034 58.7586Z" fill="white"/>
<path d="M133.543 68.7017C131.36 68.5766 126.243 68.3586 121.795 68.7337C119.954 68.8888 118.365 67.419 118.407 65.5729C118.423 64.8172 118.694 63.9382 119.396 62.9422C122.097 59.1069 126.792 62.7696 126.747 64.7165C126.747 64.7165 127.696 61.785 130.578 62.2983C133.461 62.8114 132.442 67.0749 132.442 67.0749C132.442 67.0749 133.372 66.8783 134.017 67.3184C134.651 67.751 134.309 68.7456 133.543 68.7017Z" fill="white"/>
<path d="M296.97 51.169C293.963 50.9968 286.915 50.6964 280.787 51.213C278.252 51.4267 276.063 49.4019 276.12 46.8587C276.143 45.8178 276.516 44.6069 277.483 43.2348C281.203 37.9516 287.671 42.9971 287.609 45.679C287.609 45.679 288.916 41.6408 292.887 42.3477C296.858 43.0546 295.454 48.9276 295.454 48.9276C295.454 48.9276 296.735 48.6569 297.624 49.2632C298.497 49.8594 298.026 51.2295 296.97 51.169Z" fill="white"/>
<path d="M128.29 146.031H103.032V198.941H128.29V146.031Z" fill="#230C1E"/>
<path d="M191.73 165.261V92.7805C191.73 89.3367 188.938 86.5449 185.493 86.5449H44.9392C41.4948 86.5449 38.7026 89.3367 38.7026 92.7805V165.261H191.73Z" fill="#230C1E"/>
<path d="M38.7026 165.262V176.877C38.7026 179.292 40.2998 181.251 42.2699 181.251H188.162C190.132 181.251 191.73 179.292 191.73 176.877V165.262H38.7026Z" fill="#5B2750"/>
<path d="M188.148 162.116V92.9769C188.148 91.1645 186.625 89.6953 184.747 89.6953H45.685C43.8071 89.6953 42.2847 91.1645 42.2847 92.9769V162.116H188.148Z" fill="#DCF4FF"/>
<path d="M149.827 200.452C150.256 197.951 148.576 195.924 146.075 195.924H85.2897C82.7887 195.924 80.4137 197.951 79.9849 200.452H149.827Z" fill="#5B2750"/>
<path d="M188.162 181.434H42.2702C40.2023 181.434 38.52 179.39 38.52 176.877V92.7817C38.52 89.2426 41.3997 86.3633 44.9393 86.3633V86.7288C41.6013 86.7288 38.8856 89.4441 38.8856 92.7816V176.877C38.8856 179.188 40.4039 181.068 42.27 181.068H188.162L188.162 181.434Z" fill="#21111D"/>
<path d="M169.767 168.8L166.286 173.65L166.583 173.863L170.064 169.013L169.767 168.8Z" fill="#21111D"/>
<path d="M169.766 171.224L166.285 175.941L166.579 176.158L170.06 171.441L169.766 171.224Z" fill="#21111D"/>
<path d="M110.663 182.29L108.93 185.322L109.247 185.504L110.98 182.472L110.663 182.29Z" fill="#21111D"/>
<path d="M110.795 184.396L109.228 187.066L109.543 187.251L111.11 184.581L110.795 184.396Z" fill="#21111D"/>
<path d="M188.33 162.296H42.2847V161.931H187.965V92.9741C187.965 91.2653 186.521 89.8753 184.747 89.8753V89.5098C186.723 89.5098 188.33 91.0638 188.33 92.9741V162.296Z" fill="#21111D"/>
<path d="M160.792 84.5967L165.579 84.6654C166.41 84.4472 168.048 83.9005 169.998 83.3691C170.546 84.9825 171.011 86.2144 171.215 86.1753L171.289 86.5427C171.309 86.6367 171.364 86.7138 171.438 86.7634C171.801 88.4616 172.211 90.6303 172.672 92.4226C172.999 93.6959 173.316 93.4749 172.498 94.4448C172.025 95.0058 169.297 97.1836 168.167 97.4512L160.791 99.8982C160.296 97.6509 152.791 91.7769 153.078 91.3452L160.792 84.5967Z" fill="#FE9F73"/>
<path d="M120.171 168.225L120.334 168.012L119.48 120.105C119.48 120.105 135.239 130.673 139.962 130.875C144.685 131.078 164.211 102.098 164.211 102.098C160.096 92.6539 151.431 91.3449 151.431 91.3449L135.306 109.019L116.415 91.8845C113.896 90.3555 94.5329 90.0247 94.5329 90.0247C94.5329 90.0247 74.3947 89.5824 69.739 95.6566C66.2897 100.157 58.1897 117.766 56.7505 129.189C55.3112 140.612 56.7505 148.01 65.4765 149.359L68.6507 149.427L68.8949 168.225C68.8949 168.225 86.4817 172.182 120.171 168.225Z" fill="#E9516A"/>
<path d="M73.4822 132.458L73.1232 132.033L76.6333 129.066L77.9732 112.795L78.5276 112.84L77.1686 129.342L73.4822 132.458Z" fill="#21111D"/>
<path d="M68.6449 149.703L65.4339 149.632C61.1512 148.97 58.4056 146.848 57.0406 143.146C55.8562 139.934 55.6764 135.488 56.4746 129.152L57.0264 129.222C55.3995 142.134 57.8548 147.889 65.5006 149.079L68.6564 149.146L68.6449 149.703Z" fill="#21111D"/>
<path d="M135.502 113.745L135.04 109.152L116.747 92.56C115.406 91.3438 112.8 91.3277 112.774 91.3277V90.7715C112.774 90.7715 112.774 90.7715 112.775 90.7715C112.893 90.7715 115.621 90.7873 117.121 92.148L135.573 108.884L136.056 113.69L135.502 113.745Z" fill="#21111D"/>
<path d="M135.513 109.203L135.102 108.828L151.328 91.043L151.477 91.0672C151.563 91.0812 160.141 92.581 164.465 101.979L163.96 102.211C160.07 93.7578 152.66 91.8843 151.532 91.6448L135.513 109.203Z" fill="#21111D"/>
<path d="M99.1111 170.152C98.946 170.152 98.7836 170.152 98.624 170.15L98.6295 169.594C105.575 169.668 117.983 168.207 119.889 167.977L119.2 115.498L119.756 115.49L120.452 168.469L120.205 168.499C120.068 168.516 106.741 170.152 99.1111 170.152Z" fill="#21111D"/>
<path d="M87.3959 69.9948C87.3959 69.9948 91.204 67.5378 95.0692 68.1621C97.3075 68.5236 99.0576 70.2898 99.4434 72.5235L99.8205 74.708L87.7449 71.8473C87.7449 71.8473 86.1114 72.9955 86.2098 72.7154C86.3085 72.4353 87.3959 69.9948 87.3959 69.9948Z" fill="#FE9F73"/>
<path d="M99.4001 72.2779L100.991 81.4902C100.991 81.4902 101.696 84.758 98.8866 85.6666L100.183 89.9653C100.664 91.5631 99.9579 93.2945 98.4756 94.0615C97.7508 94.4365 96.8661 94.7717 95.8281 94.9509C92.5362 95.5191 90.3268 93.3582 89.8393 92.1713C89.3518 90.9843 89.1566 84.9449 89.1566 84.9449L88.556 82.0644L86.9921 70.7715L99.4001 72.2779Z" fill="#FE9F73"/>
<path d="M92.1348 77.0591C92.1001 77.0597 92.0651 77.0473 92.0377 77.0219C91.9814 76.9697 91.978 76.8816 92.0303 76.8253C92.0491 76.8049 93.9296 74.8141 95.703 76.1932C95.7637 76.2403 95.7747 76.3278 95.7275 76.3884C95.6803 76.4493 95.5929 76.4602 95.5322 76.4128C93.9608 75.1911 92.3042 76.9394 92.2344 77.0144C92.2075 77.0434 92.1713 77.0584 92.1348 77.0591Z" fill="#4C222E"/>
<path d="M98.1739 75.3294C98.1358 75.3373 98.0945 75.329 98.0612 75.3034C98.0004 75.2567 97.9888 75.1693 98.0355 75.1083C98.0807 75.0494 99.154 73.671 100.121 74.2079C100.188 74.2452 100.212 74.3298 100.175 74.397C100.138 74.4644 100.053 74.4885 99.9855 74.4511C99.2282 74.0305 98.2659 75.2655 98.2563 75.2779C98.2352 75.3055 98.2056 75.323 98.1739 75.3294Z" fill="#4C222E"/>
<path d="M95.0714 78.0692C95.1106 78.2965 94.9582 78.5125 94.7309 78.5517C94.5036 78.5909 94.2876 78.4385 94.2483 78.2113C94.2091 77.984 94.3615 77.768 94.5888 77.7288C94.8161 77.6897 95.0322 77.8419 95.0714 78.0692Z" fill="black"/>
<path d="M99.3746 76.9032C99.4138 77.1305 99.2614 77.3465 99.0341 77.3857C98.8068 77.4249 98.5908 77.2726 98.5516 77.0453C98.5123 76.818 98.6647 76.602 98.8921 76.5628C99.1194 76.5236 99.3354 76.676 99.3746 76.9032Z" fill="black"/>
<path d="M87.371 69.8516C87.371 69.8516 83.8577 70.2857 83.4999 73.486C83.1422 76.6862 84.9268 78.0373 85.1141 78.9407C85.3015 79.844 85.7429 86.0762 89.9651 84.8767L89.3797 74.5579L87.1871 70.7879L87.371 69.8516Z" fill="#4C222E"/>
<path d="M91.6483 78.513C91.8837 79.8764 90.9691 81.1724 89.6055 81.4078C88.2419 81.6431 86.9457 80.7287 86.7103 79.3653C86.4749 78.0019 87.3895 76.7058 88.7531 76.4705C90.1166 76.2352 91.4129 77.1497 91.6483 78.513Z" fill="#FE9F73"/>
<path d="M89.2575 80.4835C88.7446 80.572 88.3354 80.2456 88.1561 79.88C87.944 79.4474 88.0205 78.9783 88.3509 78.6847C88.8391 78.251 89.3723 78.3832 89.6552 78.5064C89.5003 78.2446 89.2979 78.0695 89.0518 77.9847C88.5192 77.801 87.9495 78.1002 87.9438 78.1031C87.91 78.1214 87.8677 78.1085 87.8495 78.0746C87.8315 78.0407 87.8442 77.9988 87.8779 77.9805C87.9033 77.9669 88.5054 77.6499 89.0962 77.8528C89.4372 77.9699 89.7014 78.236 89.8813 78.6434L89.9822 78.8718L89.7776 78.7284C89.7487 78.708 89.063 78.2385 88.4434 78.7888C88.1003 79.0934 88.1415 79.5341 88.2811 79.8186C88.426 80.1141 88.7616 80.4278 89.2332 80.3464C89.238 80.3456 89.2424 80.3444 89.2474 80.3438C89.2847 80.3374 89.3205 80.3621 89.3276 80.3997C89.3346 80.4373 89.3098 80.4737 89.272 80.4808C89.2672 80.4816 89.2624 80.4825 89.2575 80.4835Z" fill="#F07162"/>
<path d="M91.7256 84.0234C91.7256 84.0234 92.87 89.4993 99.8423 88.8376L98.8863 85.667C98.8863 85.667 94.5781 87.3339 91.7256 84.0234Z" fill="#F07162"/>
<path d="M97.0024 80.5942C96.9736 80.5992 96.9436 80.5855 96.9291 80.5584C96.911 80.5244 96.9239 80.4823 96.9577 80.4643L98.2541 79.7725L97.2612 76.6122C97.2497 76.5756 97.27 76.5365 97.3067 76.5251C97.3436 76.5125 97.3825 76.534 97.394 76.5706L98.4215 79.8409L97.0232 80.5871C97.0166 80.5906 97.0095 80.593 97.0024 80.5942Z" fill="#F07162"/>
<path d="M89.1874 85.7295L88.8638 81.0028L90.039 80.9316L90.8418 85.5818L89.1874 85.7295Z" fill="#FE9F73"/>
<path d="M89.4048 74.7016C89.4048 74.7016 99.7827 72.2707 100.005 69.7031C100.228 67.1355 97.7505 67.4964 97.7505 67.4964C97.7505 67.4964 97.61 63.9266 94.6209 65.5074C91.632 67.0882 85.7407 67.9657 84.5975 71.1855C83.4544 74.4054 89.4048 74.7016 89.4048 74.7016Z" fill="#4C222E"/>
<path d="M89.0915 74.0813L89.4818 76.3448C89.4818 76.3448 90.5892 77.5249 90.59 79.2666C90.59 79.2666 91.2721 79.3914 91.2922 78.8423C91.3123 78.2932 90.0073 74.7275 91.1748 73.8367C92.3422 72.9459 88.5679 72.8793 88.4661 72.9545C88.364 73.0295 86.4385 74.473 86.7098 74.3777C86.9812 74.2822 89.0915 74.0813 89.0915 74.0813Z" fill="#4C222E"/>
<path d="M115.426 138.344C117.967 136.106 115.305 135.729 115.305 135.729C116.545 134.388 116.257 133.762 115.801 133.473C115.468 133.262 115.049 133.239 114.681 133.382C113.512 133.836 109.95 135.233 107.774 136.238C106.227 136.129 106.72 133.521 107.412 132.184C107.769 131.496 107.793 130.359 106.114 131.504C104.742 132.44 102.681 135.521 102.681 135.521L94.0576 134.693L95.3423 146.574C95.3423 146.574 105.186 146.437 106.669 146.426C108.152 146.416 113.119 144.725 114.619 143.419C117.342 141.05 115.629 140.929 115.629 140.929C118.226 138.203 115.426 138.344 115.426 138.344Z" fill="#FE9F73"/>
<path d="M112.193 137.691C112.118 137.696 112.044 137.654 112.014 137.581C111.976 137.49 112.02 137.386 112.111 137.348C113.387 136.821 115.186 135.594 115.204 135.582C115.285 135.526 115.396 135.547 115.452 135.628C115.508 135.709 115.487 135.82 115.406 135.876C115.331 135.927 113.558 137.137 112.247 137.677C112.229 137.685 112.211 137.689 112.193 137.691Z" fill="#F07162"/>
<path d="M112.369 139.942C112.285 139.949 112.206 139.895 112.183 139.811C112.158 139.715 112.214 139.618 112.309 139.592C113.932 139.157 115.311 138.207 115.324 138.198C115.406 138.142 115.517 138.162 115.572 138.242C115.629 138.324 115.609 138.435 115.528 138.491C115.47 138.531 114.086 139.484 112.402 139.937C112.391 139.939 112.38 139.941 112.369 139.942Z" fill="#F07162"/>
<path d="M112.967 142.478C112.885 142.485 112.807 142.433 112.782 142.352C112.754 142.257 112.807 142.158 112.902 142.13C114.291 141.713 115.51 140.796 115.522 140.786C115.6 140.727 115.712 140.742 115.772 140.821C115.831 140.899 115.816 141.011 115.738 141.071C115.686 141.11 114.455 142.036 113.004 142.471C112.991 142.475 112.979 142.477 112.967 142.478Z" fill="#F07162"/>
<path d="M81.272 129.482L99.121 130.625C99.121 130.625 100.875 136.157 98.767 147.372C98.5623 148.461 98.1314 150.323 98.1314 150.323C98.1314 150.323 89.3211 151.025 87.9384 148.164C87.07 146.367 88.9685 138.606 88.9685 138.606L81.272 129.482Z" fill="#E9516A"/>
<path d="M98.3454 150.61L68.6421 149.704L68.659 149.148L97.9146 150.041C98.3326 148.31 101.011 136.663 98.9231 130.894L76.8831 129.483L76.9187 128.928L99.3162 130.362L99.38 130.528C101.813 136.834 98.541 149.844 98.4005 150.394L98.3454 150.61Z" fill="#21111D"/>
<path d="M96.1035 81.7213C96.1436 81.7102 98.7138 81.4453 98.7138 81.4453C98.7138 81.4453 98.4751 82.5358 97.52 82.6367C96.5649 82.7378 96.1035 81.7213 96.1035 81.7213Z" fill="#FBFDFA"/>
<path d="M152.237 70.4238C152.237 70.4238 144.977 73.5367 148.084 80.5139C150.981 87.0191 157.087 83.9043 158.658 83.1182C160.23 82.3321 152.237 70.4238 152.237 70.4238Z" fill="#91D3E2"/>
<path d="M160.523 83.9686C160.523 83.9686 163.768 89.4448 164.565 94.1622C165.307 98.5615 166.11 99.1128 167.668 98.5492C169.227 97.9855 172.84 95.9955 172.498 94.4451C172.155 92.8947 169.334 85.2205 165.521 81.7169C161.708 78.2134 160.523 83.9686 160.523 83.9686Z" fill="#52B6C6"/>
<path d="M171.264 49.9434C171.264 49.9434 161.185 62.4156 157.877 66.2579L156.454 70.4162L160.886 80.2317L165.467 81.1392L186.291 79.7468L185.238 77.6479L178.979 68.6503L174.108 57.8031L171.704 50.9749L171.264 49.9434Z" fill="#52B6C6"/>
<path d="M157.877 66.2578C157.877 66.2578 158.556 75.4091 165.467 81.1391C165.467 81.1391 165.922 81.7195 165.421 82.2918L161.943 84.2455C161.943 84.2455 160.377 85.3222 158.251 83.2276C156.126 81.133 152.05 76.2402 151.925 69.6682C151.925 69.6682 151.851 67.8998 153.805 67.0478L156.383 65.8095C156.383 65.8095 157.538 65.2993 157.877 66.2578Z" fill="#D4EBF2"/>
<path d="M171.265 49.9428C171.265 49.9428 173.879 46.6694 175.776 46.2157C177.674 45.762 180.228 47.7599 181.997 49.4756C183.767 51.1911 189.123 58.3502 190.88 63.6821C192.636 69.014 194.652 76.7396 192.252 78.3682C189.851 79.9968 186.292 79.7462 186.292 79.7462C186.292 79.7462 181.03 77.2148 175.469 66.4429C169.908 55.6709 171.265 49.9428 171.265 49.9428Z" fill="#91D3E2"/>
<path d="M190.459 79.1779C190.459 79.1779 192.443 74.4041 188.027 64.1333C181.073 47.9625 174.231 47.0684 174.231 47.0684C174.231 47.0684 170.603 51.7638 179.317 66.8567C186.497 79.2931 190.459 79.1779 190.459 79.1779Z" fill="#3B9DA8"/>
<path d="M176.025 60.4044C176.852 62.3062 177.927 64.4482 179.317 66.856C180.013 68.0611 180.678 69.1469 181.312 70.1277C183.03 68.9622 185.651 66.4931 183.222 62.6618C180.972 59.112 177.753 59.7206 176.025 60.4044Z" fill="#D4EBF2"/>
<path d="M167.373 98.7247C166.872 98.8587 166.494 98.8316 166.173 98.6444C165.441 98.217 164.953 96.9224 164.49 94.1758C163.859 90.4414 161.711 86.2624 160.791 84.598C159.966 84.5742 159.129 84.1651 158.301 83.3818C155.695 84.6461 153.453 84.952 151.635 84.2914C150.089 83.7298 148.871 82.4696 148.014 80.5457C146.838 77.9048 146.985 75.5092 148.451 73.4249C149.584 71.8133 151.198 70.8629 151.886 70.5085C151.866 70.2274 151.854 69.9455 151.848 69.6699C151.848 69.6534 151.795 67.8406 153.775 66.9775L156.35 65.7405C156.378 65.7282 156.976 65.469 157.461 65.6783C157.654 65.7619 157.802 65.908 157.9 66.1132C161.251 62.2088 171.105 50.019 171.205 49.8953C171.312 49.7611 173.857 46.5943 175.759 46.1418C177.688 45.6804 180.246 47.6704 182.051 49.4211C183.847 51.1623 189.19 58.3075 190.953 63.6587C192.879 69.5068 194.676 76.8172 192.295 78.4325C189.944 80.0274 186.453 79.834 186.292 79.8239L165.601 81.2073C165.669 81.333 165.756 81.5503 165.727 81.8058C167.734 83.7213 169.386 86.699 170.42 88.8649C171.605 91.3461 172.393 93.6125 172.573 94.4294C172.77 95.321 171.74 96.2816 170.842 96.9303C169.779 97.6974 168.496 98.3329 167.695 98.6223C167.582 98.6631 167.475 98.6972 167.373 98.7247ZM158.329 83.1968L158.368 83.234C159.195 84.0281 160.026 84.4357 160.838 84.4454L160.883 84.446L160.904 84.485C161.815 86.1295 164.002 90.3634 164.641 94.1503C165.09 96.811 165.572 98.1153 166.251 98.5118C166.599 98.7149 167.015 98.7047 167.643 98.4779C169.137 97.9376 172.752 95.95 172.423 94.4625C172.244 93.6527 171.462 91.4012 170.282 88.931C169.248 86.7668 167.596 83.7884 165.593 81.8901L165.564 81.8623L165.57 81.8224C165.626 81.4738 165.408 81.1894 165.406 81.1865L165.318 81.0725L165.462 81.0628L186.292 79.6701L186.297 79.6705C186.332 79.673 189.858 79.9001 192.208 78.3055C193.249 77.5996 193.532 75.6215 193.048 72.4262C192.694 70.0793 191.939 67.1457 190.806 63.7069C189.051 58.3791 183.732 51.265 181.944 49.5314C180.166 47.8076 177.656 45.8461 175.794 46.2912C175.775 46.2958 175.755 46.3007 175.736 46.3059C173.89 46.8004 171.35 49.9593 171.324 49.9915C171.223 50.1166 161.206 62.5089 157.935 66.3082L157.848 66.4086L157.804 66.2837C157.724 66.0573 157.588 65.9011 157.4 65.8196C156.977 65.6367 156.42 65.8776 156.414 65.88L153.838 67.1172C151.955 67.9382 151.999 69.5952 152.002 69.6654C152.007 69.9565 152.021 70.2529 152.043 70.5481L152.046 70.5991L152.001 70.6223C150.879 71.1912 145.419 74.3404 148.155 80.4833C148.994 82.3676 150.182 83.6004 151.687 84.1472C153.476 84.797 155.694 84.4852 158.281 83.2205L158.329 83.1968Z" fill="#1D1D1B"/>
<path d="M158.262 83.3444C155.075 80.3283 153.513 77.0133 152.763 74.7635C151.95 72.3243 151.89 70.5727 151.889 70.5553L152.043 70.5508C152.043 70.568 152.103 72.3016 152.91 74.7208C153.655 76.9523 155.206 80.2405 158.367 83.2329L158.262 83.3444Z" fill="#1D1D1B"/>
<path d="M165.416 81.1962C163.753 79.7505 162.317 78.0658 161.149 76.189C160.215 74.6877 159.449 73.0609 158.873 71.3536C157.892 68.4458 157.801 66.2812 157.8 66.2597L157.954 66.2539C157.954 66.2753 158.046 68.4219 159.021 71.3097C159.92 73.9732 161.777 77.8303 165.517 81.0801L165.416 81.1962Z" fill="#1D1D1B"/>
<path d="M161.43 84.4601C161.102 84.5479 160.886 84.5906 160.852 84.5973L160.823 84.4465C160.858 84.4398 164.339 83.7491 165.581 81.793L165.711 81.8754C164.734 83.4141 162.494 84.1749 161.43 84.4601Z" fill="#1D1D1B"/>
<path d="M190.42 79.2711C190.197 79.3306 189.471 79.3898 188.06 78.3175C186.523 77.1495 183.817 74.3397 179.655 67.5867C177.597 64.2468 176.026 61.0898 174.988 58.2034C174.157 55.8918 173.663 53.7471 173.52 51.8288C173.275 48.55 174.129 47.088 174.166 47.0273L174.297 47.1064C174.288 47.1209 173.429 48.6001 173.674 51.8379C173.901 54.8305 175.146 59.9781 179.786 67.506C183.899 74.1805 186.577 76.9802 188.098 78.1535C189.742 79.4207 190.417 79.1111 190.423 79.1079L190.494 79.2441C190.489 79.2468 190.465 79.259 190.42 79.2711Z" fill="#1D1D1B"/>
<path d="M155.9 70.0714L154.551 72.1289L154.679 72.2131L156.028 70.1556L155.9 70.0714Z" fill="#1D1D1B"/>
<path d="M154.922 69.2177L153.573 71.2754L153.701 71.3596L155.05 69.3019L154.922 69.2177Z" fill="#1D1D1B"/>
<path d="M169.39 56.9445L168.041 59.002L168.169 59.0861L169.518 57.0287L169.39 56.9445Z" fill="#1D1D1B"/>
<path d="M168.412 56.0907L167.063 58.1484L167.192 58.2326L168.541 56.1749L168.412 56.0907Z" fill="#1D1D1B"/>
<path d="M160.617 87.0195L165.769 87.2683L166.013 88.5089L166.337 89.5834L165.876 90.3709L162.459 90.703L160.406 89.4852L160.617 87.0195Z" fill="#FE9F73"/>
<path d="M159.78 91.3356C159.681 91.3008 159.609 91.176 159.611 91.0312C159.613 90.8644 159.714 90.7347 159.836 90.7413L165.351 90.1232C165.872 90.1491 166.314 89.6369 166.354 88.9565C166.376 88.5921 166.29 88.2401 166.111 87.9653C165.933 87.6906 165.689 87.5317 165.423 87.5186L160.347 87.266C160.226 87.2582 160.129 87.1195 160.131 86.9531C160.133 86.7864 160.233 86.6563 160.355 86.6623L165.43 86.9149C165.813 86.934 166.181 87.1723 166.438 87.5686C166.699 87.9702 166.825 88.4849 166.793 89.0176C166.734 90.0136 166.096 90.7646 165.342 90.7269L159.827 91.3452C159.811 91.3443 159.795 91.341 159.78 91.3356Z" fill="#F07162"/>
<path d="M172.303 85.8784C172.699 86.7553 172.33 87.4577 172.187 87.5278L167.742 89.7009C167.203 89.964 166.477 89.6295 166.104 88.9002C165.696 88.101 165.854 87.1933 166.434 86.9095L170.86 84.7461C170.86 84.7461 171.908 85.0015 172.303 85.8784Z" fill="#FE9F73"/>
<path d="M173.473 88.3782C173.881 89.2489 173.774 90.1385 173.632 90.2126L168.9 92.6821C168.368 92.9596 167.64 92.6414 167.258 91.9182C166.838 91.1257 166.981 90.2103 167.555 89.9113L172.408 87.3789C172.408 87.3789 173.066 87.5074 173.473 88.3782Z" fill="#FE9F73"/>
<path d="M172.676 87.5747C172.749 87.5066 172.765 87.3696 172.708 87.2431C172.641 87.0972 172.502 87.0213 172.397 87.0731L167.621 89.4373C167.17 89.6573 166.584 89.3737 166.286 88.7906C166.126 88.4784 166.066 88.1361 166.118 87.8271C166.169 87.5181 166.324 87.2859 166.553 87.1738L170.934 85.0324C171.038 84.9796 171.07 84.8208 171.004 84.6753C170.938 84.5295 170.799 84.4529 170.694 84.5043L166.314 86.6457C165.984 86.8072 165.751 87.1557 165.677 87.6016C165.601 88.0535 165.688 88.554 165.922 89.0103C166.358 89.8638 167.21 90.2833 167.861 89.965L172.638 87.6006C172.652 87.594 172.664 87.5851 172.676 87.5747Z" fill="#F07162"/>
<path d="M170.617 82.9837C171.039 83.8482 170.908 84.744 170.766 84.8165L166.019 87.2371C165.496 87.5036 164.782 87.208 164.394 86.5054C163.951 85.7007 164.094 84.7607 164.681 84.4619L169.111 82.203C169.604 81.952 170.373 82.4822 170.617 82.9837Z" fill="#FE9F73"/>
<path d="M170.911 85.0297C170.984 84.9603 170.998 84.8226 170.94 84.6967C170.872 84.5516 170.733 84.4776 170.629 84.5312L165.889 86.9766C165.443 87.2044 164.855 86.9291 164.552 86.3492C164.39 86.0385 164.327 85.6964 164.375 85.3857C164.423 85.075 164.575 84.8397 164.803 84.7237L169.149 82.5078C169.252 82.4532 169.283 82.2934 169.215 82.1486C169.148 82.0034 169.009 81.9289 168.905 81.9819L164.559 84.198C164.231 84.3651 164.003 84.7183 163.933 85.1665C163.862 85.6209 163.954 86.1213 164.191 86.5753C164.635 87.4243 165.489 87.8315 166.134 87.5023L170.874 85.0566C170.888 85.0493 170.9 85.0403 170.911 85.0297Z" fill="#F07162"/>
<path d="M173.57 90.385C173.646 90.3152 173.66 90.1733 173.598 90.0455C173.528 89.9015 173.389 89.8303 173.286 89.8863L168.716 92.3817C168.268 92.6155 167.742 92.3786 167.437 91.8041C167.273 91.4945 167.209 91.1526 167.255 90.8412C167.301 90.5295 167.451 90.293 167.678 90.1741L172.531 87.6419C172.635 87.5886 172.664 87.4264 172.596 87.2816C172.528 87.1369 172.388 87.0632 172.285 87.1174L167.432 89.6497C167.105 89.8195 166.879 90.1755 166.812 90.6256C166.745 91.0813 166.839 91.5814 167.079 92.0336C167.525 92.8766 168.318 93.2428 168.966 92.9049L173.538 90.408C173.55 90.4017 173.56 90.394 173.57 90.385Z" fill="#F07162"/>
<path d="M174.309 91.3659C174.695 92.1735 174.604 93.0058 174.473 93.0769L170.099 95.4492C169.608 95.7159 168.929 95.4288 168.567 94.7587C168.17 94.0245 168.294 93.1676 168.825 92.8801L173.31 90.4473C173.31 90.4473 173.923 90.5583 174.309 91.3659Z" fill="#FE9F73"/>
<path d="M174.508 93.1534C174.584 93.0837 174.598 92.9421 174.536 92.8145C174.467 92.6704 174.328 92.5986 174.225 92.6546L169.851 95.0269C169.446 95.2465 168.906 95.0063 168.621 94.4798C168.469 94.1976 168.407 93.8845 168.446 93.5977C168.486 93.311 168.621 93.0913 168.827 92.9797L173.312 90.5468C173.414 90.4922 173.442 90.3292 173.373 90.1848C173.304 90.0407 173.164 89.9689 173.061 90.0249L168.576 92.4576C168.27 92.6231 168.062 92.9622 168.003 93.388C167.943 93.8197 168.036 94.2911 168.266 94.7149C168.694 95.5085 169.501 95.8746 170.102 95.5486L174.476 93.1763C174.488 93.1701 174.498 93.1624 174.508 93.1534Z" fill="#F07162"/>
<path d="M123.585 161.932H68.2593V165.262H123.585V161.932Z" fill="#230C1E"/>
<path d="M128.298 165.262H65.8735V176.147H128.298V165.262Z" fill="#5B2750"/>
<path d="M262.214 157.911C260.858 157.914 259.854 157.519 259.179 156.723C257.563 154.816 258.751 151.464 260.032 148.987C261.437 146.27 262.837 144.117 264.193 142.588C266.984 139.442 269.183 139.539 270.536 140.174C274.812 142.182 276.887 144.669 276.703 147.568C276.428 151.891 270.949 155.589 265.975 157.194C264.506 157.669 263.256 157.908 262.214 157.911ZM268.957 142.142C267.224 142.147 264.671 145.058 262.089 150.051C260.642 152.849 260.473 154.666 260.947 155.226C261.128 155.439 261.974 156.052 265.263 154.99C269.602 153.589 274.203 150.375 274.391 147.422C274.537 145.111 271.84 143.345 269.552 142.271C269.366 142.184 269.168 142.142 268.957 142.142Z" fill="#ED2B47"/>
<path d="M256.2 157.891C255.158 157.894 253.907 157.662 252.435 157.197C247.452 155.62 241.951 151.954 241.652 147.633C241.451 144.735 243.511 142.235 247.775 140.203C249.125 139.56 251.323 139.45 254.132 142.58C255.497 144.101 256.91 146.246 258.331 148.955C259.626 151.424 260.833 154.77 259.228 156.686C258.558 157.486 257.556 157.887 256.2 157.891ZM248.772 142.294C246.49 143.382 243.803 145.163 243.963 147.473C244.167 150.425 248.787 153.613 253.134 154.988C256.43 156.031 257.272 155.413 257.452 155.199C257.922 154.637 257.742 152.821 256.279 150.031C253.351 144.447 250.474 141.482 248.772 142.294Z" fill="#ED2B47"/>
<path d="M284.014 156.673L235.106 156.814L235.233 200.281L284.14 200.139L284.014 156.673Z" fill="#FEC786"/>
<path d="M285.472 156.664L233.648 156.814L233.685 169.769L285.51 169.618L285.472 156.664Z" fill="#F7597F"/>
<path d="M233.383 170.071L233.345 156.816C233.344 156.649 233.479 156.514 233.645 156.514C233.645 156.514 233.646 156.514 233.646 156.514C233.812 156.514 233.947 156.648 233.947 156.814L233.984 169.467L285.507 169.318C285.507 169.318 285.507 169.318 285.507 169.318C285.673 169.318 285.808 169.452 285.809 169.618C285.809 169.784 285.675 169.919 285.508 169.92L233.383 170.071Z" fill="black"/>
<path d="M235.23 200.577C235.064 200.577 234.93 200.443 234.929 200.277L234.841 169.765C234.84 169.599 234.975 169.463 235.141 169.463C235.141 169.463 235.142 169.463 235.142 169.463C235.308 169.463 235.443 169.597 235.443 169.763L235.531 200.275C235.532 200.442 235.398 200.577 235.231 200.577C235.231 200.577 235.231 200.577 235.23 200.577Z" fill="black"/>
<path d="M284.111 191.281C283.945 191.281 283.81 191.147 283.81 190.981L283.748 169.624C283.748 169.458 283.882 169.323 284.048 169.322C284.049 169.322 284.049 169.322 284.049 169.322C284.215 169.322 284.35 169.456 284.35 169.623L284.412 190.979C284.413 191.145 284.278 191.281 284.112 191.281C284.112 191.281 284.111 191.281 284.111 191.281Z" fill="black"/>
<path d="M281.385 162.643C281.308 162.643 281.231 162.614 281.172 162.555L278.049 159.44C277.931 159.323 277.931 159.132 278.048 159.014C278.166 158.896 278.357 158.896 278.474 159.014L281.598 162.129C281.715 162.246 281.716 162.437 281.598 162.555C281.539 162.614 281.462 162.643 281.385 162.643Z" fill="black"/>
<path d="M280.506 165.436C280.429 165.436 280.352 165.407 280.293 165.348L277.17 162.233C277.052 162.116 277.052 161.925 277.169 161.807C277.287 161.689 277.478 161.689 277.595 161.807L280.719 164.922C280.836 165.039 280.837 165.23 280.719 165.348C280.66 165.407 280.583 165.436 280.506 165.436Z" fill="black"/>
<path d="M285.194 179.516L285.188 177.285L233.532 177.435L233.538 179.666L285.194 179.516Z" fill="#ED2B47"/>
<path d="M260.417 156.74L258.187 156.746L258.313 200.212L260.544 200.206L260.417 156.74Z" fill="#ED2B47"/>
<g opacity="0.5">
<path d="M284.037 169.45L268.034 169.496L268.123 200.183L284.126 200.137L284.037 169.45Z" fill="#F7597F"/>
</g>
<g opacity="0.5">
<path d="M285.472 156.665L267.49 156.717L267.528 169.671L285.509 169.619L285.472 156.665Z" fill="#F7597F"/>
</g>
<path d="M217.264 165.217C215.866 165.221 214.831 164.814 214.136 163.993C212.47 162.027 213.694 158.571 215.014 156.018C216.463 153.217 217.906 150.998 219.304 149.422C222.181 146.178 224.448 146.279 225.843 146.933C230.251 149.003 232.389 151.567 232.2 154.556C231.917 159.012 226.269 162.823 221.141 164.479C219.627 164.968 218.338 165.214 217.264 165.217ZM224.215 148.962C222.429 148.967 219.797 151.968 217.136 157.115C215.644 159.999 215.469 161.873 215.958 162.449C216.144 162.669 217.016 163.301 220.407 162.206C224.88 160.762 229.623 157.449 229.817 154.404C229.968 152.022 227.187 150.202 224.828 149.094C224.637 149.005 224.432 148.961 224.215 148.962Z" fill="#FEC369"/>
<path d="M211.065 166.245C209.991 166.248 208.701 166.009 207.184 165.529C202.046 163.903 196.376 160.125 196.067 155.67C195.861 152.683 197.984 150.106 202.38 148.011C203.771 147.348 206.037 147.235 208.933 150.462C210.34 152.03 211.797 154.24 213.261 157.033C214.596 159.578 215.84 163.027 214.186 165.003C213.495 165.827 212.463 166.241 211.065 166.245ZM203.408 150.167C201.055 151.288 198.285 153.124 198.45 155.505C198.661 158.549 203.423 161.834 207.905 163.253C211.302 164.328 212.17 163.69 212.355 163.47C212.841 162.89 212.655 161.018 211.147 158.142C208.127 152.386 205.162 149.33 203.408 150.167Z" fill="#FEC369"/>
<path d="M244.448 160.39L184.318 160.564L184.434 200.577L244.564 200.402L244.448 160.39Z" fill="#7FC6A6"/>
<path d="M246.242 160.388L182.525 160.572L182.547 168.15L246.264 167.965L246.242 160.388Z" fill="#47B580"/>
<path d="M184.429 199.777C184.236 199.777 184.079 199.621 184.078 199.428L183.988 168.143C183.987 167.949 184.144 167.791 184.337 167.791C184.338 167.791 184.338 167.791 184.339 167.791C184.532 167.791 184.689 167.947 184.689 168.141L184.78 199.426C184.781 199.619 184.624 199.777 184.43 199.777C184.43 199.777 184.429 199.777 184.429 199.777Z" fill="black"/>
<path d="M182.196 168.498L182.173 160.57C182.172 160.377 182.329 160.219 182.523 160.219C182.523 160.219 182.523 160.219 182.524 160.219C182.717 160.219 182.874 160.375 182.874 160.568L182.895 167.795L246.261 167.611C246.261 167.611 246.262 167.611 246.262 167.611C246.455 167.611 246.612 167.768 246.613 167.961C246.613 168.155 246.457 168.312 246.263 168.313L182.196 168.498Z" fill="black"/>
<path d="M244.54 193.197C244.347 193.197 244.19 193.041 244.19 192.848L244.118 167.969C244.117 167.775 244.274 167.618 244.467 167.617C244.468 167.617 244.468 167.617 244.468 167.617C244.662 167.617 244.819 167.774 244.819 167.967L244.891 192.846C244.892 193.039 244.735 193.197 244.542 193.197C244.541 193.197 244.541 193.197 244.54 193.197Z" fill="black"/>
<path d="M235.191 191.952C235.125 191.952 235.057 191.933 234.998 191.893L229.98 188.569C229.818 188.462 229.774 188.244 229.881 188.083C229.988 187.921 230.206 187.877 230.367 187.984L235.385 191.309C235.547 191.416 235.591 191.633 235.484 191.795C235.416 191.896 235.305 191.952 235.191 191.952Z" fill="black"/>
<path d="M234.592 194.338C234.526 194.338 234.459 194.319 234.399 194.28L229.381 190.956C229.22 190.849 229.176 190.631 229.282 190.47C229.389 190.308 229.607 190.264 229.769 190.371L234.787 193.695C234.948 193.802 234.992 194.02 234.885 194.181C234.818 194.283 234.706 194.338 234.592 194.338Z" fill="black"/>
<path d="M245.152 181.42L245.146 179.367L183.249 179.547L183.255 181.6L245.152 181.42Z" fill="#FEC369"/>
<path d="M215.171 160.476L213.117 160.482L213.233 200.495L215.287 200.489L215.171 160.476Z" fill="#FEC369"/>
<g opacity="0.5">
<path d="M244.47 167.971L225.099 168.027L225.193 200.463L244.564 200.407L244.47 167.971Z" fill="#4CB7D8"/>
</g>
<g opacity="0.5">
<path d="M246.242 160.388L224.464 160.451L224.486 168.028L246.264 167.965L246.242 160.388Z" fill="#3AA1C9"/>
</g>
<path d="M256.378 28.3954C256.378 32.2461 255.044 35.7853 252.812 38.5763C250.242 41.7904 246.483 44.0118 242.2 44.5719C241.5 44.6651 240.785 44.7121 240.059 44.7121C240.017 44.7121 239.974 44.7121 239.932 44.7113C239.273 44.7065 238.622 44.6627 237.984 44.5807C237.812 44.5599 237.641 44.5352 237.472 44.5081C233.282 43.8413 229.626 41.5801 227.141 38.3677C225.008 35.6101 223.739 32.1506 223.739 28.3955C223.739 19.3835 231.046 12.0781 240.059 12.0781C249.072 12.078 256.378 19.3834 256.378 28.3954Z" fill="#E9516A"/>
<path d="M236.98 26.7979C236.98 26.7979 237.678 33.0683 238.615 33.1312C239.551 33.1939 237.968 40.5375 235.485 36.9397C234.616 35.6792 234.654 27.4298 236.73 25.6654C238.806 23.9011 236.98 26.7979 236.98 26.7979Z" fill="#2F0E1B"/>
<path d="M236.639 25.2226C236.639 25.2226 235.777 31.1467 236.553 32.2009C236.553 32.2009 236.933 32.7616 237.858 32.7916L237.785 36.2731L241.972 35.7945L242.112 25.8929C242.112 25.8929 240.918 23.4451 240.917 23.546C240.915 23.6468 236.639 25.2226 236.639 25.2226Z" fill="#FE9F73"/>
<path d="M237.914 30.1657C237.927 30.1658 237.938 30.1539 237.941 30.1361C237.944 30.1158 237.935 30.0956 237.921 30.0908C237.749 30.0361 237.644 29.7344 237.614 29.636C237.862 29.4546 238.015 29.2163 238.069 28.9273C238.158 28.4564 237.951 28.0264 237.943 28.0083C237.934 27.9912 237.918 27.9871 237.905 27.999C237.893 28.011 237.89 28.0345 237.898 28.0517C237.9 28.0559 238.1 28.4723 238.017 28.9092C237.966 29.1843 237.814 29.4115 237.568 29.5843L237.546 29.5995L237.554 29.6314C237.559 29.65 237.675 30.0906 237.908 30.1646C237.91 30.1653 237.912 30.1657 237.914 30.1657Z" fill="#FB554B"/>
<path d="M237.841 33.9757L237.858 32.7914C237.858 32.7914 239.862 32.7019 241.101 31.9453C241.101 31.9453 239.411 33.5246 237.841 33.9757Z" fill="#FB554B"/>
<path d="M240.683 28.202C240.702 28.2022 240.721 28.1954 240.736 28.1815C240.767 28.153 240.768 28.1051 240.74 28.0746C240.73 28.0644 239.774 27.0583 238.876 27.7605C238.844 27.7862 238.838 27.8338 238.864 27.8666C238.889 27.8996 238.937 27.9054 238.97 27.8796C239.758 27.2635 240.594 28.1402 240.629 28.1777C240.644 28.1935 240.664 28.2016 240.683 28.202Z" fill="#2F0E1B"/>
<path d="M237.569 27.9996C237.59 28 237.612 27.9914 237.627 27.9743C237.655 27.9431 237.652 27.8952 237.621 27.8674C237.593 27.8425 236.927 27.2563 236.494 27.617C236.462 27.6437 236.458 27.6914 236.484 27.7235C236.511 27.7557 236.559 27.7602 236.591 27.7332C236.923 27.4565 237.514 27.9752 237.52 27.9805C237.534 27.9931 237.552 27.9994 237.569 27.9996Z" fill="#2F0E1B"/>
<path d="M239.164 28.6025C239.162 28.7189 239.255 28.8146 239.372 28.8163C239.488 28.818 239.584 28.7249 239.585 28.6084C239.587 28.4919 239.494 28.3962 239.377 28.3946C239.261 28.3929 239.165 28.486 239.164 28.6025Z" fill="#010103"/>
<path d="M236.694 28.5732C236.693 28.6896 236.786 28.7853 236.902 28.787C237.019 28.7887 237.115 28.6956 237.116 28.5791C237.118 28.4626 237.025 28.3669 236.908 28.3653C236.792 28.3637 236.696 28.4568 236.694 28.5732Z" fill="#010103"/>
<path d="M238.953 30.5176C238.929 30.5163 237.462 30.6797 237.462 30.6797C237.462 30.6797 237.727 31.2598 238.273 31.2005C238.819 31.1412 238.953 30.5176 238.953 30.5176Z" fill="#FBFDFA"/>
<path d="M238.454 25.3377L239.471 23.9277C239.471 23.9277 237.838 24.9495 237.973 24.9916C238.109 25.0337 238.454 25.3377 238.454 25.3377Z" fill="#FC8759"/>
<path d="M241.504 24.6706C241.504 24.6706 241.213 26.8796 235.92 27.3256C235.92 27.3256 234.69 24.0566 238.534 22.9638C242.377 21.871 242.726 24.8181 242.648 24.791C242.571 24.7637 241.504 24.6706 241.504 24.6706Z" fill="#2F0E1B"/>
<path d="M240.706 25.9079C240.706 25.9079 241.551 27.3634 242.005 28.4113C242.005 28.4113 240.37 37.6622 243.933 37.1437L244.57 37.135C247.722 37.0918 245.54 30.272 245.487 26.6524C245.453 24.3862 242.702 22.0853 240.911 23.466C239.121 24.8466 240.706 25.9079 240.706 25.9079Z" fill="#2F0E1B"/>
<path d="M241.232 29.5406C241.222 30.1936 241.744 30.7304 242.397 30.7395C243.05 30.7488 243.587 30.227 243.596 29.574C243.605 28.9211 243.084 28.3843 242.431 28.3751C241.778 28.3658 241.241 28.8877 241.232 29.5406Z" fill="#FE9F73"/>
<path d="M242.491 30.2889C242.74 30.2923 242.908 30.1083 242.965 29.9228C243.033 29.7033 242.962 29.4879 242.784 29.3742C242.531 29.2123 242.298 29.3016 242.171 29.3789C242.223 29.2539 242.302 29.1628 242.406 29.1079C242.639 28.9841 242.924 29.0809 242.927 29.082C242.947 29.0889 242.968 29.0784 242.975 29.0587C242.982 29.039 242.971 29.0173 242.952 29.0104C242.939 29.0059 242.633 28.9017 242.37 29.041C242.219 29.1215 242.114 29.266 242.06 29.4706L242.025 29.6018L242.123 29.5074C242.135 29.4959 242.418 29.2292 242.743 29.4379C242.923 29.5532 242.936 29.7591 242.893 29.9003C242.847 30.0485 242.714 30.2187 242.487 30.2128C242.466 30.212 242.448 30.2286 242.448 30.2496C242.447 30.2706 242.464 30.2879 242.484 30.2885C242.487 30.2887 242.489 30.2887 242.491 30.2889Z" fill="#FB554B"/>
<path d="M236.403 24.2207C236.403 24.2207 234.568 26.1571 234.989 31.726L236.254 26.2316L236.403 24.2207Z" fill="#2F0E1B"/>
<path d="M242.2 44.572C241.5 44.6652 240.785 44.7122 240.059 44.7122C240.017 44.7122 239.974 44.7122 239.931 44.7114C239.273 44.7067 238.622 44.6628 237.984 44.5808L238.078 44.1832L239.536 38.0593L239.931 36.4005L240.022 36.0181L240.182 35.3496H247.13C247.868 35.3496 248.884 35.8357 248.928 35.8572C249.871 36.3592 251.321 37.3193 252.812 38.5765C250.242 41.7906 246.483 44.0119 242.2 44.572Z" fill="#7FC6A6"/>
<path d="M239.932 35.3496V44.7114C239.273 44.7067 238.622 44.6628 237.984 44.5808C237.812 44.56 237.641 44.5354 237.472 44.5083C233.283 43.8414 229.626 41.5802 227.141 38.3678C228.713 37.2324 230.232 36.3647 231.185 35.8572C231.228 35.8357 232.245 35.3496 232.982 35.3496H239.932Z" fill="#7FC6A6"/>
<path d="M235.907 35.3496H244.698C244.698 35.3496 243.109 38.1012 240.071 38.0893C238.678 38.0838 237.188 37.5716 235.907 35.3496Z" fill="#FE9F73"/>
<path d="M229.856 38.8418C229.897 38.8418 229.938 38.8222 229.964 38.7857C230.952 37.3666 231.795 37.3634 231.795 37.3637H231.795C231.867 37.3637 231.926 37.3053 231.926 37.2332C231.926 37.1608 231.868 37.1019 231.796 37.1016C231.796 37.1016 231.795 37.1016 231.795 37.1016C231.747 37.1016 230.803 37.1221 229.749 38.6358C229.707 38.6952 229.722 38.7769 229.781 38.8183C229.804 38.8343 229.83 38.8418 229.856 38.8418Z" fill="#0D060E"/>
<path d="M230.137 40.1759C230.185 40.1759 230.231 40.1493 230.254 40.1033C231.011 38.5811 231.85 38.43 231.858 38.4286C231.929 38.4172 231.978 38.3505 231.967 38.2794C231.957 38.2083 231.892 38.159 231.82 38.1693C231.78 38.1749 230.845 38.3272 230.02 39.9865C229.987 40.0513 230.014 40.1299 230.079 40.1622C230.097 40.1715 230.117 40.1759 230.137 40.1759Z" fill="#0D060E"/>
<path d="M240.059 45.2843C240.013 45.2843 239.966 45.2841 239.92 45.2833C239.249 45.2784 238.57 45.2329 237.911 45.148C237.746 45.1283 237.572 45.1036 237.381 45.073C233.133 44.3967 229.335 42.1397 226.689 38.7179C224.385 35.7401 223.167 32.1709 223.167 28.3963C223.167 23.8852 224.924 19.6441 228.115 16.4543C231.305 13.2644 235.547 11.5078 240.059 11.5078C244.57 11.5078 248.812 13.2646 252.002 16.4544C255.192 19.6442 256.949 23.8853 256.949 28.3965C256.949 32.2707 255.673 35.9145 253.258 38.9341C250.512 42.3683 246.611 44.572 242.274 45.1392C241.551 45.2354 240.806 45.2843 240.059 45.2843ZM240.059 12.6503C231.375 12.6503 224.31 19.714 224.31 28.3965C224.31 31.9158 225.445 35.2431 227.593 38.0192C230.061 41.2102 233.601 43.3146 237.561 43.9451C237.738 43.9733 237.898 43.9961 238.052 44.0145C238.671 44.094 239.303 44.1365 239.936 44.1411C239.981 44.1421 240.02 44.1421 240.059 44.1419C240.755 44.1419 241.45 44.0964 242.125 44.0067C246.169 43.4777 249.805 41.4231 252.366 38.2206C254.617 35.4057 255.807 32.0086 255.807 28.3965C255.807 19.714 248.742 12.6503 240.059 12.6503Z" fill="white"/>
<path d="M255.812 117.158C255.812 119.68 255.315 122.085 254.413 124.281C254.391 124.333 254.37 124.384 254.349 124.435C254.345 124.446 254.34 124.457 254.335 124.467C253.479 126.491 252.279 128.333 250.808 129.92C250.764 129.966 250.72 130.013 250.676 130.059C250.629 130.109 250.582 130.158 250.534 130.207C247.121 133.736 242.336 135.931 237.037 135.931C234.141 135.931 231.398 135.275 228.948 134.105C228.49 133.886 228.042 133.648 227.605 133.393C227.531 133.35 227.457 133.307 227.383 133.262C227.185 133.143 226.988 133.02 226.794 132.894C226.727 132.85 226.661 132.806 226.595 132.762C225.243 131.855 224.015 130.778 222.943 129.56C222.553 129.118 222.185 128.659 221.838 128.182C221.086 127.146 220.436 126.03 219.906 124.851C218.85 122.503 218.263 119.9 218.263 117.158C218.263 106.791 226.669 98.3867 237.037 98.3867C247.407 98.3867 255.812 106.791 255.812 117.158Z" fill="#FEC786"/>
<path d="M231.082 108.509C231.082 108.509 229.647 105.204 233.429 102.47C237.212 99.7361 237.795 104.426 239.252 104.871C240.708 105.316 243.348 104.809 244.304 107.543C245.259 110.278 244.691 112.274 246.224 112.714C247.757 113.154 252.762 117.105 251.405 122.207C250.048 127.309 245.07 126.975 245.07 126.975C245.07 126.975 225.503 127.581 224.241 122.48C222.979 117.379 224.895 115.201 227.396 113.512C228.934 112.474 232.009 111.634 231.082 108.509Z" fill="#2D0F28"/>
<path d="M233.09 110.123C233.09 110.123 231.361 117.061 232.394 118.735C232.394 118.735 232.892 119.622 234.275 119.781L233.849 124.185L240.066 124.785L241.461 110.335L233.09 110.123Z" fill="#FE9F73"/>
<path d="M234.587 115.846C234.613 115.848 234.638 115.833 234.646 115.806C234.656 115.777 234.639 115.745 234.609 115.735C234.252 115.622 234.065 115.15 234.014 114.997C234.558 114.771 234.909 114.442 235.056 114.019C235.297 113.329 234.911 112.647 234.894 112.618C234.878 112.591 234.844 112.582 234.816 112.597C234.789 112.613 234.78 112.648 234.795 112.675C234.799 112.682 235.172 113.342 234.949 113.982C234.808 114.385 234.463 114.698 233.922 114.912L233.875 114.931L233.889 114.98C233.897 115.009 234.091 115.69 234.575 115.844C234.579 115.845 234.583 115.846 234.587 115.846Z" fill="#FB554B"/>
<path d="M234.104 121.553L234.275 119.781C234.275 119.781 237.287 119.894 239.237 118.914C239.237 118.914 236.511 121.071 234.104 121.553Z" fill="#F07162"/>
<path d="M238.346 113.197C238.374 113.199 238.403 113.191 238.427 113.172C238.477 113.133 238.485 113.062 238.446 113.013C238.433 112.996 237.125 111.372 235.694 112.313C235.641 112.347 235.627 112.418 235.661 112.47C235.696 112.523 235.767 112.537 235.819 112.503C237.075 111.677 238.219 113.093 238.268 113.154C238.287 113.179 238.316 113.194 238.346 113.197Z" fill="#2F0E1B"/>
<path d="M234.432 112.568C234.464 112.571 234.497 112.561 234.522 112.537C234.567 112.494 234.569 112.422 234.526 112.376C234.487 112.335 233.562 111.375 232.869 111.862C232.818 111.898 232.805 111.969 232.841 112.021C232.878 112.072 232.949 112.085 233 112.048C233.532 111.675 234.353 112.524 234.361 112.533C234.38 112.554 234.406 112.565 234.432 112.568Z" fill="#2F0E1B"/>
<path d="M233.052 113.322C233.035 113.496 233.162 113.651 233.337 113.667C233.511 113.684 233.666 113.557 233.683 113.383C233.699 113.208 233.572 113.054 233.398 113.037C233.223 113.02 233.069 113.147 233.052 113.322Z" fill="#010103"/>
<path d="M236.193 113.576C236.177 113.75 236.304 113.905 236.478 113.921C236.653 113.938 236.808 113.811 236.824 113.636C236.841 113.462 236.714 113.307 236.539 113.291C236.365 113.274 236.21 113.401 236.193 113.576Z" fill="#010103"/>
<path d="M239.729 115.329C239.634 116.306 240.35 117.174 241.327 117.268C242.304 117.363 243.172 116.647 243.266 115.67C243.361 114.694 242.645 113.825 241.668 113.731C240.691 113.637 239.823 114.352 239.729 115.329Z" fill="#FE9F73"/>
<path d="M241.523 116.604C241.894 116.64 242.169 116.385 242.277 116.114C242.406 115.794 242.326 115.463 242.074 115.27C241.715 114.997 241.355 115.102 241.154 115.202C241.249 115.021 241.378 114.894 241.54 114.825C241.905 114.668 242.319 114.848 242.323 114.85C242.352 114.863 242.386 114.85 242.398 114.821C242.411 114.793 242.398 114.759 242.369 114.746C242.351 114.738 241.905 114.544 241.495 114.72C241.258 114.822 241.084 115.026 240.977 115.326L240.909 115.518L241.067 115.389C241.086 115.373 241.542 115.008 242.005 115.361C242.26 115.556 242.254 115.866 242.172 116.072C242.085 116.288 241.864 116.527 241.524 116.49C241.494 116.486 241.465 116.509 241.462 116.54C241.458 116.572 241.481 116.6 241.512 116.603C241.516 116.603 241.519 116.604 241.523 116.604Z" fill="#FB554B"/>
<path d="M233.09 110.125C233.09 110.125 233.891 107.455 237.563 107.507C241.234 107.559 241.461 110.337 241.461 110.337L237.223 110.779L233.36 110.132L233.09 110.125Z" fill="#FE9F73"/>
<path d="M233.312 107.817C233.312 107.817 235.363 110.254 238.352 110.035C238.352 110.035 238.986 113.72 241.13 113.76C243.273 113.8 242.596 108.713 242.596 108.713C242.596 108.713 238.775 106.709 238.523 106.685C238.271 106.661 234.077 106.002 234.077 106.002L233.312 107.817Z" fill="#2D0F28"/>
<path d="M233.952 116.576C233.985 116.567 236.11 116.348 236.11 116.348C236.11 116.348 235.912 117.249 235.123 117.333C234.333 117.416 233.952 116.576 233.952 116.576Z" fill="#FBFDFA"/>
<path d="M251.512 123.357C252.487 123.556 253.446 123.922 254.349 124.435C254.344 124.446 254.34 124.457 254.335 124.467C253.479 126.491 252.279 128.333 250.808 129.92C250.764 129.966 250.72 130.013 250.676 130.059C250.629 130.109 250.582 130.158 250.534 130.207C247.121 133.736 242.336 135.931 237.037 135.931C234.141 135.931 231.398 135.275 228.948 134.105C228.49 133.886 228.042 133.648 227.605 133.393C227.531 133.35 227.457 133.307 227.383 133.262C227.184 133.143 226.988 133.02 226.794 132.894C226.727 132.85 226.661 132.806 226.595 132.762C225.243 131.855 224.015 130.778 222.943 129.56C222.553 129.118 222.184 128.659 221.838 128.182C221.086 127.146 220.436 126.03 219.906 124.851C220.834 124.232 222.655 123.772 224.731 123.432C226.343 123.168 228.109 122.975 229.732 122.838C231.424 122.693 232.96 122.607 234.005 122.559C234.871 122.52 235.399 122.506 235.399 122.506C235.399 122.506 237.521 122.516 240.278 122.586C241.522 122.617 242.896 122.661 244.263 122.719C244.267 122.719 244.27 122.72 244.272 122.72H244.273C245.32 122.766 246.361 122.822 247.338 122.889C248.782 122.989 250.082 123.114 251.039 123.271C251.116 123.283 251.189 123.296 251.26 123.309C251.268 123.31 251.276 123.312 251.283 123.314C251.341 123.324 251.397 123.334 251.451 123.345C251.471 123.348 251.491 123.353 251.512 123.357Z" fill="#ED2B47"/>
<path d="M254.413 124.282C254.391 124.333 254.37 124.385 254.349 124.436C254.344 124.447 254.34 124.458 254.335 124.468C253.984 124.284 253.626 124.13 253.264 124.011C252.635 123.805 251.865 123.619 250.956 123.458C249.946 123.279 248.768 123.13 247.428 123.011C247.373 123.005 247.331 122.957 247.336 122.901C247.336 122.897 247.337 122.894 247.338 122.89C247.348 122.839 247.395 122.804 247.446 122.809C248.813 122.931 250.014 123.085 251.041 123.269C251.115 123.282 251.188 123.296 251.26 123.31C251.268 123.311 251.276 123.312 251.283 123.314C251.361 123.328 251.437 123.344 251.512 123.358C252.208 123.497 252.813 123.651 253.327 123.819C253.694 123.94 254.057 124.095 254.413 124.282Z" fill="#010103"/>
<path d="M229.731 122.839C229.731 122.839 236.875 129.958 244.273 122.722C244.273 122.722 235.818 121.771 229.731 122.839Z" fill="#FE9F73"/>
<path d="M237.038 135.952C236.985 135.952 236.931 135.952 236.878 135.951C236.106 135.945 235.325 135.893 234.567 135.795C234.378 135.773 234.177 135.744 233.957 135.709C229.07 134.931 224.701 132.335 221.657 128.398C219.006 124.972 217.605 120.866 217.605 116.523C217.605 111.333 219.627 106.454 223.297 102.784C226.967 99.1147 231.847 97.0938 237.038 97.0938C242.228 97.0938 247.108 99.1147 250.778 102.785C254.448 106.454 256.47 111.333 256.47 116.523C256.47 120.98 255.001 125.172 252.223 128.646C249.064 132.597 244.576 135.132 239.587 135.785C238.755 135.896 237.897 135.952 237.038 135.952ZM237.038 98.4081C227.048 98.4081 218.92 106.535 218.92 116.523C218.92 120.572 220.226 124.4 222.696 127.594C225.535 131.265 229.608 133.686 234.165 134.412C234.367 134.444 234.552 134.47 234.729 134.491C235.441 134.583 236.168 134.632 236.896 134.637C236.948 134.638 236.993 134.638 237.038 134.638C237.839 134.638 238.639 134.586 239.414 134.482C244.067 133.874 248.25 131.51 251.196 127.826C253.786 124.587 255.155 120.679 255.155 116.524C255.155 106.535 247.028 98.4081 237.038 98.4081Z" fill="white"/>
<path d="M270.047 76.5077C270.047 80.6817 271.655 84.4799 274.286 87.317C274.323 87.3566 274.36 87.3962 274.397 87.4351C274.437 87.4778 274.477 87.519 274.518 87.5608C277.408 90.55 281.461 92.4088 285.95 92.4088C288.403 92.4088 290.726 91.8536 292.801 90.8622C294.749 89.9305 296.477 88.6145 297.888 87.0126C298.218 86.6384 298.531 86.2494 298.824 85.8449C300.729 83.2229 301.853 79.9969 301.853 76.5077C301.853 67.7263 294.733 60.6074 285.95 60.6074C277.167 60.6073 270.047 67.7263 270.047 76.5077Z" fill="#7FC6A6"/>
<path d="M289.179 83.9216C289.179 83.9216 289.299 84.1491 289.508 84.5497C289.585 84.6957 289.673 84.8641 289.772 85.0536C290.109 85.6979 290.569 86.5777 291.095 87.5863C291.14 87.6732 291.186 87.761 291.233 87.8503C291.719 88.7827 292.256 89.813 292.801 90.8612C294.749 89.9295 296.478 88.6135 297.888 87.0117C298.218 86.6375 298.531 86.2484 298.824 85.8439C298.625 85.6506 298.411 85.4867 298.18 85.3556C295.831 84.0256 291.405 83.9084 289.79 83.9122C289.405 83.913 289.179 83.9216 289.179 83.9216Z" fill="#5B2750"/>
<path d="M297.888 87.0123C297.141 85.9292 296.217 85.18 295.076 85.0215C293.825 84.8484 291.833 84.6939 289.799 84.5681C289.703 84.5618 289.605 84.5565 289.508 84.5502C286.614 84.3755 283.704 84.2575 282.779 84.2226C282.584 84.2149 282.478 84.2109 282.478 84.2109C282.478 84.2109 282.451 84.2178 282.408 84.2288C282.156 84.294 281.325 84.502 281.653 84.3499C278.379 84.9283 276.05 86.1062 274.397 87.4346C274.437 87.4773 274.476 87.5186 274.518 87.5604C277.408 90.5496 281.461 92.4083 285.95 92.4083C288.403 92.4083 290.726 91.8532 292.801 90.8617C294.749 89.9301 296.477 88.614 297.888 87.0123Z" fill="#5B2750"/>
<path d="M285.717 90.5473C285.588 90.5607 285.456 90.5721 285.321 90.5816C285.244 90.587 285.178 90.5292 285.172 90.4524C285.167 90.3759 285.222 90.3098 285.302 90.3037C291.075 89.8985 292.146 85.673 292.155 85.6305C292.169 85.5564 292.24 85.5047 292.315 85.5176C292.389 85.5302 292.441 85.5982 292.43 85.6731C292.424 85.7166 291.358 89.9638 285.717 90.5473Z" fill="#0D060E"/>
<path d="M282.434 84.0563C278.643 84.5874 276.044 85.9049 274.285 87.3165C274.323 87.3561 274.36 87.3957 274.397 87.4345C274.437 87.4772 274.476 87.5185 274.517 87.5603C276.22 86.2008 278.729 84.929 282.382 84.4026C282.466 84.3902 282.551 84.3786 282.635 84.3669C282.712 84.356 282.77 84.2955 282.779 84.2225C282.781 84.2085 282.781 84.1937 282.78 84.179C282.767 84.0873 282.683 84.0229 282.591 84.0346C282.538 84.0416 282.486 84.0486 282.434 84.0563Z" fill="#0D060E"/>
<path d="M281.099 71.6403L280.91 78.9338C280.91 78.9338 280.752 81.2759 282.796 81.6223L282.332 84.7405C282.159 85.8996 282.826 87.0309 283.933 87.4135C284.475 87.6006 285.124 87.7437 285.863 87.763C288.208 87.8238 289.524 86.0982 289.742 85.2241C289.961 84.3499 289.483 80.1339 289.483 80.1339L289.608 78.0716L289.549 70.0664L281.099 71.6403Z" fill="#FE9F73"/>
<path d="M287.605 79.7559C287.605 79.7559 287.365 83.6767 282.454 83.9243L282.796 81.6243C282.796 81.6243 285.959 82.3454 287.605 79.7559Z" fill="#F07162"/>
<path d="M286.662 75.6134C286.687 75.614 286.711 75.6056 286.731 75.5879C286.77 75.5516 286.773 75.4898 286.737 75.4498C286.724 75.4355 285.415 74.0261 284.162 74.9835C284.119 75.0162 284.111 75.0776 284.143 75.1205C284.176 75.1635 284.237 75.1717 284.28 75.1388C285.391 74.2905 286.544 75.5283 286.592 75.5814C286.611 75.602 286.637 75.6127 286.662 75.6134Z" fill="#2D0F28"/>
<path d="M290.056 74.6764L287.936 75.0606L287.544 75.4455C287.544 75.4455 287.819 71.9154 288.234 71.2309C288.649 70.5463 290.056 74.6764 290.056 74.6764Z" fill="#2F0E1B"/>
<path d="M282.649 74.9222C282.677 74.9229 282.704 74.9121 282.724 74.8904C282.76 74.8505 282.757 74.7888 282.718 74.7524C282.679 74.7172 281.768 73.896 281.165 74.386C281.124 74.42 281.117 74.4816 281.151 74.5234C281.185 74.5655 281.247 74.5718 281.289 74.5376C281.761 74.1538 282.578 74.8893 282.586 74.8968C282.604 74.9132 282.627 74.9216 282.649 74.9222Z" fill="#2D0F28"/>
<path d="M284.676 75.9575C284.672 76.1194 284.8 76.2541 284.961 76.2582C285.123 76.2624 285.258 76.1346 285.262 75.9727C285.266 75.8108 285.138 75.6763 284.977 75.672C284.815 75.6678 284.68 75.7957 284.676 75.9575Z" fill="#010103"/>
<path d="M281.568 75.5825C281.563 75.7444 281.691 75.879 281.853 75.8832C282.015 75.8874 282.15 75.7596 282.154 75.5977C282.158 75.4358 282.03 75.3013 281.868 75.297C281.706 75.2928 281.572 75.4206 281.568 75.5825Z" fill="#010103"/>
<path d="M287.099 75.9166C287.074 76.8878 287.841 77.6955 288.812 77.7207C289.784 77.7459 290.592 76.9791 290.617 76.0078C290.642 75.0366 289.875 74.2289 288.904 74.2037C287.932 74.1785 287.124 74.9453 287.099 75.9166Z" fill="#FE9F73"/>
<path d="M289.141 76.9474C289.506 76.9569 289.757 76.6887 289.845 76.4163C289.948 76.0942 289.847 75.7761 289.588 75.6057C289.205 75.3538 288.848 75.4997 288.664 75.6141C288.745 75.4164 288.868 75.2743 289.03 75.1903C289.382 75.0086 289.808 75.1586 289.812 75.1601C289.837 75.1694 289.865 75.1562 289.875 75.1308C289.884 75.1055 289.871 75.0775 289.845 75.0683C289.826 75.0614 289.376 74.9022 288.986 75.1032C288.761 75.2192 288.604 75.4309 288.521 75.7322L288.474 75.9013L288.601 75.7809C288.619 75.7637 289.048 75.368 289.534 75.6874C289.804 75.8643 289.82 76.1747 289.752 76.3866C289.681 76.6066 289.48 76.8585 289.144 76.8498C289.14 76.8497 289.137 76.8494 289.134 76.8495C289.107 76.8488 289.085 76.8696 289.084 76.8964C289.082 76.9233 289.103 76.9461 289.13 76.9472C289.134 76.9472 289.137 76.9473 289.141 76.9474Z" fill="#FB554B"/>
<path d="M283.59 77.9065C283.611 77.9071 283.63 77.8947 283.638 77.8743C283.647 77.8489 283.633 77.821 283.608 77.8118L282.637 77.4626L283.006 75.1662C283.011 75.1395 282.993 75.1145 282.966 75.1102C282.939 75.1052 282.914 75.1241 282.91 75.1506L282.528 77.5271L283.575 77.9037C283.58 77.9055 283.585 77.9064 283.59 77.9065Z" fill="#FB554B"/>
<path d="M284.324 78.878C284.294 78.8714 282.391 78.7773 282.391 78.7773C282.391 78.7773 282.61 79.571 283.317 79.6079C284.024 79.6447 284.324 78.878 284.324 78.878Z" fill="#FBFDFA"/>
<path d="M290.056 74.6756C290.056 74.6756 290.739 71.267 289.723 69.9635C288.708 68.66 282.748 66.2704 282.002 66.8897C281.256 67.5089 281.966 68.3028 281.966 68.3028C281.966 68.3028 279.569 67.4652 278.967 69.5934C278.364 71.7217 283.538 72.768 286.664 71.8456C286.664 71.8456 288.699 72.4967 290.056 74.6756Z" fill="#2F0E1B"/>
<path d="M285.983 93.405C285.939 93.405 285.893 93.4049 285.848 93.4042C285.194 93.3994 284.533 93.3551 283.89 93.2723C283.73 93.2531 283.56 93.229 283.374 93.1992C279.234 92.5401 275.534 90.3408 272.955 87.0062C270.71 84.1044 269.523 80.6262 269.523 76.948C269.523 72.5519 271.236 68.4191 274.344 65.3106C277.453 62.2022 281.587 60.4902 285.984 60.4902C290.38 60.4902 294.513 62.2022 297.622 65.3106C300.731 68.4191 302.443 72.5519 302.443 76.9479C302.443 80.7232 301.199 84.274 298.846 87.2166C296.17 90.5632 292.369 92.7107 288.142 93.2634C287.438 93.3573 286.711 93.405 285.983 93.405ZM285.983 61.6036C277.521 61.6036 270.637 68.4871 270.637 76.948C270.637 80.3774 271.743 83.62 273.835 86.3251C276.24 89.4347 279.69 91.4854 283.55 92.0998C283.722 92.1273 283.878 92.1495 284.028 92.1676C284.631 92.2451 285.247 92.2865 285.863 92.291C285.908 92.2918 285.945 92.2918 285.984 92.2918C286.662 92.2918 287.34 92.2475 287.997 92.16C291.937 91.6446 295.481 89.6422 297.976 86.5216C300.17 83.7786 301.33 80.468 301.33 76.9481C301.329 68.4871 294.445 61.6036 285.983 61.6036Z" fill="white"/>
<path d="M193.695 57.6328L193.172 56.695L197.745 54.1451L198.268 55.0828L193.695 57.6328ZM202.84 52.533L202.317 51.5952L206.89 49.0453L207.413 49.983L202.84 52.533ZM211.985 47.4332L211.462 46.4954L216.035 43.9455L216.558 44.8832L211.985 47.4332ZM221.13 42.3333L220.607 41.3955L225.18 38.8457L225.703 39.7836L221.13 42.3333Z" fill="white"/>
<path d="M276.283 63.884L273.48 60.119L274.342 59.4778L277.144 63.2428L276.283 63.884ZM270.354 55.9195L267.228 51.72L268.09 51.0789L271.216 55.2784L270.354 55.9195ZM264.102 47.5206L260.976 43.3213L261.838 42.6801L264.964 46.8795L264.102 47.5206ZM257.85 39.1218L254.724 34.9224L255.586 34.2812L258.712 38.4806L257.85 39.1218Z" fill="white"/>
<path d="M254.607 107.912L253.909 107.096L257.892 103.698L258.589 104.514L254.607 107.912ZM262.572 101.116L261.875 100.3L265.858 96.9015L266.555 97.7184L262.572 101.116ZM270.538 94.3204L269.841 93.5035L273.823 90.1055L274.52 90.9223L270.538 94.3204Z" fill="white"/>
<path d="M269.596 75.2409L266.935 74.8464L267.093 73.7842L269.754 74.1787L269.596 75.2409ZM261.756 74.0785L256.577 73.3105L256.735 72.2483L261.914 73.0163L261.756 74.0785ZM251.398 72.5426L246.219 71.7747L246.377 70.7125L251.556 71.4804L251.398 72.5426ZM241.04 71.0067L235.861 70.2387L236.019 69.1765L241.198 69.9444L241.04 71.0067ZM230.682 69.471L225.503 68.7031L225.661 67.6409L230.84 68.4089L230.682 69.471ZM220.324 67.9351L215.145 67.1672L215.302 66.105L220.481 66.8729L220.324 67.9351ZM209.966 66.3993L204.787 65.6313L204.945 64.5691L210.124 65.3371L209.966 66.3993ZM199.608 64.8634L194.429 64.0954L194.586 63.0332L199.765 63.8012L199.608 64.8634Z" fill="white"/>
<path d="M314.984 129.999C314.984 133.583 313.603 136.844 311.345 139.28C311.313 139.314 311.281 139.348 311.249 139.381C311.215 139.418 311.181 139.453 311.146 139.489C308.664 142.056 305.183 143.652 301.33 143.652C299.223 143.652 297.228 143.175 295.447 142.324C293.774 141.524 292.29 140.394 291.079 139.018C290.795 138.697 290.527 138.363 290.275 138.016C288.64 135.764 287.675 132.994 287.675 129.998C287.675 122.458 293.788 116.346 301.33 116.346C308.871 116.346 314.984 122.458 314.984 129.999Z" fill="#52B6C6"/>
<path d="M298.557 136.365C298.557 136.365 298.454 136.561 298.275 136.905C298.209 137.03 298.133 137.175 298.048 137.337C297.758 137.891 297.364 138.646 296.912 139.512C296.873 139.587 296.834 139.662 296.794 139.739C296.376 140.54 295.915 141.424 295.447 142.324C293.775 141.524 292.29 140.394 291.079 139.019C290.795 138.698 290.527 138.364 290.275 138.016C290.446 137.85 290.63 137.71 290.829 137.597C292.846 136.455 296.646 136.354 298.033 136.357C298.363 136.358 298.557 136.365 298.557 136.365Z" fill="#DCF4FF"/>
<path d="M291.079 139.019C291.72 138.089 292.513 137.445 293.493 137.309C294.567 137.161 296.277 137.028 298.024 136.92C298.107 136.915 298.191 136.91 298.274 136.905C300.759 136.755 303.258 136.653 304.052 136.623C304.219 136.617 304.311 136.613 304.311 136.613C304.311 136.613 304.333 136.619 304.371 136.629C304.587 136.685 305.301 136.863 305.019 136.733C307.831 137.229 309.83 138.241 311.249 139.381C311.215 139.418 311.181 139.453 311.146 139.489C308.664 142.056 305.184 143.652 301.33 143.652C299.223 143.652 297.228 143.175 295.447 142.324C293.774 141.524 292.29 140.394 291.079 139.019Z" fill="#DCF4FF"/>
<path d="M301.529 142.053C301.64 142.065 301.754 142.074 301.869 142.082C301.935 142.087 301.992 142.037 301.997 141.971C302.001 141.906 301.954 141.849 301.886 141.844C296.929 141.496 296.008 137.868 296.001 137.831C295.989 137.767 295.928 137.723 295.864 137.734C295.8 137.745 295.756 137.803 295.765 137.868C295.77 137.905 296.685 141.552 301.529 142.053Z" fill="#0D060E"/>
<path d="M304.349 136.481C307.604 136.937 309.835 138.068 311.345 139.28C311.313 139.314 311.281 139.348 311.249 139.381C311.215 139.418 311.181 139.453 311.146 139.489C309.684 138.322 307.53 137.23 304.393 136.778C304.321 136.767 304.248 136.757 304.175 136.747C304.109 136.738 304.059 136.686 304.052 136.623C304.05 136.611 304.05 136.599 304.051 136.586C304.062 136.507 304.135 136.452 304.213 136.462C304.259 136.468 304.304 136.474 304.349 136.481Z" fill="#0D060E"/>
<path d="M301.242 140.135C299.421 140.156 297.953 138.127 298.023 135.685L298.205 132.199L303.955 132.17L304.225 135.71C304.394 138.194 303.1 140.113 301.242 140.135Z" fill="#FE9F73"/>
<path d="M298.135 134.625C299.165 137.123 303.654 136.895 304.109 134.429L303.956 132.17L298.205 132.199L298.135 134.625Z" fill="#F07162"/>
<path d="M304.556 128.463C304.561 129.337 305.273 130.042 306.147 130.037C307.021 130.033 307.726 129.321 307.721 128.447C307.717 127.573 307.005 126.869 306.131 126.873C305.257 126.877 304.552 127.589 304.556 128.463Z" fill="#FE9F73"/>
<path d="M306.261 129.431C306.593 129.43 306.813 129.179 306.885 128.929C306.97 128.634 306.869 128.348 306.629 128.2C306.286 127.99 305.977 128.115 305.808 128.222C305.876 128.054 305.979 127.93 306.116 127.854C306.425 127.682 306.808 127.804 306.812 127.806C306.839 127.814 306.867 127.8 306.876 127.773C306.885 127.747 306.87 127.718 306.844 127.709C306.826 127.703 306.414 127.572 306.067 127.765C305.866 127.877 305.73 128.073 305.663 128.348L305.62 128.524L305.748 128.396C305.764 128.38 306.135 128.016 306.576 128.287C306.82 128.436 306.843 128.711 306.788 128.901C306.731 129.101 306.556 129.332 306.252 129.33C306.225 129.329 306.202 129.352 306.201 129.38C306.201 129.408 306.224 129.431 306.252 129.431C306.254 129.431 306.258 129.431 306.261 129.431Z" fill="#F07162"/>
<path d="M305.722 127.353C306.389 118.877 293.173 115.34 296.461 130.051C298.152 136.41 306.022 135.619 305.722 127.353Z" fill="#FE9F73"/>
<path d="M297.113 128.502C297.118 129.376 296.413 130.088 295.539 130.092C294.665 130.097 293.953 129.392 293.949 128.518C293.944 127.644 294.649 126.932 295.523 126.928C296.397 126.923 297.109 127.628 297.113 128.502Z" fill="#FE9F73"/>
<path d="M295.418 129.488C295.086 129.489 294.863 129.241 294.789 128.992C294.701 128.698 294.799 128.41 295.038 128.26C295.378 128.047 295.689 128.169 295.859 128.274C295.79 128.106 295.685 127.983 295.547 127.908C295.236 127.74 294.854 127.866 294.851 127.867C294.824 127.876 294.795 127.862 294.786 127.836C294.777 127.809 294.792 127.78 294.818 127.771C294.835 127.765 295.246 127.63 295.596 127.819C295.797 127.929 295.935 128.123 296.005 128.398L296.05 128.574L295.921 128.447C295.905 128.431 295.53 128.071 295.092 128.346C294.849 128.498 294.829 128.774 294.886 128.963C294.945 129.162 295.122 129.391 295.426 129.386C295.453 129.385 295.477 129.408 295.478 129.436C295.478 129.464 295.456 129.487 295.428 129.488C295.425 129.487 295.422 129.488 295.418 129.488Z" fill="#F07162"/>
<path d="M299.439 127.484C299.44 127.662 299.296 127.807 299.118 127.808C298.939 127.809 298.794 127.665 298.793 127.487C298.792 127.308 298.936 127.163 299.114 127.162C299.293 127.161 299.438 127.305 299.439 127.484Z" fill="#010103"/>
<path d="M302.772 127.528C302.773 127.706 302.918 127.85 303.097 127.849C303.275 127.848 303.419 127.703 303.418 127.524C303.417 127.346 303.272 127.202 303.093 127.203C302.915 127.204 302.771 127.349 302.772 127.528Z" fill="#010103"/>
<path d="M304.426 126.96C304.366 126.96 304.305 126.94 304.255 126.898C303.496 126.261 302.402 126.622 302.391 126.626C302.254 126.672 302.104 126.599 302.057 126.462C302.01 126.325 302.083 126.176 302.22 126.129C302.276 126.109 303.603 125.664 304.594 126.496C304.705 126.589 304.719 126.755 304.626 126.866C304.574 126.928 304.5 126.96 304.426 126.96Z" fill="#2D0F28"/>
<path d="M297.839 126.969C297.762 126.969 297.686 126.936 297.634 126.872C297.542 126.76 297.558 126.594 297.671 126.502C298.673 125.685 299.994 126.148 300.05 126.168C300.186 126.218 300.257 126.369 300.208 126.505C300.158 126.642 300.007 126.712 299.872 126.663C299.861 126.659 298.772 126.283 298.004 126.91C297.955 126.949 297.897 126.969 297.839 126.969Z" fill="#2D0F28"/>
<path d="M300.192 130.9C300.222 130.894 302.149 130.842 302.149 130.842C302.149 130.842 301.91 131.64 301.194 131.661C300.478 131.682 300.192 130.9 300.192 130.9Z" fill="#FBFDFA"/>
<path d="M305.745 121.033C304.644 119.033 297.346 118.102 295.771 120.963C295.431 121.578 295.485 126.586 295.742 126.998C295.998 127.41 296.571 127.581 296.571 127.581C296.571 127.581 296.617 123.512 296.856 122.977C297.095 122.442 298.487 121.354 299.519 122.252C300.059 122.721 300.45 122.791 300.702 122.752C300.944 122.827 301.366 122.812 301.983 122.285C303.024 121.397 304.405 122.5 304.639 123.037C304.872 123.574 304.878 127.644 304.878 127.644C304.878 127.644 305.453 127.479 305.713 127.069C305.974 126.659 306.083 121.649 305.745 121.033Z" fill="#2D0F28"/>
<path d="M301.816 129.413C301.836 129.411 301.854 129.397 301.859 129.376C301.866 129.35 301.85 129.324 301.824 129.317L300.826 129.074L300.95 126.762C300.952 126.735 300.931 126.713 300.904 126.711C300.877 126.709 300.855 126.73 300.853 126.757L300.725 129.149L301.801 129.412C301.806 129.413 301.811 129.413 301.816 129.413Z" fill="#F07162"/>
<path d="M303.39 130.983C303.378 130.363 302.971 129.808 302.372 129.645C301.807 129.492 301.118 129.512 300.519 129.562C298.002 129.445 298.901 134.437 300.708 134.661C303.44 135.028 303.424 132.777 303.39 130.983ZM299.806 130.614C299.988 130.25 301.544 130.136 302.337 130.401C302.567 130.478 302.73 130.686 302.744 130.928C302.8 131.877 302.203 133.755 301.473 132.048L300.977 132.065C300.307 134.366 299.41 131.199 299.806 130.614Z" fill="#2D0F28"/>
<path d="M301.164 144.501C301.125 144.501 301.085 144.501 301.045 144.5C300.468 144.496 299.886 144.457 299.32 144.384C299.179 144.367 299.029 144.346 298.865 144.32C295.217 143.739 291.956 141.801 289.684 138.863C287.706 136.306 286.66 133.241 286.66 130C286.66 126.126 288.169 122.485 290.908 119.745C293.648 117.006 297.29 115.498 301.164 115.498C305.038 115.498 308.68 117.006 311.419 119.746C314.159 122.485 315.667 126.126 315.667 130C315.667 133.327 314.571 136.455 312.498 139.048C310.14 141.997 306.79 143.889 303.066 144.376C302.446 144.459 301.806 144.501 301.164 144.501ZM301.164 116.479C293.708 116.479 287.641 122.544 287.641 130C287.641 133.022 288.616 135.879 290.46 138.263C292.579 141.003 295.619 142.81 299.02 143.351C299.171 143.375 299.309 143.395 299.441 143.411C299.972 143.479 300.515 143.515 301.058 143.519C301.097 143.52 301.131 143.52 301.164 143.52C301.762 143.52 302.359 143.481 302.938 143.404C306.41 142.95 309.533 141.185 311.732 138.436C313.665 136.018 314.686 133.101 314.686 130C314.686 122.544 308.62 116.479 301.164 116.479Z" fill="white"/>
<path d="M286.639 130.537L282.796 130.386L282.839 129.313L286.681 129.464L286.639 130.537ZM277.565 130.18L272.333 129.974L272.375 128.901L277.607 129.107L277.565 130.18ZM267.101 129.768L261.87 129.563L261.912 128.49L267.144 128.695L267.101 129.768ZM256.638 129.357L251.407 129.151L251.449 128.078L256.68 128.284L256.638 129.357Z" fill="white"/>
<path d="M298.266 115.947L297.364 111.248L298.419 111.046L299.32 115.745L298.266 115.947ZM296.379 106.106L295.393 100.965L296.448 100.763L297.434 105.904L296.379 106.106ZM294.407 95.8238L293.421 90.6825L294.476 90.4805L295.462 95.6217L294.407 95.8238Z" fill="white"/>
<path d="M87.8412 199.989C86.3705 198.519 74.8985 177.931 66.9563 188.519C66.9563 188.519 53.9768 158.667 37.541 164.513C37.541 164.513 27.0618 170.578 34.6729 185.688C34.6729 185.688 9.30223 184.071 9.63309 199.989H87.8412Z" fill="#7FC6A6"/>
<path d="M49.8827 170.151C49.9334 170.151 49.9834 170.129 50.0171 170.086C50.0754 170.012 50.0626 169.905 49.9885 169.846C49.8188 169.713 45.7903 166.572 42.1082 166.13C42.0139 166.119 41.9295 166.186 41.9182 166.279C41.907 166.373 41.9739 166.458 42.0675 166.469C45.6536 166.899 49.7365 170.083 49.7773 170.115C49.8086 170.14 49.8459 170.151 49.8827 170.151Z" fill="#7FC6A6"/>
<path d="M49.8824 172.131C49.9321 172.131 49.9816 172.11 50.0152 172.068C50.0746 171.995 50.0633 171.887 49.9901 171.828C49.9626 171.806 47.2019 169.589 43.6797 168.562C43.5895 168.535 43.4942 168.587 43.4678 168.678C43.4414 168.768 43.4935 168.863 43.5841 168.889C47.0381 169.897 49.7481 172.072 49.7752 172.093C49.8066 172.119 49.8446 172.131 49.8824 172.131Z" fill="#7FC6A6"/>
<path d="M322.431 199.836H3.57666V200.578H322.431V199.836Z" fill="#223749"/>
<path d="M192.211 168.444C196.754 163.901 196.754 156.536 192.211 151.994C187.668 147.452 180.302 147.452 175.759 151.994C171.216 156.536 171.216 163.901 175.759 168.444C180.302 172.986 187.668 172.986 192.211 168.444Z" fill="white"/>
<path d="M181.826 166.144L177.439 160.043C177.231 159.754 177.297 159.352 177.586 159.144C177.874 158.936 178.277 159.002 178.485 159.291L181.873 164.003L190.345 153.257C190.566 152.978 190.971 152.93 191.25 153.15C191.529 153.37 191.577 153.775 191.357 154.054L181.826 166.144Z" fill="#5AB3BF"/>
</svg>
