<svg width="350" height="195" viewBox="0 0 350 195" fill="none" xmlns="http://www.w3.org/2000/svg">
<g clip-path="url(#clip0_13240_194803)">
<path d="M166.481 177.477C119.982 153.815 119.722 162.835 76.7251 178.973C30.1452 196.455 1.37349 182.411 0.108075 156.855C-3.41934 85.6038 80.6303 122.163 72.329 66.9499C66.2133 26.2699 93.7261 7.81667 110.03 2.3338C139.481 -7.57114 192.706 9.85403 189.556 52.4641C187.967 73.9676 174.367 85.5601 201.088 94.8195C228.728 104.396 319.454 67.6779 319.454 135.242C319.454 202.132 198.554 193.797 166.481 177.477Z" fill="#E7F4FA"/>
<path d="M219.937 142.334C219.937 144.354 221.572 145.992 223.596 145.992H304.031C306.057 145.992 307.696 144.354 307.696 142.334V91.9981C307.696 89.9789 306.057 88.3416 304.031 88.3416H223.596C221.572 88.3416 219.937 89.9789 219.937 91.9981V142.334Z" fill="#D4E6ED"/>
<path d="M223.596 88.3428H304.031C306.057 88.3428 307.696 89.9801 307.696 91.9993V98.7891H219.937V91.9993C219.937 89.9801 221.572 88.3428 223.596 88.3428Z" fill="#BFD7F5"/>
<path d="M298.813 93.5989C298.813 94.5961 299.627 95.4102 300.634 95.4102C301.639 95.4102 302.453 94.5961 302.453 93.5989C302.453 92.5908 301.639 91.7816 300.634 91.7816C299.627 91.7816 298.813 92.5908 298.813 93.5989Z" fill="white"/>
<path d="M294.216 93.5989C294.216 94.5961 295.032 95.4102 296.04 95.4102C297.042 95.4102 297.859 94.5961 297.859 93.5989C297.859 92.5908 297.042 91.7816 296.04 91.7816C295.032 91.7816 294.216 92.5908 294.216 93.5989Z" fill="white"/>
<path d="M289.783 93.5989C289.783 94.5961 290.597 95.4102 291.604 95.4102C292.606 95.4102 293.42 94.5961 293.42 93.5989C293.42 92.5908 292.606 91.7816 291.604 91.7816C290.597 91.7816 289.783 92.5908 289.783 93.5989Z" fill="white"/>
<path d="M223.48 142.334C223.48 144.354 225.116 145.992 227.14 145.992H307.575C309.601 145.992 311.24 144.354 311.24 142.334V91.9981C311.24 89.9789 309.601 88.3416 307.575 88.3416H227.14C225.116 88.3416 223.48 89.9789 223.48 91.9981V142.334Z" fill="white"/>
<path d="M227.14 88.3428H307.575C309.601 88.3428 311.24 89.9801 311.24 91.9993V98.7891H223.48V91.9993C223.48 89.9801 225.116 88.3428 227.14 88.3428Z" fill="#C9E1F9"/>
<path d="M302.356 93.5989C302.356 94.5961 303.17 95.4102 304.178 95.4102C305.182 95.4102 305.996 94.5961 305.996 93.5989C305.996 92.5908 305.182 91.7816 304.178 91.7816C303.17 91.7816 302.356 92.5908 302.356 93.5989Z" fill="#969924"/>
<path d="M297.76 93.5989C297.76 94.5961 298.576 95.4102 299.584 95.4102C300.586 95.4102 301.402 94.5961 301.402 93.5989C301.402 92.5908 300.586 91.7816 299.584 91.7816C298.576 91.7816 297.76 92.5908 297.76 93.5989Z" fill="#FEC000"/>
<path d="M293.326 93.5989C293.326 94.5961 294.14 95.4102 295.148 95.4102C296.149 95.4102 296.964 94.5961 296.964 93.5989C296.964 92.5908 296.149 91.7816 295.148 91.7816C294.14 91.7816 293.326 92.5908 293.326 93.5989Z" fill="#DC4026"/>
<path d="M94.6978 174.511C94.6978 174.511 91.1437 70.3718 53.1713 63.8257C15.1988 57.2796 31.0997 128.809 79.2761 176.721L94.6978 174.511Z" fill="#20997C"/>
<path d="M93.7357 181.127C74.5947 162.708 53.5899 87.0937 53.3027 86.1408L54.0122 86.0068C54.2981 86.9634 75.2464 162.396 94.2465 180.682L93.7357 181.127Z" fill="#178369"/>
<path d="M66.718 128.973C64.4097 128.916 61.6756 127.42 58.5625 124.507L59.0684 124.053C62.6214 127.373 65.5851 128.756 67.8721 128.161C71.6504 127.174 72.4528 121.091 72.4631 121.033L73.1957 121.16C73.1599 121.428 72.3204 127.72 68.1224 128.814C67.6753 128.933 67.2088 128.985 66.718 128.973Z" fill="#178369"/>
<path d="M59.2573 106.908C56.9491 106.851 54.2151 105.359 51.0977 102.447L51.605 101.988C55.1611 105.321 58.1252 106.7 60.4074 106.1C64.1861 105.117 64.9946 99.0315 65.0019 98.9685L65.7326 99.0994C65.7016 99.3722 64.8622 105.663 60.6613 106.758C60.2118 106.872 59.7437 106.921 59.2573 106.908Z" fill="#178369"/>
<path d="M54.6629 94.1253C52.3542 94.0683 49.619 92.5644 46.5068 89.656L47.0096 89.1977C50.5627 92.5244 53.5317 93.9041 55.8142 93.3094C59.5929 92.322 60.3994 86.2353 60.4041 86.1771L61.1355 86.3123C61.1033 86.576 60.267 92.8639 56.0664 93.9629C55.6174 94.0817 55.1529 94.1374 54.6629 94.1253Z" fill="#178369"/>
<path d="M63.4147 118.971C61.4861 118.924 59.2052 117.674 56.6094 115.253L57.1171 114.799C60.0404 117.53 62.4811 118.679 64.349 118.183C67.4342 117.379 68.1078 112.371 68.1133 112.321L68.841 112.451C68.8167 112.674 68.1175 117.922 64.6011 118.837C64.2239 118.941 63.826 118.981 63.4147 118.971Z" fill="#178369"/>
<path d="M70.6812 139.92C68.373 139.863 65.6389 138.363 62.5264 135.454L63.0312 134.992C66.5804 138.322 69.5441 139.699 71.8311 139.104C75.607 138.12 76.4185 132.034 76.4233 131.972L77.1565 132.107C77.1255 132.375 76.2861 138.662 72.0875 139.761C71.6386 139.88 71.1678 139.932 70.6812 139.92Z" fill="#178369"/>
<path d="M74.3146 152.78C72.0082 152.723 69.2692 151.227 66.1543 148.318L66.6597 147.86C70.2156 151.183 73.1836 152.566 75.4639 151.967C79.2428 150.984 80.047 144.902 80.0567 144.839L80.7875 144.971C80.7577 145.23 79.9189 151.526 75.7178 152.621C75.2689 152.74 74.8006 152.791 74.3146 152.78Z" fill="#178369"/>
<path d="M78.8788 162.194C77.2102 162.154 75.2396 161.075 73.0049 158.982L73.5127 158.528C76.0008 160.863 78.0727 161.83 79.6515 161.423C82.2744 160.739 82.8387 156.471 82.8448 156.429L83.578 156.565C83.5555 156.754 82.9511 161.282 79.9078 162.077C79.581 162.157 79.2336 162.203 78.8788 162.194Z" fill="#178369"/>
<path d="M82.0446 180.881C79.938 136.238 48.2448 116.19 47.9259 115.991L46.9922 117.496C47.304 117.69 78.2129 137.284 80.2733 180.965L82.0446 180.881Z" fill="#59B45A"/>
<path d="M50.5717 118.98C50.9157 118.973 47.0066 109.819 43.0536 111.071C39.1006 112.323 44.363 119.114 50.5717 118.98Z" fill="#59B45A"/>
<path d="M56.0006 123.44C56.2714 123.652 59.0692 114.102 55.2174 112.567C51.3657 111.032 51.1167 119.612 56.0006 123.44Z" fill="#59B45A"/>
<path d="M62.8717 130.826C63.0861 131.094 68.0136 122.445 64.6199 120.066C61.2267 117.686 59.0031 125.978 62.8717 130.826Z" fill="#59B45A"/>
<path d="M68.8922 138.783C69.1061 139.051 74.0342 130.402 70.6411 128.022C67.2473 125.643 65.0235 133.935 68.8922 138.783Z" fill="#59B45A"/>
<path d="M73.2406 147.395C73.39 147.704 80.1119 140.355 77.3292 137.286C74.5472 134.217 70.5417 141.813 73.2406 147.395Z" fill="#59B45A"/>
<path d="M77.2328 156.664C77.3829 156.974 84.1042 149.625 81.3221 146.555C78.5388 143.487 74.534 151.083 77.2328 156.664Z" fill="#59B45A"/>
<path d="M79.2357 164.8C79.3116 165.135 87.5157 159.481 85.4947 155.866C83.4738 152.252 77.8611 158.757 79.2357 164.8Z" fill="#59B45A"/>
<path d="M57.3286 124.514C57.5432 124.782 47.9914 127.637 46.4282 123.804C44.8643 119.971 53.4612 119.665 57.3286 124.514Z" fill="#59B45A"/>
<path d="M64.3274 133.209C64.5576 133.464 55.1965 136.89 53.4035 133.158C51.6107 129.425 60.1734 128.602 64.3274 133.209Z" fill="#59B45A"/>
<path d="M69.7732 140.73C69.987 140.999 60.4358 143.853 58.8726 140.021C57.3084 136.187 65.905 135.882 69.7732 140.73Z" fill="#59B45A"/>
<path d="M74.8534 150.751C75.0314 151.045 65.1927 152.663 64.1315 148.662C63.0697 144.661 71.6352 145.451 74.8534 150.751Z" fill="#59B45A"/>
<path d="M78.0221 159.797C78.1794 160.103 68.2514 161.023 67.4757 156.958C66.6994 152.892 75.1878 154.284 78.0221 159.797Z" fill="#59B45A"/>
<path d="M78.3451 171.24C78.3451 171.24 55.8478 120.24 35.691 124.519C15.5345 128.797 37.6702 161.158 71.1281 175.395L78.3451 171.24Z" fill="#178369"/>
<path d="M84.8402 179.559C69.4696 173.315 40.656 134.834 40.2676 134.349L40.6482 134.107C41.0362 134.596 69.7745 172.983 85.0322 179.182L84.8402 179.559Z" fill="#116851"/>
<path d="M57.994 156.064C56.6429 156.565 54.7112 156.331 52.2305 155.363L52.4179 154.984C55.2484 156.085 57.2869 156.2 58.4738 155.326C60.4342 153.881 59.4853 150.17 59.4777 150.134L59.9316 150.038C59.9737 150.202 60.949 154.042 58.7701 155.647C58.539 155.82 58.2811 155.957 57.994 156.064Z" fill="#116851"/>
<path d="M48.5438 145.007C47.1927 145.508 45.262 145.276 42.7793 144.31L42.9668 143.926C45.8013 145.034 47.8393 145.147 49.0224 144.273C50.9831 142.829 50.0379 139.115 50.0275 139.077L50.4812 138.983C50.5265 139.149 51.502 142.988 49.3223 144.594C49.0886 144.765 48.828 144.902 48.5438 145.007Z" fill="#116851"/>
<path d="M42.9103 138.663C41.5599 139.164 39.6256 138.925 37.1465 137.96L37.3313 137.578C40.1633 138.684 42.2039 138.796 43.3882 137.923C45.3484 136.477 44.4011 132.763 44.3909 132.73L44.8455 132.638C44.8882 132.799 45.8649 136.635 43.6859 138.243C43.4534 138.417 43.1971 138.556 42.9103 138.663Z" fill="#116851"/>
<path d="M53.7553 151.034C52.6265 151.453 51.0144 151.256 48.9482 150.454L49.1366 150.073C51.4653 150.98 53.1462 151.08 54.1138 150.361C55.714 149.181 54.9407 146.124 54.9327 146.093L55.3847 146.001C55.422 146.135 56.2368 149.338 54.4111 150.682C54.2163 150.829 53.9961 150.944 53.7553 151.034Z" fill="#116851"/>
<path d="M62.8331 161.488C61.4821 161.99 59.5491 161.753 57.0703 160.788L57.2553 160.403C60.0854 161.512 62.123 161.624 63.3093 160.749C65.2689 159.306 64.3249 155.591 64.3134 155.554L64.7696 155.463C64.8139 155.626 65.7877 159.463 63.6106 161.071C63.3786 161.244 63.1174 161.383 62.8331 161.488Z" fill="#116851"/>
<path d="M67.9257 168.101C66.576 168.602 64.6419 168.369 62.1611 167.403L62.347 167.022C65.1795 168.124 67.2211 168.24 68.4032 167.364C70.364 165.92 69.417 162.21 69.4079 162.172L69.8622 162.079C69.9054 162.235 70.8821 166.078 68.702 167.684C68.47 167.858 68.21 167.995 67.9257 168.101Z" fill="#116851"/>
<path d="M72.7578 172.5C71.7817 172.863 70.3894 172.693 68.6084 171.998L68.7967 171.618C70.7818 172.395 72.2069 172.476 73.0269 171.874C74.3876 170.871 73.7224 168.268 73.717 168.242L74.1731 168.151C74.2041 168.266 74.9057 171.029 73.327 172.193C73.1563 172.316 72.9656 172.423 72.7578 172.5Z" fill="#116851"/>
<path d="M350.001 187.92C350.001 191.526 274.825 194.449 182.091 194.449C89.3554 194.449 14.1797 191.526 14.1797 187.92C14.1797 184.313 89.3554 181.39 182.091 181.39C274.825 181.39 350.001 184.313 350.001 187.92Z" fill="#CDE1E8"/>
<path d="M270.203 173.584C270.203 177.463 266.806 180.609 262.628 180.609H89.6968C85.5103 180.609 82.1172 177.463 82.1172 173.584V72.1679C82.1172 68.289 85.5103 65.1393 89.6968 65.1393H262.628C266.806 65.1393 270.203 68.289 270.203 72.1679V173.584Z" fill="#142480"/>
<path d="M262.629 181.199H89.6976C85.1917 181.199 81.5264 177.782 81.5264 173.584V72.1675C81.5264 67.9654 85.1917 64.5478 89.6976 64.5478H262.629C267.13 64.5478 270.796 67.9654 270.796 72.1675V173.584C270.796 177.782 267.13 181.199 262.629 181.199Z" fill="#2537A2"/>
<path d="M274.165 173.584C274.165 177.463 270.768 180.609 266.59 180.609H93.6587C89.471 180.609 86.0791 177.463 86.0791 173.584V72.1679C86.0791 68.289 89.471 65.1393 93.6587 65.1393H266.59C270.768 65.1393 274.165 68.289 274.165 72.1679V173.584Z" fill="#4D6AC4"/>
<path d="M266.59 181.199H93.6586C89.1526 181.199 85.4873 177.782 85.4873 173.584V72.1675C85.4873 67.9654 89.1526 64.5478 93.6586 64.5478H266.59C271.091 64.5478 274.756 67.9654 274.756 72.1675V173.584C274.756 177.782 271.091 181.199 266.59 181.199Z" fill="#4D6AC4"/>
<path d="M267.611 174.719H91.0957V72.5029H267.611V174.719Z" fill="#C5E1EA"/>
<path d="M264.857 174.719H91.0957V72.5029H264.857V174.719Z" fill="#E7F4FA"/>
<path d="M289.884 185.521H67.9629V174.221H289.884V185.521Z" fill="#4D6AC4"/>
<path d="M290.489 186.111H67.3564V173.63H290.489V186.111Z" fill="#4D6AC4"/>
<path d="M106.757 136.947C106.757 140.259 109.437 142.943 112.755 142.943H244.618C247.94 142.943 250.626 140.259 250.626 136.947V54.4282C250.626 51.1178 247.94 48.4324 244.618 48.4324H112.755C109.437 48.4324 106.757 51.1178 106.757 54.4282V136.947Z" fill="#C5E1EA"/>
<path d="M112.755 48.4329H244.618C247.94 48.4329 250.626 51.1183 250.626 54.4286V65.5586H106.757V54.4286C106.757 51.1183 109.437 48.4329 112.755 48.4329Z" fill="#B7D9F7"/>
<path d="M236.063 57.0557C236.063 58.69 237.397 60.0254 239.049 60.0254C240.695 60.0254 242.03 58.69 242.03 57.0557C242.03 55.4027 240.695 54.0764 239.049 54.0764C237.397 54.0764 236.063 55.4027 236.063 57.0557Z" fill="white"/>
<path d="M228.527 57.0557C228.527 58.69 229.866 60.0254 231.518 60.0254C233.161 60.0254 234.5 58.69 234.5 57.0557C234.5 55.4027 233.161 54.0764 231.518 54.0764C229.866 54.0764 228.527 55.4027 228.527 57.0557Z" fill="white"/>
<path d="M221.26 57.0557C221.26 58.69 222.593 60.0254 224.246 60.0254C225.888 60.0254 227.223 58.69 227.223 57.0557C227.223 55.4027 225.888 54.0764 224.246 54.0764C222.593 54.0764 221.26 55.4027 221.26 57.0557Z" fill="white"/>
<path d="M112.565 136.947C112.565 140.259 115.247 142.943 118.564 142.943H250.427C253.749 142.943 256.434 140.259 256.434 136.947V54.4282C256.434 51.1178 253.749 48.4324 250.427 48.4324H118.564C115.247 48.4324 112.565 51.1178 112.565 54.4282V136.947Z" fill="white"/>
<path d="M118.564 48.4329H250.427C253.749 48.4329 256.434 51.1183 256.434 54.4286V65.5586H112.565V54.4286C112.565 51.1183 115.247 48.4329 118.564 48.4329Z" fill="#C1E3FB"/>
<path d="M241.873 57.0557C241.873 58.69 243.206 60.0254 244.859 60.0254C246.505 60.0254 247.839 58.69 247.839 57.0557C247.839 55.4027 246.505 54.0764 244.859 54.0764C243.206 54.0764 241.873 55.4027 241.873 57.0557Z" fill="white"/>
<path d="M234.336 57.0557C234.336 58.69 235.675 60.0254 237.327 60.0254C238.969 60.0254 240.308 58.69 240.308 57.0557C240.308 55.4027 238.969 54.0764 237.327 54.0764C235.675 54.0764 234.336 55.4027 234.336 57.0557Z" fill="white"/>
<path d="M227.07 57.0557C227.07 58.69 228.403 60.0254 230.055 60.0254C231.698 60.0254 233.032 58.69 233.032 57.0557C233.032 55.4027 231.698 54.0764 230.055 54.0764C228.403 54.0764 227.07 55.4027 227.07 57.0557Z" fill="white"/>
<path d="M99.7841 53.9473H72.3734C69.5725 53.9473 67.2812 51.6608 67.2812 48.8663V43.9744C67.2812 41.1794 69.5725 38.8923 72.3734 38.8923H99.7841C102.585 38.8923 104.876 41.1794 104.876 43.9744V48.8663C104.876 51.6608 102.585 53.9473 99.7841 53.9473Z" fill="#FEB801"/>
<path d="M79.5547 53.2319V57.9746L86.7395 53.2319H79.5547Z" fill="#FEB801"/>
<path d="M80.4274 46.6729C80.4274 47.9392 79.3996 48.9648 78.1313 48.9648C76.8624 48.9648 75.834 47.9392 75.834 46.6729C75.834 45.4072 76.8624 44.3809 78.1313 44.3809C79.3996 44.3809 80.4274 45.4072 80.4274 46.6729Z" fill="#E08B03"/>
<path d="M88.0316 46.6729C88.0316 47.9392 87.0032 48.9648 85.7348 48.9648C84.4659 48.9648 83.4375 47.9392 83.4375 46.6729C83.4375 45.4072 84.4659 44.3809 85.7348 44.3809C87.0032 44.3809 88.0316 45.4072 88.0316 46.6729Z" fill="#E08B03"/>
<path d="M95.636 46.6729C95.636 47.9392 94.6077 48.9648 93.3387 48.9648C92.0704 48.9648 91.042 47.9392 91.042 46.6729C91.042 45.4072 92.0704 44.3809 93.3387 44.3809C94.6077 44.3809 95.636 45.4072 95.636 46.6729Z" fill="#E08B03"/>
<path d="M243.801 36.3027H218.903C215.412 36.3027 212.557 33.4525 212.557 29.9688V27.5829C212.557 24.0992 215.412 21.2489 218.903 21.2489H243.801C247.292 21.2489 250.148 24.0992 250.148 27.5829V29.9688C250.148 33.4525 247.292 36.3027 243.801 36.3027Z" fill="#2F2E6A"/>
<path d="M224.828 35.5899V40.332L232.012 35.5899H224.828Z" fill="#2F2E6A"/>
<path d="M225.703 29.0323C225.703 30.298 224.674 31.3242 223.406 31.3242C222.138 31.3242 221.109 30.298 221.109 29.0323C221.109 27.7666 222.138 26.7403 223.406 26.7403C224.674 26.7403 225.703 27.7666 225.703 29.0323Z" fill="#F0F8FF"/>
<path d="M233.306 29.0323C233.306 30.298 232.278 31.3242 231.009 31.3242C229.741 31.3242 228.713 30.298 228.713 29.0323C228.713 27.7666 229.741 26.7403 231.009 26.7403C232.278 26.7403 233.306 27.7666 233.306 29.0323Z" fill="#F0F8FF"/>
<path d="M240.908 29.0323C240.908 30.298 239.879 31.3242 238.611 31.3242C237.343 31.3242 236.314 30.298 236.314 29.0323C236.314 27.7666 237.343 26.7403 238.611 26.7403C239.879 26.7403 240.908 27.7666 240.908 29.0323Z" fill="#F0F8FF"/>
<path d="M43.5565 178.15C46.6056 178.15 49.1003 175.661 49.1003 172.618V165.636C49.1003 162.593 46.6056 160.104 43.5565 160.104C40.5074 160.104 38.0127 162.593 38.0127 165.636V172.618C38.0127 175.661 40.5074 178.15 43.5565 178.15Z" fill="#5FB7FF"/>
<path d="M44.6822 175.133H46.8315C49.0823 175.133 50.9239 173.295 50.9239 171.049V167.203C50.9239 164.957 49.0823 163.119 46.8315 163.119H44.6822C42.4314 163.119 40.5898 164.957 40.5898 167.203V171.049C40.5898 173.295 42.4314 175.133 44.6822 175.133Z" fill="white"/>
<path d="M53.6635 188.477H68.945C73.5032 188.477 77.1983 184.789 77.1983 180.241V156.176C77.1983 154.013 75.4409 152.259 73.2742 152.259H49.3341C47.1667 152.259 45.4102 154.013 45.4102 156.175V180.241C45.4102 184.789 49.1053 188.477 53.6635 188.477Z" fill="#5FB7FF"/>
<path d="M31.7292 163.123L31.4357 153.399L21.0371 158.579L31.7292 163.123Z" fill="#FA8FB8"/>
<path d="M283.038 79.9578C283.038 79.9578 269.064 75.9534 265.502 82.8256C261.941 89.6978 267.094 95.822 258.291 95.996C249.488 96.1706 249.488 96.1706 249.488 96.1706L258.46 99.8325L249.231 104.352C249.231 104.352 262.503 107.955 268.116 104.318C273.729 100.681 270.05 88.6994 282.671 93.3185L283.038 79.9578Z" fill="#FC636B"/>
<path d="M249.231 104.352C249.231 104.352 262.503 107.955 268.116 104.318C273.729 100.681 270.05 88.6994 282.671 93.3185L282.917 84.3762C280.897 84.3016 278.558 84.2077 275.961 84.0913C267.128 83.6967 271.085 97.4351 263.81 100.324C261.422 101.272 258.46 99.8325 258.46 99.8325L249.231 104.352Z" fill="#EC3B59"/>
<path d="M291.662 143.654C291.662 143.654 297.96 140.524 299.171 137.078C300.381 133.634 297.858 132.031 297.858 132.031C297.858 132.031 293.203 139.178 289.517 140.614C285.832 142.051 291.662 143.654 291.662 143.654Z" fill="#FFBE9E"/>
<path d="M301.391 128.76C305.353 132.481 297.206 140.914 297.206 140.914L292.27 137.748C292.27 137.748 297.53 125.131 301.391 128.76Z" fill="#EC3B59"/>
<path d="M290.312 143.548C287.591 142.476 281.891 137.233 281.891 137.233L284.061 136.544L292.8 140.707C292.8 140.707 293.08 144.641 290.312 143.548Z" fill="#FFBE9E"/>
<path d="M284.462 136.47C284.418 136.226 284.519 135.938 284.537 135.695C284.572 135.212 284.449 134.742 284.319 134.282C284.247 134.026 284.398 133.402 284.079 133.274C283.558 133.064 283.589 134.17 283.511 134.408C283.438 134.628 283.251 134.836 283.02 134.828C282.867 134.823 282.734 134.726 282.618 134.627C282.247 134.313 281.93 133.942 281.594 133.592C281.42 133.41 281.235 133.241 281.05 133.071C280.911 132.944 280.776 132.718 280.612 132.632C280.482 132.564 280.283 132.604 280.24 132.763C280.202 132.905 280.329 132.974 280.403 133.072C280.573 133.295 280.735 133.522 280.895 133.749C280.931 133.8 281.124 134.005 281.105 134.071C281.011 134.389 280.487 133.845 280.4 133.764C280.182 133.557 279.945 133.349 279.635 133.3C279.594 133.294 279.548 133.292 279.518 133.321C279.47 133.365 279.498 133.444 279.531 133.5C279.728 133.828 280.039 134.077 280.228 134.41C280.259 134.463 280.286 134.533 280.253 134.585C280.119 134.796 279.704 134.514 279.56 134.434C279.469 134.383 279.351 134.328 279.269 134.393C279.216 134.436 279.206 134.516 279.227 134.58C279.249 134.645 279.294 134.698 279.339 134.749C279.471 134.899 279.597 135.068 279.747 135.201C279.819 135.265 280.05 135.435 279.985 135.551C279.973 135.573 279.946 135.586 279.921 135.591C279.829 135.612 279.736 135.565 279.646 135.535C279.558 135.503 279.445 135.49 279.38 135.559C279.299 135.643 279.35 135.784 279.416 135.881C279.651 136.23 280.012 136.496 280.336 136.758C280.682 137.039 281.042 137.304 281.412 137.553C281.905 137.882 282.417 138.182 282.945 138.45C283.406 138.685 283.95 138.922 284.479 138.798C284.629 138.763 284.77 138.698 284.906 138.629C285.087 138.54 285.266 138.441 285.411 138.301C285.556 138.161 285.664 137.974 285.672 137.773C285.673 137.745 285.672 137.717 285.661 137.692C285.645 137.661 285.614 137.64 285.585 137.622C285.357 137.479 285.119 137.348 284.915 137.173C284.715 137.002 284.542 136.773 284.462 136.47Z" fill="#FFBE9E"/>
<path d="M329.66 182.306C329.66 182.306 331.638 184.236 331.732 184.708C332.011 186.114 328.559 189.366 326.787 189.741C326.539 189.793 326.093 189.624 326.112 188.913C326.133 188.203 327.706 185.956 326.83 185.205C325.954 184.453 329.66 182.306 329.66 182.306Z" fill="#E8A32B"/>
<path d="M318.653 164.75C318.653 164.75 319.839 152.846 319.596 150.293C319.238 146.542 314.746 124.888 311.598 145.864C311.154 148.813 309.05 170.512 313.602 172.654C317.731 174.597 318.653 164.75 318.653 164.75Z" fill="#5B5196"/>
<path d="M325.043 186.171C321.399 183.056 311.473 172.11 311.05 168.412C310.595 164.414 316.037 164.406 319.487 168.432C321.723 171.041 329.176 179.979 331.028 182.542C331.477 183.165 330.14 184.725 329.154 185.417C329.13 185.434 326.095 187.072 325.043 186.171Z" fill="#5B5196"/>
<path d="M307.435 184.986C307.435 184.986 308.328 187.599 308.198 188.063C307.812 189.443 303.261 190.792 301.509 190.329C301.265 190.264 300.944 189.911 301.282 189.286C301.621 188.661 304.042 187.365 303.6 186.3C303.157 185.234 307.435 184.986 307.435 184.986Z" fill="#E8A32B"/>
<path d="M305.548 164.364C305.548 164.364 311.987 154.274 312.924 151.886C314.301 148.377 312.13 144.115 307.788 144.332C304.802 144.481 294.373 165.184 297.468 169.145C300.274 172.738 305.548 164.364 305.548 164.364Z" fill="#5F509B"/>
<path d="M301.568 186.356C299.723 181.935 295.813 167.699 297.107 164.208C298.507 160.435 303.368 162.877 304.627 168.023C305.444 171.358 308.057 182.69 308.55 185.812C308.67 186.569 306.772 187.36 305.579 187.534C305.549 187.538 302.1 187.634 301.568 186.356Z" fill="#5B5196"/>
<path d="M296.736 132.295C296.105 128.268 301.278 125.5 305.877 124.042C308.977 123.059 311.296 123.081 313.393 126.52C314.729 128.712 319.051 139.055 318.955 142.404C318.955 142.404 315.397 147.565 302.782 149.584C302.782 149.584 298.086 140.9 296.736 132.295Z" fill="#FC636B"/>
<path d="M303.128 119.626C303.128 119.626 299.188 122.738 299.61 122.977C300.034 123.215 299.962 124.15 300.297 124.857C300.658 125.624 300.549 126.679 300.25 127.781C300.04 128.552 301.202 128.778 302.023 128.55C305.558 127.566 307.005 125.355 305.805 124.647C303.108 123.054 303.128 119.626 303.128 119.626Z" fill="#FFBE9E"/>
<path d="M300.297 124.857C299.962 124.15 300.034 123.215 299.61 122.977C299.187 122.738 303.439 119.381 303.439 119.381C303.439 119.381 303.082 120.473 303.506 121.641C303.065 124.073 301.453 125.551 300.489 126.602C300.585 126.034 300.427 125.134 300.297 124.857Z" fill="#FF9C81"/>
<path d="M296.189 116.737C295.1 118.897 295.851 124.142 298.729 125.401C300.31 126.092 303.316 123.054 303.747 119.645C303.803 119.202 303.4 117.023 301.464 115.382C300.591 114.637 297.32 114.491 296.189 116.737Z" fill="#FFBE9E"/>
<path d="M295.942 121.279C296.081 121.555 294.983 118.355 296.578 117.317C297.226 116.895 297.429 117.697 298.258 117.362C298.966 117.076 300.337 114.697 301.555 119.146C301.613 119.36 301.912 119.499 302.088 119.63C302.306 119.791 302.203 120.456 302.328 120.696C302.449 120.928 302.798 119.863 302.9 120.103C303.054 120.467 302.927 121.756 303.505 121.641C303.785 121.585 303.889 121.04 304.005 120.817C304.33 120.188 304.772 119.646 304.966 118.949C305.18 118.182 305.102 117.356 304.877 116.592C304.654 115.836 304.275 115.104 303.671 114.596C303.041 114.066 302.181 113.816 301.365 113.927C300.883 113.992 300.406 114.211 299.917 114.212C299.485 114.212 299.083 114.356 298.648 114.358C298.302 114.36 298.116 114.24 297.818 114.097C297.17 113.788 296.371 113.775 295.742 114.122C295.114 114.471 294.693 115.188 294.757 115.903C294.794 116.306 294.959 116.761 294.712 117.082C294.622 117.199 294.488 117.277 294.41 117.402C294.336 117.52 294.322 117.666 294.322 117.807C294.323 118.541 294.65 119.251 295.128 119.811C295.319 120.035 295.539 120.245 295.653 120.521C295.755 120.773 295.818 121.033 295.942 121.279Z" fill="#53424D"/>
<path d="M301.628 120.361C301.628 120.361 302.337 118.645 303.183 118.623C304.033 118.601 303.988 120.954 302.434 121.395C300.884 121.837 301.39 120.847 301.628 120.361Z" fill="#FFBE9E"/>
<path d="M300.061 120.516C300.086 120.484 300.033 120.55 300.022 120.56C299.978 120.604 299.933 120.646 299.878 120.679C299.67 120.805 299.5 120.71 299.358 120.551C299.269 120.451 299.118 120.604 299.207 120.703C299.522 121.057 299.967 120.99 300.248 120.614C300.331 120.505 300.143 120.408 300.061 120.516Z" fill="#201714"/>
<path d="M297.684 120.78C297.656 120.854 297.611 120.929 297.56 120.989C297.391 121.186 297.206 121.112 297.036 120.96C296.936 120.87 296.784 121.023 296.885 121.114C297.086 121.293 297.348 121.414 297.603 121.233C297.739 121.135 297.834 120.98 297.891 120.829C297.94 120.701 297.732 120.654 297.684 120.78Z" fill="#201714"/>
<path d="M296.852 119.963C297.139 119.743 297.47 119.78 297.731 120.025C297.854 120.139 298.017 119.937 297.896 119.824C297.551 119.5 297.082 119.459 296.699 119.752C296.567 119.854 296.719 120.065 296.852 119.963Z" fill="#4D2F20"/>
<path d="M299.106 119.836C299.322 119.548 299.652 119.493 299.969 119.658C300.118 119.735 300.221 119.497 300.073 119.421C299.653 119.202 299.191 119.289 298.902 119.675C298.802 119.809 299.006 119.971 299.106 119.836Z" fill="#4D2F20"/>
<path d="M298.327 120.256C298.47 120.446 298.591 120.683 298.604 120.921C298.625 121.267 298.32 121.535 298.219 121.864C298.08 122.315 298.421 122.432 298.9 122.399C299.014 122.39 299.017 122.24 298.901 122.249C297.833 122.324 298.782 121.418 298.785 120.961C298.786 120.675 298.652 120.393 298.482 120.165C298.425 120.087 298.269 120.178 298.327 120.256Z" fill="#7C4930"/>
<path d="M299.863 122.515C299.863 122.515 300.231 123.328 299.537 123.585C298.843 123.843 298.492 123.121 298.492 123.121L299.863 122.515Z" fill="#FAFFFF"/>
<path d="M301.098 121.823C301.104 122.101 300.884 122.332 300.605 122.338C300.327 122.344 300.095 122.124 300.09 121.846C300.083 121.568 300.304 121.338 300.583 121.331C300.861 121.325 301.092 121.545 301.098 121.823Z" fill="#FF9C81"/>
<path d="M296.696 122.098C296.842 121.857 297.156 121.782 297.397 121.927C297.638 122.075 297.715 122.387 297.568 122.628C297.422 122.869 297.107 122.945 296.867 122.799C296.625 122.652 296.549 122.339 296.696 122.098Z" fill="#FF9C81"/>
<path d="M317.442 138.893C317.442 138.893 317.479 131.871 314.943 129.241C312.406 126.61 309.836 128.136 309.836 128.136C309.836 128.136 314.132 135.504 313.756 139.433C313.379 143.365 317.442 138.893 317.442 138.893Z" fill="#FFBE9E"/>
<path d="M308.501 123.514C313.615 121.662 317.487 132.719 317.487 132.719L312.43 135.689C312.43 135.689 303.514 125.318 308.501 123.514Z" fill="#EC3B59"/>
<path d="M316.739 140.048C314.553 141.987 307.295 144.705 307.295 144.705L307.656 142.46L315.318 136.551C315.318 136.551 318.964 138.074 316.739 140.048Z" fill="#FFBE9E"/>
<path d="M307.769 142.07C307.532 142 307.319 141.779 307.11 141.654C306.694 141.406 306.218 141.304 305.747 141.212C305.486 141.161 304.997 140.745 304.739 140.971C304.316 141.342 305.319 141.811 305.497 141.988C305.661 142.152 305.762 142.413 305.651 142.615C305.577 142.749 305.431 142.823 305.29 142.883C304.842 143.072 304.367 143.186 303.903 143.327C303.66 143.402 303.428 143.491 303.191 143.578C303.015 143.644 302.752 143.664 302.602 143.771C302.483 143.856 302.428 144.051 302.551 144.16C302.66 144.259 302.779 144.177 302.901 144.154C303.177 144.104 303.453 144.062 303.729 144.022C303.79 144.013 304.061 143.933 304.11 143.98C304.353 144.206 303.631 144.428 303.518 144.469C303.235 144.571 302.942 144.687 302.759 144.942C302.735 144.975 302.713 145.016 302.724 145.056C302.743 145.118 302.826 145.13 302.891 145.125C303.273 145.098 303.635 144.932 304.018 144.913C304.081 144.91 304.155 144.917 304.187 144.971C304.315 145.185 303.876 145.428 303.739 145.519C303.652 145.578 303.55 145.658 303.572 145.76C303.586 145.827 303.653 145.872 303.72 145.882C303.787 145.892 303.856 145.875 303.922 145.858C304.115 145.809 304.323 145.773 304.51 145.699C304.599 145.664 304.856 145.535 304.93 145.644C304.945 145.665 304.944 145.694 304.937 145.72C304.913 145.811 304.831 145.872 304.763 145.938C304.694 146.003 304.632 146.098 304.664 146.187C304.703 146.297 304.852 146.315 304.969 146.3C305.387 146.248 305.787 146.046 306.168 145.876C306.575 145.693 306.975 145.493 307.363 145.275C307.88 144.984 308.38 144.664 308.858 144.314C309.275 144.009 309.733 143.631 309.86 143.103C309.896 142.955 309.901 142.8 309.901 142.647C309.902 142.446 309.894 142.242 309.835 142.05C309.775 141.857 309.657 141.676 309.48 141.579C309.456 141.566 309.43 141.553 309.403 141.553C309.368 141.553 309.336 141.571 309.305 141.589C309.075 141.727 308.851 141.88 308.602 141.983C308.36 142.084 308.076 142.136 307.769 142.07Z" fill="#FFBE9E"/>
<path d="M283.451 188.838H281.891V78.7979H283.451V188.838Z" fill="#6B504F"/>
<path d="M282.777 74.9953L280.518 77.9583L282.777 80.9219L284.823 77.9583L282.777 74.9953Z" fill="#6B504F"/>
<path d="M196.681 114.767C196.681 114.767 191.635 109.556 191.647 105.787C191.66 102.019 194.668 101.327 194.668 101.327C194.668 101.327 196.728 109.882 199.818 112.548C202.908 115.212 196.681 114.767 196.681 114.767Z" fill="#CC8B6E"/>
<path d="M190.549 98.9717C185.692 101.783 192.24 111.186 192.24 111.186L197.947 109.16C197.947 109.16 195.284 96.2299 190.549 98.9717Z" fill="#2F7EDD"/>
<path d="M202.033 115.406C202.033 115.406 205.96 118.002 206.255 118.342C208.15 120.517 209.494 121.032 208.962 121.392C207.982 122.057 205.247 120.349 204.832 120.104C204.325 119.801 203.114 118.893 202.734 118.503C202.353 118.113 202.033 115.406 202.033 115.406Z" fill="#CC8B6E"/>
<path d="M195.921 113.905C197.645 116.378 204.828 120.127 204.828 120.127L204.811 117.78L198.171 110.823C198.171 110.823 194.199 111.43 195.921 113.905Z" fill="#CC8B6E"/>
<path d="M193.27 134.146L173.73 120.392L174.116 117.575L192.693 116.168L193.27 134.146Z" fill="#FC636B"/>
<path d="M167.275 112.939C167.275 112.939 174.592 109.555 175.961 105.874C177.33 102.193 174.36 100.506 174.36 100.506C174.36 100.506 169.016 108.158 164.729 109.716C160.442 111.276 167.275 112.939 167.275 112.939Z" fill="#CC8B6E"/>
<path d="M181.195 97.0256C181.195 97.0256 179.363 97.6299 179.665 101.32C180.037 105.887 172.968 110.293 172.968 110.293L167.975 107.044C167.975 107.044 174.538 97.5493 181.195 97.0256Z" fill="#2F7EDD"/>
<path d="M176.39 100.538C177.646 96.5227 183.701 96.3153 188.626 97.0597C191.945 97.5616 194.082 98.637 194.451 102.776C194.686 105.415 193.959 116.959 192.338 120.015C192.338 120.015 186.684 123.174 174.082 119.299C174.082 119.299 173.704 109.12 176.39 100.538Z" fill="#2F7EDD"/>
<path d="M176.099 108.061C175.986 108.871 175.169 109.279 174.433 109.33C174.212 109.344 174.213 109 174.433 108.985C175.033 108.943 175.675 108.625 175.768 107.97C175.797 107.752 176.13 107.844 176.099 108.061Z" fill="#2566BB"/>
<path d="M161.306 111.759C161.306 111.759 156.148 112.968 155.707 113.2C152.879 114.684 151.25 114.733 151.688 115.264C152.495 116.243 156.051 115.499 156.585 115.4C157.24 115.274 158.87 114.796 159.42 114.545C159.971 114.292 161.306 111.759 161.306 111.759Z" fill="#CC8B6E"/>
<path d="M168.405 112.353C165.653 114.185 156.581 115.422 156.581 115.422L157.46 113.137L167.125 108.588C167.125 108.588 171.158 110.519 168.405 112.353Z" fill="#CC8B6E"/>
<path d="M185.811 98.6368C185.811 98.6368 185.698 112.024 184.239 120.357L182.668 120.453C182.668 120.453 184.864 110.535 184.456 98.6368H185.811Z" fill="#FDFEFD"/>
<path d="M193.092 120.732C193.092 120.732 181.101 123.051 173.603 119.481L174.115 117.576C174.115 117.576 182.669 120.685 192.902 118.543L193.092 120.732Z" fill="#29283B"/>
<path d="M187.124 118.797H186.057L185.806 121.984H187.562L187.124 118.797Z" fill="#FC636B"/>
<path d="M179.679 118.43L178.907 118.188L177.585 121.112L179.172 121.607L179.679 118.43Z" fill="#FF4650"/>
<path d="M185.421 101.068C185.568 100.943 185.581 100.728 185.449 100.588C185.318 100.449 185.093 100.437 184.947 100.561C184.801 100.686 184.787 100.901 184.919 101.041C185.05 101.181 185.275 101.193 185.421 101.068Z" fill="#618BF0"/>
<path d="M185.421 104.259C185.568 104.134 185.581 103.919 185.449 103.779C185.318 103.639 185.093 103.628 184.947 103.753C184.801 103.878 184.787 104.092 184.919 104.232C185.05 104.372 185.275 104.384 185.421 104.259Z" fill="#618BF0"/>
<path d="M185.272 107.079C185.14 106.939 184.916 106.927 184.769 107.052C184.623 107.177 184.61 107.392 184.741 107.531C184.872 107.671 185.097 107.683 185.244 107.558C185.39 107.433 185.403 107.219 185.272 107.079Z" fill="#618BF0"/>
<path d="M184.414 110.925C184.267 111.05 184.254 111.265 184.386 111.405C184.517 111.544 184.742 111.556 184.888 111.431C185.035 111.306 185.047 111.091 184.916 110.952C184.785 110.812 184.56 110.8 184.414 110.925Z" fill="#618BF0"/>
<path d="M184.102 115.342C183.962 115.467 183.95 115.682 184.075 115.822C184.2 115.963 184.415 115.974 184.556 115.849C184.696 115.724 184.708 115.509 184.582 115.369C184.457 115.23 184.242 115.218 184.102 115.342Z" fill="#618BF0"/>
<path d="M188.098 91.719C188.098 91.719 183.027 92.8071 183.309 93.2199C183.592 93.6333 183.098 94.4668 183.085 95.273C183.069 96.1483 182.487 97.0746 181.706 97.9584C181.159 98.5773 182.131 99.3168 182.995 99.4781C186.718 100.177 189.068 98.7882 188.282 97.5862C186.512 94.8844 188.098 91.719 188.098 91.719Z" fill="#CC8C71"/>
<path d="M183.084 95.2716C183.097 94.4653 183.592 93.6318 183.309 93.2184C183.027 92.8056 188.498 91.6333 188.498 91.6333C188.498 91.6333 187.667 92.4813 187.526 93.7555C185.916 95.16 184.154 95.882 182.781 96.416C182.951 96.0614 183.079 95.588 183.084 95.2716Z" fill="#BF7C64"/>
<path d="M182.994 85.8857C180.999 87.3902 179.296 92.5876 181.385 95.0632C182.532 96.4235 186.704 94.979 188.662 92.019C188.917 91.6347 189.541 89.4331 188.499 87.0326C188.03 85.9451 185.069 84.3212 182.994 85.8857Z" fill="#CC8B6E"/>
<path d="M180.69 89.9764C180.692 90.2952 181.138 86.8327 183.089 86.5981C183.883 86.5024 183.704 87.3365 184.625 87.4044C185.411 87.4619 187.768 85.8841 186.861 90.5577C186.817 90.782 187.031 91.0463 187.134 91.2481C187.263 91.4961 186.862 92.0646 186.868 92.3441C186.874 92.6138 187.685 91.787 187.669 92.0555C187.645 92.4629 186.939 93.5995 187.526 93.7553C188.226 93.9402 189.115 91.6155 189.421 89.4411C189.5 88.8822 189.969 86.7054 190.005 86.2356C190.079 85.2361 185.954 82.4943 183.794 82.4967C182.518 82.498 182.073 85.4852 181.646 86.5709C181.227 87.6353 180.679 88.7573 180.69 89.9764Z" fill="#53424D"/>
<path d="M186.373 91.7188C186.373 91.7188 187.815 90.4537 188.609 90.818C189.405 91.1841 188.288 93.3433 186.648 93.0439C185.01 92.7462 185.931 92.0606 186.373 91.7188Z" fill="#CC8B6E"/>
<path d="M191.517 105.476C190.301 105.476 189.083 105.476 187.866 105.476C187.924 105.419 187.982 105.361 188.039 105.304C187.959 106.437 187.991 108.729 189.367 109.093C190.666 109.439 191.511 108.241 191.573 107.108C191.606 106.523 191.524 105.91 191.352 105.35C191.287 105.138 191.619 105.047 191.684 105.258C192.194 106.921 191.926 109.658 189.571 109.474C187.748 109.332 187.597 106.671 187.694 105.304C187.701 105.211 187.768 105.132 187.866 105.132C189.083 105.132 190.301 105.132 191.517 105.132C191.74 105.132 191.74 105.476 191.517 105.476Z" fill="#2566BB"/>
<path d="M178.132 104.453C179.394 104.591 180.656 104.728 181.918 104.866C182.012 104.875 182.09 104.936 182.091 105.038C182.109 106.656 181.574 109.4 179.423 109.148C177.248 108.894 177.489 106.111 177.966 104.58C178.031 104.369 178.364 104.458 178.298 104.671C178.012 105.589 177.825 106.719 178.115 107.654C178.384 108.523 179.268 109.041 180.169 108.754C180.922 108.514 181.286 107.716 181.487 107.015C181.644 106.461 181.622 105.891 181.74 105.339C181.76 105.245 181.734 105.14 181.746 105.045C181.687 105.513 182.048 105.098 181.797 105.197C181.731 105.223 181.549 105.17 181.48 105.162C180.364 105.04 179.248 104.919 178.132 104.797C177.914 104.774 177.912 104.429 178.132 104.453Z" fill="#2566BB"/>
<path d="M174.295 166.238C174.295 166.238 173.546 167.112 172.665 168.295C171.783 169.479 171.122 170.713 172.356 171.278C173.59 171.844 175.088 170.456 175.573 169.633C176.058 168.809 176.607 168.899 177.274 168.352C177.951 167.796 177.59 165.777 177.59 165.777L174.295 166.238Z" fill="#FFA60E"/>
<path d="M177.466 167.706C176.757 168.289 176.172 168.193 175.657 169.068C175.14 169.943 173.547 171.421 172.234 170.82C171.974 170.7 171.795 170.552 171.68 170.382C171.693 170.751 171.887 171.063 172.356 171.278C173.591 171.844 175.089 170.456 175.573 169.633C176.058 168.809 176.608 168.899 177.275 168.352C177.492 168.173 177.602 167.843 177.651 167.477C177.599 167.566 177.54 167.646 177.466 167.706Z" fill="#FFA60E"/>
<path d="M185.624 127.363C183.821 129.639 177.819 166.308 177.819 166.308C176.017 167.821 173.312 166.308 173.312 166.308C171.359 147.611 173.776 119.839 173.776 119.839C173.776 119.839 187.428 129.639 185.624 127.363Z" fill="#FC636B"/>
<path d="M175.502 120.439C175.526 121.959 175.478 126.22 173.298 126.22C172.938 126.22 172.937 126.777 173.298 126.777C175.966 126.779 176.091 122.301 176.06 120.439C176.054 120.08 175.495 120.079 175.502 120.439Z" fill="#EC3B59"/>
<path d="M192.271 166.841C192.271 166.841 193.02 167.715 193.902 168.898C194.783 170.081 195.444 171.316 194.21 171.882C192.976 172.448 191.477 171.058 190.993 170.236C190.508 169.412 189.958 169.502 189.291 168.955C188.615 168.4 188.976 166.379 188.976 166.379L192.271 166.841Z" fill="#FFA60E"/>
<path d="M189.1 168.309C189.81 168.892 190.394 168.796 190.91 169.671C191.426 170.547 193.02 172.024 194.332 171.423C194.593 171.303 194.771 171.155 194.887 170.985C194.873 171.354 194.679 171.666 194.211 171.882C192.976 172.448 191.478 171.058 190.993 170.236C190.508 169.412 189.959 169.502 189.292 168.955C189.074 168.776 188.965 168.446 188.915 168.08C188.967 168.169 189.027 168.249 189.1 168.309Z" fill="#FFA60E"/>
<path d="M180.941 127.964C182.744 130.24 188.746 166.91 188.746 166.91C190.549 168.422 193.254 166.91 193.254 166.91C195.206 148.212 193.092 120.731 193.092 120.731C193.092 120.731 179.138 130.24 180.941 127.964Z" fill="#FC636B"/>
<path d="M190.506 121.041C190.476 122.905 190.6 127.381 193.269 127.381C193.629 127.381 193.63 126.823 193.269 126.823C191.088 126.823 191.041 122.564 191.066 121.041C191.071 120.683 190.512 120.683 190.506 121.041Z" fill="#EC3B59"/>
<path d="M184.854 91.1487C184.89 91.1299 184.812 91.1657 184.797 91.1705C184.736 91.1911 184.675 91.2099 184.609 91.2154C184.359 91.2372 184.246 91.0723 184.187 90.8595C184.15 90.7268 183.939 90.8001 183.976 90.9329C184.107 91.4039 184.55 91.5439 184.981 91.3245C185.108 91.2608 184.979 91.085 184.854 91.1487Z" fill="#1E100C"/>
<path d="M182.529 90.308C182.47 90.3631 182.395 90.4122 182.32 90.4444C182.073 90.5498 181.936 90.3983 181.848 90.1795C181.797 90.051 181.586 90.1237 181.638 90.2528C181.742 90.5104 181.93 90.742 182.248 90.6899C182.419 90.662 182.578 90.562 182.7 90.4474C182.804 90.3516 182.631 90.2128 182.529 90.308Z" fill="#1E100C"/>
<path d="M182.135 89.1725C182.501 89.0992 182.791 89.2847 182.921 89.6302C182.982 89.792 183.225 89.6793 183.165 89.5193C182.993 89.0628 182.579 88.8106 182.089 88.9088C181.919 88.9422 181.965 89.2065 182.135 89.1725Z" fill="#552B19"/>
<path d="M184.278 90.084C184.61 89.9149 184.94 90.0143 185.159 90.312C185.261 90.4514 185.465 90.2774 185.364 90.1386C185.075 89.7464 184.607 89.6161 184.163 89.8422C184.009 89.9204 184.124 90.1622 184.278 90.084Z" fill="#552B19"/>
<path d="M183.366 90.1162C183.411 90.3575 183.414 90.6315 183.318 90.8582C183.179 91.1891 182.774 91.2976 182.53 91.5559C182.195 91.9105 182.458 92.1748 182.915 92.3603C183.026 92.4051 183.097 92.2675 182.986 92.2227C181.963 91.8056 183.256 91.3995 183.467 90.977C183.599 90.7127 183.604 90.3914 183.551 90.1029C183.533 90.0047 183.348 90.0174 183.366 90.1162Z" fill="#BF7C64"/>
<path d="M183.794 93.2342C183.794 93.2342 183.43 94.0804 182.75 93.7325C182.07 93.3839 182.376 92.6147 182.376 92.6147L183.794 93.2342Z" fill="#FAFFFF"/>
<path d="M185.214 92.8325C185.092 93.0926 184.782 93.2053 184.522 93.0841C184.261 92.9634 184.148 92.6543 184.27 92.3936C184.391 92.1342 184.701 92.0208 184.961 92.1421C185.222 92.2627 185.335 92.5725 185.214 92.8325Z" fill="#C1775D"/>
<path d="M181.013 91.079C181.259 90.9233 181.585 90.9954 181.741 91.2409C181.897 91.4858 181.824 91.8107 181.578 91.9671C181.333 92.1223 181.007 92.0501 180.851 91.8046C180.695 91.5597 180.767 91.2348 181.013 91.079Z" fill="#C1775D"/>
<path d="M228.577 80.493C228.577 80.493 233.932 80.6816 233.862 84.4447C233.788 88.2091 239.401 86.7518 239.766 93.2943C239.894 95.5941 237.21 98.4195 234.387 97.8879C232.19 97.4733 228.536 92.6724 228.724 85.8262C228.912 78.9788 227.173 81.5157 227.173 81.5157L228.577 80.493Z" fill="#29283B"/>
<path d="M236.467 126.217L218.17 112.849L218.531 110.111L235.927 108.744L236.467 126.217Z" fill="#2F7EDD"/>
<path d="M218.699 157.406C218.699 157.406 217.998 158.256 217.173 159.405C216.347 160.556 215.728 161.755 216.883 162.306C218.038 162.855 219.442 161.505 219.896 160.706C220.35 159.906 220.865 159.993 221.489 159.461C222.122 158.922 221.784 156.958 221.784 156.958L218.699 157.406Z" fill="#53424D"/>
<path d="M229.309 119.625C227.621 121.836 222.001 157.474 222.001 157.474C220.313 158.944 217.78 157.474 217.78 157.474C215.951 139.302 218.214 112.312 218.214 112.312C218.214 112.312 230.997 121.836 229.309 119.625Z" fill="#2F7EDD"/>
<path d="M235.532 157.99C235.532 157.99 236.234 158.841 237.059 159.99C237.884 161.14 238.503 162.339 237.347 162.889C236.192 163.44 234.789 162.089 234.336 161.29C233.881 160.49 233.367 160.577 232.742 160.045C232.109 159.506 232.446 157.542 232.446 157.542L235.532 157.99Z" fill="#53424D"/>
<path d="M224.923 120.209C226.612 122.422 232.232 158.06 232.232 158.06C233.92 159.53 236.452 158.06 236.452 158.06C238.281 139.887 236.294 111.245 236.294 111.245C236.294 111.245 223.235 122.422 224.923 120.209Z" fill="#2F7EDD"/>
<path d="M236.531 112.186C236.531 112.186 225.106 114.48 217.961 110.947L218.449 109.062C218.449 109.062 226.6 112.138 236.349 110.02L236.531 112.186Z" fill="#130C2D"/>
<path d="M230.845 110.272H229.828L229.588 113.426H231.263L230.845 110.272Z" fill="#1E1240"/>
<path d="M223.751 109.908L223.016 109.669L221.756 112.561L223.267 113.053L223.751 109.908Z" fill="#1E1240"/>
<path d="M218.452 97.2842C218.969 96.0179 220.151 94.8577 221.645 95.253C222.492 95.4772 222.751 96.6969 222.83 97.7813C223.021 100.385 220.53 109.92 217.211 110.226C214.161 110.507 216.821 101.287 218.452 97.2842Z" fill="#E9B79C"/>
<path d="M216.964 110.246C214.142 110.483 206.082 108.005 206.082 108.005L207.511 106.808L217.504 106.398C217.504 106.398 219.785 110.005 216.964 110.246Z" fill="#E9B79C"/>
<path d="M202.828 104.628C202.822 105.252 203.294 106.369 204.146 107.288C204.643 107.824 206.119 108.797 206.337 108.947C206.532 109.082 206.695 109.225 206.886 109.338L208.168 107.916C207.772 107.744 207.01 107.571 206.518 106.82C206.405 106.647 206.199 106.081 206.158 105.88C206.108 105.641 205.559 104.108 205.319 104.729C205.229 104.965 205.325 105.407 205.422 105.631C205.437 105.667 205.454 105.704 205.447 105.742C205.435 105.801 205.368 105.835 205.307 105.831C205.247 105.828 205.192 105.797 205.14 105.766C204.77 105.549 204.511 105.374 204.258 105.069C203.936 104.679 203.788 104.259 203.47 103.785C203.393 103.671 203.239 103.511 203.08 103.565C202.865 103.637 202.834 104.101 202.828 104.628Z" fill="#E9B79C"/>
<path d="M222.925 101.461C222.925 101.461 223.044 102.639 222.26 102.541C221.476 102.443 221.519 101.782 221.519 101.782C221.519 101.782 221.167 102.53 220.411 102.125C219.88 101.841 220.166 101.267 220.166 101.267C220.166 101.267 219.92 101.996 219.104 101.682C218.556 101.47 218.855 100.782 218.855 100.782C218.855 100.782 218.634 101.615 217.924 101.323C217.213 101.032 217.873 100.261 217.873 100.261C217.873 100.261 217.3 101.05 216.69 100.729C216.082 100.407 217.158 99.5629 217.158 99.5629L222.925 101.461Z" fill="#FBFCFB"/>
<path d="M222.918 101.612C222.918 101.612 226.211 93.4136 222.598 92.0673C218.513 90.5452 216.736 99.9791 216.736 99.9791C216.736 99.9791 220.368 102.206 222.918 101.612Z" fill="#E08B03"/>
<path d="M221.385 91.9978C225.329 91.8281 228.693 91.3486 234.383 92.0591L235.161 97.6377C234.317 99.0325 233.708 100.647 233.396 101.802C231.768 107.817 237.001 107.956 236.41 109.341C235.347 111.826 225.8 113.452 221.495 112.193C219.97 111.746 220.164 109.875 220.484 109.178C222.759 104.228 218.248 102.323 219.253 99.3793C219.418 98.8961 218.939 98.3766 218.983 97.8511C220.639 92.8665 221.385 91.9978 221.385 91.9978Z" fill="#FEB801"/>
<path d="M229.018 91.5887C229.649 91.6257 232.033 91.8027 232.033 91.8027L228.731 96.1896C228.122 97.0001 226.911 97.0765 226.2 96.3503L224.796 94.9179L222.928 96.2611C222.269 96.7358 221.355 96.1726 221.512 95.3876L222.199 91.9421C222.199 91.9421 226.618 91.4493 229.018 91.5887Z" fill="#FBFCFB"/>
<path d="M223.774 80.1747C223.774 80.1747 227.198 78.0336 229.795 81.053C232.391 84.0742 229.535 89.2855 226.496 90.1608C226.205 90.2457 227.878 86.1134 227.425 85.0083C227.377 84.8937 227.284 84.7883 227.245 84.6725C227.216 84.5901 227.217 84.4906 227.196 84.4064C227.144 84.173 227.076 83.9427 226.997 83.719C226.849 83.2807 226.654 82.8594 226.424 82.4563C226.064 81.8368 225.619 81.2458 225.063 80.7772C224.851 80.5966 224.623 80.4329 224.37 80.3159C224.26 80.262 223.902 80.0971 223.774 80.1747Z" fill="#29283B"/>
<path d="M228.127 85.7833C228.127 85.7833 223.826 87.1248 224.154 87.5176C224.482 87.9092 224.156 88.8439 224.272 89.6853C224.396 90.5994 224.004 91.6426 223.419 92.6683C223.01 93.386 223.708 94.0103 224.536 94.0625C228.102 94.288 229.51 91.6559 229.51 91.6559C227.929 90.1035 228.127 85.7833 228.127 85.7833Z" fill="#E9B79C"/>
<path d="M224.272 89.6841C224.156 88.8427 224.482 87.908 224.154 87.5164C223.826 87.1236 228.127 85.7821 228.127 85.7821C228.127 85.7821 227.617 86.7332 227.688 88.0789C226.255 89.5131 225.355 90.0405 224.166 90.7812C224.267 90.3897 224.316 90.0144 224.272 89.6841Z" fill="#C58063"/>
<path d="M223.787 80.6013C222.501 81.97 219.884 87.5965 222.73 89.7103C223.943 90.6153 227.008 88.9059 228.464 86.3096C229.061 85.2446 228.913 82.9896 227.734 81.1256C227.202 80.28 225.264 78.9979 223.787 80.6013Z" fill="#E9B79C"/>
<path d="M223.799 81.8187C223.799 81.8187 225.591 86.2966 229.079 85.8177C229.079 85.8177 229.891 81.6059 226.422 79.842C226.422 79.842 221.478 78.592 221.033 85.0005C221.033 85.0005 223.437 85.0903 223.799 81.8187Z" fill="#29283B"/>
<path d="M226.989 85.9996C226.989 85.9996 227.767 84.7327 228.45 84.8194C229.137 84.9037 228.813 86.7586 227.511 86.9156C226.211 87.072 226.737 86.353 226.989 85.9996Z" fill="#E9B79C"/>
<path d="M228.073 89.8613L228.092 89.6134L228.084 89.7383L228.211 89.7171C228.201 89.6522 228.16 88.8417 228.123 88.1277C228.1 87.6718 228.076 87.2045 228.057 86.8529C228.053 86.7844 227.994 86.7322 227.923 86.7359C227.853 86.7389 227.799 86.7983 227.803 86.8662C227.821 87.2172 227.845 87.6839 227.868 88.1392C227.957 89.8504 227.957 89.8504 228.073 89.8613Z" fill="#E8A32B"/>
<path d="M228.869 89.6932C228.897 89.692 228.923 89.6817 228.946 89.6635C229 89.6193 229.006 89.5398 228.96 89.4883C228.717 89.2095 228.556 88.8621 228.455 88.3924C228.414 88.2063 228.386 88.0189 228.358 87.8316C228.325 87.6164 228.291 87.3928 228.239 87.1727C228.215 87.0685 228.182 86.9466 228.112 86.8308C228.077 86.7726 227.998 86.752 227.938 86.7872C227.877 86.8218 227.857 86.8981 227.893 86.9575C227.944 87.0424 227.971 87.1424 227.991 87.2291C228.041 87.4394 228.074 87.6577 228.106 87.8686C228.135 88.0602 228.164 88.2523 228.205 88.4439C228.315 88.9555 228.493 89.3386 228.767 89.6496C228.793 89.6805 228.832 89.695 228.869 89.6932Z" fill="#E8A32B"/>
<path d="M227.171 89.4043L227.314 89.1988L227.244 89.3025L227.366 89.3364C227.369 89.3249 227.383 89.2909 227.403 89.2394C227.557 88.849 228.022 87.6652 228.086 86.9681C228.092 86.899 228.039 86.839 227.97 86.8329C227.904 86.8232 227.838 86.8778 227.831 86.9456C227.792 87.3857 227.567 88.1271 227.166 89.1497C227.111 89.2897 227.088 89.3473 227.171 89.4043Z" fill="#E8A32B"/>
<path d="M227.533 86.8799C227.521 86.6277 227.72 86.4137 227.979 86.4022C228.236 86.3895 228.456 86.5847 228.468 86.8362C228.481 87.0878 228.281 87.3018 228.023 87.3139C227.765 87.326 227.546 87.1321 227.533 86.8799Z" fill="#E8A32B"/>
<path d="M225.399 85.9999C225.428 85.9824 225.366 86.0169 225.354 86.0218C225.305 86.0436 225.256 86.0624 225.202 86.0721C224.995 86.1078 224.89 85.9824 224.825 85.8145C224.785 85.709 224.616 85.7841 224.657 85.889C224.799 86.2606 225.176 86.3424 225.518 86.1333C225.619 86.0721 225.498 85.9399 225.399 85.9999Z" fill="#1E100C"/>
<path d="M223.413 85.4885C223.368 85.5376 223.309 85.583 223.25 85.6146C223.053 85.717 222.928 85.6043 222.839 85.4339C222.787 85.3333 222.617 85.4072 222.67 85.5079C222.776 85.7091 222.948 85.8831 223.208 85.8182C223.348 85.7831 223.472 85.6903 223.565 85.5891C223.643 85.5042 223.49 85.4042 223.413 85.4885Z" fill="#1E100C"/>
<path d="M223.002 84.598C223.299 84.5126 223.554 84.6417 223.686 84.9126C223.749 85.0387 223.942 84.9302 223.881 84.8047C223.705 84.4477 223.342 84.2737 222.944 84.3883C222.807 84.4277 222.864 84.638 223.002 84.598Z" fill="#552B19"/>
<path d="M224.844 85.1818C225.107 85.0205 225.388 85.0775 225.591 85.3024C225.686 85.4085 225.843 85.2527 225.748 85.1484C225.479 84.8502 225.082 84.7793 224.731 84.9945C224.609 85.069 224.722 85.2564 224.844 85.1818Z" fill="#552B19"/>
<path d="M224.091 85.2731C224.147 85.4652 224.17 85.6871 224.108 85.8774C224.016 86.155 223.689 86.272 223.506 86.4987C223.254 86.8097 223.492 87.0049 223.884 87.1225C223.98 87.151 224.028 87.0346 223.933 87.0055C223.054 86.7424 224.096 86.3205 224.238 85.9629C224.329 85.7398 224.309 85.4779 224.244 85.2488C224.222 85.1706 224.07 85.1942 224.091 85.2731Z" fill="#BD7C64"/>
<path d="M224.614 87.4893C224.614 87.4893 224.673 88.2355 224.038 88.2421C223.403 88.2488 223.33 87.5796 223.33 87.5796L224.614 87.4893Z" fill="#F8FFFF"/>
<path d="M225.824 87.3379C225.742 87.5574 225.494 87.6713 225.269 87.5919C225.044 87.5125 224.927 87.2706 225.008 87.0512C225.09 86.8318 225.338 86.7178 225.563 86.7972C225.788 86.876 225.904 87.1185 225.824 87.3379Z" fill="#C0775D"/>
<path d="M222.214 86.222C222.406 86.0777 222.682 86.1129 222.829 86.3002C222.976 86.4875 222.94 86.756 222.748 86.8997C222.557 87.0433 222.281 87.0088 222.134 86.8215C221.986 86.6342 222.023 86.3656 222.214 86.222Z" fill="#C0775D"/>
<path d="M236.236 113.016L208.408 112.993L208.409 112.192L236.236 112.216L236.236 113.016Z" fill="#B8B9BC"/>
<path d="M223.578 113.004L205.883 112.989L203.293 98.9836L220.098 98.9976L223.578 113.004Z" fill="#B8B9BC"/>
<path d="M222.699 113.004L205.005 112.989L202.415 98.9836L219.22 98.9976L222.699 113.004Z" fill="#CBCCD1"/>
<path d="M232.706 98.9021C232.47 97.4825 232.861 95.8003 234.348 95.3554C235.191 95.1026 236.063 96.0646 236.71 97.0006C238.262 99.2471 241.227 109.188 238.556 111.246C236.103 113.138 233.451 103.39 232.706 98.9021Z" fill="#E9B79C"/>
<path d="M238.356 111.397C236.074 113.127 227.869 115.217 227.869 115.217L228.45 113.37L236.763 107.635C236.763 107.635 240.636 109.667 238.356 111.397Z" fill="#E9B79C"/>
<path d="M223.415 114.993C223.917 115.402 225.113 115.737 226.379 115.633C227.117 115.573 228.809 114.996 229.063 114.915C229.292 114.843 229.507 114.802 229.716 114.718L229.345 112.754C228.962 112.967 228.357 113.478 227.447 113.395C227.237 113.376 226.652 113.179 226.463 113.083C226.239 112.97 224.658 112.429 225.017 113.024C225.153 113.251 225.572 113.458 225.812 113.523C225.851 113.534 225.891 113.544 225.917 113.574C225.958 113.621 225.944 113.698 225.905 113.745C225.865 113.792 225.806 113.817 225.75 113.84C225.348 114.002 225.047 114.101 224.645 114.11C224.132 114.122 223.701 113.972 223.121 113.926C222.982 113.916 222.758 113.938 222.705 114.103C222.632 114.324 222.991 114.649 223.415 114.993Z" fill="#E9B79C"/>
<path d="M238.755 100.273C238.755 100.273 239.486 101.272 238.764 101.604C238.043 101.937 237.727 101.317 237.727 101.317C237.727 101.317 237.826 102.18 236.964 102.221C236.359 102.249 236.297 101.579 236.297 101.579C236.297 101.579 236.476 102.368 235.612 102.523C235.03 102.626 234.918 101.844 234.918 101.844C234.918 101.844 235.175 102.716 234.412 102.833C233.65 102.951 233.802 101.902 233.802 101.902C233.802 101.902 233.734 102.922 233.043 102.958C232.351 102.996 232.818 101.656 232.818 101.656L238.755 100.273Z" fill="#FBFCFB"/>
<path d="M238.829 100.412C238.829 100.412 237.263 91.247 233.46 91.972C229.16 92.7909 232.68 102.258 232.68 102.258C232.68 102.258 236.969 102.318 238.829 100.412Z" fill="#E08B03"/>
<path d="M150.542 120.644C150.542 120.644 144.275 116.779 143.342 113.071C142.41 109.363 145.194 107.932 145.194 107.932C145.194 107.932 151.714 116.079 154.078 119.474C157.069 123.77 150.542 120.644 150.542 120.644Z" fill="#FFBE9E"/>
<path d="M141.823 104.186C137.336 107.688 145.024 117.258 145.024 117.258L150.474 114.426C150.474 114.426 146.197 100.77 141.823 104.186Z" fill="#E08B03"/>
<path d="M129.516 140.822L149.338 126.869L148.948 124.011L130.101 122.584L129.516 140.822Z" fill="#5B5196"/>
<path d="M146.641 106.726C145.366 102.652 139.223 102.443 134.227 103.198C130.859 103.707 128.691 104.798 128.317 108.996C128.079 111.673 128.817 123.385 130.461 126.485C130.461 126.485 136.197 129.69 148.982 125.76C148.982 125.76 149.365 115.433 146.641 106.726Z" fill="#FEB801"/>
<path d="M129.696 127.214C129.696 127.214 141.861 129.566 149.468 125.945L148.949 124.012C148.949 124.012 140.271 127.166 129.889 124.994L129.696 127.214Z" fill="#4F4186"/>
<path d="M135.75 125.253H136.833L137.088 128.486H135.306L135.75 125.253Z" fill="#5B5196"/>
<path d="M143.304 124.877L144.087 124.632L145.428 127.598L143.819 128.102L143.304 124.877Z" fill="#5B5196"/>
<path d="M134.762 97.7809C134.762 97.7809 139.907 98.8847 139.621 99.3036C139.333 99.7225 139.834 100.568 139.847 101.386C139.864 102.274 140.455 103.214 141.247 104.111C141.802 104.739 140.816 105.488 139.939 105.653C136.162 106.362 133.778 104.953 134.576 103.733C136.371 100.991 134.762 97.7809 134.762 97.7809Z" fill="#FFBE9E"/>
<path d="M139.847 101.386C139.835 100.568 139.333 99.7223 139.621 99.3035C139.907 98.8846 134.355 97.6953 134.355 97.6953C134.355 97.6953 135.198 98.5554 135.342 99.8484C136.884 101.929 139.084 102.573 140.477 103.113C140.122 102.626 139.853 101.707 139.847 101.386Z" fill="#FF9C81"/>
<path d="M139.94 91.8623C141.964 93.3887 143.691 98.6612 141.573 101.173C140.409 102.553 136.175 101.087 134.189 98.0847C133.931 97.6949 133.298 95.4618 134.356 93.0256C134.831 91.9229 137.835 90.2747 139.94 91.8623Z" fill="#FFBE9E"/>
<path d="M142.278 96.013C142.275 96.3367 141.823 92.8239 139.844 92.585C139.039 92.4887 139.22 93.3349 138.286 93.4034C137.489 93.4622 135.097 91.8613 136.017 96.6022C136.062 96.8301 135.845 97.098 135.74 97.3029C135.61 97.5551 136.016 98.1316 136.01 98.4146C136.004 98.688 135.181 97.8503 135.197 98.1219C135.222 98.5353 135.938 99.6882 135.343 99.847C135.054 99.9234 134.702 99.4597 134.491 99.3033C133.893 98.8626 133.593 98.9038 133.088 98.3401C132.53 97.7181 131.562 96.7446 131.886 95.3244C132.07 94.5193 132.887 94.4393 133.118 93.6471C134.318 89.5408 136.438 89.3499 137.182 89.2402C138.181 89.0935 138.949 89.579 139.954 90.4519C140.275 90.7307 141.106 91.3151 141.486 91.5018C141.625 91.5703 142.542 92.031 142.362 94.2581C142.337 94.5642 142.177 94.8552 142.199 95.1673C142.219 95.4504 142.281 95.7244 142.278 96.013Z" fill="#29283B"/>
<path d="M136.512 97.7805C136.512 97.7805 135.05 96.4972 134.244 96.867C133.437 97.2386 134.569 99.4287 136.234 99.1256C137.895 98.8237 136.961 98.1278 136.512 97.7805Z" fill="#FFBE9E"/>
<path d="M148.766 173.381C148.766 173.381 149.526 174.269 150.42 175.469C151.315 176.669 151.985 177.921 150.733 178.495C149.481 179.069 147.961 177.66 147.469 176.825C146.978 175.991 146.42 176.082 145.743 175.526C145.057 174.963 145.423 172.914 145.423 172.914L148.766 173.381Z" fill="#53424D"/>
<path d="M137.272 133.941C139.101 136.249 145.19 173.45 145.19 173.45C147.019 174.986 149.763 173.45 149.763 173.45C151.745 154.481 149.293 126.307 149.293 126.307C149.293 126.307 135.442 136.249 137.272 133.941Z" fill="#5B5196"/>
<path d="M147.544 126.917C147.519 128.46 147.568 132.783 149.779 132.782C150.144 132.782 150.145 133.348 149.779 133.348C147.072 133.348 146.946 128.807 146.976 126.917C146.982 126.553 147.549 126.552 147.544 126.917Z" fill="#4F4186"/>
<path d="M130.529 173.992C130.529 173.992 129.768 174.88 128.874 176.08C127.98 177.28 127.309 178.532 128.561 179.107C129.813 179.68 131.333 178.272 131.825 177.437C132.317 176.602 132.875 176.693 133.551 176.137C134.237 175.574 133.872 173.525 133.872 173.525L130.529 173.992Z" fill="#53424D"/>
<path d="M142.023 134.55C140.194 136.859 134.105 174.061 134.105 174.061C132.276 175.594 129.531 174.061 129.531 174.061C127.55 155.091 129.696 127.212 129.696 127.212C129.696 127.212 143.852 136.859 142.023 134.55Z" fill="#5B5196"/>
<path d="M132.32 127.528C132.35 129.418 132.223 133.96 129.516 133.959C129.151 133.959 129.151 133.393 129.516 133.393C131.729 133.393 131.777 129.072 131.752 127.528C131.746 127.164 132.313 127.164 132.32 127.528Z" fill="#4F4186"/>
<path d="M138.054 97.2015C138.017 97.1821 138.096 97.2191 138.111 97.2233C138.173 97.2445 138.235 97.2633 138.301 97.2694C138.556 97.2918 138.671 97.1239 138.731 96.9081C138.768 96.7735 138.981 96.8481 138.944 96.9821C138.812 97.4603 138.362 97.6022 137.924 97.3797C137.795 97.3143 137.926 97.1366 138.054 97.2015Z" fill="#201714"/>
<path d="M140.413 96.3493C140.473 96.4051 140.55 96.4548 140.625 96.4875C140.875 96.5948 141.014 96.4403 141.103 96.219C141.156 96.0887 141.37 96.162 141.317 96.293C141.211 96.5542 141.021 96.7894 140.698 96.7367C140.524 96.7082 140.363 96.6064 140.24 96.4906C140.134 96.3936 140.309 96.253 140.413 96.3493Z" fill="#201714"/>
<path d="M140.813 95.1976C140.442 95.1236 140.147 95.3115 140.015 95.6625C139.954 95.8262 139.707 95.7122 139.767 95.5498C139.942 95.0866 140.363 94.8308 140.859 94.9303C141.031 94.9642 140.985 95.2321 140.813 95.1976Z" fill="#4D2F20"/>
<path d="M138.639 96.1208C138.301 95.9492 137.967 96.0504 137.744 96.3523C137.641 96.4936 137.434 96.3172 137.537 96.1771C137.83 95.7783 138.304 95.6461 138.756 95.8759C138.912 95.9553 138.795 96.2002 138.639 96.1208Z" fill="#4D2F20"/>
<path d="M139.563 96.1555C139.518 96.4003 139.514 96.6786 139.612 96.9083C139.753 97.2441 140.163 97.3545 140.411 97.6157C140.751 97.9758 140.484 98.2437 140.021 98.4323C139.909 98.4783 139.837 98.3377 139.948 98.2928C140.988 97.8703 139.675 97.4581 139.461 97.029C139.328 96.761 139.322 96.4343 139.376 96.1421C139.394 96.0427 139.582 96.0554 139.563 96.1555Z" fill="#7C4930"/>
<path d="M139.203 98.8997C139.203 98.8997 139.137 99.8314 139.911 99.832C140.687 99.8332 140.769 98.9973 140.769 98.9973L139.203 98.8997Z" fill="#FAFFFF"/>
<path d="M137.688 98.908C137.812 99.1717 138.126 99.2863 138.39 99.1638C138.655 99.0408 138.769 98.7274 138.646 98.4631C138.523 98.1994 138.209 98.0848 137.945 98.2073C137.68 98.3309 137.565 98.6437 137.688 98.908Z" fill="#FF9C81"/>
<path d="M141.951 97.1316C141.701 96.9734 141.371 97.0467 141.212 97.2953C141.054 97.5444 141.127 97.8742 141.376 98.0318C141.626 98.19 141.956 98.1166 142.115 97.8681C142.273 97.6196 142.2 97.2898 141.951 97.1316Z" fill="#FF9C81"/>
<path d="M146.092 113.342H156.691L150.053 123.631H140.057L146.092 113.342Z" fill="#92D9F8"/>
<path d="M130.256 122.49C130.256 122.49 126.963 115.912 128.126 112.269C129.288 108.626 132.41 108.872 132.41 108.872C132.41 108.872 131.792 117.777 133.968 121.295C136.145 124.813 130.256 122.49 130.256 122.49Z" fill="#FFBE9E"/>
<path d="M131.518 103.914C125.856 104.538 127.347 116.712 127.347 116.712L133.475 117.166C133.475 117.166 137.039 103.307 131.518 103.914Z" fill="#E08B03"/>
<path d="M131.452 123.25C134.404 124.061 142.482 123.261 142.482 123.261L141.102 121.319L131.164 119.308C131.164 119.308 128.446 122.423 131.452 123.25Z" fill="#FFBE9E"/>
<path d="M140.814 121.006C141.005 120.83 141.101 120.525 141.24 120.311C141.515 119.885 141.915 119.57 142.314 119.267C142.535 119.097 142.803 118.481 143.151 118.574C143.719 118.726 142.995 119.63 142.91 119.88C142.832 120.109 142.857 120.401 143.056 120.54C143.187 120.631 143.359 120.633 143.519 120.624C144.029 120.595 144.527 120.483 145.029 120.401C145.29 120.359 145.55 120.335 145.813 120.308C146.009 120.289 146.265 120.186 146.456 120.217C146.608 120.242 146.749 120.4 146.685 120.559C146.627 120.702 146.478 120.68 146.353 120.715C146.071 120.795 145.792 120.883 145.514 120.973C145.452 120.992 145.161 121.043 145.136 121.11C145.013 121.435 145.794 121.309 145.919 121.295C146.232 121.26 146.561 121.234 146.851 121.389C146.89 121.409 146.929 121.438 146.936 121.48C146.948 121.546 146.876 121.596 146.812 121.622C146.441 121.772 146.023 121.785 145.655 121.944C145.595 121.97 145.529 122.011 145.523 122.076C145.503 122.336 146.028 122.362 146.199 122.385C146.307 122.399 146.441 122.428 146.468 122.533C146.485 122.602 146.443 122.676 146.385 122.716C146.326 122.757 146.254 122.772 146.184 122.787C145.978 122.83 145.767 122.892 145.558 122.908C145.457 122.917 145.157 122.914 145.138 123.052C145.134 123.079 145.149 123.105 145.166 123.126C145.231 123.201 145.337 123.221 145.432 123.25C145.526 123.28 145.629 123.34 145.639 123.438C145.653 123.561 145.522 123.646 145.406 123.686C144.989 123.83 144.519 123.826 144.083 123.841C143.615 123.858 143.148 123.854 142.681 123.829C142.061 123.795 141.443 123.724 140.832 123.616C140.298 123.523 139.693 123.379 139.329 122.942C139.226 122.819 139.15 122.676 139.079 122.533C138.984 122.344 138.897 122.15 138.863 121.941C138.831 121.733 138.857 121.508 138.978 121.335C138.995 121.312 139.014 121.289 139.04 121.275C139.072 121.259 139.111 121.261 139.147 121.265C139.428 121.288 139.71 121.327 139.991 121.31C140.265 121.292 140.556 121.21 140.814 121.006Z" fill="#FFBE9E"/>
<path d="M153.474 119.075C153.23 118.94 152.878 118.367 152.547 118.509C152.006 118.74 152.852 119.533 152.972 119.767C153.082 119.982 153.098 120.276 152.921 120.441C152.805 120.55 152.634 120.577 152.476 120.59C151.967 120.634 151.458 120.594 150.949 120.584C150.684 120.58 150.424 120.593 150.159 120.604C149.962 120.612 149.695 120.546 149.51 120.605C149.364 120.651 149.246 120.827 149.332 120.976C149.41 121.11 149.555 121.066 149.684 121.083C149.974 121.123 150.263 121.169 150.551 121.219C150.614 121.23 150.909 121.238 150.944 121.301C151.112 121.605 150.32 121.592 150.195 121.596C149.88 121.605 149.551 121.627 149.285 121.821C149.251 121.846 149.216 121.88 149.215 121.923C149.213 121.991 149.291 122.029 149.358 122.046C149.748 122.143 150.162 122.095 150.549 122.2C150.612 122.218 150.684 122.249 150.698 122.312C150.756 122.568 150.24 122.666 150.074 122.714C149.969 122.743 149.841 122.791 149.829 122.899C149.822 122.97 149.873 123.036 149.937 123.068C150.001 123.1 150.074 123.105 150.145 123.11C150.355 123.123 150.573 123.155 150.783 123.142C150.884 123.135 151.181 123.09 151.219 123.224C151.227 123.25 151.216 123.277 151.202 123.301C151.148 123.384 151.046 123.419 150.956 123.462C150.867 123.505 150.775 123.579 150.777 123.678C150.781 123.801 150.924 123.866 151.044 123.889C151.478 123.973 151.942 123.901 152.377 123.855C152.841 123.805 153.384 123.631 153.789 123.399C156.107 122.074 153.912 119.319 153.474 119.075Z" fill="#FFBE9E"/>
<path d="M296.211 70.1049L290.256 77.873L291.519 68.8446L296.211 70.1049Z" fill="#D6E6F2"/>
<path d="M317.421 70.6641H291.925C289.457 70.6641 287.37 68.8401 287.043 66.3978L285.995 58.549C285.602 55.603 287.899 52.9849 290.877 52.9849H318.469C321.448 52.9849 323.745 55.603 323.351 58.549L322.303 66.3978C321.977 68.8401 319.89 70.6641 317.421 70.6641Z" fill="#D6E6F2"/>
<path d="M300.732 61.824C300.732 62.7648 299.967 63.5273 299.025 63.5273C298.083 63.5273 297.318 62.7648 297.318 61.824C297.318 60.8838 298.083 60.1212 299.025 60.1212C299.967 60.1212 300.732 60.8838 300.732 61.824Z" fill="#F0F8FF"/>
<path d="M306.381 61.824C306.381 62.7648 305.617 63.5273 304.674 63.5273C303.732 63.5273 302.968 62.7648 302.968 61.824C302.968 60.8838 303.732 60.1212 304.674 60.1212C305.617 60.1212 306.381 60.8838 306.381 61.824Z" fill="#F0F8FF"/>
<path d="M312.03 61.824C312.03 62.7648 311.266 63.5273 310.323 63.5273C309.381 63.5273 308.617 62.7648 308.617 61.824C308.617 60.8838 309.381 60.1212 310.323 60.1212C311.266 60.1212 312.03 60.8838 312.03 61.824Z" fill="#F0F8FF"/>
<path d="M155.736 83.1588L160.476 89.3418L159.47 82.1556L155.736 83.1588Z" fill="#D6E6F2"/>
<path d="M138.854 83.6035H159.146C161.111 83.6035 162.772 82.1517 163.032 80.2083L163.866 73.9611C164.179 71.6164 162.351 69.5329 159.98 69.5329H138.02C135.649 69.5329 133.822 71.6164 134.135 73.9611L134.969 80.2083C135.229 82.1517 136.89 83.6035 138.854 83.6035Z" fill="#D6E6F2"/>
<path d="M152.139 76.5684C152.139 77.317 152.747 77.9238 153.496 77.9238C154.246 77.9238 154.855 77.317 154.855 76.5684C154.855 75.8198 154.246 75.213 153.496 75.213C152.747 75.213 152.139 75.8198 152.139 76.5684Z" fill="#F0F8FF"/>
<path d="M147.643 76.5684C147.643 77.317 148.251 77.9238 149.001 77.9238C149.751 77.9238 150.359 77.317 150.359 76.5684C150.359 75.8198 149.751 75.213 149.001 75.213C148.251 75.213 147.643 75.8198 147.643 76.5684Z" fill="#F0F8FF"/>
<path d="M143.146 76.5684C143.146 77.317 143.755 77.9238 144.505 77.9238C145.255 77.9238 145.863 77.317 145.863 76.5684C145.863 75.8198 145.255 75.213 144.505 75.213C143.755 75.213 143.146 75.8198 143.146 76.5684Z" fill="#F0F8FF"/>
<path d="M159.668 189.268H121.506V176.503H159.668V189.268Z" fill="#FEB801"/>
<path d="M159.668 189.268H146.876V176.503H159.668V189.268Z" fill="#E08B03"/>
<path d="M202.153 189.268H163.992V169.209H202.153V189.268Z" fill="#FEB801"/>
<path d="M202.153 189.268H189.361V169.209H202.153V189.268Z" fill="#E08B03"/>
<path d="M244.64 189.268H206.479V159.616H244.64V189.268Z" fill="#FEB801"/>
<path d="M244.64 189.268H231.849V159.616H244.64V189.268Z" fill="#E08B03"/>
</g>
<defs>
<clipPath id="clip0_13240_194803">
<rect width="350" height="194.819" fill="white" transform="translate(0 -0.373047)"/>
</clipPath>
</defs>
</svg>
