<svg width="161" height="191" viewBox="0 0 161 191" fill="none" xmlns="http://www.w3.org/2000/svg">
<g clip-path="url(#clip0_13006_201382)">
<path d="M101.189 80.6882L101.71 81.1313C101.9 81.2941 102.118 81.4546 102.319 81.6175C102.735 81.9424 103.156 82.269 103.596 82.578C104.462 83.2119 105.383 83.7852 106.3 84.3608C108.147 85.4994 110.089 86.4998 112.1 87.3277C114.107 88.1628 116.162 88.899 118.277 89.4339C118.803 89.576 119.339 89.671 119.871 89.7932L120.671 89.968C120.839 90 120.702 89.9824 120.626 90.0048C120.534 90.0343 120.386 90.0846 120.324 90.1469C120.25 90.2171 120.254 90.2139 120.285 90.1964C120.357 90.1125 120.526 89.8187 120.651 89.4435C120.916 88.681 121.081 87.6518 121.174 86.6099C121.268 85.5576 121.3 84.4582 121.293 83.346C121.279 81.1185 121.117 78.843 120.939 76.5596C120.751 74.2753 120.482 71.9839 120.186 69.6909C119.912 67.3987 119.565 65.0921 119.224 62.823L122.224 62.1348C123.545 66.7017 124.591 71.2869 125.392 75.9911C125.803 78.3408 126.103 80.7201 126.268 83.1616C126.348 84.384 126.392 85.6223 126.356 86.9038C126.309 88.19 126.222 89.5002 125.829 90.9836C125.62 91.7245 125.349 92.5301 124.748 93.4044C124.42 93.8443 124.043 94.2954 123.479 94.6882C122.934 95.0723 122.245 95.382 121.571 95.4882C120.92 95.6208 120.192 95.5641 119.785 95.497L118.863 95.3485C118.249 95.2423 117.629 95.1617 117.02 95.0331C114.575 94.5405 112.167 93.8563 109.831 92.9732C107.5 92.0782 105.246 90.9884 103.084 89.7285C102.012 89.0794 100.958 88.4024 99.9371 87.6582C99.4222 87.295 98.92 86.9053 98.417 86.5093C98.1671 86.3018 97.9212 86.1061 97.6721 85.8842C97.4134 85.6598 97.1994 85.4714 96.8809 85.1672L101.189 80.6882Z" fill="#FF8B7B"/>
<path d="M92.5093 77.0526C101.269 75.863 108.349 82.9457 108.349 82.9457L100.314 95.3394C100.314 95.3394 91.7053 89.8272 90.1963 86.077C88.6242 82.172 88.0142 77.6626 92.5093 77.0526Z" fill="#9FD7FF"/>
<path d="M119.337 63.8965L116.429 58.0529L124.066 57.9883C124.066 57.9883 124.22 62.0673 122.286 64.4099L119.337 63.8965Z" fill="#FF8B7B"/>
<path d="M117.784 51.7715L123.463 52.7815L124.066 57.9895L116.429 58.0542L117.784 51.7715Z" fill="#FF8B7B"/>
<path d="M101.164 72.099C101.109 66.2962 95.8588 64.2642 95.8588 64.2642C95.8588 64.2642 102.428 51.8226 99.0373 43.5719C95.6464 35.322 84.5302 33.8577 80.9949 37.7172C74.7976 37.4505 72.8208 46.3663 72.8208 46.3663C72.8208 46.3663 67.6351 47.231 66.2339 51.0083C64.8327 54.7855 69.0946 59.0426 69.0946 59.0426C69.0946 59.0426 63.1728 59.8722 60.994 64.3967C58.8151 68.9213 60.1501 75.0108 66.6994 80.2315C76.214 87.8164 93.7119 78.3018 93.7119 78.3018C93.7119 78.3018 101.227 78.7689 101.164 72.099Z" fill="#191919"/>
<path d="M100.007 77.871C100.007 77.871 103.18 79.2674 92.5351 121.395C80.7993 120.38 68.6707 119.331 62.9597 118.836C64.4974 106.843 65.1529 99.4216 61.5361 74.2214C61.5361 74.2214 67.8491 73.4095 74.238 73.653C79.2352 73.8438 83.3271 74.037 87.6672 74.8147C93.391 75.8406 100.007 77.871 100.007 77.871Z" fill="#9FD7FF"/>
<path d="M92.3816 75.8087C90.8487 75.4414 89.2279 75.0901 87.671 74.8107C83.3277 74.0362 79.2398 73.8446 74.2418 73.653C72.7009 73.5971 71.16 73.5971 69.7148 73.629L70.7049 75.5132C70.8805 75.8486 75.0961 83.7129 83.1041 88.176L85.3077 89.4055L87.3596 87.9444C92.5333 84.2638 93.2998 79.4574 92.3816 75.8087Z" fill="white"/>
<path d="M76.877 58.6445C77.3505 63.039 77.511 71.0294 74.2383 73.6514C74.2383 73.6514 77.9804 80.7508 85.0495 84.6886C91.3146 80.2311 87.6683 74.8131 87.6683 74.8131C82.9497 73.2458 83.3832 69.6809 84.513 66.3963L76.877 58.6445Z" fill="#FF8B7B"/>
<path d="M79.9892 61.8086L84.5081 66.3938C84.2383 67.1707 84.0115 67.9635 83.8878 68.742C82.0698 68.3164 79.4383 66.4274 79.4095 64.4832C79.3959 63.5132 79.7936 62.2429 79.9892 61.8086Z" fill="#EA7063"/>
<path d="M76.692 48.6615C75.8273 55.8639 75.3075 58.8938 78.2369 63.2076C82.6425 69.6955 91.6781 69.1829 94.6777 62.3837C97.3771 56.2639 98.3376 45.5133 91.8841 41.4047C85.5255 37.356 77.5566 41.459 76.692 48.6615Z" fill="#FF8B7B"/>
<path d="M82.2682 39.8105C87.8187 41.2453 82.3344 58.1292 73.4521 53.2302C73.4521 53.2302 73.8513 46.102 76.3128 43.0752C78.7751 40.0477 82.2682 39.8105 82.2682 39.8105Z" fill="#191919"/>
<path d="M81.668 40.7452C84.0632 44.6374 101.829 52.0227 95.8573 43.6394C89.8852 35.2562 81.668 40.7452 81.668 40.7452Z" fill="#191919"/>
<path d="M74.4092 54.8869C74.2855 56.3855 74.8659 57.8018 75.6795 58.7312C76.9042 60.13 78.5298 59.2797 79.0384 57.5927C79.4959 56.0749 79.4097 53.5176 77.7729 52.7383C76.1593 51.9711 74.5505 53.1727 74.4092 54.8869Z" fill="#FF8B7B"/>
<path d="M92.535 121.395C92.535 121.395 102.541 165.66 95.862 196.866C91.3885 217.767 75.2535 259.989 75.2535 259.989L62.6387 259.665C62.6387 259.665 74.8519 215.356 77.3773 197.931C81.6967 168.124 70.8774 119.521 70.8774 119.521L92.535 121.395Z" fill="#191919"/>
<path d="M80.9978 130.332L74.6904 140.28C76.2952 150.596 77.892 163.498 78.2992 175.913C87.1695 160.033 82.9699 138.739 80.9978 130.332Z" fill="#0A2335"/>
<path d="M86.0702 120.922C86.0702 120.922 80.2004 167.866 67.4753 193.494C57.1974 214.194 29.7722 243.662 29.7722 243.662L22.7598 236.438C22.7598 236.438 41.2844 204.412 48.9236 190.661C67.6534 156.944 52.3463 131.214 62.9619 118.834L86.0702 120.922Z" fill="#191919"/>
<path d="M62.668 117.064L61.1055 119.596C60.9841 119.792 61.2093 120.023 61.551 120.053L92.5667 122.735C92.8334 122.759 93.0657 122.647 93.0969 122.481L93.5927 119.856C93.627 119.674 93.409 119.499 93.1176 119.474L63.1686 116.884C62.9482 116.865 62.7454 116.937 62.668 117.064Z" fill="#0077CC"/>
<path d="M66.4011 120.762L65.5987 120.692C65.4391 120.679 65.3241 120.585 65.344 120.486L66.0179 117.079C66.0379 116.98 66.1848 116.909 66.3444 116.924L67.1468 116.993C67.3065 117.007 67.4215 117.1 67.4015 117.2L66.7277 120.607C66.7077 120.705 66.5608 120.775 66.4011 120.762Z" fill="#191919"/>
<path d="M90.2898 122.825L89.4874 122.755C89.3277 122.742 89.2128 122.648 89.2327 122.549L89.9066 119.143C89.9265 119.043 90.0734 118.972 90.2331 118.986L91.0355 119.056C91.1952 119.069 91.3102 119.163 91.2902 119.262L90.6164 122.668C90.5964 122.769 90.4495 122.839 90.2898 122.825Z" fill="#191919"/>
<path d="M78.3455 121.79L77.5431 121.72C77.3834 121.707 77.2684 121.613 77.2884 121.514L77.9622 118.107C77.9822 118.008 78.1291 117.937 78.2888 117.951L79.0912 118.02C79.2509 118.034 79.3658 118.127 79.3459 118.226L78.672 121.633C78.6521 121.734 78.5051 121.804 78.3455 121.79Z" fill="#191919"/>
<path d="M87.1301 52.6275C87.0239 53.2071 87.2458 53.7341 87.6243 53.8027C88.0027 53.8714 88.3963 53.4578 88.5025 52.8782C88.6087 52.2985 88.3868 51.7716 88.0083 51.7029C87.6299 51.6335 87.2363 52.0478 87.1301 52.6275Z" fill="#191919"/>
<path d="M93.6858 53.8247C93.5796 54.4044 93.8007 54.9305 94.18 55C94.5592 55.0694 94.9521 54.6551 95.0582 54.0754C95.1644 53.4958 94.9425 52.9688 94.564 52.9002C94.1848 52.8307 93.792 53.2451 93.6858 53.8247Z" fill="#191919"/>
<path d="M94.3916 52.9028L95.8583 52.7559C95.8583 52.7559 94.9441 53.7132 94.3916 52.9028Z" fill="#191919"/>
<path d="M91.7717 54.5059C91.7717 54.5059 92.2995 57.1821 93.1625 58.5849C92.2667 59.1598 91.0244 58.5953 91.0244 58.5953L91.7717 54.5059Z" fill="#FF5652"/>
<path d="M88.5949 60.478C88.5861 60.478 88.5773 60.4772 88.5693 60.4756C85.8556 59.9798 84.9534 57.8943 84.9166 57.8057C84.8855 57.7323 84.9206 57.6484 84.9941 57.6173C85.0651 57.5854 85.1506 57.6205 85.1817 57.6939C85.1905 57.7139 86.0655 59.7251 88.6212 60.1922C88.6995 60.2065 88.7514 60.2816 88.7378 60.359C88.7234 60.4293 88.6636 60.478 88.5949 60.478Z" fill="#191919"/>
<path d="M85.5718 48.1096C85.4856 48.1096 85.3994 48.0704 85.3435 47.9962C85.2469 47.87 85.2708 47.6896 85.397 47.593C86.894 46.4489 88.3758 46.9567 88.4413 46.979C88.5906 47.0317 88.668 47.1954 88.6162 47.3455C88.5635 47.4948 88.399 47.5714 88.2497 47.5219C88.1994 47.5052 86.9882 47.102 85.7467 48.0505C85.694 48.0904 85.6325 48.1096 85.5718 48.1096Z" fill="#191919"/>
<path d="M97.3866 51.6225C97.3035 51.6225 97.2205 51.5866 97.1638 51.5171C96.1666 50.3004 94.866 50.4265 94.8516 50.4273C94.6944 50.4425 94.5522 50.3299 94.5339 50.1726C94.5171 50.0145 94.6305 49.8724 94.7886 49.8549C94.854 49.8493 96.4149 49.6952 97.6093 51.1523C97.7099 51.2752 97.6924 51.4565 97.5686 51.5571C97.5151 51.6018 97.4512 51.6225 97.3866 51.6225Z" fill="#191919"/>
<path d="M63.7835 84.8021C62.5628 87.2907 61.243 89.484 59.8282 91.7291C58.3911 93.9343 56.8717 96.0876 55.2302 98.1626C53.5999 100.246 51.809 102.215 49.9272 104.109C48.9491 105.028 47.999 105.967 46.9539 106.825L46.1859 107.482L45.9942 107.645L45.7411 107.843C45.5663 107.974 45.3978 108.112 45.2102 108.228C44.4852 108.721 43.6884 109.124 42.8693 109.404C41.2222 109.973 39.5423 110.064 38.0078 109.938C36.47 109.795 35.0369 109.448 33.6924 108.994C31.0065 108.072 28.5985 106.816 26.3558 105.377C21.8728 102.486 17.919 99.1479 14.2695 95.3642L16.3885 93.1327C18.2967 94.6648 20.3151 96.1946 22.3702 97.5758C24.4117 98.9874 26.5099 100.302 28.6592 101.437C30.8101 102.554 32.9938 103.573 35.1742 104.157C37.3371 104.761 39.4992 104.865 40.9914 104.237C41.7954 103.915 42.2018 103.563 43.1998 102.605C44.09 101.809 44.91 100.917 45.7515 100.057C47.3882 98.2744 48.9068 96.371 50.3934 94.4333C51.8713 92.4868 53.2406 90.4444 54.546 88.3646C55.2086 87.3307 55.8434 86.2791 56.4629 85.2213C57.0609 84.1714 57.6869 83.0608 58.2059 82.0684L63.7835 84.8021Z" fill="#FF8B7B"/>
<path d="M18.3446 94.106L15.5015 88.2305L10.7773 94.2329C10.7773 94.2329 13.9095 96.8501 16.9466 96.7527L18.3446 94.106Z" fill="#FF8B7B"/>
<path d="M12.397 86.5195L9.7207 91.6301L10.7778 94.2337L15.5012 88.2313L12.397 86.5195Z" fill="#FF8B7B"/>
<path d="M61.5369 74.222C57.9121 74.8632 52.8311 85.2624 52.8311 85.2624L62.7816 94.262C62.7816 94.262 69.2399 85.6001 68.8527 80.876C68.5221 76.8648 66.1549 73.4053 61.5369 74.222Z" fill="#9FD7FF"/>
<path d="M87.8369 51.7055L89.3036 51.5586C89.3036 51.5586 88.3894 52.5159 87.8369 51.7055Z" fill="#191919"/>
<path opacity="0.6" d="M27.7786 6.19922L4.37891 157.45L136.052 177.822L159.452 26.5698L27.7786 6.19922ZM81.8787 92.2475C65.0099 89.6375 53.4474 73.8427 56.0574 56.9739C58.6682 40.0988 74.4623 28.5426 91.331 31.1526C108.205 33.7634 119.763 49.5511 117.152 66.4263C114.542 83.295 98.753 94.8583 81.8787 92.2475Z" fill="#0077CC"/>
<path opacity="0.3" d="M132.07 172.077L131.872 172.047L0.00195312 151.645L0.0323003 151.448L23.4623 0L23.6595 0.030335L155.53 20.4312L155.5 20.6284L132.07 172.077ZM0.457051 151.312L131.736 171.622L155.075 20.765L23.7961 0.455092L0.457051 151.312Z" fill="#0077CC"/>
<path d="M86.6208 93.8129C84.9944 93.8129 83.3481 93.6891 81.6922 93.4328C64.1959 90.7254 52.1639 74.2886 54.8705 56.7923C56.1823 48.3156 60.7157 40.8569 67.6363 35.7918C74.556 30.7267 83.0351 28.6589 91.5102 29.9706C109.007 32.678 121.038 49.1141 118.333 66.6111C115.882 82.4507 102.176 93.8129 86.6208 93.8129ZM82.0587 91.0655C98.2472 93.5709 113.46 82.4356 115.965 66.2447C118.47 50.0538 107.335 34.8433 91.1438 32.3379C83.301 31.1243 75.4543 33.0381 69.051 37.7248C62.6462 42.4122 58.4514 49.3144 57.2378 57.1588C54.7332 73.3497 65.8678 88.5601 82.0587 91.0655Z" fill="white"/>
<path d="M56.4152 101.616L27.4121 97.1289L26.4036 103.647L55.4067 108.134L56.4152 101.616Z" fill="#9FD7FF"/>
<path d="M79.8535 105.241L60.2314 102.205L59.223 108.723L78.845 111.759L79.8535 105.241Z" fill="#9FD7FF"/>
<path d="M130.253 126.562L25.3691 110.334L24.3607 116.852L129.244 133.08L130.253 126.562Z" fill="white"/>
<path d="M75.3781 132.259L23.2246 124.189L22.2161 130.707L74.3697 138.777L75.3781 132.259Z" fill="white"/>
<path d="M119.188 139.037L84.3008 133.639L83.2923 140.156L118.18 145.554L119.188 139.037Z" fill="white"/>
<path d="M104.926 151.018L21.082 138.045L20.0736 144.563L103.917 157.536L104.926 151.018Z" fill="white"/>
<path d="M158.82 166.011H158.022C158.022 164.024 157.777 162.046 157.295 160.135L158.069 159.94C158.567 161.915 158.82 163.958 158.82 166.011ZM155.69 155.695C153.943 152.038 151.273 148.853 147.966 146.483L148.43 145.834C151.846 148.281 154.605 151.573 156.411 155.35L155.69 155.695Z" fill="#9FD7FF"/>
<path d="M134.013 144C121.856 144 112 153.856 112 166.013C112 178.17 121.856 188.026 134.013 188.026C146.17 188.026 156.026 178.17 156.026 166.013C156.026 153.856 146.17 144 134.013 144ZM134.013 185.171C123.432 185.171 114.855 176.593 114.855 166.013C114.855 155.432 123.432 146.855 134.013 146.855C144.593 146.855 153.171 155.432 153.171 166.013C153.17 176.593 144.593 185.171 134.013 185.171Z" fill="#9FD7FF"/>
<path opacity="0.8" d="M134.013 185.169C144.594 185.169 153.171 176.592 153.171 166.011C153.171 155.431 144.594 146.854 134.013 146.854C123.433 146.854 114.855 155.431 114.855 166.011C114.855 176.592 123.433 185.169 134.013 185.169Z" fill="#0077CC"/>
<path d="M131.032 178.134L119.792 166.894L122.614 164.071L131.032 172.489L145.41 158.111L148.232 160.934L131.032 178.134Z" fill="white"/>
</g>
<defs>
<clipPath id="clip0_13006_201382">
<rect width="161" height="191" fill="white"/>
</clipPath>
</defs>
</svg>
