<svg width="275" height="196" viewBox="0 0 275 196" fill="none" xmlns="http://www.w3.org/2000/svg">
<g clip-path="url(#clip0_13025_205571)">
<path d="M238.563 234.577L244.632 137.929C246.887 102.031 218.38 71.6777 182.411 71.6777C149.344 71.6777 122.029 97.496 120.167 130.511L113.802 243.393H229.174C234.14 243.394 238.252 239.534 238.563 234.577Z" fill="#57B9FF"/>
<path opacity="0.1" d="M238.783 231.078L244.632 137.931C246.887 102.033 218.38 71.6797 182.411 71.6797C149.344 71.6797 122.029 97.498 120.167 130.513L113.802 243.395H225.667C232.604 243.395 238.348 238.002 238.783 231.078Z" fill="black"/>
<path d="M219.836 243.394L226.46 137.929C228.714 102.031 200.207 71.6777 164.239 71.6777C131.171 71.6777 103.856 97.496 101.994 130.511L95.6289 243.393H219.836V243.394Z" fill="#57B9FF"/>
<path d="M120.787 203.565H78.2848L75.4687 162.586L74.8687 153.79V153.777L74.5914 149.729C74.5101 148.647 74.3715 147.59 74.1754 146.559C74.1288 146.329 74.0714 146.088 74.026 145.858C74.0033 145.68 73.9567 145.514 73.8993 145.349C72.6873 141.046 70.4258 137.253 67.4256 134.35C63.8373 130.874 59.2319 128.672 54.1543 128.366H94.1296C94.5683 128.341 95.007 128.328 95.4457 128.328C100.997 128.328 106.062 130.606 109.928 134.35C112.928 137.252 115.191 141.046 116.401 145.349C116.459 145.514 116.505 145.68 116.528 145.858C116.806 147.106 117.002 148.391 117.094 149.729L117.371 153.777V153.79L120.787 203.565Z" fill="#4EA7E6"/>
<path opacity="0.1" d="M120.787 203.565H78.2848L75.4687 162.586L74.8687 153.79V153.777L74.5914 149.729C74.5101 148.647 74.3715 147.59 74.1754 146.559C74.1288 146.329 74.0714 146.088 74.026 145.858C74.0033 145.68 73.9567 145.514 73.8993 145.349C72.6873 141.046 70.4258 137.253 67.4256 134.35C63.8373 130.874 59.2319 128.672 54.1543 128.366H94.1296C94.5683 128.341 95.007 128.328 95.4457 128.328C100.997 128.328 106.062 130.606 109.928 134.35C112.928 137.252 115.191 141.046 116.401 145.349C116.459 145.514 116.505 145.68 116.528 145.858C116.806 147.106 117.002 148.391 117.094 149.729L117.371 153.777V153.79L120.787 203.565Z" fill="#68C0FF"/>
<g opacity="0.1">
<path d="M154.471 181.734H171.545C175.695 181.734 179.06 184.362 179.06 187.602V197.7C179.06 200.94 175.695 203.568 171.545 203.568H154.471V181.734Z" fill="black"/>
</g>
<path d="M84.7745 203.568H159.945C163.526 203.568 166.43 200.664 166.43 197.083V188.219C166.43 184.638 163.526 181.734 159.945 181.734H84.7745C81.1934 181.734 78.29 184.638 78.29 188.219V197.083C78.29 200.664 81.1934 203.568 84.7745 203.568Z" fill="#68C0FF"/>
<path d="M262.082 152.544C262.082 164.51 253.4 174.465 241.994 176.413L237.59 234.653C237.208 239.605 233.618 243.399 229.316 243.399H182.431C186.734 243.399 190.323 239.605 190.706 234.653L193.06 203.566L195.11 176.413C202.698 175.115 209.076 170.289 212.487 163.67C212.717 163.25 212.92 162.804 213.111 162.358C214.461 159.355 215.2 156.044 215.2 152.544C215.2 150.85 215.021 149.196 214.69 147.605C214.562 146.956 214.398 146.307 214.219 145.683C213.354 142.793 211.978 140.133 210.196 137.803L210.183 137.79C207.955 134.888 205.091 132.532 201.806 130.891C198.547 129.249 194.868 128.332 190.985 128.332H237.871C240.353 128.332 242.759 128.715 245.024 129.414C246.297 129.808 247.52 130.304 248.69 130.89C251.975 132.532 254.839 134.887 257.067 137.789L257.08 137.802C260.211 141.889 262.082 146.993 262.082 152.544Z" fill="#57B9FF"/>
<path opacity="0.1" d="M262.082 152.544C262.082 164.51 253.4 174.465 241.994 176.413L237.59 234.653C237.208 239.605 233.618 243.399 229.316 243.399H182.431C186.734 243.399 190.323 239.605 190.706 234.653L193.06 203.566L195.11 176.413C202.698 175.115 209.076 170.289 212.487 163.67C212.717 163.25 212.92 162.804 213.111 162.358C214.461 159.355 215.2 156.044 215.2 152.544C215.2 150.85 215.021 149.196 214.69 147.605C214.562 146.956 214.398 146.307 214.219 145.683C213.354 142.793 211.978 140.133 210.196 137.803L210.183 137.79C207.955 134.888 205.091 132.532 201.806 130.891C198.547 129.249 194.868 128.332 190.985 128.332H237.871C240.353 128.332 242.759 128.715 245.024 129.414C246.297 129.808 247.52 130.304 248.69 130.89C251.975 132.532 254.839 134.887 257.067 137.789L257.08 137.802C260.211 141.889 262.082 146.993 262.082 152.544Z" fill="black"/>
<path d="M215.2 152.546C215.2 164.507 207.329 174.466 196.986 176.41L192.994 234.649C192.65 239.606 189.397 243.401 185.487 243.401H60.2974C56.3983 243.401 53.1459 239.606 52.7909 234.649L48.7879 176.318C38.6542 174.19 30.9912 164.356 30.9912 152.546C30.9912 147.325 32.4925 142.494 35.0361 138.549C37.1111 135.317 39.9045 132.671 43.1366 130.889C46.0866 129.245 49.4226 128.324 52.9475 128.324C58.4937 128.324 63.5605 130.613 67.4285 134.351C70.4311 137.249 72.6937 141.045 73.9022 145.345C73.9548 145.517 74.0062 145.679 74.0277 145.863C74.3098 147.105 74.4962 148.393 74.5907 149.727L74.8728 153.776V153.788L78.2817 203.563H167.504L171.194 149.728C171.726 142.126 175.427 135.79 180.566 132.787C183.809 130.234 187.719 128.647 191.93 128.383C192.368 128.337 192.806 128.325 193.244 128.325C196.663 128.325 199.905 129.188 202.783 130.752C202.878 130.787 202.96 130.844 203.055 130.891C206.037 132.535 208.633 134.892 210.655 137.791L210.666 137.803C213.501 141.885 215.2 146.991 215.2 152.546Z" fill="#57B9FF"/>
<path opacity="0.1" d="M165.439 243.401H60.2974C56.3983 243.401 53.1459 239.606 52.7909 234.649L48.7879 176.318C38.6542 174.19 30.9912 164.356 30.9912 152.546C30.9912 147.325 32.4925 142.494 35.0361 138.549C37.1111 135.317 39.9045 132.671 43.1366 130.889C46.0866 129.245 49.4226 128.324 52.9475 128.324C58.4937 128.324 63.5605 130.613 67.4285 134.351C70.4311 137.249 72.6937 141.045 73.9022 145.345C73.9548 145.517 74.0062 145.679 74.0277 145.863C74.3098 147.105 74.4962 148.393 74.5907 149.727L74.8727 153.776V153.788L78.2817 203.563H167.504L165.439 243.401Z" fill="white"/>
<path d="M151.797 77.7726C149.719 78.9237 147.813 79.96 145.851 80.9676C143.889 81.9764 141.896 82.9231 139.906 83.8483C135.89 85.683 131.823 87.421 127.633 88.9522C123.418 90.5275 119.125 91.8854 114.771 93.0221C110.246 94.2413 105.624 95.0685 100.956 95.4952L99.9713 95.586L99.4955 95.5513C95.2785 95.0649 91.5373 94.2987 87.7853 93.5194C84.0332 92.7412 80.3111 91.8591 76.6296 90.9232C72.9469 89.9861 69.2917 89.0048 65.6413 87.9541C61.9909 86.9034 58.3548 85.8193 54.7402 84.5846L56.4029 76.2845C63.9165 76.7698 71.4229 77.524 78.86 78.2603L89.9631 79.3731C93.6183 79.7245 97.3595 80.0365 100.635 80.1632L99.1871 80.1954C102.938 79.5297 106.635 78.5962 110.253 77.4021C114.003 76.1769 117.748 74.8453 121.478 73.2341C125.21 71.6228 128.931 69.9877 132.613 68.233C134.495 67.37 136.333 66.458 138.124 65.5651C139.914 64.6722 141.826 63.7184 143.462 62.8613L151.797 77.7726Z" fill="#99D6FF"/>
<path opacity="0.1" d="M151.797 77.7726C149.719 78.9237 147.813 79.96 145.851 80.9676C143.889 81.9764 141.896 82.9231 139.906 83.8483C135.89 85.683 131.823 87.421 127.633 88.9522C123.418 90.5275 119.125 91.8854 114.771 93.0221C110.246 94.2413 105.624 95.0685 100.956 95.4952L99.9713 95.586L99.4955 95.5513C95.2785 95.0649 91.5373 94.2987 87.7853 93.5194C84.0332 92.7412 80.3111 91.8591 76.6296 90.9232C72.9469 89.9861 69.2917 89.0048 65.6413 87.9541C61.9909 86.9034 58.3548 85.8193 54.7402 84.5846L56.4029 76.2845C63.9165 76.7698 71.4229 77.524 78.86 78.2603L89.9631 79.3731C93.6183 79.7245 97.3595 80.0365 100.635 80.1632L99.1871 80.1954C102.938 79.5297 106.635 78.5962 110.253 77.4021C114.003 76.1769 117.748 74.8453 121.478 73.2341C125.21 71.6228 128.931 69.9877 132.613 68.233C134.495 67.37 136.333 66.458 138.124 65.5651C139.914 64.6722 141.826 63.7184 143.462 62.8613L151.797 77.7726Z" fill="black"/>
<path d="M54.8153 71.778C52.0147 69.7676 49.0336 68.9512 49.0336 68.9512L45.9414 81.0344L55.2109 84.9334L56.2628 83.6449C59.2402 79.9969 58.6414 74.5236 54.8153 71.778Z" fill="#FFC3BD"/>
<path d="M45.9417 81.0322L49.0352 68.9502L40.3801 64.2324L37.7695 72.7405L45.9417 81.0322Z" fill="#FFC3BD"/>
<path opacity="0.2" d="M122.688 90.0014L123.023 89.9858L123.171 90.0157C127.739 89.5197 141.153 87.2641 150.867 77.691C149.412 74.8988 147.43 72.7246 145.003 72.2393C138.316 71.0177 130.115 75.8109 122.688 90.0014Z" fill="black"/>
<path d="M130.543 152.532C141.993 121.614 134.46 93.1789 135.9 77.4405C136.638 69.4762 142.55 62.9571 150.405 61.4463C158.231 59.933 167.891 58.2393 177.116 56.995C178 56.8755 178.891 56.8217 179.783 56.8337C189.761 56.9687 197.74 65.166 197.605 75.1443C196.798 121.791 181.854 152.532 181.854 152.532L157.717 152.428L130.543 152.532Z" fill="#40AFFF"/>
<path opacity="0.8" d="M130.543 152.532C141.993 121.614 134.46 93.1789 135.9 77.4405C136.638 69.4762 142.55 62.9571 150.405 61.4463C158.231 59.933 167.891 58.2393 177.116 56.995C178 56.8755 178.891 56.8217 179.783 56.8337C189.761 56.9687 197.74 65.166 197.605 75.1443C196.798 121.791 181.854 152.532 181.854 152.532L157.717 152.428L130.543 152.532Z" fill="white"/>
<path d="M124.549 145.293C124.549 145.293 45.4867 146.079 44.2556 171.122C42.5057 207.125 36.4229 262.017 36.4229 262.017L51.3341 266.115C51.3341 266.115 72.6019 211.689 73.4315 183.572C95.6687 179.14 152.85 183.572 159.567 168.966C162.858 161.368 163.73 153.231 162.102 145.293H124.549Z" fill="#353535"/>
<path opacity="0.6" d="M124.549 145.293C124.549 145.293 45.4867 146.079 44.2556 171.122C42.5057 207.125 36.4229 262.017 36.4229 262.017L51.3341 266.115C51.3341 266.115 72.6019 211.689 73.4315 183.572C95.6687 179.14 152.85 183.572 159.567 168.966C162.858 161.368 163.73 153.231 162.102 145.293H124.549Z" fill="black"/>
<path d="M145.853 145.293C145.853 145.293 74.1439 150.154 75.907 175.185C77.8338 202.587 106.551 266.116 106.551 266.116H121.05C121.05 266.116 111.413 208.46 107.04 180.546C127.261 180.546 174.138 183.596 180.869 168.954C184.161 161.357 185.028 153.218 183.389 145.281L145.853 145.293Z" fill="#353535"/>
<path opacity="0.5" d="M145.853 145.293C145.853 145.293 74.1439 150.154 75.907 175.185C77.8338 202.587 106.551 266.116 106.551 266.116H121.05C121.05 266.116 111.413 208.46 107.04 180.546C127.261 180.546 174.138 183.596 180.869 168.954C184.161 161.357 185.028 153.218 183.389 145.281L145.853 145.293Z" fill="black"/>
<path d="M156.714 43.9484C158.368 50.3288 158.886 58.2715 149.968 61.5753C147.496 65.5186 146.281 69.6734 155.816 68.1925C163.399 67.2135 170.301 63.3085 175.046 57.3129C169.338 52.3238 170.384 37.0037 171.827 28.3594L156.714 43.9484Z" fill="#FFC3BD"/>
<path d="M155.701 55.5605C147.52 56.9674 140.782 63.2941 137.174 70.7682C133.565 78.2424 132.696 86.7505 132.764 95.0506C132.832 103.351 133.779 111.636 133.56 119.933C133.308 129.522 130.995 136.274 127.697 145.282C127.697 147.423 130.938 148.632 133.687 149.188C139.396 136.718 143.15 124.8 142.753 111.091C142.465 101.147 142.324 89.8212 143.945 80.0043C145.542 70.3344 157.296 57.3989 156.734 55.6359L155.701 55.5605Z" fill="#99D6FF"/>
<path opacity="0.3" d="M163.68 48.6253C161.747 49.8959 159.451 50.576 157.634 50.0907C157.649 48.5392 157.537 46.9889 157.297 45.4554L167.19 37.3262C167.41 38.3816 167.55 39.4514 167.609 40.526C167.783 43.7234 166.355 46.867 163.68 48.6253Z" fill="black"/>
<path d="M148.883 6.20107C138.416 12.1094 138.31 28.8375 141.534 38.5038C142.452 41.357 144.232 43.8551 146.63 45.6541C153.031 50.4567 162.113 49.1623 166.915 42.7627C172.028 36.2925 171.292 29.7651 171.041 18.5389C170.771 7.32346 159.349 0.291552 148.883 6.20107Z" fill="#FFC3BD"/>
<path opacity="0.2" d="M152.25 36.2513C148.878 37.694 145.181 39.573 141.776 39.1666C142.746 41.7413 144.422 43.9956 146.629 45.6523C153.03 50.4549 162.112 49.1604 166.916 42.7608C171.098 37.4681 172.42 33.8799 171.189 24.2207C164.661 31.8933 159.461 33.1662 152.25 36.2513Z" fill="black"/>
<path d="M162.367 9.92277C160.113 13.3855 160.576 18.3735 163.429 21.3617C164.373 22.3514 165.53 23.1248 166.442 24.1432C167.847 25.7114 168.601 27.845 168.495 29.9487C168.851 27.2103 171.408 24.9332 174.169 24.8962C172.75 29.2793 171.33 33.6636 169.911 38.0468C175.539 35.5032 179.635 29.8471 180.295 23.7069C181.202 15.2633 170.73 -2.929 162.367 9.92277Z" fill="#191919"/>
<path d="M137.958 10.5634C137.21 11.4897 136.501 12.5057 136.292 13.6771C136.082 14.8485 136.501 16.2075 137.551 16.7693C138.403 17.2247 139.438 17.0717 140.389 16.9068C143.57 16.3533 146.752 15.7999 149.933 15.2477C155.406 14.2962 160.884 13.3436 166.287 12.0503C168.711 11.4694 171.437 10.5562 172.391 8.25404C175.489 0.784667 162.26 -0.187108 157.848 0.0256537C150.272 0.387827 142.663 4.7387 137.958 10.5634Z" fill="#191919"/>
<path d="M172.739 23.0315C169.598 23.7403 168.264 28.2454 168.354 31.1368C168.373 34.4155 170.783 36.5551 173.51 34.5769C175.571 33.0469 176.973 30.7914 177.433 28.2669C177.991 25.1639 175.881 22.3227 172.739 23.0315Z" fill="#FFC3BD"/>
<path d="M150.606 34.4401C150.606 34.4401 148.817 35.6163 147.352 34.9338C148.562 32.2372 148.401 32.8456 148.768 28.2461L150.606 34.4401Z" fill="#ED847E"/>
<path d="M156.119 19.4807C155.219 18.4778 152.776 18.0917 151.442 18.2865C151.433 18.2889 151.422 18.2901 151.411 18.2925C151.133 18.3356 150.871 18.1431 150.829 17.8646C150.791 17.5682 150.988 17.2921 151.281 17.2335C152.953 16.9801 155.742 17.4845 156.874 18.7408C156.877 18.7444 156.881 18.7491 156.884 18.7527C157.08 18.9738 157.059 19.3121 156.838 19.507C156.77 19.5703 156.689 19.6217 156.602 19.6564C156.422 19.6851 156.239 19.6193 156.119 19.4807Z" fill="#191919"/>
<path d="M140.65 21.7757C140.639 21.7697 140.628 21.7625 140.618 21.7554C140.382 21.5988 140.319 21.2808 140.476 21.0466C141.331 19.5202 142.848 18.4791 144.58 18.2317C144.592 18.2305 144.605 18.2305 144.618 18.2305C144.894 18.2305 145.118 18.454 145.118 18.7301C145.129 19.0289 144.9 19.2835 144.603 19.305C143.234 19.5214 142.044 20.3593 141.378 21.5749C141.286 21.7291 141.125 21.8307 140.946 21.8486C140.841 21.8582 140.737 21.8319 140.65 21.7757Z" fill="#191919"/>
<path d="M149.671 39.3038C150.979 40.8385 152.835 43.9021 152.835 43.9021C153.086 43.8029 153.338 43.7024 153.582 43.5877C156.947 42.1306 157.905 40.1022 157.946 38.2949C157.965 37.3052 157.698 36.3741 157.402 35.6498C157.067 34.8083 156.669 34.2656 156.669 34.2656C155.464 36.3347 152.457 37.9866 150.809 38.7862C150.122 39.1293 149.671 39.3038 149.671 39.3038Z" fill="#2E353A"/>
<path d="M150.809 38.785L151.288 39.4508C151.568 39.8393 152.09 39.9815 152.524 39.7771C155.011 38.6057 156.66 37.359 157.258 36.0347C157.373 35.7801 157.34 35.48 157.22 35.2278C156.938 34.6302 156.67 34.2656 156.67 34.2656C155.464 36.3347 152.458 37.9866 150.809 38.785Z" fill="white"/>
<path d="M153.583 43.5838C156.948 42.1267 157.906 40.0983 157.947 38.291C156.825 38.8408 155.544 39.6572 154.612 40.8095C153.895 41.6868 153.639 42.6729 153.583 43.5838Z" fill="#DE5753"/>
<path d="M144.495 25.5663C143.91 25.6739 143.578 26.5046 143.753 27.4022C143.927 28.2999 144.553 28.9454 145.133 28.827C145.713 28.7087 146.05 27.8887 145.875 26.9911C145.72 26.1125 145.079 25.4587 144.495 25.5663Z" fill="#191919"/>
<path d="M154.751 23.8632C154.166 23.9707 153.834 24.8015 154.008 25.6991C154.183 26.5968 154.809 27.2423 155.389 27.1239C155.969 27.0056 156.306 26.1856 156.131 25.2879C155.977 24.4094 155.335 23.7556 154.751 23.8632Z" fill="#191919"/>
<path opacity="0.9" d="M139.97 30.3688L147.513 28.6738L147.641 31.876L140.632 33.553L139.97 30.3688Z" fill="white"/>
<g opacity="0.8">
<path opacity="0.9" d="M149.812 28.1701L150.713 31.1129L160.386 29.0307L159.813 25.6289L149.812 28.1701Z" fill="white"/>
</g>
<path d="M147.559 29.8536L147.513 28.6751L149.81 28.1719L150.151 29.2859L147.559 29.8536Z" fill="#191919"/>
<path d="M144.813 151.16C144.813 151.16 158.427 156.432 161.534 157.468C165.199 158.69 168.917 159.922 172.74 160.038C176.564 160.154 180.573 159.025 183.34 156.077C186.594 152.612 187.601 147.346 188.45 142.417C190.946 127.92 193.443 113.423 195.938 98.9255C197.17 91.7764 200.275 81.0355 200.011 76.9428C199.524 69.4161 194.729 60.5291 182.522 55.632C177.782 53.7303 173.099 54.4606 169.102 59.2418C166.717 62.0949 159.759 68.9511 158.05 81.0343C156.68 90.7186 154.56 103.26 154.689 113.096C154.859 126.001 149.719 142.31 144.813 151.16Z" fill="#99D6FF"/>
<path d="M199.353 72.9665C200.741 85.5685 193.777 117.327 192.431 119.23C186.722 137.657 171.03 127.726 168.755 126.877C164.798 125.415 160.772 122.564 157.008 120.66C149.701 117.032 142.787 114.113 135.993 109.597L139.82 102.044C147.26 104.587 168.338 110.028 171.81 110.876C173.32 111.271 179.186 114.351 179.125 110.289C179.958 108.94 181.107 82.6364 183.628 73.337C183.911 72.29 184.418 71.3242 185.095 70.4767L185.324 70.1898C189.398 65.0895 197.529 66.6984 199.353 72.9665Z" fill="#99D6FF"/>
<path opacity="0.1" d="M199.353 72.9665C200.741 85.5685 193.777 117.327 192.431 119.23C186.722 137.657 171.03 127.726 168.755 126.877C164.798 125.415 160.772 122.564 157.008 120.66C149.701 117.032 142.787 114.113 135.993 109.597L139.82 102.044C147.26 104.587 168.338 110.028 171.81 110.876C173.32 111.271 179.186 114.351 179.125 110.289C179.958 108.94 181.107 82.6364 183.628 73.337C183.911 72.29 184.418 71.3242 185.095 70.4767L185.324 70.1898C189.398 65.0895 197.529 66.6984 199.353 72.9665Z" fill="white"/>
<path d="M136.823 120.543H101.445L97.4062 74.3789H132.784L136.823 120.543Z" fill="#99D6FF"/>
<path opacity="0.5" d="M136.823 120.543H101.445L97.4062 74.3789H132.784L136.823 120.543Z" fill="white"/>
<path d="M135.574 120.311H100.196L96.1572 74.1465H131.535L135.574 120.311Z" fill="#40AFFF"/>
<path opacity="0.8" d="M135.574 120.311H100.196L96.1572 74.1465H131.535L135.574 120.311Z" fill="white"/>
<path d="M121.539 77.0302H106.66L106.154 71.2617H121.034L121.539 77.0302Z" fill="#40AFFF"/>
<path d="M106.154 71.2627L107.622 70.7559H123.028L123.236 73.2122L122.091 74.5402L122.015 76.547L121.539 77.0311L121.034 71.2627H106.154Z" fill="#40AFFF"/>
<path opacity="0.5" d="M106.154 71.2627L107.622 70.7559H123.028L123.236 73.2122L122.091 74.5402L122.015 76.547L121.539 77.0311L121.034 71.2627H106.154Z" fill="black"/>
<path d="M142.634 104.551L143.442 108.865C141.531 113.842 130.56 112.528 130.56 112.528L130.541 99.7773L140.213 102.024C141.448 102.317 142.396 103.306 142.634 104.551Z" fill="#FFC3BD"/>
<path d="M130.542 99.7773L130.596 112.556L120.889 112.798L118.661 101.554L130.542 99.7773Z" fill="#FFC3BD"/>
<path d="M167.503 203.564L171.193 149.729C171.725 142.127 175.425 135.791 180.565 132.788C183.808 130.235 187.718 128.648 191.929 128.384C192.366 128.338 192.805 128.326 193.242 128.326C196.662 128.326 199.904 129.189 202.782 130.753C202.876 130.787 202.959 130.845 203.053 130.891C206.035 132.536 208.632 134.893 210.654 137.792L210.665 137.804C213.5 141.887 215.2 146.993 215.2 152.548C215.2 164.509 207.329 174.468 196.986 176.412L192.994 234.651C192.649 239.608 189.397 243.403 185.487 243.403H165.438L167.503 203.564Z" fill="#57B9FF"/>
<path opacity="0.1" d="M167.503 203.564L171.193 149.729C171.725 142.127 175.425 135.791 180.565 132.788C183.808 130.235 187.718 128.648 191.929 128.384C192.366 128.338 192.805 128.326 193.242 128.326C196.662 128.326 199.904 129.189 202.782 130.753C202.876 130.787 202.959 130.845 203.053 130.891C206.035 132.536 208.632 134.893 210.654 137.792L210.665 137.804C213.5 141.887 215.2 146.993 215.2 152.548C215.2 164.509 207.329 174.468 196.986 176.412L192.994 234.651C192.649 239.608 189.397 243.403 185.487 243.403H165.438L167.503 203.564Z" fill="white"/>
</g>
<defs>
<clipPath id="clip0_13025_205571">
<rect width="275" height="196" fill="white"/>
</clipPath>
</defs>
</svg>
