<svg width="120" height="156" viewBox="0 0 120 156" fill="none" xmlns="http://www.w3.org/2000/svg">
<g clip-path="url(#clip0_13014_202458)">
<path d="M63.3199 58.2598C67.027 59.694 70.9199 61.1714 74.6799 62.5032C76.5705 63.1598 78.4528 63.7873 80.2764 64.3135C82.0599 64.8094 83.9552 65.2658 85.067 65.3182C86.2917 65.3694 88.1952 65.0993 90.0199 64.6721C91.8752 64.2506 93.8058 63.7244 95.734 63.1295C99.5881 61.9456 103.562 60.6044 107.447 59.2668L110.16 64.2285C106.594 66.792 102.947 69.0401 99.0046 71.0343C97.0317 72.018 95.0128 72.9622 92.8375 73.7631C90.6375 74.5443 88.4175 75.322 85.4234 75.5641C83.867 75.6701 82.5152 75.5653 81.2775 75.4326C80.0305 75.2998 78.8646 75.0891 77.7234 74.8645C75.4493 74.4128 73.287 73.8539 71.167 73.2253C66.9105 71.9703 62.9069 70.5092 58.8281 68.7455L63.3199 58.2598Z" fill="#B65B52"/>
<path d="M43.3582 63.583C46.2629 70.1885 69.4041 75.3645 69.4041 75.3645L74.4747 58.9332C74.4747 58.9332 65.0135 54.3138 55.8653 52.4231C46.47 50.4813 40.17 56.3336 43.3582 63.583Z" fill="#99D6FF"/>
<path opacity="0.2" d="M56.6648 64.7963C60.5731 63.7067 67.6354 65.9128 71.2813 69.2796L69.4025 75.3659C69.4025 75.3659 60.5131 73.3798 53.0637 70.2948C52.7731 68.2365 52.1884 66.0443 56.6648 64.7963Z" fill="black"/>
<path d="M64.5981 115.512C52.5981 117.921 30.5981 122.322 24.7628 123.486C24.0334 120.506 23.1981 111.53 21.1511 99.8883C20.8452 98.1304 20.504 96.3143 20.1275 94.4516C19.4452 91.0405 18.6687 87.4549 17.7511 83.7761C17.3158 82.0182 16.8452 80.237 16.3393 78.4441C14.6334 72.3089 12.5511 65.9991 9.97461 59.8522C9.97461 59.8522 14.5511 57.9429 19.8217 56.3713C20.857 56.0686 21.9275 55.7776 22.9864 55.5098C28.0217 54.2525 35.3628 52.611 39.9158 52.122C40.6217 52.0405 41.3158 51.9707 42.0099 51.9241C47.2099 51.5516 51.7629 51.8543 51.7629 51.8543C51.7629 51.8543 64.8805 72.3671 64.5981 115.512Z" fill="#99D6FF"/>
<path d="M37.0471 58.0379C30.9412 59.3883 26.3412 57.7934 22.9882 55.5116C24.6823 53.1367 24.5647 49.1901 23.7647 45.2552C23.1765 42.2866 22.1882 39.3295 21.3059 37.0477C21.2 36.78 21.0941 36.5355 21 36.291L33.0941 42.9967C33.0824 43.183 33.0706 43.3692 33.0823 43.5555C33 45.6627 33.1882 47.7582 34.1647 49.3415C34.1647 49.3531 34.1765 49.3531 34.1765 49.3531C35.1412 50.9364 36.8823 52.0074 39.9176 52.1122C41.3176 53.706 41.7059 56.9901 37.0471 58.0379Z" fill="#B55B52"/>
<path opacity="0.2" d="M34.1998 49.7015C30.9527 49.8878 26.388 48.0018 23.7645 45.2543C23.1763 42.2857 22.188 39.3287 21.3057 37.0469L33.0821 43.5546C32.9998 45.6618 33.188 47.7573 34.1645 49.3406C34.1645 49.3522 34.1763 49.3523 34.1763 49.3523C34.1763 49.4687 34.188 49.5863 34.1998 49.7015Z" fill="black"/>
<path d="M95.9323 264.036L83.8182 268.384C83.8182 268.384 74.3547 227.153 69.3253 204.296C67.7947 197.343 64.7182 187.782 61.0747 177.596C56.477 164.763 50.9911 150.954 46.5617 140.157C41.8911 128.786 38.4111 120.762 38.4111 120.762L64.6005 115.514C64.6005 115.514 84.5841 172.418 89.0735 194.908C93.7441 218.292 95.9323 264.036 95.9323 264.036Z" fill="#40AFFF"/>
<path d="M95.9323 264.036L83.8182 268.384C83.8182 268.384 74.3547 227.153 69.3253 204.296C67.7947 197.343 64.7182 187.782 61.0747 177.596C56.477 164.763 50.9911 150.954 46.5617 140.157C41.8911 128.786 38.4111 120.762 38.4111 120.762L64.6005 115.514C64.6005 115.514 84.5841 172.418 89.0735 194.908C93.7441 218.292 95.9323 264.036 95.9323 264.036Z" fill="#191919"/>
<path opacity="0.2" d="M61.0745 177.595C56.4768 164.762 50.9909 150.952 46.5615 140.156L48.5886 133.953C56.0804 140.816 60.758 164.46 61.0745 177.595Z" fill="black"/>
<path d="M50.4696 118.344C50.4696 118.344 55.146 183.227 55.4284 205.273C55.7378 229.416 44.3296 276.701 44.3296 276.701H30.4213C30.4213 276.701 35.9766 234.036 34.1272 210.117C32.0601 183.369 24.7637 123.496 24.7637 123.496L50.4696 118.344Z" fill="#40AFFF"/>
<path d="M50.4696 118.344C50.4696 118.344 55.146 183.227 55.4284 205.273C55.7378 229.416 44.3296 276.701 44.3296 276.701H30.4213C30.4213 276.701 35.9766 234.036 34.1272 210.117C32.0601 183.369 24.7637 123.496 24.7637 123.496L50.4696 118.344Z" fill="#191919"/>
<path d="M106.534 59.5101L112.147 54.2363L114.795 62.3181C114.795 62.3181 109.5 66.7245 107.32 63.9293L106.534 59.5101Z" fill="#B55B52"/>
<path d="M119.641 52.6387L119.534 60.3525L114.794 62.32L112.146 54.2382L119.641 52.6387Z" fill="#B55B52"/>
<path d="M17.5092 69.4343C16.3127 74.2749 15.161 79.3577 14.2551 84.288C13.7763 86.7619 13.4163 89.2288 13.1198 91.6386C12.841 94.024 12.7174 96.4304 12.8539 98.3711L12.9221 99.0486L13.0151 99.6214C13.0645 99.9043 13.2057 100.25 13.1045 100.136C12.9774 99.994 12.868 99.9555 12.9104 100.03C12.9645 100.098 13.1563 100.252 13.4598 100.392C14.0692 100.685 15.0457 100.932 16.0986 101.079C17.1598 101.24 18.3198 101.337 19.5139 101.37C24.3104 101.493 29.5821 101 34.6421 100.404L36.1892 105.835C30.9869 107.917 25.7786 109.474 19.961 110.203C17.0198 110.491 14.0269 110.757 10.2374 109.72C9.28568 109.433 8.25862 109.038 7.20685 108.376C6.15979 107.707 5.06333 106.744 4.25274 105.471C3.48568 104.216 3.18451 103.315 2.86451 102.337C2.73157 101.879 2.62921 101.441 2.51744 100.988L2.28097 99.718C1.78097 96.4327 1.8845 93.5572 2.0245 90.7096C2.19627 87.883 2.53979 85.1355 2.94097 82.4265C3.79038 76.9886 4.91627 71.7929 6.3998 66.4609L17.5092 69.4343Z" fill="#B65B52"/>
<path d="M36.9126 14.5312C36.9126 14.5312 42.3232 24.4442 38.1621 30.4723C33.9997 36.5005 26.9268 16.983 26.9268 16.983L36.9126 14.5312Z" fill="#000300"/>
<path d="M41.7023 36.0837C41.6776 36.4865 41.6305 36.8846 41.5611 37.277C41.327 38.7043 40.8117 40.0279 40.1 41.2003C39.3529 42.4517 38.3705 43.5181 37.2376 44.3726C35.1752 45.9257 32.6141 46.7487 29.9988 46.5229C28.2658 46.3739 26.5058 45.7708 24.8588 44.6043C20.1047 41.2876 19.3729 36.6204 17.4952 28.832C17.0682 27.1591 17.027 25.414 17.4129 23.7399C18.7282 17.8294 24.6447 14.1052 30.5988 15.4114C38.9635 17.1798 42.1494 28.6958 41.7023 36.0837Z" fill="#B55B52"/>
<path d="M29.9805 28.9167C30.05 29.5605 30.5264 30.0169 30.957 29.9412C31.3876 29.8656 31.6288 29.2823 31.5182 28.642C31.4076 28.0017 30.9617 27.5419 30.5417 27.6175C30.1217 27.692 29.8688 28.266 29.9805 28.9167Z" fill="#000300"/>
<path d="M37.314 27.6297C37.3834 28.2734 37.8705 28.7298 38.2905 28.6541C38.7105 28.5796 38.9622 27.9952 38.8516 27.3549C38.7411 26.7146 38.2952 26.2547 37.8752 26.3304C37.454 26.4049 37.2069 27.0208 37.314 27.6297Z" fill="#000300"/>
<path d="M35.0391 28.3535C36.1626 30.1813 37.5355 31.8472 39.1202 33.3024C38.332 34.0987 37.2285 34.5097 36.1061 34.4247L35.0391 28.3535Z" fill="#A02724"/>
<path d="M39.4771 24.0527C39.3654 24.1423 39.2124 24.1668 39.0783 24.1156C38.1748 23.7314 37.1407 23.7908 36.2889 24.2774C36.1148 24.3985 35.876 24.3565 35.7536 24.1854C35.6313 24.0131 35.6736 23.7756 35.8466 23.6557L35.8477 23.6546C36.9089 23.0131 38.2183 22.92 39.3619 23.4054C39.5607 23.4776 39.663 23.6965 39.5901 23.8932C39.5889 23.8967 39.5877 23.899 39.5866 23.9014C39.5583 23.9572 39.5219 24.0085 39.4771 24.0527Z" fill="#000300"/>
<path d="M28.01 26.2658C27.9323 26.2774 27.8535 26.2634 27.7841 26.2285C27.6182 26.097 27.5911 25.8583 27.7241 25.6942C27.7253 25.6918 27.7276 25.6895 27.73 25.6872C28.5005 24.7163 29.7017 24.1784 30.9476 24.2436C31.1582 24.2669 31.31 24.4555 31.2864 24.6639V24.665C31.257 24.8723 31.07 25.0189 30.8605 25.0003C29.8758 24.977 28.937 25.4159 28.33 26.1831C28.2405 26.2565 28.1241 26.2867 28.01 26.2658Z" fill="#000300"/>
<path d="M21.581 17.9707L22.794 21.3166C21.7916 22.1734 21.3952 23.6018 22.2316 24.8394C24.0175 27.4832 23.3857 32.3448 21.5516 34.6383C21.5516 34.6383 21.194 33.3996 20.194 33.9363C19.1928 34.4741 20.9834 40.9376 23.7834 43.585C23.7834 43.585 19.9834 41.4755 16.6316 35.019C13.5316 29.0479 12.1163 23.8091 12.8716 21.0616L21.581 17.9707Z" fill="#000300"/>
<path d="M15.1705 35.9024C16.3729 37.5311 18.1799 38.6219 20.194 38.9339C22.8634 39.3297 23.8658 36.8838 22.8517 34.5589C21.9305 32.5007 19.4317 29.7415 16.8846 30.4354C14.3376 31.1292 13.7199 33.8837 15.1705 35.9024Z" fill="#B55B52"/>
<path d="M12.6723 22.7576C12.6723 22.7576 10.8276 18.4199 17.25 13.3382C23.6723 8.2554 32.4476 10.6117 36.5888 6.53939C40.7312 2.46826 43.637 14.9424 33.6653 18.5526C23.6947 22.1627 12.6723 22.7576 12.6723 22.7576Z" fill="#000300"/>
<path d="M35.9578 36.7619C35.1143 37.7084 33.9849 39.6177 33.9849 39.6177C33.7919 39.5478 33.599 39.478 33.4096 39.3976C30.8131 38.3825 29.9472 37.0623 29.7755 35.9074C29.6837 35.2753 29.8072 34.6874 29.9696 34.2322C30.1507 33.7036 30.4013 33.3672 30.4013 33.3672C31.4531 34.7188 33.8002 35.8504 35.079 36.4022C35.6107 36.6385 35.9578 36.7619 35.9578 36.7619Z" fill="#000300"/>
<path d="M35.0772 36.403L34.4737 37.2307C32.0301 36.2691 30.4407 35.2667 29.9678 34.2341C30.1489 33.7056 30.3995 33.3691 30.3995 33.3691C31.4513 34.7196 33.7984 35.8512 35.0772 36.403Z" fill="white"/>
<path d="M33.4085 39.3965C30.8121 38.3813 29.9462 37.0611 29.7744 35.9062C30.6462 36.2858 31.6532 36.8399 32.4321 37.599C33.0297 38.1776 33.2956 38.8132 33.4085 39.3965Z" fill="#A02724"/>
<path d="M37.1637 58.007C37.1637 58.007 35.8496 60.6078 34.2248 63.247C30.8084 62.2714 22.6848 59.4494 22.1143 55.3841C22.266 54.1326 23.6778 53.0977 23.6778 53.0977C23.6778 53.0977 29.139 56.4237 37.1637 58.007Z" fill="white"/>
<path d="M37.1639 58.0063C37.1639 58.0063 39.9909 59.444 42.1039 61.5838C43.9933 59.5896 41.1439 52.3996 40.1309 51.7511C38.0992 51.0049 36.9121 51.3867 36.9121 51.3867C36.9121 51.3867 40.5109 56.4009 37.1639 58.0063Z" fill="white"/>
<path d="M43.2977 70.1932L34.6992 70.6465L36.1673 97.9152L44.7658 97.4619L43.2977 70.1932Z" fill="#40AFFF"/>
<path d="M53.6776 61.3542L45.0791 61.8066L46.5444 89.0754L55.1429 88.6229L53.6776 61.3542Z" fill="#40AFFF"/>
<path d="M63.8153 47.5729L55.2168 48.0254L57.9323 98.5602L66.5309 98.1078L63.8153 47.5729Z" fill="#40AFFF"/>
<path d="M74.9481 51.9237L66.3496 52.377L69.0703 102.912L77.6688 102.459L74.9481 51.9237Z" fill="#40AFFF"/>
<path d="M86.1708 58.7819L77.5723 59.2344L79.0376 86.5031L87.6361 86.0507L86.1708 58.7819Z" fill="#40AFFF"/>
<path d="M105.576 15.0515L96.9775 15.5039L99.193 56.7326L107.792 56.2801L105.576 15.0515Z" fill="#40AFFF"/>
<path d="M96.1229 41.1795L87.5244 41.6328L88.9925 68.9016L97.591 68.4483L96.1229 41.1795Z" fill="#40AFFF"/>
<path d="M115.644 0.000679708L107.046 0.453125L109.761 50.988L118.36 50.5355L115.644 0.000679708Z" fill="#40AFFF"/>
<path opacity="0.4" d="M43.2763 70.2058L34.6777 70.6582L34.802 72.9705L43.4005 72.5181L43.2763 70.2058Z" fill="white"/>
<path opacity="0.4" d="M53.6776 61.3561L45.0791 61.8086L45.3474 66.8017L53.9459 66.3493L53.6776 61.3561Z" fill="white"/>
<path opacity="0.4" d="M63.8144 47.5729L55.2158 48.0254L55.7724 58.3837L64.371 57.9313L63.8144 47.5729Z" fill="white"/>
<path opacity="0.4" d="M74.9481 51.9237L66.3496 52.377L67.1223 66.7298L75.7209 66.2765L74.9481 51.9237Z" fill="white"/>
<path opacity="0.4" d="M86.1708 58.78L77.5723 59.2324L78.5318 77.088L87.1303 76.6356L86.1708 58.78Z" fill="white"/>
<path opacity="0.4" d="M105.576 15.0515L96.9775 15.5039L98.1822 37.9225L106.781 37.4701L105.576 15.0515Z" fill="white"/>
<path opacity="0.4" d="M96.1024 41.196L87.5039 41.6484L88.4644 59.5226L97.0629 59.0702L96.1024 41.196Z" fill="white"/>
<path opacity="0.4" d="M115.644 -0.00127342L107.046 0.451172L108.593 29.2487L117.192 28.7962L115.644 -0.00127342Z" fill="white"/>
<path d="M32.7588 100.643L38.1741 95.2266L41.5458 104.272C41.5458 104.272 35.9082 107.858 33.6659 105.081L32.7588 100.643Z" fill="#B55B52"/>
<path d="M44.4348 94.4277L46.8713 102.034L41.5466 104.273L38.1748 95.2275L44.4348 94.4277Z" fill="#B55B52"/>
<path opacity="0.2" d="M20.1281 94.4515C19.4457 91.0405 18.6693 87.4548 17.7516 83.776C17.3163 82.0181 16.8457 80.2369 16.3398 78.444C18.0222 75.9643 18.2775 72.9317 19.714 72.0469C19.714 72.0469 26.0104 90.4467 20.1281 94.4515Z" fill="black"/>
<path d="M7.92353 60.9492C1.96824 65.0937 0 86.4936 0 86.4936L18.4859 88.7125C18.4859 88.7125 20.7353 79.2059 20.9435 69.8948C21.1694 59.7501 15.1376 55.9293 7.92353 60.9492Z" fill="#99D6FF"/>
</g>
<defs>
<clipPath id="clip0_13014_202458">
<rect width="120" height="156" fill="white"/>
</clipPath>
</defs>
</svg>
