<svg width="195" height="165" viewBox="0 0 195 165" fill="none" xmlns="http://www.w3.org/2000/svg">
<g clip-path="url(#clip0_13014_202904)">
<path d="M145.033 72.4688L154.522 108.366L114.425 101.27V76.8107L145.033 72.4688Z" fill="#FFD1C7"/>
<path d="M0.675781 97.2354C2.74578 86.3794 15.5308 62.5234 15.5308 62.5234L43.4268 71.3214L41.1988 94.4964L0.675781 97.2354Z" fill="#FFD1C7"/>
<path d="M136.87 54.3361C130.269 48.3071 121.622 45.4061 113.427 41.8321C105.386 38.3251 97.3917 34.6971 89.3497 31.1911C86.7257 32.4561 83.8167 33.3431 80.9227 33.0141C78.0287 32.6851 75.2717 30.7671 74.2487 28.0391C64.3507 30.9331 54.4517 33.8261 44.5537 36.7201C36.4767 39.0821 28.7737 42.6541 22.6427 48.4191C16.8067 53.9071 11.4117 59.3811 7.01172 66.0741C17.7107 68.9461 28.5477 71.8221 39.2477 74.6951C37.5527 91.0341 36.5887 98.4311 34.8937 114.77L116.936 125.803C117.036 111.294 117.601 96.8231 117.701 82.3151C128.94 80.4421 140.071 78.4661 151.31 76.5931C148.495 68.1071 143.471 60.3651 136.87 54.3361Z" fill="#99D6FF"/>
<path d="M56.7129 33.6328C58.4099 40.5528 63.0679 46.7258 69.3219 50.3408C75.5749 53.9548 83.3389 54.9618 90.3359 53.0668C97.3329 51.1708 103.468 46.3978 106.941 40.1488" stroke="#191919" stroke-width="0.8" stroke-miterlimit="10" stroke-linecap="round" stroke-linejoin="round"/>
<path d="M43.6524 37.459C42.1514 49.766 40.6504 62.073 39.1504 74.38" stroke="#191919" stroke-width="0.8" stroke-miterlimit="10" stroke-linecap="round" stroke-linejoin="round"/>
<path d="M119.962 44.9258C119.223 57.2938 118.484 69.6618 117.745 82.0298" stroke="#191919" stroke-width="0.8" stroke-miterlimit="10" stroke-linecap="round" stroke-linejoin="round"/>
<path d="M118.514 76.8112C128.558 75.0512 138.602 73.2912 148.646 71.5312" stroke="#191919" stroke-width="0.8" stroke-miterlimit="10" stroke-linecap="round" stroke-linejoin="round"/>
<path d="M11.1299 61.9629C20.6109 64.1629 30.0929 66.3629 39.5739 68.5639" stroke="#191919" stroke-width="0.8" stroke-miterlimit="10" stroke-linecap="round" stroke-linejoin="round"/>
<path d="M123.84 228.883C126.611 216.403 128.95 203.972 131.721 191.491C137.32 166.276 141.557 139.77 138.79 114.089L105.294 106.368L117.42 41.8224L112.295 39.7904L95.6657 104.148L54.4607 94.6504V32.4844L48.9857 33.9074L44.3087 101.246C32.8737 123.139 29.0067 148.327 30.3827 173.186C32.6627 214.371 28.4267 256.197 27.7617 297.44C46.1887 296.913 64.4297 296.897 82.8567 296.37C83.3507 299.891 83.8127 303.45 84.3067 306.971C105.845 299.606 127.284 292.459 148.822 285.093C140.452 266.714 132.208 247.261 123.84 228.883Z" fill="#191919"/>
<path d="M47.5957 60.6145C47.7767 62.1365 49.2217 63.4005 50.7547 63.3785C52.2877 63.3555 53.6937 62.0485 53.8297 60.5215L47.5957 60.6145Z" stroke="white" stroke-width="0.8" stroke-miterlimit="10" stroke-linecap="round" stroke-linejoin="round"/>
<path d="M105.99 67.0059C105.647 68.5349 106.721 70.2389 108.249 70.5899C109.777 70.9409 111.486 69.8749 111.844 68.3499L105.99 67.0059Z" stroke="white" stroke-width="0.8" stroke-miterlimit="10" stroke-linecap="round" stroke-linejoin="round"/>
<path d="M76.8757 148.135C76.3557 167.595 75.8356 187.055 75.3146 206.516C74.4956 237.146 77.2186 267.574 83.0086 297.663" stroke="white" stroke-width="0.8" stroke-miterlimit="10" stroke-linecap="round" stroke-linejoin="round"/>
<path d="M180.313 123.13L149.739 187.522C147.628 191.969 142.259 193.881 137.812 191.769L63.0352 156.264C58.5882 154.152 56.6762 148.784 58.7882 144.337L89.3622 79.9453C91.4742 75.4983 96.8422 73.5863 101.289 75.6983L176.066 111.203C180.513 113.314 182.424 118.683 180.313 123.13Z" fill="white"/>
<path d="M180.313 123.13L175.684 132.879L84.7324 89.6943L89.3614 79.9453C91.4734 75.4983 96.8414 73.5863 101.288 75.6983L176.065 111.203C180.513 113.314 182.424 118.683 180.313 123.13Z" fill="#A7A7A7"/>
<path d="M129.927 98.0957C143.143 105.064 156.793 111.545 170.595 117.405" stroke="#191919" stroke-width="0.8" stroke-miterlimit="10" stroke-linecap="round" stroke-linejoin="round"/>
<path d="M99.9404 83.8574C106.282 86.8684 112.625 89.8804 118.967 92.8914" stroke="#191919" stroke-width="0.8" stroke-miterlimit="10" stroke-linecap="round" stroke-linejoin="round"/>
<path d="M97.0762 89.8887C115.419 98.8687 134.756 108.05 153.164 116.52" stroke="#191919" stroke-width="0.8" stroke-miterlimit="10" stroke-linecap="round" stroke-linejoin="round"/>
<path d="M149.805 131.732C153.61 133.539 157.414 135.345 161.219 137.152" stroke="#191919" stroke-width="0.8" stroke-miterlimit="10" stroke-linecap="round" stroke-linejoin="round"/>
<path d="M90.5645 103.604C107.8 111.978 126 120.62 143.253 128.621" stroke="#191919" stroke-width="0.8" stroke-miterlimit="10" stroke-linecap="round" stroke-linejoin="round"/>
<path d="M106.317 118.615C123.299 126.307 141.498 134.948 158.3 143.297" stroke="#191919" stroke-width="0.8" stroke-miterlimit="10" stroke-linecap="round" stroke-linejoin="round"/>
<path d="M87.6465 109.75C91.8605 111.751 96.0745 113.752 100.289 115.753" stroke="#191919" stroke-width="0.8" stroke-miterlimit="10" stroke-linecap="round" stroke-linejoin="round"/>
<path d="M135.639 140.068C142.221 143.193 148.802 146.318 155.384 149.443" stroke="#191919" stroke-width="0.8" stroke-miterlimit="10" stroke-linecap="round" stroke-linejoin="round"/>
<path d="M119.276 132.543C122.732 134.126 126.197 135.691 129.671 137.235" stroke="#191919" stroke-width="0.8" stroke-miterlimit="10" stroke-linecap="round" stroke-linejoin="round"/>
<path d="M84.7285 115.896C94.5785 120.878 104.511 125.698 114.522 130.349" stroke="#191919" stroke-width="0.8" stroke-miterlimit="10" stroke-linecap="round" stroke-linejoin="round"/>
<path d="M104.866 132.988C120.771 140.439 136.696 148 152.465 155.588" stroke="#191919" stroke-width="0.8" stroke-miterlimit="10" stroke-linecap="round" stroke-linejoin="round"/>
<path d="M81.8105 122.041C87.2235 124.611 92.6355 127.181 98.0485 129.751" stroke="#191919" stroke-width="0.8" stroke-miterlimit="10" stroke-linecap="round" stroke-linejoin="round"/>
<path d="M140.169 157.281C143.295 158.765 146.421 160.25 149.548 161.734" stroke="#191919" stroke-width="0.8" stroke-miterlimit="10" stroke-linecap="round" stroke-linejoin="round"/>
<path d="M78.8926 128.188C97.5966 136.406 115.797 145.048 133.985 154.346" stroke="#191919" stroke-width="0.8" stroke-miterlimit="10" stroke-linecap="round" stroke-linejoin="round"/>
<path d="M106.749 148.943C120.519 155.651 133.031 161.591 146.63 167.879" stroke="#191919" stroke-width="0.8" stroke-miterlimit="10" stroke-linecap="round" stroke-linejoin="round"/>
<path d="M75.9746 134.332C84.1636 138.22 92.3516 142.108 100.541 145.996" stroke="#191919" stroke-width="0.8" stroke-miterlimit="10" stroke-linecap="round" stroke-linejoin="round"/>
<path d="M73.0566 140.479C91.6556 148.918 108.718 157.019 127.132 166.155" stroke="#191919" stroke-width="0.8" stroke-miterlimit="10" stroke-linecap="round" stroke-linejoin="round"/>
<path d="M70.1387 146.623C81.1867 151.869 92.2357 157.115 103.284 162.361" stroke="#191919" stroke-width="0.8" stroke-miterlimit="10" stroke-linecap="round" stroke-linejoin="round"/>
<path d="M36.7021 10.1843C41.3901 6.02034 47.4401 3.41533 53.6861 2.87033C59.9331 2.32533 66.3421 3.84433 71.6801 7.13433" stroke="#191919" stroke-width="0.8" stroke-miterlimit="10" stroke-linecap="round" stroke-linejoin="round"/>
<path d="M98.0511 5.69813C97.0681 4.24413 95.2041 3.41613 93.4691 3.68613C90.3601 0.911134 86.0161 -0.425868 81.8841 0.120132C77.7521 0.666132 73.7931 3.14313 71.5121 6.63113C65.9681 3.18813 59.1311 1.88713 52.7101 3.05213C46.2891 4.21813 40.3451 7.84013 36.3651 13.0111C34.9481 14.8531 34.9771 17.8651 36.4821 19.6351C37.9871 21.4051 40.7641 21.9371 42.8171 20.8491C42.7071 22.4181 43.7521 24.1351 45.2611 24.5801C46.7701 25.0241 48.5391 24.2941 49.2971 22.9161C49.7051 24.1681 51.4361 24.8361 52.7521 24.7711C54.0671 24.7061 55.2781 24.0661 56.4201 23.4111C60.0981 21.3001 63.5851 18.8731 67.0651 16.4491C68.1511 17.2081 69.1961 18.0211 70.2821 18.7801L94.5671 13.4391C96.0061 12.8731 97.4081 12.0191 98.1981 10.6901C99.0931 9.17813 99.0341 7.15313 98.0511 5.69813Z" fill="#191919"/>
<path d="M103.034 39.1244C98.5835 37.0844 94.0175 35.0544 89.5675 33.0154C89.8355 31.1114 90.1515 29.2444 90.4195 27.3404C92.5545 26.5624 94.3875 24.9834 95.4735 22.9874C96.5595 20.9904 96.8995 18.5074 96.5405 16.2634C96.1205 13.6424 95.0245 11.2214 93.5945 8.98444C93.0295 9.59444 92.1815 9.93143 91.3525 9.87543C90.5225 9.81943 89.6635 9.57844 89.1855 8.89844C89.0345 9.93444 88.2075 10.8384 87.1895 11.0814C86.1715 11.3244 84.9375 11.1114 84.3335 10.2554C84.0835 11.3654 83.1845 12.3044 82.0865 12.6024C80.9875 12.9004 79.6995 12.6374 78.9225 11.8044C78.7445 12.9324 77.8215 13.9044 76.7045 14.1404C75.5875 14.3774 74.2655 13.7834 73.6445 12.8254C71.7085 12.8124 69.8105 13.9604 68.9225 15.6794C68.0345 17.3994 68.1975 19.6114 69.3285 21.1824C70.4595 22.7534 72.5055 23.6094 74.4185 23.3134C73.8085 25.6304 73.4655 27.8794 72.8545 30.1964C69.1075 31.4494 65.2685 32.3854 61.5205 33.6374C63.0835 39.3314 66.6385 44.3724 71.7545 47.3194C76.8715 50.2654 83.1615 51.1024 88.8705 49.5954C94.5825 48.0884 100.038 44.2124 103.034 39.1244Z" fill="#FFD1C7"/>
<path d="M93.3468 16.3068C93.8317 16.3068 94.2248 15.9137 94.2248 15.4288C94.2248 14.9439 93.8317 14.5508 93.3468 14.5508C92.8618 14.5508 92.4688 14.9439 92.4688 15.4288C92.4688 15.9137 92.8618 16.3068 93.3468 16.3068Z" fill="#191919"/>
<path d="M83.8078 16.9932C83.8078 16.5082 83.4147 16.1152 82.9297 16.1152C82.4447 16.1152 82.0518 16.5082 82.0518 16.9932C82.0518 17.4782 82.4447 17.8712 82.9297 17.8712C83.4147 17.8712 83.8078 17.4782 83.8078 16.9932Z" fill="#191919"/>
<path d="M71.5049 16.4492C72.4649 16.6592 73.4259 16.8702 74.3859 17.0802" stroke="#191919" stroke-width="0.8" stroke-miterlimit="10" stroke-linecap="round" stroke-linejoin="round"/>
<path d="M81.1377 14.7871C81.3937 14.1851 81.9457 13.7171 82.5817 13.5641C83.2177 13.4111 83.9217 13.5751 84.4237 13.9951" stroke="#191919" stroke-width="0.8" stroke-miterlimit="10" stroke-linecap="round" stroke-linejoin="round"/>
<path d="M91.3701 11.8906C92.1021 11.6546 92.8341 11.4176 93.5661 11.1816" stroke="#191919" stroke-width="0.8" stroke-miterlimit="10" stroke-linecap="round" stroke-linejoin="round"/>
<path d="M88.4668 18.4844C88.9618 18.3984 89.4938 18.2564 89.9888 18.1704C89.6348 17.2614 89.2818 16.3524 88.9278 15.4434" stroke="#191919" stroke-width="0.8" stroke-miterlimit="10" stroke-linecap="round" stroke-linejoin="round"/>
<path d="M85.5332 19.707C85.5022 20.203 85.8353 20.699 86.3063 20.858C86.7763 21.017 87.3422 20.826 87.6192 20.414" stroke="#191919" stroke-width="0.8" stroke-miterlimit="10" stroke-linecap="round" stroke-linejoin="round"/>
<path d="M81.6748 27.0273C84.4738 28.5383 87.9888 28.6443 90.8748 27.3043" stroke="#191919" stroke-width="0.8" stroke-miterlimit="10" stroke-linecap="round" stroke-linejoin="round"/>
<path d="M74.1982 23.407C74.5632 23.355 74.9272 23.304 75.2922 23.252" stroke="#191919" stroke-width="0.8" stroke-miterlimit="10" stroke-linecap="round" stroke-linejoin="round"/>
<path d="M71.7413 132.386C64.1893 130.193 56.7723 128.296 49.2193 126.104C47.9963 124.742 46.7513 123.274 45.5283 121.912C39.1453 122.083 32.7623 122.254 26.3793 122.425C21.0823 122.567 15.5653 122.666 10.7583 120.436C5.77334 118.124 2.07334 113.379 0.676341 108.064C-0.719659 102.749 0.106341 96.9533 2.59234 92.0523C5.07734 87.1513 9.62434 82.7583 14.3683 79.9863C31.5683 83.8763 48.7733 87.7673 66.1143 90.9723C73.0233 98.1003 79.6243 105.174 86.5343 112.302C87.1313 112.917 87.5393 113.737 87.6213 114.59C87.7023 115.444 87.4903 116.322 87.0273 117.044C83.4423 115.413 79.8613 113.647 76.2763 112.016C79.5443 114.436 82.5113 117.144 85.4913 119.911C86.1223 120.496 86.4903 121.352 86.5643 122.21C86.6373 123.067 86.4343 123.946 85.9923 124.684C85.1013 124.238 84.0843 123.862 83.1933 123.416C83.7353 123.891 83.9913 124.578 84.0413 125.297C84.0903 126.016 83.8453 126.75 83.3743 127.295C75.4943 125.412 67.3633 123.749 59.4843 121.865C63.1993 124.046 66.9903 126.278 70.7053 128.459C71.3533 128.84 71.9383 129.545 72.1443 130.268C72.3493 130.991 72.1183 131.735 71.7413 132.386Z" fill="#FFD1C7"/>
<path d="M15.6484 80.2832C23.2194 82.0332 30.7904 83.7832 38.3614 85.5342" stroke="#191919" stroke-width="0.8" stroke-miterlimit="10" stroke-linecap="round" stroke-linejoin="round"/>
<path d="M38.9629 115.541C41.2479 117.873 43.5319 120.205 45.8169 122.537" stroke="#191919" stroke-width="0.8" stroke-miterlimit="10" stroke-linecap="round" stroke-linejoin="round"/>
<path d="M55.9258 121.039C58.0178 121.674 60.1098 122.309 62.2018 122.943" stroke="#191919" stroke-width="0.8" stroke-miterlimit="10" stroke-linecap="round" stroke-linejoin="round"/>
<path d="M59.8867 111.469C67.8087 115.581 75.7307 119.693 83.6527 123.805" stroke="#191919" stroke-width="0.8" stroke-miterlimit="10" stroke-linecap="round" stroke-linejoin="round"/>
<path d="M64.7949 103.713C69.3329 106.917 73.8709 110.12 78.4079 113.324" stroke="#191919" stroke-width="0.8" stroke-miterlimit="10" stroke-linecap="round" stroke-linejoin="round"/>
<path d="M175.478 153.789C169.312 149.7 163.302 145.614 157.071 141.524C157.266 140.741 157.817 140.053 158.54 139.694C159.263 139.335 160.328 139.546 161.1 139.784C165.267 141.069 169.577 142.149 173.744 143.435C167.13 139.847 160.344 136.454 153.73 132.867C153.628 131.528 154.538 129.925 155.88 129.876C156.752 129.844 157.839 129.834 158.711 129.802C157.129 129.284 155.431 128.838 153.849 128.32C153.93 127.403 154.378 126.523 155.073 125.918C155.768 125.314 156.905 125.044 157.824 125.105C161.242 125.332 164.506 125.612 167.924 125.838C164.834 124.393 161.471 123.172 158.381 121.727C158.976 120.07 161.093 118.953 162.85 119.071L188.071 120.762C191.361 120.983 194.046 123.471 194.537 126.733C195.09 130.412 195.176 134.146 194.424 137.766C192.996 144.647 188.771 150.602 182.819 154.036C180.531 155.355 177.678 155.248 175.478 153.789Z" fill="#FFD1C7"/>
<path d="M157.11 129.469C164.952 132.163 172.794 134.856 180.635 137.55" stroke="#191919" stroke-width="0.8" stroke-miterlimit="10" stroke-linecap="round" stroke-linejoin="round"/>
<path d="M166.86 125.365C172.267 126.665 177.673 127.964 183.08 129.264" stroke="#191919" stroke-width="0.8" stroke-miterlimit="10" stroke-linecap="round" stroke-linejoin="round"/>
<path d="M172.069 142.732C173.6 143.824 175.131 144.915 176.662 146.007" stroke="#191919" stroke-width="0.8" stroke-miterlimit="10" stroke-linecap="round" stroke-linejoin="round"/>
</g>
<defs>
<clipPath id="clip0_13014_202904">
<rect width="195" height="165" fill="white"/>
</clipPath>
</defs>
</svg>
