<svg width="239" height="168" viewBox="0 0 239 168" fill="none" xmlns="http://www.w3.org/2000/svg">
<path d="M46.0617 20.1072L0 50.9546L45.3684 118.858L91.4302 88.0108L46.0617 20.1072Z" fill="#EBEBEB"/>
<path d="M67.6293 84.7963L67.1063 88.0353L44.2085 84.733L44.7311 81.4939L67.6293 84.7963Z" fill="#E0E0E0"/>
<path d="M56.0974 73.2419L59.3832 73.7162L55.7403 96.2869L52.4541 95.8135L56.0974 73.2419Z" fill="#E0E0E0"/>
<path d="M35.0064 44.554C35.0392 44.6034 30.4229 47.752 24.6975 51.5862C18.97 55.4216 14.3016 58.4901 14.2687 58.4408C14.2359 58.3919 18.8509 55.2437 24.5788 51.4082C30.3043 47.574 34.9735 44.5051 35.0064 44.554Z" fill="#E0E0E0"/>
<path d="M51.9458 40.297C51.9787 40.3463 44.3024 45.5442 34.8031 51.9052C25.3 58.2686 17.5725 63.386 17.5397 63.3366C17.5068 63.2877 25.1814 58.0907 34.684 51.7272C44.1834 45.3662 51.913 40.2481 51.9458 40.297Z" fill="#E0E0E0"/>
<path d="M55.3413 45.3793C55.3742 45.4286 47.6979 50.6264 38.1986 56.9874C28.6956 63.3509 20.968 68.4682 20.9352 68.4189C20.9023 68.3696 28.5769 63.1729 38.0795 56.8095C47.5793 50.4485 55.3085 45.3303 55.3413 45.3793Z" fill="#E0E0E0"/>
<path d="M58.7364 50.4623C58.7692 50.5116 51.093 55.7095 41.5936 62.0705C32.0906 68.4339 24.363 73.5512 24.3302 73.5019C24.2973 73.453 31.9719 68.256 41.4746 61.8925C50.9743 55.5311 58.7035 50.4129 58.7364 50.4623Z" fill="#E0E0E0"/>
<path d="M62.1324 55.5445C62.1652 55.5939 54.489 60.7913 44.9896 67.1527C35.4866 73.5162 27.759 78.6335 27.7262 78.5842C27.6933 78.5349 35.3679 73.3382 44.8706 66.9748C54.3699 60.6138 62.0995 55.4956 62.1324 55.5445Z" fill="#E0E0E0"/>
<path d="M200.086 65.6097L161.402 91.5161L199.504 148.544L238.187 122.637L200.086 65.6097Z" fill="#EBEBEB"/>
<path d="M218.198 119.945L217.759 122.665L198.528 119.891L198.968 117.171L218.198 119.945Z" fill="#E0E0E0"/>
<path d="M208.513 110.241L211.273 110.639L208.213 129.595L205.454 129.197L208.513 110.241Z" fill="#E0E0E0"/>
<path d="M190.801 86.1479C190.833 86.1972 186.961 88.8477 182.152 92.0679C177.342 95.2889 173.417 97.8597 173.384 97.8103C173.352 97.761 177.223 95.1109 182.034 91.8899C186.842 88.6702 190.768 86.099 190.801 86.1479Z" fill="#E0E0E0"/>
<path d="M205.026 82.5727C205.059 82.622 198.617 86.9934 190.639 92.3359C182.658 97.6801 176.164 101.971 176.131 101.922C176.099 101.873 182.54 97.5021 190.52 92.158C198.498 86.8158 204.994 82.5238 205.026 82.5727Z" fill="#E0E0E0"/>
<path d="M207.878 86.8412C207.911 86.8906 201.469 91.2623 193.491 96.6045C185.51 101.949 179.016 106.24 178.984 106.191C178.951 106.141 185.392 101.771 193.373 96.4265C201.35 91.084 207.846 86.7919 207.878 86.8412Z" fill="#E0E0E0"/>
<path d="M210.73 91.1095C210.762 91.1589 204.32 95.5302 196.342 100.873C188.361 106.217 181.867 110.508 181.835 110.459C181.802 110.41 188.243 106.039 196.224 100.695C204.201 95.3527 210.697 91.0606 210.73 91.1095Z" fill="#E0E0E0"/>
<path d="M213.582 95.3781C213.614 95.4274 207.172 99.7988 199.194 105.141C191.213 110.486 184.719 114.777 184.687 114.727C184.654 114.679 191.095 110.308 199.076 104.963C207.053 99.6212 213.549 95.3288 213.582 95.3781Z" fill="#E0E0E0"/>
<path d="M138.882 22.5999L96.6738 -0.000244141L63.4349 62.2227L105.643 84.8228L138.882 22.5999Z" fill="#EBEBEB"/>
<path d="M98.419 65.3598L95.7412 66.278L88.9438 47.465L91.622 46.5469L98.419 65.3598Z" fill="#E0E0E0"/>
<path d="M102.524 51.863L103.5 54.5629L84.8382 60.9617L83.8628 58.2618L102.524 51.863Z" fill="#E0E0E0"/>
<path d="M115.784 24.106C115.751 24.168 111.47 21.94 106.223 19.1309C100.975 16.3205 96.7482 13.993 96.7814 13.9309C96.8147 13.8693 101.095 16.0965 106.343 18.9065C111.59 21.716 115.817 24.0443 115.784 24.106Z" fill="#E0E0E0"/>
<path d="M125.913 35.2993C125.88 35.3613 118.795 31.6319 110.09 26.9712C101.382 22.3085 94.3521 18.4801 94.3854 18.418C94.4186 18.3563 101.502 22.0845 110.21 26.7473C118.915 31.408 125.946 35.2372 125.913 35.2993Z" fill="#E0E0E0"/>
<path d="M123.425 39.9567C123.392 40.0187 116.307 36.2893 107.602 31.6282C98.8944 26.9655 91.8643 23.137 91.8976 23.075C91.9308 23.0133 99.0143 26.7415 107.722 31.4042C116.427 36.0649 123.458 39.8946 123.425 39.9567Z" fill="#E0E0E0"/>
<path d="M120.937 44.6137C120.904 44.6757 113.819 40.9463 105.114 36.2852C96.4061 31.6229 89.376 27.794 89.4093 27.732C89.4421 27.6699 96.526 31.3985 105.234 36.0612C113.938 40.7223 120.97 44.552 120.937 44.6137Z" fill="#E0E0E0"/>
<path d="M118.45 49.2711C118.416 49.3332 111.332 45.6038 102.627 40.9427C93.9188 36.2803 86.8887 32.4515 86.922 32.3894C86.9552 32.3278 94.0387 36.0559 102.747 40.7187C111.451 45.3798 118.482 49.2095 118.45 49.2711Z" fill="#E0E0E0"/>
<path opacity="0.5" d="M82.952 130.931C63.3411 111.321 63.3411 79.5298 82.9466 59.9247C102.557 40.3138 134.348 40.3138 153.959 59.9247C173.564 79.5298 173.564 111.321 153.954 130.931C134.348 150.537 102.557 150.537 82.952 130.931Z" fill="#D9D9D9"/>
<path d="M132.062 104.297L129.033 107.648L105.702 86.0267L108.732 82.6753L132.062 104.297Z" fill="#B5B5B5"/>
<path d="M127.95 81.9819L131.369 85.0727L109.814 108.342L106.396 105.251L127.95 81.9819Z" fill="#B5B5B5"/>
<path d="M190.851 158.738C190.647 157.743 190.247 156.945 189.708 156.285C188.548 155.046 187.312 153.885 186.094 152.705C184.868 151.533 183.631 150.373 182.366 149.24C181.117 148.092 179.832 146.979 178.547 145.866C175.959 143.658 173.308 141.514 170.56 139.467C169.306 138.538 168.036 137.624 166.74 136.737C167.342 135.093 166.988 133.178 165.669 131.859L163.782 129.972C163.443 129.633 163.065 129.357 162.662 129.146C179.507 107.155 177.876 75.5479 157.755 55.4277C135.852 33.5241 100.329 33.5241 78.4252 55.4277C56.5216 77.3313 56.5266 112.849 78.4302 134.753C98.5522 154.875 130.158 156.509 152.149 139.66C152.361 140.062 152.636 140.44 152.974 140.779L154.862 142.667C156.181 143.986 158.096 144.339 159.74 143.737C160.627 145.033 161.541 146.303 162.47 147.558C164.517 150.306 166.662 152.957 168.869 155.545C169.982 156.829 171.095 158.114 172.243 159.363C173.376 160.628 174.536 161.866 175.708 163.092C176.888 164.31 178.049 165.546 179.287 166.705C179.948 167.244 180.746 167.645 181.741 167.849C182.746 168.042 183.894 168.093 185.479 167.707C187.975 167.094 190.06 165.145 190.71 162.476C191.095 160.892 191.045 159.744 190.851 158.738ZM81.1247 132.058C60.7052 111.639 60.7053 78.5363 81.1189 58.1222C101.539 37.7028 134.641 37.7028 155.061 58.1222C175.475 78.5363 175.475 111.639 155.055 132.058C134.641 152.472 101.538 152.472 81.1247 132.058Z" fill="#A0A0A0"/>
<path opacity="0.2" d="M190.851 158.738C190.647 157.743 190.247 156.945 189.708 156.285C188.548 155.046 187.312 153.885 186.094 152.705C184.868 151.533 183.631 150.373 182.366 149.24C181.117 148.092 179.832 146.979 178.547 145.866C175.959 143.658 173.308 141.514 170.56 139.467C169.306 138.538 168.036 137.624 166.74 136.737C167.342 135.093 166.988 133.178 165.669 131.859L163.782 129.972C163.443 129.633 163.065 129.357 162.662 129.146C179.507 107.155 177.876 75.5479 157.755 55.4277C135.852 33.5241 100.329 33.5241 78.4252 55.4277C56.5216 77.3313 56.5266 112.849 78.4302 134.753C98.5522 154.875 130.158 156.509 152.149 139.66C152.361 140.062 152.636 140.44 152.974 140.779L154.862 142.667C156.181 143.986 158.096 144.339 159.74 143.737C160.627 145.033 161.541 146.303 162.47 147.558C164.517 150.306 166.662 152.957 168.869 155.545C169.982 156.829 171.095 158.114 172.243 159.363C173.376 160.628 174.536 161.866 175.708 163.092C176.888 164.31 178.049 165.546 179.287 166.705C179.948 167.244 180.746 167.645 181.741 167.849C182.746 168.042 183.894 168.093 185.479 167.707C187.975 167.094 190.06 165.145 190.71 162.476C191.095 160.892 191.045 159.744 190.851 158.738ZM81.1247 132.058C60.7052 111.639 60.7053 78.5363 81.1189 58.1222C101.539 37.7028 134.641 37.7028 155.061 58.1222C175.475 78.5363 175.475 111.639 155.055 132.058C134.641 152.472 101.538 152.472 81.1247 132.058Z" fill="#808080"/>
<path opacity="0.3" d="M159.739 143.737L166.739 136.736C166.739 136.736 164.88 142.067 159.739 143.737Z" fill="#808080"/>
<path d="M170.508 72.0174C169.839 70.4898 169.096 68.9774 168.299 67.5215L168.718 67.2921C169.522 68.7601 170.271 70.2855 170.945 71.8256L170.508 72.0174ZM166.358 64.2388C164.139 60.7594 161.529 57.5102 158.601 54.5814L158.939 54.2432C161.892 57.1962 164.524 60.4727 166.761 63.9816L166.358 64.2388Z" fill="#A0A0A0"/>
<path opacity="0.2" d="M170.508 72.0174C169.839 70.4898 169.096 68.9774 168.299 67.5215L168.718 67.2921C169.522 68.7601 170.271 70.2855 170.945 71.8256L170.508 72.0174ZM166.358 64.2388C164.139 60.7594 161.529 57.5102 158.601 54.5814L158.939 54.2432C161.892 57.1962 164.524 60.4727 166.761 63.9816L166.358 64.2388Z" fill="#808080"/>
</svg>
