<svg width="286" height="25" viewBox="0 0 286 25" fill="none" xmlns="http://www.w3.org/2000/svg">
<path d="M0.5 4C0.5 1.79086 2.29086 0 4.5 0H132.257C133.053 0 133.816 0.316071 134.379 0.87868L143.879 10.3787C145.05 11.5503 145.05 13.4497 143.879 14.6213L134.379 24.1213C133.816 24.6839 133.053 25 132.257 25H4.5C2.29086 25 0.5 23.2091 0.5 21V4Z" fill="url(#paint0_linear_2814_13957)"/>
<path d="M11.4588 17V8.27273H14.5696C15.2457 8.27273 15.8068 8.3892 16.2528 8.62216C16.7017 8.85511 17.0369 9.17756 17.2585 9.58949C17.4801 9.99858 17.5909 10.4716 17.5909 11.0085C17.5909 11.5426 17.4787 12.0128 17.2543 12.419C17.0327 12.8224 16.6974 13.1364 16.2486 13.3608C15.8026 13.5852 15.2415 13.6974 14.5653 13.6974H12.2088V12.5639H14.446C14.8722 12.5639 15.2188 12.5028 15.4858 12.3807C15.7557 12.2585 15.9531 12.081 16.0781 11.848C16.2031 11.6151 16.2656 11.3352 16.2656 11.0085C16.2656 10.679 16.2017 10.3935 16.0739 10.152C15.9489 9.91051 15.7514 9.72585 15.4815 9.59801C15.2145 9.46733 14.8636 9.40199 14.429 9.40199H12.7756V17H11.4588ZM15.767 13.0625L17.9233 17H16.4233L14.3097 13.0625H15.767ZM21.8299 17.1321C21.185 17.1321 20.6296 16.9943 20.1637 16.7188C19.7006 16.4403 19.3427 16.0497 19.0898 15.5469C18.8398 15.0412 18.7148 14.4489 18.7148 13.7699C18.7148 13.0994 18.8398 12.5085 19.0898 11.9972C19.3427 11.4858 19.695 11.0866 20.1467 10.7997C20.6012 10.5128 21.1325 10.3693 21.7404 10.3693C22.1097 10.3693 22.4677 10.4304 22.8143 10.5526C23.1609 10.6747 23.4719 10.8665 23.7475 11.1278C24.0231 11.3892 24.2404 11.7287 24.3995 12.1463C24.5586 12.5611 24.6381 13.0653 24.6381 13.6591V14.1108H19.435V13.1562H23.3896C23.3896 12.821 23.3214 12.5241 23.185 12.2656C23.0487 12.0043 22.8569 11.7983 22.6097 11.6477C22.3654 11.4972 22.0785 11.4219 21.7489 11.4219C21.391 11.4219 21.0785 11.5099 20.8114 11.6861C20.5472 11.8594 20.3427 12.0866 20.1978 12.3679C20.0558 12.6463 19.9847 12.9489 19.9847 13.2756V14.0213C19.9847 14.4588 20.0614 14.831 20.2148 15.1378C20.3711 15.4446 20.5884 15.679 20.8668 15.8409C21.1452 16 21.4705 16.0795 21.8427 16.0795C22.0842 16.0795 22.3043 16.0455 22.5032 15.9773C22.7021 15.9062 22.8739 15.8011 23.0188 15.6619C23.1637 15.5227 23.2745 15.3509 23.3512 15.1463L24.5572 15.3636C24.4606 15.7187 24.2873 16.0298 24.0373 16.2969C23.7901 16.5611 23.479 16.767 23.104 16.9148C22.7319 17.0597 22.3072 17.1321 21.8299 17.1321ZM28.8089 17.1321C28.1754 17.1321 27.63 16.9886 27.1726 16.7017C26.718 16.4119 26.3686 16.0128 26.1243 15.5043C25.88 14.9957 25.7578 14.4134 25.7578 13.7571C25.7578 13.0923 25.8828 12.5057 26.1328 11.9972C26.3828 11.4858 26.7351 11.0866 27.1896 10.7997C27.6442 10.5128 28.1797 10.3693 28.7962 10.3693C29.2933 10.3693 29.7365 10.4616 30.1257 10.6463C30.5149 10.8281 30.8288 11.0838 31.0675 11.4134C31.3089 11.7429 31.4524 12.1278 31.4979 12.5682H30.2578C30.1896 12.2614 30.0334 11.9972 29.7891 11.7756C29.5476 11.554 29.2237 11.4432 28.8175 11.4432C28.4624 11.4432 28.1513 11.5369 27.8842 11.7244C27.62 11.9091 27.4141 12.1733 27.2663 12.517C27.1186 12.858 27.0447 13.2614 27.0447 13.7273C27.0447 14.2045 27.1172 14.6165 27.2621 14.9631C27.407 15.3097 27.6115 15.5781 27.8757 15.7685C28.1428 15.9588 28.4567 16.054 28.8175 16.054C29.0589 16.054 29.2777 16.0099 29.4737 15.9219C29.6726 15.831 29.8388 15.7017 29.9723 15.5341C30.1087 15.3665 30.2038 15.1648 30.2578 14.929H31.4979C31.4524 15.3523 31.3146 15.7301 31.0845 16.0625C30.8544 16.3949 30.5462 16.6562 30.1598 16.8466C29.7763 17.0369 29.326 17.1321 28.8089 17.1321ZM35.6175 17.1321C35.0039 17.1321 34.4684 16.9915 34.011 16.7102C33.5536 16.429 33.1985 16.0355 32.9457 15.5298C32.6928 15.0241 32.5664 14.4332 32.5664 13.7571C32.5664 13.0781 32.6928 12.4844 32.9457 11.9759C33.1985 11.4673 33.5536 11.0724 34.011 10.7912C34.4684 10.5099 35.0039 10.3693 35.6175 10.3693C36.2312 10.3693 36.7667 10.5099 37.2241 10.7912C37.6815 11.0724 38.0366 11.4673 38.2894 11.9759C38.5423 12.4844 38.6687 13.0781 38.6687 13.7571C38.6687 14.4332 38.5423 15.0241 38.2894 15.5298C38.0366 16.0355 37.6815 16.429 37.2241 16.7102C36.7667 16.9915 36.2312 17.1321 35.6175 17.1321ZM35.6218 16.0625C36.0195 16.0625 36.3491 15.9574 36.6104 15.7472C36.8718 15.5369 37.065 15.2571 37.19 14.9077C37.3178 14.5582 37.3817 14.1733 37.3817 13.7528C37.3817 13.3352 37.3178 12.9517 37.19 12.6023C37.065 12.25 36.8718 11.9673 36.6104 11.7543C36.3491 11.5412 36.0195 11.4347 35.6218 11.4347C35.2212 11.4347 34.8888 11.5412 34.6246 11.7543C34.3633 11.9673 34.1687 12.25 34.0408 12.6023C33.9158 12.9517 33.8533 13.3352 33.8533 13.7528C33.8533 14.1733 33.9158 14.5582 34.0408 14.9077C34.1687 15.2571 34.3633 15.5369 34.6246 15.7472C34.8888 15.9574 35.2212 16.0625 35.6218 16.0625ZM40.0909 17V10.4545H41.3139V11.5199H41.3949C41.5313 11.1591 41.7543 10.8778 42.0639 10.6761C42.3736 10.4716 42.7443 10.3693 43.1761 10.3693C43.6136 10.3693 43.9801 10.4716 44.2756 10.6761C44.5739 10.8807 44.794 11.1619 44.9361 11.5199H45.0043C45.1605 11.1705 45.4091 10.892 45.75 10.6847C46.0909 10.4744 46.4972 10.3693 46.9688 10.3693C47.5625 10.3693 48.0469 10.5554 48.4219 10.9276C48.7997 11.2997 48.9886 11.8608 48.9886 12.6108V17H47.7145V12.7301C47.7145 12.2869 47.5938 11.9659 47.3523 11.767C47.1108 11.5682 46.8224 11.4688 46.4872 11.4688C46.0724 11.4688 45.75 11.5966 45.5199 11.8523C45.2898 12.1051 45.1747 12.4304 45.1747 12.8281V17H43.9048V12.6491C43.9048 12.294 43.794 12.0085 43.5724 11.7926C43.3509 11.5767 43.0625 11.4688 42.7074 11.4688C42.4659 11.4688 42.2429 11.5327 42.0384 11.6605C41.8366 11.7855 41.6733 11.9602 41.5483 12.1847C41.4261 12.4091 41.3651 12.669 41.3651 12.9645V17H40.0909ZM50.6964 17V10.4545H51.9194V11.5199H52.0004C52.1367 11.1591 52.3597 10.8778 52.6694 10.6761C52.979 10.4716 53.3498 10.3693 53.7816 10.3693C54.2191 10.3693 54.5856 10.4716 54.881 10.6761C55.1793 10.8807 55.3995 11.1619 55.5415 11.5199H55.6097C55.766 11.1705 56.0146 10.892 56.3555 10.6847C56.6964 10.4744 57.1026 10.3693 57.5742 10.3693C58.168 10.3693 58.6523 10.5554 59.0273 10.9276C59.4052 11.2997 59.5941 11.8608 59.5941 12.6108V17H58.32V12.7301C58.32 12.2869 58.1992 11.9659 57.9577 11.767C57.7163 11.5682 57.4279 11.4688 57.0927 11.4688C56.6779 11.4688 56.3555 11.5966 56.1254 11.8523C55.8952 12.1051 55.7802 12.4304 55.7802 12.8281V17H54.5103V12.6491C54.5103 12.294 54.3995 12.0085 54.1779 11.7926C53.9563 11.5767 53.668 11.4688 53.3129 11.4688C53.0714 11.4688 52.8484 11.5327 52.6438 11.6605C52.4421 11.7855 52.2788 11.9602 52.1538 12.1847C52.0316 12.4091 51.9705 12.669 51.9705 12.9645V17H50.6964ZM64.1229 17.1321C63.478 17.1321 62.9226 16.9943 62.4567 16.7188C61.9936 16.4403 61.6357 16.0497 61.3828 15.5469C61.1328 15.0412 61.0078 14.4489 61.0078 13.7699C61.0078 13.0994 61.1328 12.5085 61.3828 11.9972C61.6357 11.4858 61.9879 11.0866 62.4396 10.7997C62.8942 10.5128 63.4254 10.3693 64.0334 10.3693C64.4027 10.3693 64.7607 10.4304 65.1072 10.5526C65.4538 10.6747 65.7649 10.8665 66.0405 11.1278C66.3161 11.3892 66.5334 11.7287 66.6925 12.1463C66.8516 12.5611 66.9311 13.0653 66.9311 13.6591V14.1108H61.728V13.1562H65.6825C65.6825 12.821 65.6143 12.5241 65.478 12.2656C65.3416 12.0043 65.1499 11.7983 64.9027 11.6477C64.6584 11.4972 64.3714 11.4219 64.0419 11.4219C63.6839 11.4219 63.3714 11.5099 63.1044 11.6861C62.8402 11.8594 62.6357 12.0866 62.4908 12.3679C62.3487 12.6463 62.2777 12.9489 62.2777 13.2756V14.0213C62.2777 14.4588 62.3544 14.831 62.5078 15.1378C62.6641 15.4446 62.8814 15.679 63.1598 15.8409C63.4382 16 63.7635 16.0795 64.1357 16.0795C64.3771 16.0795 64.5973 16.0455 64.7962 15.9773C64.995 15.9062 65.1669 15.8011 65.3118 15.6619C65.4567 15.5227 65.5675 15.3509 65.6442 15.1463L66.8501 15.3636C66.7536 15.7187 66.5803 16.0298 66.3303 16.2969C66.0831 16.5611 65.772 16.767 65.397 16.9148C65.0249 17.0597 64.6001 17.1321 64.1229 17.1321ZM69.619 13.1136V17H68.3448V10.4545H69.5678V11.5199H69.6488C69.7994 11.1733 70.0352 10.8949 70.3562 10.6847C70.68 10.4744 71.0877 10.3693 71.5792 10.3693C72.0252 10.3693 72.4158 10.4631 72.7511 10.6506C73.0863 10.8352 73.3462 11.1108 73.5309 11.4773C73.7156 11.8437 73.8079 12.2969 73.8079 12.8366V17H72.5337V12.9901C72.5337 12.5156 72.4102 12.1449 72.163 11.8778C71.9158 11.608 71.5763 11.473 71.1445 11.473C70.8491 11.473 70.5863 11.5369 70.3562 11.6648C70.1289 11.7926 69.9485 11.9801 69.815 12.2273C69.6843 12.4716 69.619 12.767 69.619 13.1136ZM77.967 17.1278C77.4386 17.1278 76.967 16.9929 76.5522 16.723C76.1403 16.4503 75.8164 16.0625 75.5806 15.5597C75.3477 15.054 75.2312 14.4474 75.2312 13.7401C75.2312 13.0327 75.3491 12.4276 75.5849 11.9247C75.8235 11.4219 76.1502 11.0369 76.565 10.7699C76.9798 10.5028 77.4499 10.3693 77.9755 10.3693C78.3817 10.3693 78.7085 10.4375 78.9556 10.5739C79.2056 10.7074 79.3988 10.8636 79.5352 11.0426C79.6744 11.2216 79.7823 11.3793 79.859 11.5156H79.9357V8.27273H81.2099V17H79.9656V15.9815H79.859C79.7823 16.1207 79.6715 16.2798 79.5266 16.4588C79.3846 16.6378 79.1886 16.794 78.9386 16.9276C78.6886 17.0611 78.3647 17.1278 77.967 17.1278ZM78.2482 16.0412C78.6147 16.0412 78.9244 15.9446 79.1772 15.7514C79.4329 15.5554 79.6261 15.2841 79.7567 14.9375C79.8903 14.5909 79.957 14.1875 79.957 13.7273C79.957 13.2727 79.8917 12.875 79.761 12.5341C79.6303 12.1932 79.4386 11.9276 79.1857 11.7372C78.9329 11.5469 78.6204 11.4517 78.2482 11.4517C77.8647 11.4517 77.5451 11.5511 77.2894 11.75C77.0337 11.9489 76.8406 12.2202 76.7099 12.5639C76.582 12.9077 76.5181 13.2955 76.5181 13.7273C76.5181 14.1648 76.5835 14.5582 76.7141 14.9077C76.8448 15.2571 77.038 15.5341 77.2937 15.7386C77.5522 15.9403 77.8704 16.0412 78.2482 16.0412ZM85.8494 17.1321C85.2045 17.1321 84.6491 16.9943 84.1832 16.7188C83.7202 16.4403 83.3622 16.0497 83.1094 15.5469C82.8594 15.0412 82.7344 14.4489 82.7344 13.7699C82.7344 13.0994 82.8594 12.5085 83.1094 11.9972C83.3622 11.4858 83.7145 11.0866 84.1662 10.7997C84.6207 10.5128 85.152 10.3693 85.7599 10.3693C86.1293 10.3693 86.4872 10.4304 86.8338 10.5526C87.1804 10.6747 87.4915 10.8665 87.767 11.1278C88.0426 11.3892 88.2599 11.7287 88.419 12.1463C88.5781 12.5611 88.6577 13.0653 88.6577 13.6591V14.1108H83.4545V13.1562H87.4091C87.4091 12.821 87.3409 12.5241 87.2045 12.2656C87.0682 12.0043 86.8764 11.7983 86.6293 11.6477C86.3849 11.4972 86.098 11.4219 85.7685 11.4219C85.4105 11.4219 85.098 11.5099 84.831 11.6861C84.5668 11.8594 84.3622 12.0866 84.2173 12.3679C84.0753 12.6463 84.0043 12.9489 84.0043 13.2756V14.0213C84.0043 14.4588 84.081 14.831 84.2344 15.1378C84.3906 15.4446 84.608 15.679 84.8864 15.8409C85.1648 16 85.4901 16.0795 85.8622 16.0795C86.1037 16.0795 86.3239 16.0455 86.5227 15.9773C86.7216 15.9062 86.8935 15.8011 87.0384 15.6619C87.1832 15.5227 87.294 15.3509 87.3707 15.1463L88.5767 15.3636C88.4801 15.7187 88.3068 16.0298 88.0568 16.2969C87.8097 16.5611 87.4986 16.767 87.1236 16.9148C86.7514 17.0597 86.3267 17.1321 85.8494 17.1321ZM92.5217 17.1278C91.9933 17.1278 91.5217 16.9929 91.1069 16.723C90.695 16.4503 90.3711 16.0625 90.1353 15.5597C89.9023 15.054 89.7859 14.4474 89.7859 13.7401C89.7859 13.0327 89.9038 12.4276 90.1396 11.9247C90.3782 11.4219 90.7049 11.0369 91.1197 10.7699C91.5344 10.5028 92.0046 10.3693 92.5302 10.3693C92.9364 10.3693 93.2631 10.4375 93.5103 10.5739C93.7603 10.7074 93.9535 10.8636 94.0898 11.0426C94.229 11.2216 94.337 11.3793 94.4137 11.5156H94.4904V8.27273H95.7646V17H94.5202V15.9815H94.4137C94.337 16.1207 94.2262 16.2798 94.0813 16.4588C93.9393 16.6378 93.7433 16.794 93.4933 16.9276C93.2433 17.0611 92.9194 17.1278 92.5217 17.1278ZM92.8029 16.0412C93.1694 16.0412 93.479 15.9446 93.7319 15.7514C93.9876 15.5554 94.1808 15.2841 94.3114 14.9375C94.445 14.5909 94.5117 14.1875 94.5117 13.7273C94.5117 13.2727 94.4464 12.875 94.3157 12.5341C94.185 12.1932 93.9933 11.9276 93.7404 11.7372C93.4876 11.5469 93.1751 11.4517 92.8029 11.4517C92.4194 11.4517 92.0998 11.5511 91.8441 11.75C91.5884 11.9489 91.3952 12.2202 91.2646 12.5639C91.1367 12.9077 91.0728 13.2955 91.0728 13.7273C91.0728 14.1648 91.1381 14.5582 91.2688 14.9077C91.3995 15.2571 91.5927 15.5341 91.8484 15.7386C92.1069 15.9403 92.4251 16.0412 92.8029 16.0412ZM98.4226 17.081C98.1896 17.081 97.9893 16.9986 97.8217 16.8338C97.6541 16.6662 97.5703 16.4645 97.5703 16.2287C97.5703 15.9957 97.6541 15.7969 97.8217 15.6321C97.9893 15.4645 98.1896 15.3807 98.4226 15.3807C98.6555 15.3807 98.8558 15.4645 99.0234 15.6321C99.1911 15.7969 99.2749 15.9957 99.2749 16.2287C99.2749 16.3849 99.2351 16.5284 99.1555 16.6591C99.0788 16.7869 98.9766 16.8892 98.8487 16.9659C98.7209 17.0426 98.5788 17.081 98.4226 17.081ZM98.4226 12.3168C98.1896 12.3168 97.9893 12.233 97.8217 12.0653C97.6541 11.8977 97.5703 11.6974 97.5703 11.4645C97.5703 11.2315 97.6541 11.0327 97.8217 10.8679C97.9893 10.7003 98.1896 10.6165 98.4226 10.6165C98.6555 10.6165 98.8558 10.7003 99.0234 10.8679C99.1911 11.0327 99.2749 11.2315 99.2749 11.4645C99.2749 11.6207 99.2351 11.7642 99.1555 11.8949C99.0788 12.0227 98.9766 12.125 98.8487 12.2017C98.7209 12.2784 98.5788 12.3168 98.4226 12.3168ZM104.434 17L108.244 9.46591V9.40199H103.838V8.27273H109.608V9.44034L105.811 17H104.434ZM113.853 17.1193C113.319 17.1193 112.839 17.017 112.413 16.8125C111.989 16.6051 111.651 16.321 111.398 15.9602C111.146 15.5994 111.011 15.1875 110.994 14.7244H112.272C112.303 15.0994 112.469 15.4077 112.771 15.6491C113.072 15.8906 113.433 16.0114 113.853 16.0114C114.188 16.0114 114.485 15.9347 114.744 15.7812C115.005 15.625 115.21 15.4105 115.357 15.1378C115.508 14.8651 115.583 14.554 115.583 14.2045C115.583 13.8494 115.506 13.5327 115.353 13.2543C115.2 12.9759 114.988 12.7571 114.718 12.598C114.451 12.4389 114.144 12.358 113.798 12.3551C113.533 12.3551 113.268 12.4006 113.001 12.4915C112.734 12.5824 112.518 12.7017 112.353 12.8494L111.147 12.6705L111.637 8.27273H116.435V9.40199H112.732L112.455 11.8438H112.506C112.677 11.679 112.903 11.5412 113.184 11.4304C113.468 11.3196 113.772 11.2642 114.096 11.2642C114.627 11.2642 115.1 11.3906 115.515 11.6435C115.933 11.8963 116.261 12.2415 116.499 12.679C116.741 13.1136 116.86 13.6136 116.857 14.179C116.86 14.7443 116.732 15.2486 116.474 15.6918C116.218 16.1349 115.863 16.4844 115.408 16.7401C114.957 16.9929 114.438 17.1193 113.853 17.1193ZM122.969 15.3636V14.9034C122.969 14.5739 123.037 14.2727 123.174 14C123.313 13.7244 123.515 13.5043 123.779 13.3395C124.046 13.1719 124.368 13.0881 124.746 13.0881C125.132 13.0881 125.456 13.1705 125.718 13.3352C125.979 13.5 126.176 13.7202 126.31 13.9957C126.446 14.2713 126.515 14.5739 126.515 14.9034V15.3636C126.515 15.6932 126.446 15.9957 126.31 16.2713C126.174 16.544 125.973 16.7642 125.709 16.9318C125.448 17.0966 125.127 17.179 124.746 17.179C124.363 17.179 124.039 17.0966 123.775 16.9318C123.51 16.7642 123.31 16.544 123.174 16.2713C123.037 15.9957 122.969 15.6932 122.969 15.3636ZM123.962 14.9034V15.3636C123.962 15.608 124.02 15.8295 124.137 16.0284C124.253 16.2273 124.456 16.3267 124.746 16.3267C125.033 16.3267 125.233 16.2273 125.347 16.0284C125.461 15.8295 125.517 15.608 125.517 15.3636V14.9034C125.517 14.6591 125.462 14.4375 125.351 14.2386C125.243 14.0398 125.042 13.9403 124.746 13.9403C124.462 13.9403 124.26 14.0398 124.141 14.2386C124.022 14.4375 123.962 14.6591 123.962 14.9034ZM118.58 10.3693V9.90909C118.58 9.57955 118.648 9.27699 118.784 9.00142C118.924 8.72585 119.125 8.50568 119.39 8.34091C119.657 8.17614 119.979 8.09375 120.357 8.09375C120.743 8.09375 121.067 8.17614 121.328 8.34091C121.59 8.50568 121.787 8.72585 121.921 9.00142C122.054 9.27699 122.121 9.57955 122.121 9.90909V10.3693C122.121 10.6989 122.053 11.0014 121.917 11.277C121.783 11.5497 121.584 11.7699 121.32 11.9375C121.059 12.1023 120.738 12.1847 120.357 12.1847C119.971 12.1847 119.645 12.1023 119.381 11.9375C119.12 11.7699 118.921 11.5497 118.784 11.277C118.648 11.0014 118.58 10.6989 118.58 10.3693ZM119.577 9.90909V10.3693C119.577 10.6136 119.634 10.8352 119.748 11.0341C119.864 11.233 120.067 11.3324 120.357 11.3324C120.641 11.3324 120.84 11.233 120.953 11.0341C121.07 10.8352 121.128 10.6136 121.128 10.3693V9.90909C121.128 9.66477 121.073 9.44318 120.962 9.24432C120.851 9.04545 120.65 8.94602 120.357 8.94602C120.073 8.94602 119.871 9.04545 119.752 9.24432C119.635 9.44318 119.577 9.66477 119.577 9.90909ZM118.985 17L124.985 8.27273H126.003L120.003 17H118.985Z" fill="white"/>
<circle cx="152" cy="12.5" r="2" fill="black"/>
<path d="M157 12.5H279" stroke="black" stroke-miterlimit="16" stroke-dasharray="3 3"/>
<circle cx="284" cy="12.5" r="2" fill="black"/>
<defs>
<linearGradient id="paint0_linear_2814_13957" x1="-133" y1="12.5" x2="168.86" y2="12.5" gradientUnits="userSpaceOnUse">
<stop/>
<stop offset="0.183496" stop-color="#0879C4"/>
<stop offset="0.436373" stop-color="#0879C4"/>
<stop offset="0.437216"/>
</linearGradient>
</defs>
</svg>
