<svg width="29" height="36" viewBox="0 0 29 36" fill="none" xmlns="http://www.w3.org/2000/svg">
<path fill-rule="evenodd" clip-rule="evenodd" d="M4 35.5H25C27.2091 35.5 29 33.7091 29 31.5V7.5H23C22.4477 7.5 22 7.05228 22 6.5V0.5H4C1.79086 0.5 0 2.29086 0 4.5V31.5C0 33.7091 1.79086 35.5 4 35.5Z" fill="white"/>
<path d="M29 7.5L22 0.5V6.5C22 7.05228 22.4477 7.5 23 7.5H29Z" fill="#0879C4"/>
<path d="M4 1H21.5V6.5C21.5 7.32843 22.1716 8 23 8H28.5V31.5C28.5 33.433 26.933 35 25 35H4C2.067 35 0.5 33.433 0.5 31.5V4.5C0.5 2.567 2.067 1 4 1ZM22.5 1.70703L27.793 7H23C22.7239 7 22.5 6.77614 22.5 6.5V1.70703Z" stroke="#0879C4"/>
<path d="M4 31.5H19" stroke="#0879C4" stroke-linecap="round"/>
<path d="M4 29H24" stroke="#0879C4" stroke-linecap="round"/>
<path d="M4 25.5H19" stroke="#0879C4" stroke-linecap="round"/>
<path d="M4 19.5H19" stroke="#0879C4" stroke-linecap="round"/>
<path d="M4 23H24" stroke="#0879C4" stroke-linecap="round"/>
<path d="M4 17H24" stroke="#0879C4" stroke-linecap="round"/>
<g clip-path="url(#clip0_1564_4005)">
<path d="M7.33628 9.67584C7.83086 9.95864 8.45805 10.0504 9.01909 9.92024C9.0305 9.91773 9.04192 9.91521 9.05368 9.91262C9.30092 9.85705 9.52493 9.76336 9.73985 9.63408C9.95295 9.50754 10.221 9.47112 10.4666 9.52248C10.9615 9.66229 11.3088 10.1621 11.5535 10.5711C11.5592 10.5804 11.565 10.5898 11.5709 10.5995C11.8526 11.063 11.9951 11.6193 11.9974 12.154C11.9975 12.1702 11.9976 12.1863 11.9977 12.2029C11.9979 12.2368 11.998 12.2706 11.998 12.3045C11.9982 12.3559 11.9987 12.4072 11.9992 12.4585C11.9993 12.4917 11.9994 12.5248 11.9994 12.5579C11.9996 12.573 11.9998 12.5881 12 12.6037C11.9992 12.8602 11.8974 13.0902 11.7092 13.2707C11.5521 13.4081 11.3578 13.4938 11.144 13.4941C11.1249 13.4942 11.1058 13.4943 11.0861 13.4944C11.0649 13.4943 11.0438 13.4943 11.0226 13.4943C11.0001 13.4944 10.9776 13.4944 10.955 13.4945C10.8932 13.4947 10.8313 13.4947 10.7694 13.4948C10.7026 13.4948 10.6359 13.495 10.5691 13.4951C10.4079 13.4954 10.2467 13.4955 10.0855 13.4957C10.0096 13.4957 9.93363 13.4958 9.85768 13.4959C9.60513 13.4962 9.35258 13.4964 9.10004 13.4965C9.03451 13.4965 8.96899 13.4966 8.90347 13.4966C8.87905 13.4966 8.87905 13.4966 8.85412 13.4966C8.59042 13.4967 8.32671 13.4971 8.06301 13.4976C7.79215 13.4981 7.52128 13.4984 7.25042 13.4984C7.09839 13.4985 6.94636 13.4986 6.79433 13.499C6.66484 13.4993 6.53534 13.4994 6.40585 13.4993C6.33982 13.4992 6.27381 13.4992 6.20779 13.4995C6.14723 13.4998 6.08668 13.4998 6.02612 13.4996C5.99408 13.4995 5.96205 13.4997 5.93001 13.5C5.66386 13.4982 5.4411 13.4064 5.24911 13.2302C5.06959 13.0447 5.0029 12.8212 5.00179 12.5737C5.0017 12.5579 5.00161 12.5421 5.00152 12.5258C5.00137 12.4923 5.00127 12.4587 5.00121 12.4251C5.00106 12.3751 5.00057 12.3251 5.00007 12.2751C4.99857 11.9884 5.02081 11.703 5.09452 11.4243C5.09851 11.4088 5.1025 11.3934 5.10661 11.3774C5.27675 10.742 5.68467 9.98975 6.27907 9.62795C6.62625 9.43811 7.00255 9.48404 7.33628 9.67584ZM6.24845 10.0719C5.70256 10.5801 5.35062 11.3459 5.33278 12.075C5.33236 12.1038 5.33204 12.1327 5.33181 12.1616C5.33168 12.1771 5.33156 12.1926 5.33143 12.2086C5.33121 12.2412 5.33104 12.2738 5.33092 12.3064C5.33073 12.3395 5.33041 12.3725 5.32995 12.4056C5.32927 12.4539 5.32902 12.5021 5.32886 12.5504C5.32858 12.5649 5.32831 12.5795 5.32802 12.5945C5.32858 12.7628 5.3878 12.9012 5.50872 13.0229C5.68795 13.1834 5.89507 13.1917 6.128 13.1914C6.14928 13.1915 6.17056 13.1915 6.19184 13.1915C6.25009 13.1916 6.30834 13.1916 6.36659 13.1916C6.42951 13.1916 6.49242 13.1917 6.55534 13.1918C6.67851 13.1919 6.80168 13.1919 6.92485 13.1919C7.02499 13.1919 7.12514 13.192 7.22528 13.192C7.50938 13.1922 7.79348 13.1922 8.07758 13.1922C8.10054 13.1922 8.10054 13.1922 8.12396 13.1922C8.13929 13.1922 8.15461 13.1922 8.1704 13.1922C8.41875 13.1922 8.6671 13.1924 8.91546 13.1926C9.17063 13.1928 9.42581 13.1929 9.68098 13.1929C9.82418 13.1929 9.96737 13.1929 10.1106 13.1931C10.2325 13.1932 10.3544 13.1932 10.4763 13.1931C10.5385 13.1931 10.6006 13.1931 10.6628 13.1932C10.7198 13.1933 10.7768 13.1933 10.8337 13.1932C10.8639 13.1932 10.8941 13.1933 10.9243 13.1934C11.1379 13.1926 11.3345 13.1637 11.4969 13.0197C11.6609 12.8431 11.6711 12.6475 11.669 12.4227C11.6686 12.3812 11.6686 12.3397 11.6687 12.2981C11.6684 12.0614 11.6525 11.826 11.5978 11.5946C11.5944 11.5801 11.591 11.5657 11.5876 11.5508C11.4424 10.9515 11.0855 10.2613 10.5419 9.90138C10.3936 9.82198 10.2304 9.80469 10.0637 9.83765C9.96159 9.87421 9.86738 9.93273 9.77266 9.98404C9.15928 10.3144 8.4136 10.3687 7.74072 10.1932C7.49485 10.1256 7.27357 10.0144 7.05127 9.89476C6.73677 9.73093 6.48676 9.86145 6.24845 10.0719Z" fill="#0879C4"/>
<path d="M6.24845 10.0719C5.70256 10.5801 5.35062 11.3459 5.33278 12.075L5.33181 12.1616L5.33143 12.2086L5.33092 12.3064C5.33073 12.3395 5.33041 12.3725 5.32995 12.4056C5.32927 12.4539 5.32902 12.5021 5.32886 12.5504L5.32802 12.5945C5.32858 12.7628 5.3878 12.9012 5.50872 13.0229C5.68795 13.1834 5.89507 13.1917 6.128 13.1914L6.19184 13.1915L6.36659 13.1916L6.55534 13.1918L6.92485 13.1919L7.22528 13.192L8.07758 13.1922L8.12396 13.1922L8.1704 13.1922C8.41875 13.1922 8.6671 13.1924 8.91546 13.1926C9.17063 13.1928 9.42581 13.1929 9.68098 13.1929L10.1106 13.1931C10.2325 13.1932 10.3544 13.1932 10.4763 13.1931C10.5385 13.1931 10.6006 13.1931 10.6628 13.1932C10.7198 13.1933 10.7768 13.1933 10.8337 13.1932L10.9243 13.1934C11.1379 13.1926 11.3345 13.1637 11.4969 13.0197C11.6609 12.8431 11.6711 12.6475 11.669 12.4227C11.6686 12.3812 11.6686 12.3397 11.6687 12.2981C11.6684 12.0614 11.6525 11.826 11.5978 11.5946L11.5876 11.5508C11.4424 10.9515 11.0855 10.2613 10.5419 9.90138C10.3936 9.82198 10.2304 9.80469 10.0637 9.83765C9.96159 9.87421 9.86738 9.93273 9.77266 9.98404C9.15928 10.3144 8.4136 10.3687 7.74072 10.1932C7.49485 10.1256 7.27357 10.0144 7.05127 9.89476C6.73677 9.73093 6.48676 9.86145 6.24845 10.0719Z" fill="#0879C4"/>
<path d="M9.55531 5.66786C9.94257 5.98692 10.2024 6.42409 10.2637 6.94338C10.2903 7.48256 10.1884 7.95995 9.85353 8.38159C9.8477 8.38897 9.84187 8.39634 9.83586 8.40395C9.55669 8.75233 9.14753 8.97298 8.71876 9.02878C8.20621 9.05673 7.7524 8.9496 7.35158 8.59732C7.34106 8.58812 7.34106 8.58812 7.33032 8.57873C6.99892 8.28486 6.78961 7.8549 6.73634 7.4036C6.70785 6.82534 6.8317 6.32936 7.20546 5.89169C7.8103 5.20613 8.84231 5.12496 9.55531 5.66786ZM7.54298 5.97978C7.53229 5.98862 7.52159 5.99746 7.51057 6.00657C7.24588 6.23835 7.0613 6.6134 7.02345 6.97214C6.99769 7.39421 7.0693 7.8164 7.33732 8.14687C7.34653 8.15788 7.35575 8.16889 7.36525 8.18024C7.37886 8.19765 7.37886 8.19765 7.39275 8.21541C7.64288 8.52571 8.01553 8.7046 8.3978 8.73884C8.6676 8.75719 8.92941 8.69781 9.16994 8.56855C9.18303 8.56173 9.19613 8.55491 9.20962 8.54788C9.30133 8.49809 9.37889 8.4378 9.45705 8.36721C9.4737 8.35283 9.4737 8.35283 9.49069 8.33816C9.76145 8.09601 9.93013 7.74363 9.97658 7.37484C10.0067 6.9149 9.90983 6.53007 9.63478 6.16674C9.6269 6.15621 9.61902 6.14568 9.61091 6.13483C9.38678 5.84987 9.03458 5.67363 8.69142 5.62022C8.25273 5.59268 7.89003 5.68801 7.54298 5.97978Z" fill="#0879C4"/>
<path d="M7.54298 5.97978L7.51057 6.00657C7.24588 6.23835 7.0613 6.6134 7.02345 6.97214C6.99769 7.39421 7.0693 7.8164 7.33732 8.14687L7.36525 8.18024L7.39275 8.21541C7.64288 8.52571 8.01553 8.7046 8.3978 8.73884C8.6676 8.75719 8.92941 8.69781 9.16994 8.56855L9.20962 8.54788C9.30133 8.49809 9.37889 8.4378 9.45705 8.36721L9.49069 8.33816C9.76145 8.09601 9.93013 7.74363 9.97658 7.37484C10.0067 6.9149 9.90983 6.53007 9.63478 6.16674L9.61091 6.13483C9.38678 5.84987 9.03458 5.67363 8.69142 5.62022C8.25273 5.59268 7.89003 5.68801 7.54298 5.97978Z" fill="#0879C4"/>
</g>
<defs>
<clipPath id="clip0_1564_4005">
<rect width="7" height="9" fill="white" transform="translate(5 4.5)"/>
</clipPath>
</defs>
</svg>
