<svg width="29" height="35" viewBox="0 0 29 35" fill="none" xmlns="http://www.w3.org/2000/svg">
<path fill-rule="evenodd" clip-rule="evenodd" d="M4 35H25C27.2091 35 29 33.2091 29 31V7H23C22.4477 7 22 6.55228 22 6V0H4C1.79086 0 0 1.79086 0 4V31C0 33.2091 1.79086 35 4 35Z" fill="white"/>
<path d="M29 7L22 0V6C22 6.55228 22.4477 7 23 7H29Z" fill="#0879C4"/>
<path d="M4 0.5H21.5V6C21.5 6.82843 22.1716 7.5 23 7.5H28.5V31C28.5 32.933 26.933 34.5 25 34.5H4C2.067 34.5 0.5 32.933 0.5 31V4C0.5 2.067 2.067 0.5 4 0.5ZM22.5 1.20703L27.793 6.5H23C22.7239 6.5 22.5 6.27614 22.5 6V1.20703Z" stroke="#0879C4"/>
<path d="M4 31H19" stroke="#0879C4" stroke-linecap="round"/>
<path d="M4 28.5H24" stroke="#0879C4" stroke-linecap="round"/>
<path d="M4 25H19" stroke="#0879C4" stroke-linecap="round"/>
<path d="M4 19H19" stroke="#0879C4" stroke-linecap="round"/>
<path d="M4 22.5H24" stroke="#0879C4" stroke-linecap="round"/>
<path d="M4 16.5H24" stroke="#0879C4" stroke-linecap="round"/>
<g clip-path="url(#clip0_4901_19301)">
<path d="M7.33628 9.17584C7.83086 9.45864 8.45805 9.55036 9.01909 9.42024C9.0305 9.41773 9.04192 9.41521 9.05368 9.41262C9.30092 9.35705 9.52493 9.26336 9.73985 9.13408C9.95295 9.00754 10.221 8.97112 10.4666 9.02248C10.9615 9.16229 11.3088 9.66215 11.5535 10.0711C11.5592 10.0804 11.565 10.0898 11.5709 10.0995C11.8526 10.563 11.9951 11.1193 11.9974 11.654C11.9975 11.6702 11.9976 11.6863 11.9977 11.7029C11.9979 11.7368 11.998 11.7706 11.998 11.8045C11.9982 11.8559 11.9987 11.9072 11.9992 11.9585C11.9993 11.9917 11.9994 12.0248 11.9994 12.0579C11.9996 12.073 11.9998 12.0881 12 12.1037C11.9992 12.3602 11.8974 12.5902 11.7092 12.7707C11.5521 12.9081 11.3578 12.9938 11.144 12.9941C11.1249 12.9942 11.1058 12.9943 11.0861 12.9944C11.0649 12.9943 11.0438 12.9943 11.0226 12.9943C11.0001 12.9944 10.9776 12.9944 10.955 12.9945C10.8932 12.9947 10.8313 12.9947 10.7694 12.9948C10.7026 12.9948 10.6359 12.995 10.5691 12.9951C10.4079 12.9954 10.2467 12.9955 10.0855 12.9957C10.0096 12.9957 9.93363 12.9958 9.85768 12.9959C9.60513 12.9962 9.35258 12.9964 9.10004 12.9965C9.03451 12.9965 8.96899 12.9966 8.90347 12.9966C8.87905 12.9966 8.87905 12.9966 8.85412 12.9966C8.59042 12.9967 8.32671 12.9971 8.06301 12.9976C7.79215 12.9981 7.52128 12.9984 7.25042 12.9984C7.09839 12.9985 6.94636 12.9986 6.79433 12.999C6.66484 12.9993 6.53534 12.9994 6.40585 12.9993C6.33982 12.9992 6.27381 12.9992 6.20779 12.9995C6.14723 12.9998 6.08668 12.9998 6.02612 12.9996C5.99408 12.9995 5.96205 12.9997 5.93001 13C5.66386 12.9982 5.4411 12.9064 5.24911 12.7302C5.06959 12.5447 5.0029 12.3212 5.00179 12.0737C5.0017 12.0579 5.00161 12.0421 5.00152 12.0258C5.00137 11.9923 5.00127 11.9587 5.00121 11.9251C5.00106 11.8751 5.00057 11.8251 5.00007 11.7751C4.99857 11.4884 5.02081 11.203 5.09452 10.9243C5.09851 10.9088 5.1025 10.8934 5.10661 10.8774C5.27675 10.242 5.68467 9.48975 6.27907 9.12795C6.62625 8.93811 7.00255 8.98404 7.33628 9.17584ZM6.24845 9.57195C5.70256 10.0801 5.35062 10.8459 5.33278 11.575C5.33236 11.6038 5.33204 11.6327 5.33181 11.6616C5.33168 11.6771 5.33156 11.6926 5.33143 11.7086C5.33121 11.7412 5.33104 11.7738 5.33092 11.8064C5.33073 11.8395 5.33041 11.8725 5.32995 11.9056C5.32927 11.9539 5.32902 12.0021 5.32886 12.0504C5.32858 12.0649 5.32831 12.0795 5.32802 12.0945C5.32858 12.2628 5.3878 12.4012 5.50872 12.5229C5.68795 12.6834 5.89507 12.6917 6.128 12.6914C6.14928 12.6915 6.17056 12.6915 6.19184 12.6915C6.25009 12.6916 6.30834 12.6916 6.36659 12.6916C6.42951 12.6916 6.49242 12.6917 6.55534 12.6918C6.67851 12.6919 6.80168 12.6919 6.92485 12.6919C7.02499 12.6919 7.12514 12.692 7.22528 12.692C7.50938 12.6922 7.79348 12.6922 8.07758 12.6922C8.10054 12.6922 8.10054 12.6922 8.12396 12.6922C8.13929 12.6922 8.15461 12.6922 8.1704 12.6922C8.41875 12.6922 8.6671 12.6924 8.91546 12.6926C9.17063 12.6928 9.42581 12.6929 9.68098 12.6929C9.82418 12.6929 9.96737 12.6929 10.1106 12.6931C10.2325 12.6932 10.3544 12.6932 10.4763 12.6931C10.5385 12.6931 10.6006 12.6931 10.6628 12.6932C10.7198 12.6933 10.7768 12.6933 10.8337 12.6932C10.8639 12.6932 10.8941 12.6933 10.9243 12.6934C11.1379 12.6926 11.3345 12.6637 11.4969 12.5197C11.6609 12.3431 11.6711 12.1475 11.669 11.9227C11.6686 11.8812 11.6686 11.8397 11.6687 11.7981C11.6684 11.5614 11.6525 11.326 11.5978 11.0946C11.5944 11.0801 11.591 11.0657 11.5876 11.0508C11.4424 10.4515 11.0855 9.76132 10.5419 9.40138C10.3936 9.32198 10.2304 9.30469 10.0637 9.33765C9.96159 9.37421 9.86738 9.43273 9.77266 9.48404C9.15928 9.81437 8.4136 9.86874 7.74072 9.69324C7.49485 9.62558 7.27357 9.5144 7.05127 9.39476C6.73677 9.23093 6.48676 9.36145 6.24845 9.57195Z" fill="#0879C4"/>
<path d="M6.24845 9.57195C5.70256 10.0801 5.35062 10.8459 5.33278 11.575L5.33181 11.6616L5.33143 11.7086L5.33092 11.8064C5.33073 11.8395 5.33041 11.8725 5.32995 11.9056C5.32927 11.9539 5.32902 12.0021 5.32886 12.0504L5.32802 12.0945C5.32858 12.2628 5.3878 12.4012 5.50872 12.5229C5.68795 12.6834 5.89507 12.6917 6.128 12.6914L6.19184 12.6915L6.36659 12.6916L6.55534 12.6918L6.92485 12.6919L7.22528 12.692L8.07758 12.6922L8.12396 12.6922L8.1704 12.6922C8.41875 12.6922 8.6671 12.6924 8.91546 12.6926C9.17063 12.6928 9.42581 12.6929 9.68098 12.6929L10.1106 12.6931C10.2325 12.6932 10.3544 12.6932 10.4763 12.6931C10.5385 12.6931 10.6006 12.6931 10.6628 12.6932C10.7198 12.6933 10.7768 12.6933 10.8337 12.6932L10.9243 12.6934C11.1379 12.6926 11.3345 12.6637 11.4969 12.5197C11.6609 12.3431 11.6711 12.1475 11.669 11.9227C11.6686 11.8812 11.6686 11.8397 11.6687 11.7981C11.6684 11.5614 11.6525 11.326 11.5978 11.0946L11.5876 11.0508C11.4424 10.4515 11.0855 9.76132 10.5419 9.40138C10.3936 9.32198 10.2304 9.30469 10.0637 9.33765C9.96159 9.37421 9.86738 9.43273 9.77266 9.48404C9.15928 9.81437 8.4136 9.86874 7.74072 9.69324C7.49485 9.62558 7.27357 9.5144 7.05127 9.39476C6.73677 9.23093 6.48676 9.36145 6.24845 9.57195Z" fill="#0879C4"/>
<path d="M9.55528 5.16738C9.94254 5.48643 10.2024 5.9236 10.2637 6.44289C10.2902 6.98207 10.1884 7.45946 9.8535 7.8811C9.84767 7.88848 9.84184 7.89586 9.83583 7.90346C9.55666 8.25184 9.1475 8.4725 8.71873 8.52829C8.20618 8.55624 7.75236 8.44912 7.35155 8.09683C7.34102 8.08763 7.34102 8.08763 7.33029 8.07824C6.99889 7.78437 6.78958 7.35441 6.73631 6.90312C6.70782 6.32485 6.83167 5.82887 7.20543 5.3912C7.81027 4.70565 8.84228 4.62448 9.55528 5.16738ZM7.54295 5.47929C7.53225 5.48813 7.52156 5.49697 7.51054 5.50609C7.24585 5.73786 7.06127 6.11291 7.02342 6.47165C6.99766 6.89372 7.06927 7.31591 7.33729 7.64638C7.3465 7.65739 7.35572 7.6684 7.36522 7.67975C7.37883 7.69716 7.37883 7.69716 7.39272 7.71492C7.64285 8.02522 8.0155 8.20411 8.39777 8.23835C8.66757 8.2567 8.92938 8.19732 9.16991 8.06807C9.183 8.06124 9.19609 8.05442 9.20959 8.04739C9.3013 7.9976 9.37886 7.93731 9.45702 7.86672C9.47367 7.85234 9.47367 7.85234 9.49066 7.83767C9.76142 7.59553 9.9301 7.24314 9.97655 6.87435C10.0067 6.41441 9.9098 6.02958 9.63475 5.66625C9.62687 5.65572 9.61899 5.64519 9.61088 5.63434C9.38675 5.34939 9.03455 5.17314 8.69139 5.11974C8.2527 5.09219 7.89 5.18753 7.54295 5.47929Z" fill="#0879C4"/>
<path d="M7.54295 5.47929L7.51054 5.50609C7.24585 5.73786 7.06127 6.11291 7.02342 6.47165C6.99766 6.89372 7.06927 7.31591 7.33729 7.64638L7.36522 7.67975L7.39272 7.71492C7.64285 8.02522 8.0155 8.20411 8.39777 8.23835C8.66757 8.2567 8.92938 8.19732 9.16991 8.06807L9.20959 8.04739C9.3013 7.9976 9.37886 7.93731 9.45702 7.86672L9.49066 7.83767C9.76142 7.59553 9.9301 7.24314 9.97655 6.87435C10.0067 6.41441 9.9098 6.02958 9.63475 5.66625L9.61088 5.63434C9.38675 5.34939 9.03455 5.17314 8.69139 5.11974C8.2527 5.09219 7.89 5.18753 7.54295 5.47929Z" fill="#0879C4"/>
</g>
<defs>
<clipPath id="clip0_4901_19301">
<rect width="7" height="9" fill="white" transform="translate(5 4)"/>
</clipPath>
</defs>
</svg>
