<svg width="171" height="150" viewBox="0 0 171 150" fill="none" xmlns="http://www.w3.org/2000/svg">
<g id="Group">
<g id="Group_2">
<g id="Group_3">
<g id="Group_4">
<g id="Group_5">
<path id="Vector" d="M87.8403 28.082H77.3984V59.4076H87.8403V28.082Z" fill="#EF8E4D"/>
</g>
</g>
</g>
<g id="Group_6">
<g id="Group_7">
<g id="Group_8">
<path id="Vector_2" d="M77.3984 29.5726V35.47C81.2733 37.0354 85.5618 34.3116 87.8403 32.4804V28.3047L81.6051 28.7592L77.3984 29.5726Z" fill="#EB701E"/>
</g>
</g>
</g>
<g id="Group_9">
<g id="Group_10">
<g id="Group_11">
<path id="Vector_3" d="M80.7953 31.6944C89.1973 31.6944 96.0085 24.5993 96.0085 15.8472C96.0085 7.09502 89.1973 0 80.7953 0C72.3932 0 65.582 7.09502 65.582 15.8472C65.582 24.5993 72.3932 31.6944 80.7953 31.6944Z" fill="#EF8E4D"/>
</g>
</g>
</g>
<g id="Group_12">
<g id="Group_13">
<g id="Group_14">
<path id="Vector_4" d="M95.2912 15.9566C95.2912 15.9566 98.986 12.3245 100.777 15.8445C102.892 20.0004 96.8011 23.6846 94.9244 19.9958C93.0476 16.3076 95.2912 15.9566 95.2912 15.9566Z" fill="#EF8E4D"/>
</g>
</g>
</g>
<g id="Group_15">
<g id="Group_16">
<g id="Group_17">
<path id="Vector_5" d="M79.5925 18.5214C79.5602 18.5214 79.5272 18.5108 79.4995 18.4884C79.4362 18.4369 79.4256 18.3439 79.477 18.2806L80.7331 16.7211C80.7806 16.6624 80.8643 16.6486 80.9277 16.6895L83.0287 18.0319C83.0973 18.0761 83.1178 18.1671 83.0736 18.2364C83.0294 18.305 82.9383 18.3254 82.869 18.2812L80.8802 17.0101L79.7073 18.466C79.6782 18.5022 79.6354 18.5214 79.5925 18.5214Z" fill="black"/>
<path id="Vector_6" d="M79.5926 18.6857C79.5207 18.6857 79.4528 18.662 79.3967 18.6171C79.3314 18.5643 79.2905 18.4898 79.2812 18.4067C79.272 18.3236 79.2958 18.2418 79.3485 18.1765L80.6045 16.617C80.7048 16.493 80.8823 16.4626 81.0168 16.5497L83.1179 17.8928C83.1878 17.9377 83.2366 18.0069 83.2544 18.0887C83.2722 18.1699 83.2571 18.2536 83.2122 18.3242C83.1199 18.4687 82.9266 18.5122 82.7808 18.4199L80.9159 17.2279L79.8354 18.569C79.7773 18.6428 79.6883 18.6857 79.5926 18.6857Z" fill="black"/>
</g>
</g>
</g>
<g id="Group_18">
<g id="Group_19">
<g id="Group_20">
<path id="Vector_7" d="M77.8978 23.8843C77.8298 23.8513 77.7969 23.7715 77.8239 23.6996C77.8523 23.623 77.9374 23.5841 78.0139 23.6125C80.9494 24.7049 84.4813 23.0445 84.5169 23.028C84.5908 22.9931 84.6792 23.0241 84.7141 23.098C84.7491 23.1718 84.7181 23.2596 84.6449 23.2952C84.6079 23.313 83.7187 23.7352 82.4409 24.0241C81.2575 24.292 79.5107 24.4859 77.911 23.8902C77.9064 23.8882 77.9017 23.8863 77.8978 23.8843Z" fill="black"/>
<path id="Vector_8" d="M80.2517 24.4448C79.4733 24.4448 78.6467 24.3386 77.8531 24.0437L77.8254 24.0319C77.6803 23.9613 77.613 23.7931 77.6691 23.6413C77.6981 23.5628 77.7562 23.5008 77.832 23.4659C77.9085 23.4316 77.9936 23.4283 78.0715 23.4573C80.9193 24.5174 84.4109 22.8939 84.4458 22.8781C84.5197 22.8425 84.6048 22.8379 84.684 22.8656C84.7631 22.8933 84.8265 22.95 84.8621 23.0259C84.8984 23.1004 84.903 23.1855 84.8753 23.2647C84.8476 23.3438 84.7908 23.4065 84.7156 23.4428C84.618 23.489 83.7334 23.8993 82.4767 24.1836C81.856 24.3248 81.0809 24.4448 80.2517 24.4448Z" fill="black"/>
</g>
</g>
</g>
<g id="Group_21">
<g id="Group_22">
<g id="Group_23">
<path id="Vector_9" d="M84.54 10.0306C84.515 10.0214 84.4925 10.0029 84.4767 9.97522C84.4332 9.89936 84.4543 9.78458 84.5249 9.71861C84.5486 9.69618 85.1179 9.16713 86.1608 8.81025C87.1127 8.48437 88.6616 8.24755 90.6334 8.96725C90.7086 8.99496 90.7409 9.09522 90.7053 9.19219C90.6697 9.28917 90.5806 9.34524 90.5054 9.31819C88.6075 8.62554 87.1253 8.84653 86.2163 9.15393C85.2327 9.48641 84.6891 9.98842 84.6838 9.99303C84.6383 10.0346 84.5849 10.0471 84.54 10.0306Z" fill="black"/>
<path id="Vector_10" d="M84.5798 10.2025C84.5475 10.2025 84.5151 10.1973 84.4841 10.186L84.4828 10.1854C84.4195 10.1616 84.368 10.1174 84.3331 10.0568C84.2506 9.91559 84.2842 9.71835 84.4116 9.59829C84.436 9.5752 85.0284 9.02305 86.1069 8.65364C87.0839 8.31919 88.6717 8.07446 90.6896 8.8113C90.7741 8.84165 90.8387 8.91157 90.8677 9.0026C90.8921 9.07978 90.8895 9.16686 90.8598 9.248C90.8308 9.32848 90.7767 9.39708 90.7074 9.44062C90.6263 9.49142 90.532 9.50197 90.4482 9.47229C88.5952 8.79679 87.1518 9.01052 86.2685 9.30935C85.3285 9.62731 84.8008 10.1089 84.7955 10.1135C84.7348 10.1715 84.657 10.2025 84.5798 10.2025ZM88.1182 8.65826C87.3425 8.65826 86.6986 8.80009 86.2144 8.96566C85.8556 9.08902 85.5554 9.23151 85.3173 9.36542C85.5495 9.24008 85.8325 9.10881 86.1636 8.99667C87.0984 8.68069 88.6196 8.4531 90.5623 9.16224L90.5537 9.10287C89.6454 8.77634 88.8267 8.65826 88.1182 8.65826Z" fill="black"/>
</g>
</g>
</g>
<g id="Group_24">
<g id="Group_25">
<g id="Group_26">
<path id="Vector_11" d="M95.7815 18.9441C95.7571 18.9441 95.7327 18.9382 95.7103 18.9257C95.639 18.8861 95.6126 18.7964 95.6522 18.7251C96.4286 17.3154 97.4082 16.6848 98.0936 16.4044C98.843 16.0977 99.4057 16.1287 99.4295 16.1307C99.5113 16.1359 99.5726 16.2059 99.568 16.2877C99.5627 16.3688 99.4928 16.4315 99.411 16.4262C99.4018 16.4255 98.8773 16.4005 98.1906 16.6848C97.554 16.9487 96.6424 17.5417 95.9115 18.8683C95.8844 18.9164 95.8336 18.9441 95.7815 18.9441Z" fill="black"/>
<path id="Vector_12" d="M95.7821 19.1093C95.73 19.1093 95.6785 19.0961 95.6324 19.071C95.4806 18.9872 95.4252 18.7966 95.5084 18.6455C96.3085 17.1936 97.3224 16.5425 98.0316 16.2516C98.8232 15.927 99.4169 15.9626 99.4413 15.9653C99.5237 15.9706 99.6003 16.0082 99.6557 16.0708C99.7104 16.1335 99.7381 16.214 99.7329 16.2971C99.7276 16.3809 99.69 16.4581 99.6266 16.5135C99.564 16.5689 99.4828 16.5953 99.4004 16.59C99.3951 16.5907 98.9017 16.5682 98.2539 16.836C97.6424 17.09 96.7644 17.662 96.0559 18.947C96.0011 19.0473 95.8962 19.1093 95.7821 19.1093Z" fill="black"/>
</g>
</g>
</g>
<g id="Group_27">
<g id="Group_28">
<g id="Group_29">
<path id="Vector_13" d="M97.8288 20.3572C97.7807 20.3572 97.7338 20.3341 97.7055 20.2906L96.2364 18.0695C96.1915 18.0015 96.21 17.9098 96.278 17.8643C96.3459 17.8195 96.4376 17.8379 96.4831 17.9059L97.9522 20.127C97.997 20.1949 97.9786 20.2866 97.9106 20.3321C97.8856 20.3493 97.8572 20.3572 97.8288 20.3572Z" fill="black"/>
<path id="Vector_14" d="M97.8284 20.5223C97.7228 20.5223 97.6252 20.4695 97.5671 20.3818L96.098 18.1607C96.0519 18.0914 96.0354 18.0083 96.0525 17.9265C96.069 17.844 96.1165 17.7741 96.1864 17.7279C96.2564 17.6817 96.3395 17.6653 96.4219 17.6824C96.5037 17.6989 96.5743 17.7471 96.6205 17.8163L98.0896 20.0381C98.1846 20.1819 98.1443 20.3758 98.0012 20.4715C97.9491 20.5051 97.8897 20.5223 97.8284 20.5223Z" fill="black"/>
</g>
</g>
</g>
<g id="Group_30">
<path id="Vector_15" d="M95.9877 14.1063C95.5827 6.24902 88.9253 0 80.7712 0C72.7378 0 66.1609 6.06762 65.5811 13.7613C67.6333 12.7012 68.8424 8.8026 68.8424 8.8026C69.9672 8.2122 73.6903 8.28871 77.3607 8.03936C78.814 7.94107 82.991 4.69419 82.991 4.69419C82.5701 6.93837 80.7712 8.07168 80.7712 8.07168L85.939 8.24056C87.5394 7.59936 88.1971 5.19488 88.1971 5.19488C88.5177 7.03865 96.0075 14.8643 96.0075 14.8643L95.9877 14.1063Z" fill="black"/>
</g>
<g id="Group_31">
<g id="Group_32">
<g id="Group_33">
<g id="Group_34">
<path id="Vector_16" d="M84.9424 17.0748C84.9424 17.0748 84.9186 8.0156 93.4534 13.2197C93.4534 13.2197 91.6387 19.443 84.9424 17.0748Z" fill="white"/>
</g>
</g>
</g>
<g id="Group_35">
<g id="Group_36">
<path id="Vector_17" d="M93.1981 13.8768C93.1717 13.551 93.0998 13.2383 92.9876 12.9454C90.188 11.3503 88.3627 11.3589 87.1727 12.0509C86.7148 12.6281 86.4404 13.3577 86.4404 14.1519C86.4404 15.7813 87.5922 17.1422 89.1259 17.4641C91.5304 16.9087 92.7244 14.9237 93.1981 13.8768Z" fill="black"/>
</g>
</g>
</g>
<g id="Group_37">
<g id="Group_38">
<g id="Group_39">
<g id="Group_40">
<path id="Vector_18" d="M84.9424 17.0748C84.9424 17.0748 84.9186 8.0156 93.4534 13.2197C93.4534 13.2197 91.6387 19.443 84.9424 17.0748Z" fill="white"/>
</g>
</g>
</g>
<g id="Group_41">
<g id="Group_42">
<path id="Vector_19" d="M93.1981 13.8768C93.1717 13.551 93.0998 13.2383 92.9876 12.9454C90.188 11.3503 88.3627 11.3589 87.1727 12.0509C86.7148 12.6281 86.4404 13.3577 86.4404 14.1519C86.4404 15.7813 87.5922 17.1422 89.1259 17.4641C91.5304 16.9087 92.7244 14.9237 93.1981 13.8768Z" fill="black"/>
</g>
</g>
</g>
</g>
<g id="Group_43">
<g id="Group_44">
<path id="Vector_20" d="M118.643 150.001L111.766 104.875H50.114L48.6885 150.001H118.643Z" fill="black"/>
</g>
</g>
<g id="Group_45">
<g id="Group_46">
<g id="Group_47">
<path id="Vector_21" d="M117.462 119.117L113.026 124.059L113.996 127.424L115.276 128.773C115.276 128.773 119.932 127.292 120.093 124.333C120.187 122.622 117.462 119.117 117.462 119.117Z" fill="#EF8E4D"/>
</g>
</g>
</g>
<g id="Group_48">
<path id="Vector_22" d="M93.6564 43.1094L104.404 41.7379C114.245 40.4826 124.107 43.8957 131.066 50.9647L163.066 83.4678C171.136 91.306 175.709 106.532 160.002 112.144C149.076 116.047 119.173 126.439 119.173 126.439L113.027 110.44L138.769 99.284L120.775 83.638L113.89 115.796L116.561 136.808H43.1635L46.0383 87.3256L41.6641 64.9292L49.1579 51.687L74.3195 45.0785L74.7681 39.7504L93.7296 37.7305L93.6564 43.1094Z" fill="#99D6FF"/>
</g>
<g id="Group_49">
<g id="Group_50">
<g id="Group_51">
<path id="Vector_23" d="M117.031 65.4131C117.023 65.4131 117.014 65.4124 117.006 65.4111C116.911 65.3973 116.846 65.3095 116.86 65.2152C117.895 58.2544 121.2 52.0898 126.682 46.8929C126.751 46.8276 126.861 46.8303 126.926 46.8995C126.992 46.9688 126.989 47.0776 126.92 47.1436C121.495 52.2864 118.225 58.3843 117.202 65.2666C117.189 65.3517 117.116 65.4131 117.031 65.4131Z" fill="black"/>
<path id="Vector_24" d="M117.032 65.5791L116.981 65.5751C116.799 65.5474 116.671 65.3759 116.698 65.1925C117.738 58.1941 121.06 51.9972 126.569 46.774C126.704 46.646 126.919 46.6519 127.046 46.7865C127.109 46.8525 127.142 46.9375 127.139 47.0279C127.136 47.1176 127.099 47.2014 127.034 47.2634C121.637 52.3805 118.385 58.4461 117.366 65.2915C117.34 65.4551 117.197 65.5791 117.032 65.5791ZM126.807 47.024C121.341 52.1852 118.053 58.3175 117.024 65.24L117.032 65.2492C117.034 65.2492 117.039 65.2479 117.039 65.2426C118.068 58.3221 121.354 52.1925 126.807 47.024Z" fill="black"/>
</g>
</g>
</g>
<g id="Group_52">
<g id="Group_53">
<g id="Group_54">
<path id="Vector_25" d="M120.979 84.825C120.922 84.825 120.865 84.7959 120.833 84.7431C120.803 84.695 117.833 79.8682 116.137 72.9734C116.114 72.881 116.171 72.7873 116.263 72.7649C116.355 72.7418 116.449 72.7986 116.471 72.8916C118.154 79.7303 121.096 84.5142 121.125 84.5617C121.176 84.6429 121.151 84.7491 121.07 84.7992C121.042 84.8164 121.011 84.825 120.979 84.825Z" fill="black"/>
<path id="Vector_26" d="M120.979 84.9892C120.862 84.9892 120.756 84.9298 120.693 84.8302C120.57 84.6304 117.666 79.8801 115.976 73.0123C115.933 72.8322 116.044 72.6488 116.223 72.604C116.311 72.5815 116.402 72.5967 116.48 72.6429C116.556 72.6897 116.611 72.7636 116.633 72.8513C118.318 79.7007 121.237 84.4259 121.266 84.4727C121.364 84.6317 121.316 84.8395 121.159 84.9378C121.105 84.9714 121.043 84.9892 120.979 84.9892ZM116.311 72.9298C117.974 79.7515 120.944 84.6079 120.973 84.6561L120.979 84.6594C120.982 84.6594 120.983 84.6587 120.983 84.6587C120.957 84.6007 118.015 79.8511 116.311 72.9298Z" fill="black"/>
</g>
</g>
</g>
<g id="Group_55">
<g id="Group_56">
<g id="Group_57">
<path id="Vector_27" d="M118.642 112.173C118.642 112.173 118.423 110.907 117.8 109.328C116.746 106.651 113.684 105.376 111.034 106.497L103.961 109.487C103.083 109.859 102.744 110.928 103.25 111.738C103.569 112.25 104.033 112.632 104.563 112.855C105.201 113.122 105.918 113.13 106.573 112.907L111.468 111.245L118.642 112.173Z" fill="#EF8E4D"/>
</g>
</g>
</g>
<g id="Group_58">
<g id="Group_59">
<g id="Group_60">
<path id="Vector_28" d="M119.562 118.948L120.177 115.961C120.265 115.535 120.264 115.093 120.161 114.67C119.73 112.904 118.341 111.495 116.53 111.067L115.14 110.74C113.161 110.272 111.078 110.774 109.527 112.089L104.856 116.048C102.601 117.962 104.89 120.065 107.325 119.72C107.581 119.684 107.827 119.631 108.051 119.565C110.161 118.944 113.89 115.795 113.89 115.795L119.562 118.948Z" fill="#EF8E4D"/>
</g>
</g>
</g>
<g id="Group_61">
<g id="Group_62">
<g id="Group_63">
<g id="Group_64">
<path id="Vector_29" d="M39.4663 41.2969C39.4663 41.2969 41.8015 41.3727 42.9751 42.2851C44.1486 43.1974 39.4531 45.082 39.4531 45.082L39.4663 41.2969Z" fill="#EF8E4D"/>
</g>
</g>
</g>
<g id="Group_65">
<g id="Group_66">
<g id="Group_67">
<path id="Vector_30" d="M35.3467 57.1086C35.3467 57.1086 40.6167 53.3208 40.5053 45.0789C40.4512 41.0794 47.8995 36.275 47.8995 36.275L55.6842 34.709L56.4897 44.0591L49.5935 58.4055L44.2627 64.4065L37.4754 68.6653L35.3467 57.1086Z" fill="#EF8E4D"/>
</g>
</g>
</g>
<g id="Group_68">
<g id="Group_69">
<g id="Group_70">
<path id="Vector_31" d="M69.132 27.299C75.4823 25.5019 79.1733 18.8972 77.3762 12.5469C75.5791 6.19665 68.9744 2.50559 62.6241 4.30269C56.2739 6.0998 52.5828 12.7045 54.3799 19.0548C56.177 25.4051 62.7818 29.0961 69.132 27.299Z" fill="#E58A6E"/>
</g>
</g>
</g>
<g id="Group_71">
<g id="Group_72">
<g id="Group_73">
<path id="Vector_32" d="M43.9606 49.6548L57.4277 25.5545C57.6275 25.1963 58.0807 25.0683 58.4389 25.2682L61.6093 27.0394C61.9675 27.2393 62.0955 27.6925 61.8956 28.0507L48.4285 52.1509C48.2286 52.5091 47.7754 52.6371 47.4172 52.4372L44.2469 50.6654C43.8887 50.4655 43.7607 50.013 43.9606 49.6548Z" fill="#99D6FF"/>
</g>
</g>
</g>
<g id="Group_74">
<g id="Group_75">
<g id="Group_76">
<path id="Vector_33" d="M44.9406 63.6191L49.5938 58.4057C49.5938 58.4057 54.7036 58.0897 57.7638 52.0346C59.4902 48.6189 59.2652 44.9511 60.762 40.8658C61.2455 39.5452 61.7429 38.0688 62.111 36.981C62.4237 36.0555 62.0286 35.0396 61.173 34.5693C59.9011 33.8701 58.3054 34.3068 57.5639 35.5548C56.1331 37.9639 53.6897 42.7624 53.3869 45.0791C53.2266 46.3028 50.3835 49.9165 48.4381 52.3764C43.2953 58.8807 38.832 64.6396 38.832 64.6396L44.9406 63.6191Z" fill="#EF8E4D"/>
</g>
</g>
</g>
<g id="Group_77">
<g id="Group_78">
<g id="Group_79">
<path id="Vector_34" d="M50.5935 36.0803L47.8981 29.5582C47.3684 28.2758 47.9779 26.8067 49.2603 26.277C50.5427 25.7473 52.0118 26.3568 52.5415 27.6392L55.2369 34.1613C55.7666 35.4437 55.1571 36.9128 53.8747 37.4425C52.5923 37.9722 51.1232 37.3627 50.5935 36.0803Z" fill="#EF8E4D"/>
</g>
</g>
</g>
<g id="Group_80">
<g id="Group_81">
<g id="Group_82">
<path id="Vector_35" d="M48.1988 42.8013L43.872 35.132C43.1477 33.8477 43.6781 32.2189 45.0199 31.6074L45.7086 31.2934C46.9725 30.7175 48.464 31.275 49.0405 32.5395L52.6779 40.5228C53.2538 41.7867 52.6964 43.2783 51.4325 43.8541C50.2451 44.3957 48.84 43.9386 48.1988 42.8013Z" fill="#EF8E4D"/>
</g>
</g>
</g>
<g id="Group_83">
<g id="Group_84">
<g id="Group_85">
<path id="Vector_36" d="M50.3896 44.1837C50.1172 44.1837 49.8441 44.1408 49.5802 44.055C48.9562 43.8519 48.435 43.4257 48.1124 42.8538C48.0854 42.8063 48.1026 42.7463 48.1501 42.7192C48.1976 42.6922 48.2576 42.7093 48.2846 42.7568C48.5828 43.2852 49.0643 43.6797 49.6416 43.867C50.2188 44.055 50.8402 44.0194 51.3923 43.7681C52.6048 43.2153 53.1411 41.7792 52.589 40.5674L48.9515 32.5848C48.9291 32.5353 48.9509 32.4766 49.0004 32.4541C49.0498 32.4317 49.1086 32.4535 49.131 32.503L52.7684 40.4862C53.366 41.7977 52.7855 43.3505 51.4741 43.9482C51.1291 44.1045 50.7597 44.1837 50.3896 44.1837Z" fill="black"/>
<path id="Vector_37" d="M50.3898 44.3484C50.0982 44.3484 49.8086 44.3023 49.5289 44.2119C48.8659 43.9962 48.3112 43.5423 47.9688 42.9348C47.9345 42.8747 47.9252 42.8028 47.9444 42.7349C47.9628 42.6669 48.0077 42.6102 48.069 42.5752C48.1297 42.5409 48.201 42.5324 48.2689 42.5508C48.3369 42.57 48.3929 42.6142 48.4279 42.6755C48.705 43.1683 49.1542 43.5357 49.6918 43.7105C50.2288 43.8853 50.8087 43.8524 51.3232 43.6182C52.4525 43.103 52.9532 41.7652 52.438 40.6358L48.8 32.6525C48.7709 32.5886 48.7683 32.5166 48.7927 32.4507C48.8178 32.3847 48.8666 32.3319 48.9306 32.3029C48.9946 32.2745 49.0658 32.2713 49.1318 32.2957C49.1978 32.3207 49.2505 32.3695 49.2796 32.4335L52.9176 40.4168C53.5529 41.8107 52.9354 43.4618 51.5415 44.0971C51.1767 44.264 50.7889 44.3484 50.3898 44.3484Z" fill="black"/>
</g>
</g>
</g>
<g id="Group_86">
<g id="Group_87">
<g id="Group_88">
<path id="Vector_38" d="M44.3619 45.8234L41.2028 40.519C40.493 39.327 40.8835 37.7853 42.0755 37.0749C43.2676 36.3651 44.8099 36.7556 45.5197 37.9476L48.6788 43.252C49.3886 44.444 48.9981 45.9863 47.8061 46.6961C46.614 47.4059 45.0717 47.0154 44.3619 45.8234Z" fill="#EF8E4D"/>
</g>
</g>
</g>
<g id="Group_89">
<g id="Group_90">
<g id="Group_91">
<path id="Vector_39" d="M46.523 47.1489C45.6325 47.1489 44.7637 46.6937 44.2755 45.8744C44.2478 45.8276 44.263 45.7669 44.3099 45.7392C44.3567 45.7115 44.4174 45.7267 44.4451 45.7735C44.7749 46.3276 45.3007 46.7195 45.926 46.8778C46.5508 47.0361 47.1999 46.9418 47.754 46.6119C48.8972 45.9312 49.2739 44.4463 48.5924 43.3031L45.4333 37.9987C45.4056 37.9518 45.4207 37.8911 45.4676 37.8634C45.5144 37.8357 45.5751 37.8509 45.6028 37.8977L48.7619 43.2021C49.4988 44.439 49.0918 46.0446 47.8549 46.7815C47.4373 47.0308 46.9776 47.1489 46.523 47.1489Z" fill="black"/>
<path id="Vector_40" d="M46.5238 47.3139C45.5481 47.3139 44.6325 46.7948 44.1345 45.959C44.0606 45.8343 44.1015 45.6727 44.2255 45.5981C44.3502 45.5236 44.5124 45.5645 44.587 45.6892C44.8944 46.2057 45.3845 46.5712 45.967 46.7189C46.5495 46.8673 47.1538 46.7783 47.6703 46.4709C48.7356 45.8363 49.0859 44.453 48.452 43.3883L45.2928 38.0839C45.2572 38.0232 45.2467 37.9526 45.2638 37.8847C45.281 37.8161 45.3238 37.7587 45.3845 37.723C45.4445 37.6868 45.5158 37.6762 45.5844 37.694C45.653 37.7112 45.7097 37.754 45.746 37.8147L48.9058 43.1185C49.6889 44.4332 49.2561 46.1404 47.9414 46.9241C47.5119 47.1787 47.0218 47.3139 46.5238 47.3139Z" fill="black"/>
</g>
</g>
</g>
<g id="Group_92">
<g id="Group_93">
<g id="Group_94">
<path id="Vector_41" d="M53.4068 37.4191C53.1198 37.4191 52.823 37.334 52.5373 37.1664C52.0789 36.898 51.7009 36.4474 51.4733 35.8972C50.999 34.7501 51.3341 33.5185 52.2194 33.1524C53.1053 32.7863 54.2116 33.4222 54.6859 34.5693C54.9134 35.1195 54.9642 35.7053 54.829 36.2192C54.6905 36.7449 54.3745 37.1341 53.9398 37.3136C53.7696 37.3841 53.5902 37.4191 53.4068 37.4191ZM51.6989 35.8036C51.906 36.3049 52.2477 36.7139 52.6607 36.956C53.0624 37.1915 53.484 37.2383 53.8468 37.0886C54.2096 36.9389 54.4748 36.6077 54.5935 36.1572C54.7156 35.6947 54.6681 35.1637 54.4609 34.6623C54.0381 33.6392 53.0743 33.0633 52.3131 33.378C51.5511 33.6926 51.2761 34.7804 51.6989 35.8036Z" fill="black"/>
<path id="Vector_42" d="M53.4067 37.582C53.0907 37.582 52.7609 37.487 52.4535 37.3069C51.964 37.0199 51.5616 36.541 51.3208 35.9585C50.8122 34.7269 51.1869 33.399 52.1566 32.9979C53.1263 32.5982 54.3295 33.273 54.8382 34.504C55.0789 35.0871 55.1324 35.7105 54.9879 36.2593C54.8368 36.8365 54.4866 37.264 54.0024 37.4645C53.8143 37.5424 53.6138 37.582 53.4067 37.582ZM52.7549 33.4544C52.625 33.4544 52.497 33.4782 52.3756 33.5283C52.057 33.6602 51.8241 33.9571 51.7212 34.3641C51.6137 34.7889 51.6599 35.2771 51.8512 35.7388C52.0445 36.2079 52.3617 36.5885 52.7437 36.8121C53.0999 37.0206 53.4687 37.0648 53.7833 36.9348C54.0973 36.8049 54.3282 36.5133 54.4331 36.1135C54.5459 35.6854 54.5011 35.192 54.3078 34.7236C53.9898 33.9538 53.3486 33.4544 52.7549 33.4544Z" fill="black"/>
</g>
</g>
</g>
<g id="Group_95">
<g id="Group_96">
<g id="Group_97">
<path id="Vector_43" d="M50.7736 43.7935C50.4807 43.7935 50.1832 43.7235 49.8989 43.5837C49.391 43.3343 48.9853 42.8924 48.757 42.3389C48.5281 41.7854 48.5037 41.1865 48.6871 40.6515C48.8725 40.1105 49.2478 39.7002 49.7439 39.4951C50.7617 39.0742 51.9762 39.6653 52.4505 40.8124C52.9248 41.9596 52.4822 43.2354 51.4637 43.6563C51.2427 43.7479 51.0098 43.7935 50.7736 43.7935ZM50.4319 39.6033C50.2307 39.6033 50.0302 39.6409 49.8376 39.7207C49.4075 39.8988 49.0809 40.257 48.9187 40.7306C48.7544 41.2095 48.7775 41.7478 48.9833 42.2459C49.1891 42.7439 49.5533 43.1417 50.0071 43.3647C50.4563 43.5857 50.9405 43.6088 51.3713 43.4313C52.2651 43.0619 52.6484 41.9286 52.2256 40.9061C51.8938 40.1033 51.1628 39.6033 50.4319 39.6033Z" fill="black"/>
<path id="Vector_44" d="M50.7736 43.9581C50.451 43.9581 50.1324 43.8815 49.8263 43.7318C49.2827 43.4646 48.8487 42.9923 48.6046 42.4019C48.3605 41.8115 48.3341 41.171 48.5314 40.5977C48.7326 40.0119 49.1409 39.566 49.6812 39.3424C50.2175 39.1201 50.8198 39.1478 51.3739 39.4169C51.9221 39.6834 52.3588 40.1571 52.6035 40.7488C53.1128 41.9804 52.6292 43.3525 51.5276 43.8083C51.2868 43.9079 51.0335 43.9581 50.7736 43.9581ZM50.4319 39.7679C50.2478 39.7679 50.0691 39.8035 49.9002 39.8728C49.5143 40.0324 49.2207 40.3556 49.0743 40.7837C48.9232 41.2244 48.945 41.7211 49.1356 42.1829C49.3263 42.644 49.6614 43.0108 50.0803 43.2159C50.4873 43.4165 50.9233 43.4376 51.3079 43.2779C51.6958 43.1176 51.99 42.7918 52.1358 42.3597C52.2849 41.9197 52.2625 41.4256 52.0731 40.9678C51.7756 40.2501 51.1166 39.7679 50.4319 39.7679Z" fill="black"/>
</g>
</g>
</g>
<g id="Group_98">
<g id="Group_99">
<g id="Group_100">
<path id="Vector_45" d="M47.4174 46.6311C47.1305 46.6311 46.8336 46.5467 46.548 46.3791C46.0889 46.1106 45.7102 45.6601 45.4833 45.1099C45.2557 44.5598 45.2056 43.9733 45.3415 43.4595C45.4807 42.933 45.7973 42.5445 46.2334 42.3637C47.1206 41.997 48.2288 42.6316 48.7031 43.7794C48.9307 44.3296 48.9809 44.916 48.845 45.4299C48.7058 45.9563 48.3891 46.3448 47.9531 46.5256C47.7822 46.5962 47.6022 46.6311 47.4174 46.6311ZM46.767 42.5036C46.616 42.5036 46.4675 42.5313 46.3257 42.59C45.9616 42.7404 45.6957 43.0716 45.577 43.5221C45.4549 43.9852 45.5011 44.5162 45.7089 45.0169C45.916 45.5183 46.2578 45.9273 46.6714 46.1687C47.0738 46.4042 47.496 46.4504 47.8601 46.3C48.2242 46.1496 48.4901 45.8184 48.6088 45.3679C48.7308 44.9048 48.6847 44.3737 48.4775 43.8731C48.1325 43.0399 47.4287 42.5036 46.767 42.5036Z" fill="black"/>
<path id="Vector_46" d="M47.4173 46.7956C47.1013 46.7956 46.7715 46.7013 46.4647 46.5219C45.9739 46.2356 45.5715 45.7566 45.3307 45.1728C45.09 44.5904 45.0365 43.9663 45.1817 43.4175C45.3341 42.8403 45.685 42.4115 46.1692 42.2116C46.6461 42.013 47.1917 42.0671 47.7042 42.3607C48.2029 42.6463 48.6113 43.1279 48.8547 43.7163C49.0955 44.2994 49.1482 44.9228 49.0038 45.4723C48.8514 46.0495 48.5005 46.4777 48.0156 46.6782C47.8263 46.756 47.6257 46.7956 47.4173 46.7956ZM46.7668 42.6681C46.6343 42.6681 46.5076 42.6932 46.3889 42.742C46.0735 42.8726 45.8413 43.1642 45.7358 43.5639C45.623 43.992 45.6672 44.4861 45.8605 44.9538C46.0538 45.4222 46.3711 45.8028 46.7537 46.0265C47.1112 46.2349 47.4813 46.2778 47.7959 46.1478C48.1106 46.0179 48.3428 45.7256 48.4483 45.3252C48.5611 44.8971 48.517 44.4037 48.3237 43.936C48.0156 43.1892 47.3757 42.6681 46.7668 42.6681Z" fill="black"/>
</g>
</g>
</g>
<g id="Group_101">
<g id="Group_102">
<g id="Group_103">
<g id="Group_104">
<path id="Vector_47" d="M40.9457 48.2013L37.8037 44.8634C37.0016 44.0111 37.0418 42.6694 37.8941 41.8672C38.7464 41.0651 40.0882 41.1053 40.8903 41.9576L44.0323 45.2955C44.8345 46.1478 44.7942 47.4895 43.9419 48.2917C43.0896 49.0939 41.7479 49.0536 40.9457 48.2013Z" fill="#EF8E4D"/>
</g>
</g>
</g>
<g id="Group_105">
<g id="Group_106">
<g id="Group_107">
<path id="Vector_48" d="M43.1754 48.4776C42.614 48.4776 41.9946 48.1696 41.552 47.6108C40.8738 46.7552 40.8613 45.6318 41.5249 45.1054C41.8514 44.8468 42.2868 44.7696 42.7519 44.8884C43.2044 45.0038 43.6332 45.2934 43.9578 45.7031C44.6359 46.5586 44.6484 47.6821 43.9848 48.2078C43.7552 48.3905 43.4736 48.4776 43.1754 48.4776ZM42.3363 45.0783C42.0856 45.0783 41.8587 45.1522 41.6766 45.2967C41.1186 45.7393 41.1489 46.709 41.7432 47.4591C42.3383 48.2091 43.2757 48.4598 43.8337 48.0172C44.3918 47.5745 44.3615 46.6048 43.7671 45.8548C43.4755 45.4867 43.0936 45.2274 42.6919 45.1245C42.5698 45.0935 42.4504 45.0783 42.3363 45.0783Z" fill="black"/>
<path id="Vector_49" d="M43.175 48.6429C42.5391 48.6429 41.8834 48.296 41.4222 47.7135C40.6874 46.7866 40.6874 45.559 41.4222 44.9772C41.7903 44.6856 42.2759 44.5979 42.793 44.7298C43.2805 44.8545 43.7403 45.1639 44.0866 45.6019C44.4376 46.0438 44.6335 46.5683 44.6388 47.0789C44.6447 47.6046 44.4481 48.0519 44.0866 48.3388C43.836 48.5374 43.5207 48.6429 43.175 48.6429ZM42.3359 45.2437C42.1222 45.2437 41.9295 45.307 41.7785 45.4264C41.5502 45.6071 41.4308 45.9027 41.442 46.2582C41.4532 46.6316 41.6063 47.0221 41.8715 47.3572C42.4098 48.0354 43.2436 48.2742 43.7304 47.8889C43.9587 47.7082 44.0781 47.4127 44.0669 47.0571C44.0556 46.6837 43.9026 46.2932 43.6374 45.9581C43.3676 45.6177 43.0173 45.3796 42.6505 45.2852C42.543 45.2575 42.4368 45.2437 42.3359 45.2437Z" fill="black"/>
</g>
</g>
</g>
<g id="Group_108">
<g id="Group_109">
<g id="Group_110">
<path id="Vector_50" d="M42.4906 48.9683C42.4675 48.9683 42.4451 48.9676 42.422 48.9676C41.8296 48.9498 41.2801 48.7024 40.8738 48.271C40.8362 48.2314 40.8381 48.1688 40.8784 48.1318C40.9179 48.0942 40.9806 48.0962 41.0176 48.1358C41.7814 48.9472 43.0632 48.9861 43.8746 48.2222C44.2677 47.8521 44.4933 47.3514 44.5092 46.8118C44.5257 46.2722 44.3304 45.7583 43.961 45.3652L40.819 42.0273C40.7814 41.9877 40.7834 41.925 40.823 41.8881C40.8625 41.8511 40.9252 41.8525 40.9621 41.892L44.1041 45.2306C44.5105 45.662 44.7242 46.226 44.7064 46.8178C44.6886 47.4101 44.4412 47.9596 44.0098 48.366C43.5949 48.7552 43.0579 48.9683 42.4906 48.9683Z" fill="black"/>
<path id="Vector_51" d="M42.4913 49.1323L42.4155 49.131C41.7816 49.1119 41.1911 48.846 40.7538 48.3823C40.6542 48.2768 40.6595 48.1099 40.765 48.0103C40.8712 47.9106 41.0381 47.9159 41.137 48.0215C41.4768 48.3816 41.9366 48.5888 42.4326 48.6039C42.9195 48.6152 43.4004 48.4397 43.7612 48.1013C44.1221 47.7616 44.3292 47.3011 44.3443 46.8057C44.3595 46.3103 44.1808 45.8386 43.8404 45.4771L40.6984 42.1386C40.6502 42.0871 40.6245 42.0205 40.6271 41.9499C40.6291 41.8793 40.6588 41.814 40.7103 41.7665C40.8165 41.6676 40.9834 41.6722 41.0823 41.7777L44.2249 45.1156C44.6616 45.5794 44.8912 46.1856 44.8714 46.8215C44.8523 47.4568 44.5864 48.0478 44.1227 48.4845C43.6787 48.9021 43.0996 49.1323 42.4913 49.1323Z" fill="black"/>
</g>
</g>
</g>
</g>
<g id="Group_111">
<g id="Group_112">
<g id="Group_113">
<g id="Group_114">
<path id="Vector_52" d="M75.4113 18.9695C75.4113 18.9695 72.4923 0.0172958 56.3496 13.6968C56.3496 13.6968 62.1837 26.1164 75.4113 18.9695Z" fill="white"/>
</g>
</g>
</g>
<g id="Group_115">
<g id="Group_116">
<path id="Vector_53" d="M75.0286 17.288C74.0873 13.8834 71.1538 6.71221 63.5293 9.28359C61.8874 10.6201 60.8379 12.6571 60.8379 14.9396C60.8379 17.0505 61.7357 18.951 63.1692 20.2822C65.7874 21.401 69.1959 21.7012 73.456 19.9108C74.1519 19.1654 74.6929 18.2742 75.0286 17.288Z" fill="black"/>
</g>
</g>
</g>
</g>
<g id="Group_117">
<g id="Group_118">
<g id="Group_119">
<path id="Vector_54" d="M120.24 120.83C120.24 120.83 120.25 116.627 119.206 115.431C117.436 113.405 114.397 113.226 112.482 115.024L107.373 119.823C106.738 120.419 106.793 121.462 107.487 122.017C107.927 122.368 108.448 122.562 108.975 122.595C109.609 122.633 110.227 122.42 110.718 122.023L114.385 119.06L120.24 120.83Z" fill="#EF8E4D"/>
</g>
</g>
</g>
<g id="Group_120">
<g id="Group_121">
<g id="Group_122">
<path id="Vector_55" d="M120.31 119.903C119.137 117.575 116.517 116.966 114.803 118.394L110.229 122.206C109.66 122.68 109.626 123.702 110.156 124.356C110.491 124.77 110.906 125.045 111.338 125.163C111.857 125.305 112.383 125.201 112.817 124.897L115.07 123.139C118.236 120.927 117.3 122.601 119.173 126.439C119.173 126.439 121.818 122.894 120.31 119.903Z" fill="#EF8E4D"/>
</g>
</g>
</g>
<g id="Group_123">
<g id="Group_124">
<g id="Group_125">
<path id="Vector_56" d="M141.075 96.9309C141.059 96.9295 141.043 96.9263 141.027 96.9203C140.938 96.8867 140.892 96.7871 140.926 96.698L143.785 89.1059C143.819 89.0168 143.918 88.972 144.007 89.005C144.097 89.0386 144.141 89.1382 144.108 89.2273L141.249 96.8194C141.222 96.8926 141.149 96.9361 141.075 96.9309Z" fill="black"/>
<path id="Vector_57" d="M141.087 97.0951C141.079 97.0951 141.071 97.0944 141.063 97.0944L141.062 97.0938C141.031 97.0918 141.001 97.0845 140.97 97.074C140.794 97.0067 140.707 96.8121 140.771 96.6386L143.63 89.0465C143.663 88.9621 143.725 88.8954 143.807 88.8578C143.889 88.8216 143.98 88.8183 144.066 88.8493C144.151 88.8816 144.217 88.9449 144.255 89.0274C144.292 89.1092 144.295 89.2015 144.262 89.2853L141.404 96.8761C141.354 97.008 141.226 97.0951 141.087 97.0951ZM143.953 89.1686L141.081 96.7554L141.075 96.9302L141.088 96.7659C141.088 96.7659 141.094 96.7659 141.095 96.7606L143.953 89.1686Z" fill="black"/>
</g>
</g>
</g>
<g id="Group_126">
<g id="Group_127">
<g id="Group_128">
<path id="Vector_58" d="M35.347 54.3945C35.347 54.3945 13.1485 73.92 4.33931 82.9456C-2.20854 89.6544 -1.13395 97.5928 6.14415 103.501C10.6959 107.196 16.9838 106.475 21.8449 103.199C29.8684 97.7914 50.5232 84.257 50.5232 84.257L48.6386 62.608L35.347 54.3945Z" fill="#99D6FF"/>
</g>
</g>
</g>
<g id="Group_129">
<g id="Group_130">
<g id="Group_131">
<g id="Group_132">
<path id="Vector_59" d="M104.438 112.05C103.704 112.05 103.094 111.746 102.905 111.215C102.771 110.836 102.865 110.406 103.171 110.003C103.465 109.615 103.923 109.296 104.461 109.105C105.59 108.704 106.728 108.998 106.999 109.761C107.269 110.523 106.571 111.469 105.443 111.87C105.101 111.993 104.758 112.05 104.438 112.05ZM105.48 109.167C105.185 109.167 104.864 109.221 104.543 109.335C104.049 109.511 103.63 109.8 103.365 110.151C103.111 110.486 103.029 110.835 103.135 111.134C103.361 111.77 104.359 111.997 105.361 111.642C106.363 111.285 106.995 110.479 106.769 109.843C106.616 109.411 106.106 109.167 105.48 109.167Z" fill="black"/>
<path id="Vector_60" d="M104.437 112.214C103.603 112.214 102.957 111.852 102.749 111.269C102.596 110.836 102.698 110.351 103.038 109.902C103.352 109.489 103.837 109.15 104.405 108.949C105.62 108.518 106.853 108.857 107.153 109.704C107.454 110.553 106.711 111.594 105.498 112.025C105.152 112.148 104.784 112.214 104.437 112.214ZM105.479 109.331C105.194 109.331 104.889 109.386 104.598 109.489C104.134 109.654 103.743 109.923 103.496 110.249C103.276 110.538 103.203 110.832 103.29 111.077C103.482 111.617 104.406 111.805 105.306 111.484C105.761 111.323 106.148 111.06 106.395 110.744C106.626 110.451 106.703 110.15 106.613 109.897C106.49 109.548 106.055 109.331 105.479 109.331Z" fill="black"/>
</g>
</g>
</g>
<g id="Group_133">
<g id="Group_134">
<g id="Group_135">
<path id="Vector_61" d="M105.711 119.107C105.112 119.107 104.589 118.883 104.3 118.444C104.031 118.036 104 117.51 104.213 116.963C104.42 116.43 104.836 115.938 105.384 115.578C106.527 114.825 107.9 114.886 108.445 115.714C108.99 116.542 108.504 117.828 107.361 118.58C106.826 118.933 106.239 119.107 105.711 119.107ZM107.037 115.291C106.556 115.291 106.015 115.453 105.517 115.781C105.012 116.114 104.63 116.564 104.44 117.051C104.257 117.522 104.279 117.969 104.503 118.309C104.974 119.025 106.196 119.055 107.227 118.376C108.257 117.697 108.712 116.562 108.241 115.847C107.998 115.477 107.553 115.291 107.037 115.291Z" fill="black"/>
<path id="Vector_62" d="M105.71 119.27C105.035 119.27 104.47 119.002 104.161 118.533C103.862 118.078 103.826 117.5 104.059 116.901C104.278 116.336 104.717 115.816 105.292 115.438C106.51 114.634 107.986 114.716 108.582 115.62C109.176 116.524 108.67 117.913 107.451 118.716C106.91 119.074 106.291 119.27 105.71 119.27ZM107.037 115.454C106.569 115.454 106.061 115.618 105.608 115.917C105.13 116.232 104.77 116.655 104.594 117.11C104.431 117.53 104.447 117.923 104.64 118.218C105.062 118.857 106.181 118.867 107.135 118.237C108.09 117.609 108.524 116.576 108.103 115.937C107.898 115.626 107.52 115.454 107.037 115.454Z" fill="black"/>
</g>
</g>
</g>
<g id="Group_136">
<g id="Group_137">
<g id="Group_138">
<path id="Vector_63" d="M108.34 122.296C107.893 122.296 107.523 122.14 107.286 121.846C107.018 121.514 106.957 121.052 107.116 120.544C107.269 120.054 107.61 119.577 108.077 119.2C108.543 118.824 109.082 118.591 109.593 118.545C110.123 118.498 110.562 118.654 110.83 118.987C111.098 119.319 111.159 119.782 111 120.289C110.847 120.779 110.506 121.257 110.039 121.633C109.573 122.01 109.034 122.243 108.523 122.288C108.461 122.294 108.4 122.296 108.34 122.296ZM107.476 121.693C107.691 121.961 108.055 122.085 108.501 122.045C108.965 122.003 109.457 121.79 109.886 121.443C110.316 121.096 110.629 120.66 110.768 120.216C110.901 119.788 110.856 119.406 110.64 119.139C110.425 118.872 110.061 118.747 109.615 118.788C109.151 118.829 108.659 119.043 108.23 119.39C107.8 119.736 107.488 120.172 107.349 120.617C107.215 121.044 107.261 121.427 107.476 121.693Z" fill="black"/>
<path id="Vector_64" d="M108.34 122.46C107.844 122.46 107.424 122.278 107.158 121.949C106.854 121.573 106.783 121.056 106.959 120.495C107.121 119.974 107.482 119.468 107.973 119.071C108.465 118.675 109.035 118.429 109.579 118.38C110.165 118.328 110.655 118.506 110.96 118.882C111.263 119.258 111.334 119.776 111.158 120.337C110.997 120.858 110.636 121.364 110.144 121.76C109.652 122.158 109.082 122.403 108.538 122.451C108.471 122.457 108.405 122.46 108.34 122.46ZM109.775 118.944C109.729 118.944 109.68 118.946 109.63 118.951C109.198 118.991 108.738 119.191 108.334 119.517C107.929 119.844 107.635 120.251 107.506 120.665C107.39 121.038 107.425 121.366 107.604 121.588C107.783 121.811 108.09 121.914 108.486 121.879C108.917 121.84 109.378 121.639 109.783 121.313C110.186 120.987 110.481 120.579 110.611 120.166C110.727 119.793 110.692 119.464 110.513 119.242C110.356 119.047 110.097 118.944 109.775 118.944Z" fill="black"/>
</g>
</g>
</g>
<g id="Group_139">
<g id="Group_140">
<g id="Group_141">
<path id="Vector_65" d="M111.052 124.686C110.644 124.686 110.286 124.548 110.059 124.266C109.55 123.636 109.883 122.522 110.799 121.782C111.236 121.429 111.741 121.212 112.22 121.168C112.718 121.123 113.131 121.271 113.383 121.583C113.891 122.213 113.559 123.327 112.643 124.067C112.136 124.476 111.555 124.686 111.052 124.686ZM110.248 124.113C110.672 124.638 111.677 124.532 112.489 123.877C113.3 123.222 113.616 122.262 113.192 121.737C112.993 121.489 112.655 121.374 112.241 121.411C111.809 121.45 111.352 121.65 110.952 121.972C110.14 122.627 109.824 123.588 110.248 124.113Z" fill="black"/>
<path id="Vector_66" d="M111.052 124.85C110.578 124.85 110.18 124.679 109.93 124.369C109.364 123.668 109.707 122.451 110.694 121.654C111.157 121.281 111.693 121.051 112.204 121.004C112.76 120.956 113.222 121.124 113.51 121.48C114.075 122.181 113.732 123.399 112.745 124.196C112.229 124.611 111.612 124.85 111.052 124.85ZM112.39 121.568C112.347 121.568 112.301 121.571 112.256 121.575C111.857 121.611 111.43 121.797 111.055 122.099C110.686 122.396 110.416 122.767 110.293 123.142C110.178 123.491 110.207 123.799 110.376 124.008C110.545 124.217 110.835 124.312 111.206 124.273C111.599 124.231 112.018 124.045 112.385 123.749C113.113 123.16 113.424 122.286 113.064 121.84C112.921 121.663 112.685 121.568 112.39 121.568Z" fill="black"/>
</g>
</g>
</g>
</g>
<g id="Group_142">
<g id="Group_143">
<g id="Group_144">
<path id="Vector_67" d="M110.156 124.455C110.127 124.455 110.098 124.442 110.079 124.419C109.518 123.727 109.56 122.636 110.165 122.131L114.74 118.319C115.54 117.652 116.585 117.391 117.608 117.604C118.781 117.847 119.798 118.669 120.398 119.859C120.422 119.908 120.403 119.967 120.354 119.992C120.305 120.016 120.246 119.997 120.221 119.948C119.649 118.812 118.681 118.028 117.568 117.797C116.59 117.594 115.63 117.833 114.866 118.47L110.291 122.283C109.764 122.723 109.735 123.682 110.232 124.295C110.266 124.337 110.26 124.399 110.218 124.433C110.199 124.448 110.177 124.455 110.156 124.455Z" fill="black"/>
<path id="Vector_68" d="M110.155 124.62C110.074 124.62 109.999 124.584 109.949 124.521C109.336 123.764 109.388 122.564 110.059 122.004L114.634 118.193C115.472 117.494 116.569 117.22 117.642 117.443C118.864 117.697 119.923 118.551 120.546 119.786C120.577 119.849 120.583 119.92 120.56 119.987C120.538 120.054 120.491 120.108 120.427 120.14C120.366 120.172 120.296 120.178 120.228 120.155C120.16 120.133 120.106 120.086 120.075 120.024C119.524 118.933 118.599 118.18 117.534 117.959C116.607 117.769 115.695 117.994 114.97 118.598L110.396 122.41C109.941 122.788 109.923 123.655 110.358 124.192C110.403 124.246 110.423 124.314 110.416 124.385C110.408 124.455 110.373 124.518 110.318 124.563C110.275 124.599 110.216 124.62 110.155 124.62Z" fill="black"/>
</g>
</g>
</g>
<g id="Group_145">
<g id="Group_146">
<g id="Group_147">
<path id="Vector_69" d="M107.374 119.922C107.347 119.922 107.321 119.911 107.302 119.891C107.265 119.851 107.267 119.788 107.306 119.751L112.416 114.953C113.584 113.856 115.493 113.411 117.059 113.871C118.1 114.177 119.456 115.005 120.01 117.214C120.023 117.266 119.991 117.32 119.938 117.333C119.885 117.346 119.832 117.314 119.818 117.261C119.288 115.143 117.995 114.351 117.004 114.06C115.501 113.618 113.67 114.045 112.551 115.096L107.442 119.895C107.422 119.913 107.397 119.922 107.374 119.922Z" fill="black"/>
<path id="Vector_70" d="M107.374 120.086C107.301 120.086 107.231 120.056 107.181 120.003C107.133 119.952 107.108 119.884 107.111 119.814C107.113 119.744 107.142 119.678 107.194 119.63L112.303 114.833C113.511 113.698 115.483 113.238 117.104 113.712C118.187 114.03 119.597 114.889 120.169 117.174C120.205 117.314 120.119 117.457 119.979 117.493C119.832 117.529 119.694 117.442 119.658 117.302C119.147 115.259 117.907 114.497 116.957 114.218C115.507 113.792 113.743 114.203 112.663 115.217L107.554 120.016C107.504 120.061 107.44 120.086 107.374 120.086Z" fill="black"/>
</g>
</g>
</g>
<g id="Group_148">
<g id="Group_149">
<g id="Group_150">
<path id="Vector_71" d="M118.642 112.273C118.627 112.273 118.611 112.269 118.597 112.261C118.576 112.25 116.479 111.158 115.116 110.837C113.118 110.366 111.156 110.837 109.59 112.166C109.549 112.201 109.487 112.196 109.451 112.155C109.416 112.113 109.421 112.051 109.462 112.015C111.077 110.645 113.1 110.158 115.161 110.645C116.547 110.972 118.6 112.041 118.687 112.087C118.735 112.112 118.754 112.172 118.729 112.22C118.712 112.253 118.677 112.273 118.642 112.273Z" fill="black"/>
<path id="Vector_72" d="M118.643 112.437C118.6 112.437 118.558 112.427 118.521 112.407C118.432 112.362 116.387 111.306 115.078 110.996C113.134 110.538 111.22 110.995 109.697 112.29C109.587 112.384 109.421 112.372 109.326 112.261C109.232 112.148 109.246 111.982 109.356 111.889C111.012 110.484 113.086 109.984 115.199 110.484C116.553 110.803 118.539 111.823 118.76 111.937C118.893 112.008 118.942 112.168 118.874 112.296C118.831 112.383 118.741 112.437 118.643 112.437Z" fill="black"/>
</g>
</g>
</g>
<g id="Group_151">
<g id="Group_152">
<path id="Vector_73" d="M48.079 75.0185L45.8691 94.6426L45.9498 94.6517L48.1596 75.0276L48.079 75.0185Z" fill="black"/>
<path id="Vector_74" d="M47.7651 74.65L45.5039 94.9316L46.2408 95.0138L48.502 74.7322L47.7651 74.65Z" fill="black"/>
</g>
</g>
<g id="Group_153">
<g id="Group_154">
<path id="Vector_75" d="M65.8609 28.9819C63.6392 28.9819 61.4432 28.4146 59.4503 27.3011C56.3763 25.5833 54.1558 22.7718 53.1967 19.3837C52.2375 15.9957 52.6557 12.4368 54.3735 9.36339C56.0913 6.28934 58.9028 4.0689 62.2908 3.10974C65.6789 2.15059 69.2378 2.56882 72.3112 4.28659C75.3852 6.00436 77.6056 8.81586 78.5648 12.2039C79.524 15.592 79.1057 19.1502 77.388 22.2242C75.6702 25.2983 72.8587 27.5187 69.4706 28.4779C68.2793 28.815 67.0662 28.9819 65.8609 28.9819ZM56.5247 10.566C55.1282 13.0648 54.7884 15.9581 55.5682 18.7128C56.3479 21.4676 58.1534 23.7534 60.6522 25.1499C62.2724 26.0549 64.0581 26.516 65.8642 26.5167C66.8445 26.5167 67.8301 26.3808 68.7991 26.107C71.5539 25.3273 73.8396 23.5218 75.2361 21.023C76.6326 18.5242 76.9724 15.6309 76.1927 12.8761C75.4129 10.1213 73.6074 7.8356 71.1086 6.43908C68.6098 5.04257 65.7165 4.70284 62.9617 5.48256C60.2076 6.26097 57.9212 8.06714 56.5247 10.566Z" fill="#99D6FF"/>
</g>
</g>
<g id="Group_155">
<path id="Vector_76" d="M148.806 94.3448L138.621 98.9785L138.894 99.5789L149.079 94.9452L148.806 94.3448Z" fill="black"/>
</g>
<g id="Group_156">
<path id="Vector_77" d="M21.1775 98.1235C21.101 98.1235 21.0238 98.0971 20.9618 98.043C20.8239 97.9236 20.8088 97.7159 20.9282 97.578L50.0234 63.9699L36.8624 55.7201C36.7081 55.6232 36.6612 55.4193 36.7582 55.2656C36.8552 55.1119 37.059 55.0651 37.2127 55.1614L50.6996 63.6157C50.7814 63.6671 50.8362 63.7516 50.8507 63.8466C50.8652 63.9422 50.8368 64.0385 50.7735 64.1111L21.4262 98.0101C21.3622 98.0853 21.2699 98.1235 21.1775 98.1235Z" fill="black"/>
</g>
<g id="Group_157">
<path id="Vector_78" d="M38.1285 53.9355L48.4075 59.7353L46.6976 61.6668L37.0381 55.4396L38.1285 53.9355Z" fill="black"/>
</g>
</g>
</svg>
