<svg width="24" height="24" viewBox="0 0 24 24" fill="none" xmlns="http://www.w3.org/2000/svg">
<path fill-rule="evenodd" clip-rule="evenodd" d="M14.6303 3.22813C14.5867 2.78847 14.5643 2.56813 14.476 2.39551C14.3631 2.17776 14.1752 2.00824 13.947 1.91828C13.7672 1.84619 13.5459 1.84619 13.1032 1.84619H11.8197C11.377 1.84619 11.1557 1.84619 10.977 1.91727C10.7481 2.00752 10.5597 2.17783 10.4469 2.39653C10.3586 2.56813 10.3363 2.78847 10.2926 3.22915C10.2093 4.06176 10.1677 4.47807 9.99306 4.70653C9.88437 4.84919 9.73982 4.96052 9.57413 5.02919C9.40844 5.09786 9.22752 5.12141 9.04977 5.09745C8.76546 5.05887 8.44054 4.79385 7.79272 4.26382C7.45054 3.98358 7.27894 3.84345 7.09516 3.78456C6.86108 3.70976 6.60783 3.72239 6.38236 3.8201C6.20466 3.89625 6.04728 4.05364 5.73556 4.36638L4.8278 5.27311C4.51506 5.58585 4.35869 5.74324 4.28152 5.91991C4.18382 6.14539 4.17119 6.39864 4.24599 6.63271C4.30488 6.81751 4.445 6.9881 4.72525 7.3313C5.25629 7.98013 5.52131 8.30404 5.55989 8.58936C5.58366 8.76695 5.56002 8.94766 5.49136 9.11316C5.4227 9.27865 5.31147 9.42303 5.16897 9.53164C4.94051 9.70628 4.5242 9.74791 3.69057 9.83118C3.24989 9.87484 3.02956 9.89718 2.85796 9.98551C2.63944 10.098 2.46916 10.286 2.37869 10.5145C2.30762 10.6943 2.30762 10.9156 2.30762 11.3583V12.6418C2.30762 13.0845 2.30762 13.3058 2.37869 13.4845C2.46895 13.7134 2.63926 13.9018 2.85796 14.0146C3.02956 14.1029 3.24989 14.1252 3.69057 14.1689C4.52319 14.2522 4.93949 14.2938 5.16897 14.4684C5.31129 14.5772 5.42232 14.7216 5.49079 14.8871C5.55927 15.0526 5.58276 15.2332 5.55888 15.4107C5.52131 15.696 5.25629 16.0199 4.72626 16.6688C4.445 17.011 4.30488 17.1826 4.24599 17.3663C4.17119 17.6004 4.18382 17.8537 4.28152 18.0791C4.35869 18.2568 4.51506 18.4142 4.8278 18.7259L5.73556 19.6337C6.04829 19.9464 6.20466 20.1028 6.38236 20.18C6.60783 20.2777 6.86108 20.2903 7.09516 20.2155C7.27894 20.1566 7.45054 20.0165 7.79272 19.7363C8.44156 19.2052 8.76546 18.9402 9.05079 18.9016C9.22837 18.8778 9.40909 18.9015 9.57458 18.9701C9.74008 19.0388 9.88446 19.15 9.99306 19.2925C10.1677 19.521 10.2093 19.9383 10.2926 20.7719C10.3363 21.2116 10.3586 21.4319 10.4469 21.6046C10.5598 21.8223 10.7478 21.9918 10.976 22.0818C11.1557 22.1539 11.377 22.1539 11.8197 22.1539H13.1032C13.5459 22.1539 13.7672 22.1539 13.946 22.0828C14.1747 21.9928 14.363 21.8229 14.476 21.6046C14.5643 21.4319 14.5867 21.2116 14.6303 20.7719C14.7136 19.9373 14.7552 19.521 14.9299 19.2925C15.0386 19.1499 15.1831 19.0385 15.3488 18.9699C15.5145 18.9012 15.6954 18.8777 15.8732 18.9016C16.1575 18.9402 16.4824 19.2052 17.1302 19.7352C17.4724 20.0155 17.644 20.1556 17.8278 20.2145C18.0618 20.2893 18.3151 20.2767 18.5406 20.179C18.7183 20.1028 18.8756 19.9454 19.1874 19.6327L20.0951 18.7259C20.4079 18.4132 20.5642 18.2568 20.6414 18.0791C20.7391 17.8537 20.7517 17.6004 20.6769 17.3663C20.618 17.1815 20.4779 17.011 20.1977 16.6688C19.6676 16.0199 19.4026 15.696 19.364 15.4117C19.3399 15.2338 19.3634 15.0527 19.432 14.8868C19.5007 14.7209 19.6121 14.5762 19.755 14.4674C19.9834 14.2948 20.3997 14.2522 21.2334 14.1689C21.673 14.1252 21.8934 14.1029 22.066 14.0146C22.2841 13.9018 22.454 13.7139 22.5442 13.4855C22.6153 13.3058 22.6153 13.0845 22.6153 12.6418V11.3583C22.6153 10.9156 22.6153 10.6943 22.5442 10.5155C22.454 10.2866 22.2837 10.0983 22.065 9.98551C21.8934 9.89718 21.673 9.87484 21.2324 9.83118C20.3997 9.74791 19.9834 9.70628 19.754 9.53164C19.6116 9.42291 19.5006 9.27848 19.4321 9.113C19.3637 8.94751 19.3402 8.76686 19.364 8.58936C19.4016 8.30404 19.6666 7.98013 20.1967 7.3313C20.4779 6.98911 20.618 6.81751 20.6769 6.63373C20.7517 6.39966 20.7391 6.1464 20.6414 5.92093C20.5642 5.74324 20.4079 5.58585 20.0951 5.27413L19.1874 4.36638C18.8746 4.05364 18.7183 3.89727 18.5406 3.8201C18.3151 3.72239 18.0618 3.70976 17.8278 3.78456C17.644 3.84345 17.4724 3.98358 17.1302 4.26382C16.4814 4.79487 16.1575 5.05988 15.8732 5.09745C15.6955 5.12152 15.5146 5.09813 15.349 5.02964C15.1833 4.96116 15.0387 4.85003 14.9299 4.70754C14.7552 4.47908 14.7136 4.06176 14.6303 3.22813Z" stroke="#333333" stroke-width="1.5"/>
<path d="M12.4616 14.7692C13.991 14.7692 15.2308 13.5293 15.2308 11.9999C15.2308 10.4705 13.991 9.23071 12.4616 9.23071C10.9322 9.23071 9.69238 10.4705 9.69238 11.9999C9.69238 13.5293 10.9322 14.7692 12.4616 14.7692Z" stroke="#333333" stroke-width="1.5"/>
</svg>
